G04 #@! TF.FileFunction,Profile,NP*
%FSLAX46Y46*%
G04 Gerber Fmt 4.6, Leading zero omitted, Abs format (unit mm)*
G04 Created by KiCad (PCBNEW 4.0.7) date 2017 October 30, Monday 23:29:17*
%MOMM*%
%LPD*%
G01*
G04 APERTURE LIST*
%ADD10C,0.100000*%
%ADD11C,0.150000*%
G04 APERTURE END LIST*
D10*
D11*
X79756000Y-41402000D02*
X79756000Y-48768000D01*
X92964000Y-41402000D02*
X79756000Y-41402000D01*
X92964000Y-48768000D02*
X92964000Y-41402000D01*
X79756000Y-48768000D02*
X92964000Y-48768000D01*
X80264000Y-50546000D02*
X80264000Y-52959000D01*
X93218000Y-50546000D02*
X80264000Y-50546000D01*
X93218000Y-52959000D02*
X93218000Y-50546000D01*
X80264000Y-52959000D02*
X93218000Y-52959000D01*
X97409000Y-64389000D02*
X97409000Y-86360000D01*
X179451000Y-64389000D02*
X97409000Y-64389000D01*
X179451000Y-86360000D02*
X179451000Y-64389000D01*
X97409000Y-86360000D02*
X179451000Y-86360000D01*
X248700000Y-27305000D02*
X76200000Y-27305000D01*
X248700000Y-155575000D02*
X248700000Y-27305000D01*
X76200000Y-155575000D02*
X248700000Y-155575000D01*
X76200000Y-27305000D02*
X76200000Y-155575000D01*
X97430000Y-64380000D02*
X97430000Y-86380000D01*
X97430000Y-86380000D02*
X179430000Y-86380000D01*
X179430000Y-64380000D02*
X179430000Y-86380000D01*
X97430000Y-64380000D02*
X179430000Y-64380000D01*
X92910000Y-41495000D02*
X92910000Y-48645000D01*
X79810000Y-41495000D02*
X79810000Y-48645000D01*
X79810000Y-48645000D02*
X92910000Y-48645000D01*
X79810000Y-41495000D02*
X92910000Y-41495000D01*
X93160000Y-52870000D02*
X93160000Y-50570000D01*
X93160000Y-50570000D02*
X80360000Y-50570000D01*
X93160000Y-52870000D02*
X80360000Y-52870000D01*
X80360000Y-52870000D02*
X80360000Y-50570000D01*
X89910000Y-76200000D02*
G75*
G03X89910000Y-76200000I-3550000J0D01*
G01*
X173910000Y-104150000D02*
X163910000Y-104150000D01*
X173910000Y-99050000D02*
X173910000Y-104150000D01*
X163910000Y-99050000D02*
X173910000Y-99050000D01*
X163910000Y-104150000D02*
X163910000Y-99050000D01*
X158670000Y-104150000D02*
X148670000Y-104150000D01*
X158670000Y-99050000D02*
X158670000Y-104150000D01*
X148670000Y-99050000D02*
X158670000Y-99050000D01*
X148670000Y-104150000D02*
X148670000Y-99050000D01*
X143430000Y-104150000D02*
X133430000Y-104150000D01*
X143430000Y-99050000D02*
X143430000Y-104150000D01*
X133430000Y-99050000D02*
X143430000Y-99050000D01*
X133430000Y-104150000D02*
X133430000Y-99050000D01*
X128190000Y-104150000D02*
X118190000Y-104150000D01*
X128190000Y-99050000D02*
X128190000Y-104150000D01*
X118190000Y-99050000D02*
X128190000Y-99050000D01*
X118190000Y-104150000D02*
X118190000Y-99050000D01*
X112950000Y-104150000D02*
X102950000Y-104150000D01*
X112950000Y-99050000D02*
X112950000Y-104150000D01*
X102950000Y-99050000D02*
X112950000Y-99050000D01*
X102950000Y-104150000D02*
X102950000Y-99050000D01*
M02*
