G04 #@! TF.FileFunction,Profile,NP*
%FSLAX46Y46*%
G04 Gerber Fmt 4.6, Leading zero omitted, Abs format (unit mm)*
G04 Created by KiCad (PCBNEW 4.0.7) date 2019 January 06, Sunday 21:44:51*
%MOMM*%
%LPD*%
G01*
G04 APERTURE LIST*
%ADD10C,0.100000*%
%ADD11C,0.150000*%
G04 APERTURE END LIST*
D10*
D11*
X248700000Y-27305000D02*
X76200000Y-27305000D01*
X248700000Y-155575000D02*
X248700000Y-27305000D01*
X76200000Y-155575000D02*
X248700000Y-155575000D01*
X76200000Y-27305000D02*
X76200000Y-155575000D01*
X111500000Y-75565000D02*
G75*
G03X111500000Y-75565000I-3550000J0D01*
G01*
X120925000Y-64380000D02*
X120925000Y-86380000D01*
X120925000Y-86380000D02*
X202925000Y-86380000D01*
X202925000Y-64380000D02*
X202925000Y-86380000D01*
X120925000Y-64380000D02*
X202925000Y-64380000D01*
X126445000Y-99050000D02*
X136445000Y-99050000D01*
X126445000Y-104150000D02*
X126445000Y-99050000D01*
X136445000Y-104150000D02*
X126445000Y-104150000D01*
X136445000Y-99050000D02*
X136445000Y-104150000D01*
X141685000Y-99050000D02*
X151685000Y-99050000D01*
X141685000Y-104150000D02*
X141685000Y-99050000D01*
X151685000Y-104150000D02*
X141685000Y-104150000D01*
X151685000Y-99050000D02*
X151685000Y-104150000D01*
X156925000Y-99050000D02*
X166925000Y-99050000D01*
X156925000Y-104150000D02*
X156925000Y-99050000D01*
X166925000Y-104150000D02*
X156925000Y-104150000D01*
X166925000Y-99050000D02*
X166925000Y-104150000D01*
X172165000Y-99050000D02*
X182165000Y-99050000D01*
X172165000Y-104150000D02*
X172165000Y-99050000D01*
X182165000Y-104150000D02*
X172165000Y-104150000D01*
X182165000Y-99050000D02*
X182165000Y-104150000D01*
X187405000Y-99050000D02*
X197405000Y-99050000D01*
X187405000Y-104150000D02*
X187405000Y-99050000D01*
X197405000Y-104150000D02*
X187405000Y-104150000D01*
X197405000Y-99050000D02*
X197405000Y-104150000D01*
X93660000Y-52920000D02*
X93660000Y-50520000D01*
X93660000Y-50520000D02*
X79860000Y-50520000D01*
X93660000Y-52920000D02*
X79860000Y-52920000D01*
X79860000Y-52920000D02*
X79860000Y-50520000D01*
X92910000Y-41060000D02*
X92910000Y-47280000D01*
X79810000Y-41060000D02*
X79810000Y-47280000D01*
X79810000Y-47280000D02*
X92910000Y-47280000D01*
X79810000Y-41060000D02*
X92910000Y-41060000D01*
M02*
