G04 #@! TF.FileFunction,Legend,Top*
%FSLAX46Y46*%
G04 Gerber Fmt 4.6, Leading zero omitted, Abs format (unit mm)*
G04 Created by KiCad (PCBNEW 4.0.7) date 2018 May 15, Tuesday 21:06:43*
%MOMM*%
%LPD*%
G01*
G04 APERTURE LIST*
%ADD10C,0.100000*%
%ADD11C,0.150000*%
%ADD12C,0.250000*%
%ADD13C,0.300000*%
%ADD14C,0.500000*%
%ADD15C,0.200000*%
G04 APERTURE END LIST*
D10*
D11*
X189817857Y-115974762D02*
X189960714Y-116022381D01*
X190198810Y-116022381D01*
X190294048Y-115974762D01*
X190341667Y-115927143D01*
X190389286Y-115831905D01*
X190389286Y-115736667D01*
X190341667Y-115641429D01*
X190294048Y-115593810D01*
X190198810Y-115546190D01*
X190008333Y-115498571D01*
X189913095Y-115450952D01*
X189865476Y-115403333D01*
X189817857Y-115308095D01*
X189817857Y-115212857D01*
X189865476Y-115117619D01*
X189913095Y-115070000D01*
X190008333Y-115022381D01*
X190246429Y-115022381D01*
X190389286Y-115070000D01*
X191008333Y-115022381D02*
X191198810Y-115022381D01*
X191294048Y-115070000D01*
X191389286Y-115165238D01*
X191436905Y-115355714D01*
X191436905Y-115689048D01*
X191389286Y-115879524D01*
X191294048Y-115974762D01*
X191198810Y-116022381D01*
X191008333Y-116022381D01*
X190913095Y-115974762D01*
X190817857Y-115879524D01*
X190770238Y-115689048D01*
X190770238Y-115355714D01*
X190817857Y-115165238D01*
X190913095Y-115070000D01*
X191008333Y-115022381D01*
X191865476Y-116022381D02*
X191865476Y-115022381D01*
X192436905Y-116022381D01*
X192436905Y-115022381D01*
X193436905Y-115070000D02*
X193341667Y-115022381D01*
X193198810Y-115022381D01*
X193055952Y-115070000D01*
X192960714Y-115165238D01*
X192913095Y-115260476D01*
X192865476Y-115450952D01*
X192865476Y-115593810D01*
X192913095Y-115784286D01*
X192960714Y-115879524D01*
X193055952Y-115974762D01*
X193198810Y-116022381D01*
X193294048Y-116022381D01*
X193436905Y-115974762D01*
X193484524Y-115927143D01*
X193484524Y-115593810D01*
X193294048Y-115593810D01*
X178784524Y-115070000D02*
X178689286Y-115022381D01*
X178546429Y-115022381D01*
X178403571Y-115070000D01*
X178308333Y-115165238D01*
X178260714Y-115260476D01*
X178213095Y-115450952D01*
X178213095Y-115593810D01*
X178260714Y-115784286D01*
X178308333Y-115879524D01*
X178403571Y-115974762D01*
X178546429Y-116022381D01*
X178641667Y-116022381D01*
X178784524Y-115974762D01*
X178832143Y-115927143D01*
X178832143Y-115593810D01*
X178641667Y-115593810D01*
X179260714Y-115498571D02*
X179594048Y-115498571D01*
X179736905Y-116022381D02*
X179260714Y-116022381D01*
X179260714Y-115022381D01*
X179736905Y-115022381D01*
X180165476Y-116022381D02*
X180165476Y-115022381D01*
X180736905Y-116022381D01*
X180736905Y-115022381D01*
D12*
X84467143Y-38548571D02*
X84467143Y-39762857D01*
X84538571Y-39905714D01*
X84610000Y-39977143D01*
X84752857Y-40048571D01*
X85038571Y-40048571D01*
X85181429Y-39977143D01*
X85252857Y-39905714D01*
X85324286Y-39762857D01*
X85324286Y-38548571D01*
X85967143Y-39977143D02*
X86181429Y-40048571D01*
X86538572Y-40048571D01*
X86681429Y-39977143D01*
X86752858Y-39905714D01*
X86824286Y-39762857D01*
X86824286Y-39620000D01*
X86752858Y-39477143D01*
X86681429Y-39405714D01*
X86538572Y-39334286D01*
X86252858Y-39262857D01*
X86110000Y-39191429D01*
X86038572Y-39120000D01*
X85967143Y-38977143D01*
X85967143Y-38834286D01*
X86038572Y-38691429D01*
X86110000Y-38620000D01*
X86252858Y-38548571D01*
X86610000Y-38548571D01*
X86824286Y-38620000D01*
X87967143Y-39262857D02*
X88181429Y-39334286D01*
X88252857Y-39405714D01*
X88324286Y-39548571D01*
X88324286Y-39762857D01*
X88252857Y-39905714D01*
X88181429Y-39977143D01*
X88038571Y-40048571D01*
X87467143Y-40048571D01*
X87467143Y-38548571D01*
X87967143Y-38548571D01*
X88110000Y-38620000D01*
X88181429Y-38691429D01*
X88252857Y-38834286D01*
X88252857Y-38977143D01*
X88181429Y-39120000D01*
X88110000Y-39191429D01*
X87967143Y-39262857D01*
X87467143Y-39262857D01*
X82288572Y-55852143D02*
X82502858Y-55923571D01*
X82860001Y-55923571D01*
X83002858Y-55852143D01*
X83074287Y-55780714D01*
X83145715Y-55637857D01*
X83145715Y-55495000D01*
X83074287Y-55352143D01*
X83002858Y-55280714D01*
X82860001Y-55209286D01*
X82574287Y-55137857D01*
X82431429Y-55066429D01*
X82360001Y-54995000D01*
X82288572Y-54852143D01*
X82288572Y-54709286D01*
X82360001Y-54566429D01*
X82431429Y-54495000D01*
X82574287Y-54423571D01*
X82931429Y-54423571D01*
X83145715Y-54495000D01*
X83788572Y-55923571D02*
X83788572Y-54423571D01*
X84145715Y-54423571D01*
X84360000Y-54495000D01*
X84502858Y-54637857D01*
X84574286Y-54780714D01*
X84645715Y-55066429D01*
X84645715Y-55280714D01*
X84574286Y-55566429D01*
X84502858Y-55709286D01*
X84360000Y-55852143D01*
X84145715Y-55923571D01*
X83788572Y-55923571D01*
X86145715Y-55780714D02*
X86074286Y-55852143D01*
X85860000Y-55923571D01*
X85717143Y-55923571D01*
X85502858Y-55852143D01*
X85360000Y-55709286D01*
X85288572Y-55566429D01*
X85217143Y-55280714D01*
X85217143Y-55066429D01*
X85288572Y-54780714D01*
X85360000Y-54637857D01*
X85502858Y-54495000D01*
X85717143Y-54423571D01*
X85860000Y-54423571D01*
X86074286Y-54495000D01*
X86145715Y-54566429D01*
X86717143Y-55495000D02*
X87431429Y-55495000D01*
X86574286Y-55923571D02*
X87074286Y-54423571D01*
X87574286Y-55923571D01*
X88931429Y-55923571D02*
X88431429Y-55209286D01*
X88074286Y-55923571D02*
X88074286Y-54423571D01*
X88645714Y-54423571D01*
X88788572Y-54495000D01*
X88860000Y-54566429D01*
X88931429Y-54709286D01*
X88931429Y-54923571D01*
X88860000Y-55066429D01*
X88788572Y-55137857D01*
X88645714Y-55209286D01*
X88074286Y-55209286D01*
X89574286Y-55923571D02*
X89574286Y-54423571D01*
X89931429Y-54423571D01*
X90145714Y-54495000D01*
X90288572Y-54637857D01*
X90360000Y-54780714D01*
X90431429Y-55066429D01*
X90431429Y-55280714D01*
X90360000Y-55566429D01*
X90288572Y-55709286D01*
X90145714Y-55852143D01*
X89931429Y-55923571D01*
X89574286Y-55923571D01*
D13*
X157175000Y-147633571D02*
X157460714Y-148633571D01*
X157746428Y-147919286D01*
X158032143Y-148633571D01*
X158317857Y-147633571D01*
X159460714Y-148562143D02*
X159317857Y-148633571D01*
X159032143Y-148633571D01*
X158889286Y-148562143D01*
X158817857Y-148419286D01*
X158817857Y-147847857D01*
X158889286Y-147705000D01*
X159032143Y-147633571D01*
X159317857Y-147633571D01*
X159460714Y-147705000D01*
X159532143Y-147847857D01*
X159532143Y-147990714D01*
X158817857Y-148133571D01*
X160103571Y-148562143D02*
X160246428Y-148633571D01*
X160532143Y-148633571D01*
X160675000Y-148562143D01*
X160746428Y-148419286D01*
X160746428Y-148347857D01*
X160675000Y-148205000D01*
X160532143Y-148133571D01*
X160317857Y-148133571D01*
X160175000Y-148062143D01*
X160103571Y-147919286D01*
X160103571Y-147847857D01*
X160175000Y-147705000D01*
X160317857Y-147633571D01*
X160532143Y-147633571D01*
X160675000Y-147705000D01*
X161175000Y-147633571D02*
X161746429Y-147633571D01*
X161389286Y-147133571D02*
X161389286Y-148419286D01*
X161460714Y-148562143D01*
X161603572Y-148633571D01*
X161746429Y-148633571D01*
X162460715Y-148633571D02*
X162317857Y-148562143D01*
X162246429Y-148419286D01*
X162246429Y-147133571D01*
X163032143Y-148633571D02*
X163032143Y-147633571D01*
X163032143Y-147133571D02*
X162960714Y-147205000D01*
X163032143Y-147276429D01*
X163103571Y-147205000D01*
X163032143Y-147133571D01*
X163032143Y-147276429D01*
X164389286Y-148562143D02*
X164246429Y-148633571D01*
X163960715Y-148633571D01*
X163817857Y-148562143D01*
X163746429Y-148490714D01*
X163675000Y-148347857D01*
X163675000Y-147919286D01*
X163746429Y-147776429D01*
X163817857Y-147705000D01*
X163960715Y-147633571D01*
X164246429Y-147633571D01*
X164389286Y-147705000D01*
X165032143Y-148633571D02*
X165032143Y-147133571D01*
X165675000Y-148633571D02*
X165675000Y-147847857D01*
X165603571Y-147705000D01*
X165460714Y-147633571D01*
X165246429Y-147633571D01*
X165103571Y-147705000D01*
X165032143Y-147776429D01*
X166175000Y-147633571D02*
X166746429Y-147633571D01*
X166389286Y-147133571D02*
X166389286Y-148419286D01*
X166460714Y-148562143D01*
X166603572Y-148633571D01*
X166746429Y-148633571D01*
D14*
X79375000Y-147955000D02*
X155575000Y-147955000D01*
X168275000Y-147955000D02*
X245110000Y-147955000D01*
X180975000Y-34925000D02*
X245110000Y-34925000D01*
X79375000Y-34925000D02*
X142875000Y-34925000D01*
X146401192Y-33432857D02*
X146401192Y-37432857D01*
X146401192Y-33623333D02*
X146782144Y-33432857D01*
X147544049Y-33432857D01*
X147925001Y-33623333D01*
X148115478Y-33813810D01*
X148305954Y-34194762D01*
X148305954Y-35337619D01*
X148115478Y-35718571D01*
X147925001Y-35909048D01*
X147544049Y-36099524D01*
X146782144Y-36099524D01*
X146401192Y-35909048D01*
X151544049Y-35909048D02*
X151163097Y-36099524D01*
X150401192Y-36099524D01*
X150020240Y-35909048D01*
X149829764Y-35528095D01*
X149829764Y-34004286D01*
X150020240Y-33623333D01*
X150401192Y-33432857D01*
X151163097Y-33432857D01*
X151544049Y-33623333D01*
X151734526Y-34004286D01*
X151734526Y-34385238D01*
X149829764Y-34766190D01*
X153448811Y-36099524D02*
X153448811Y-33432857D01*
X153448811Y-34194762D02*
X153639287Y-33813810D01*
X153829763Y-33623333D01*
X154210716Y-33432857D01*
X154591668Y-33432857D01*
X156877382Y-37432857D02*
X156877382Y-31718571D01*
X159163096Y-33432857D02*
X160686906Y-33432857D01*
X159734525Y-36099524D02*
X159734525Y-32670952D01*
X159925001Y-32290000D01*
X160305954Y-32099524D01*
X160686906Y-32099524D01*
X162591668Y-36099524D02*
X162210715Y-35909048D01*
X162020239Y-35718571D01*
X161829763Y-35337619D01*
X161829763Y-34194762D01*
X162020239Y-33813810D01*
X162210715Y-33623333D01*
X162591668Y-33432857D01*
X163163096Y-33432857D01*
X163544048Y-33623333D01*
X163734525Y-33813810D01*
X163925001Y-34194762D01*
X163925001Y-35337619D01*
X163734525Y-35718571D01*
X163544048Y-35909048D01*
X163163096Y-36099524D01*
X162591668Y-36099524D01*
X165639287Y-36099524D02*
X165639287Y-33432857D01*
X165639287Y-34194762D02*
X165829763Y-33813810D01*
X166020239Y-33623333D01*
X166401192Y-33432857D01*
X166782144Y-33432857D01*
X168115477Y-36099524D02*
X168115477Y-33432857D01*
X168115477Y-33813810D02*
X168305953Y-33623333D01*
X168686906Y-33432857D01*
X169258334Y-33432857D01*
X169639286Y-33623333D01*
X169829763Y-34004286D01*
X169829763Y-36099524D01*
X169829763Y-34004286D02*
X170020239Y-33623333D01*
X170401191Y-33432857D01*
X170972620Y-33432857D01*
X171353572Y-33623333D01*
X171544048Y-34004286D01*
X171544048Y-36099524D01*
X174972619Y-35909048D02*
X174591667Y-36099524D01*
X173829762Y-36099524D01*
X173448810Y-35909048D01*
X173258334Y-35528095D01*
X173258334Y-34004286D01*
X173448810Y-33623333D01*
X173829762Y-33432857D01*
X174591667Y-33432857D01*
X174972619Y-33623333D01*
X175163096Y-34004286D01*
X175163096Y-34385238D01*
X173258334Y-34766190D01*
X176877381Y-36099524D02*
X176877381Y-33432857D01*
X176877381Y-34194762D02*
X177067857Y-33813810D01*
X177258333Y-33623333D01*
X177639286Y-33432857D01*
X178020238Y-33432857D01*
D12*
X97921428Y-52748571D02*
X97921428Y-51248571D01*
X98421428Y-52320000D01*
X98921428Y-51248571D01*
X98921428Y-52748571D01*
X99635714Y-52748571D02*
X99635714Y-51248571D01*
X100350000Y-52748571D02*
X100350000Y-51248571D01*
X100707143Y-51248571D01*
X100921428Y-51320000D01*
X101064286Y-51462857D01*
X101135714Y-51605714D01*
X101207143Y-51891429D01*
X101207143Y-52105714D01*
X101135714Y-52391429D01*
X101064286Y-52534286D01*
X100921428Y-52677143D01*
X100707143Y-52748571D01*
X100350000Y-52748571D01*
X101850000Y-52748571D02*
X101850000Y-51248571D01*
X103707143Y-52748571D02*
X103707143Y-51248571D01*
X104421429Y-52748571D02*
X104421429Y-51248571D01*
X105278572Y-52748571D01*
X105278572Y-51248571D01*
X109621428Y-52748571D02*
X109621428Y-51248571D01*
X110121428Y-52320000D01*
X110621428Y-51248571D01*
X110621428Y-52748571D01*
X111335714Y-52748571D02*
X111335714Y-51248571D01*
X112050000Y-52748571D02*
X112050000Y-51248571D01*
X112407143Y-51248571D01*
X112621428Y-51320000D01*
X112764286Y-51462857D01*
X112835714Y-51605714D01*
X112907143Y-51891429D01*
X112907143Y-52105714D01*
X112835714Y-52391429D01*
X112764286Y-52534286D01*
X112621428Y-52677143D01*
X112407143Y-52748571D01*
X112050000Y-52748571D01*
X113550000Y-52748571D02*
X113550000Y-51248571D01*
X115692857Y-51248571D02*
X115978571Y-51248571D01*
X116121429Y-51320000D01*
X116264286Y-51462857D01*
X116335714Y-51748571D01*
X116335714Y-52248571D01*
X116264286Y-52534286D01*
X116121429Y-52677143D01*
X115978571Y-52748571D01*
X115692857Y-52748571D01*
X115550000Y-52677143D01*
X115407143Y-52534286D01*
X115335714Y-52248571D01*
X115335714Y-51748571D01*
X115407143Y-51462857D01*
X115550000Y-51320000D01*
X115692857Y-51248571D01*
X116978572Y-51248571D02*
X116978572Y-52462857D01*
X117050000Y-52605714D01*
X117121429Y-52677143D01*
X117264286Y-52748571D01*
X117550000Y-52748571D01*
X117692858Y-52677143D01*
X117764286Y-52605714D01*
X117835715Y-52462857D01*
X117835715Y-51248571D01*
X118335715Y-51248571D02*
X119192858Y-51248571D01*
X118764287Y-52748571D02*
X118764287Y-51248571D01*
X124392857Y-52605714D02*
X124321428Y-52677143D01*
X124107142Y-52748571D01*
X123964285Y-52748571D01*
X123750000Y-52677143D01*
X123607142Y-52534286D01*
X123535714Y-52391429D01*
X123464285Y-52105714D01*
X123464285Y-51891429D01*
X123535714Y-51605714D01*
X123607142Y-51462857D01*
X123750000Y-51320000D01*
X123964285Y-51248571D01*
X124107142Y-51248571D01*
X124321428Y-51320000D01*
X124392857Y-51391429D01*
X125750000Y-52748571D02*
X125035714Y-52748571D01*
X125035714Y-51248571D01*
X126250000Y-52748571D02*
X126250000Y-51248571D01*
X127107143Y-52748571D02*
X126464286Y-51891429D01*
X127107143Y-51248571D02*
X126250000Y-52105714D01*
X128892857Y-52748571D02*
X128892857Y-51248571D01*
X129607143Y-52748571D02*
X129607143Y-51248571D01*
X130464286Y-52748571D01*
X130464286Y-51248571D01*
X137164286Y-52748571D02*
X136664286Y-52034286D01*
X136307143Y-52748571D02*
X136307143Y-51248571D01*
X136878571Y-51248571D01*
X137021429Y-51320000D01*
X137092857Y-51391429D01*
X137164286Y-51534286D01*
X137164286Y-51748571D01*
X137092857Y-51891429D01*
X137021429Y-51962857D01*
X136878571Y-52034286D01*
X136307143Y-52034286D01*
X137735714Y-52677143D02*
X137950000Y-52748571D01*
X138307143Y-52748571D01*
X138450000Y-52677143D01*
X138521429Y-52605714D01*
X138592857Y-52462857D01*
X138592857Y-52320000D01*
X138521429Y-52177143D01*
X138450000Y-52105714D01*
X138307143Y-52034286D01*
X138021429Y-51962857D01*
X137878571Y-51891429D01*
X137807143Y-51820000D01*
X137735714Y-51677143D01*
X137735714Y-51534286D01*
X137807143Y-51391429D01*
X137878571Y-51320000D01*
X138021429Y-51248571D01*
X138378571Y-51248571D01*
X138592857Y-51320000D01*
X139021428Y-51248571D02*
X139878571Y-51248571D01*
X139450000Y-52748571D02*
X139450000Y-51248571D01*
X141521428Y-52748571D02*
X141521428Y-51248571D01*
X142235714Y-52748571D02*
X142235714Y-51248571D01*
X143092857Y-52748571D01*
X143092857Y-51248571D01*
X148792857Y-52605714D02*
X148721428Y-52677143D01*
X148507142Y-52748571D01*
X148364285Y-52748571D01*
X148150000Y-52677143D01*
X148007142Y-52534286D01*
X147935714Y-52391429D01*
X147864285Y-52105714D01*
X147864285Y-51891429D01*
X147935714Y-51605714D01*
X148007142Y-51462857D01*
X148150000Y-51320000D01*
X148364285Y-51248571D01*
X148507142Y-51248571D01*
X148721428Y-51320000D01*
X148792857Y-51391429D01*
X150150000Y-52748571D02*
X149435714Y-52748571D01*
X149435714Y-51248571D01*
X150650000Y-52748571D02*
X150650000Y-51248571D01*
X151507143Y-52748571D02*
X150864286Y-51891429D01*
X151507143Y-51248571D02*
X150650000Y-52105714D01*
X153578571Y-51248571D02*
X153864285Y-51248571D01*
X154007143Y-51320000D01*
X154150000Y-51462857D01*
X154221428Y-51748571D01*
X154221428Y-52248571D01*
X154150000Y-52534286D01*
X154007143Y-52677143D01*
X153864285Y-52748571D01*
X153578571Y-52748571D01*
X153435714Y-52677143D01*
X153292857Y-52534286D01*
X153221428Y-52248571D01*
X153221428Y-51748571D01*
X153292857Y-51462857D01*
X153435714Y-51320000D01*
X153578571Y-51248571D01*
X154864286Y-51248571D02*
X154864286Y-52462857D01*
X154935714Y-52605714D01*
X155007143Y-52677143D01*
X155150000Y-52748571D01*
X155435714Y-52748571D01*
X155578572Y-52677143D01*
X155650000Y-52605714D01*
X155721429Y-52462857D01*
X155721429Y-51248571D01*
X156221429Y-51248571D02*
X157078572Y-51248571D01*
X156650001Y-52748571D02*
X156650001Y-51248571D01*
X161564286Y-52748571D02*
X161064286Y-52034286D01*
X160707143Y-52748571D02*
X160707143Y-51248571D01*
X161278571Y-51248571D01*
X161421429Y-51320000D01*
X161492857Y-51391429D01*
X161564286Y-51534286D01*
X161564286Y-51748571D01*
X161492857Y-51891429D01*
X161421429Y-51962857D01*
X161278571Y-52034286D01*
X160707143Y-52034286D01*
X162135714Y-52677143D02*
X162350000Y-52748571D01*
X162707143Y-52748571D01*
X162850000Y-52677143D01*
X162921429Y-52605714D01*
X162992857Y-52462857D01*
X162992857Y-52320000D01*
X162921429Y-52177143D01*
X162850000Y-52105714D01*
X162707143Y-52034286D01*
X162421429Y-51962857D01*
X162278571Y-51891429D01*
X162207143Y-51820000D01*
X162135714Y-51677143D01*
X162135714Y-51534286D01*
X162207143Y-51391429D01*
X162278571Y-51320000D01*
X162421429Y-51248571D01*
X162778571Y-51248571D01*
X162992857Y-51320000D01*
X163421428Y-51248571D02*
X164278571Y-51248571D01*
X163850000Y-52748571D02*
X163850000Y-51248571D01*
X166207142Y-51248571D02*
X166492856Y-51248571D01*
X166635714Y-51320000D01*
X166778571Y-51462857D01*
X166849999Y-51748571D01*
X166849999Y-52248571D01*
X166778571Y-52534286D01*
X166635714Y-52677143D01*
X166492856Y-52748571D01*
X166207142Y-52748571D01*
X166064285Y-52677143D01*
X165921428Y-52534286D01*
X165849999Y-52248571D01*
X165849999Y-51748571D01*
X165921428Y-51462857D01*
X166064285Y-51320000D01*
X166207142Y-51248571D01*
X167492857Y-51248571D02*
X167492857Y-52462857D01*
X167564285Y-52605714D01*
X167635714Y-52677143D01*
X167778571Y-52748571D01*
X168064285Y-52748571D01*
X168207143Y-52677143D01*
X168278571Y-52605714D01*
X168350000Y-52462857D01*
X168350000Y-51248571D01*
X168850000Y-51248571D02*
X169707143Y-51248571D01*
X169278572Y-52748571D02*
X169278572Y-51248571D01*
X175192858Y-52605714D02*
X175121429Y-52677143D01*
X174907143Y-52748571D01*
X174764286Y-52748571D01*
X174550001Y-52677143D01*
X174407143Y-52534286D01*
X174335715Y-52391429D01*
X174264286Y-52105714D01*
X174264286Y-51891429D01*
X174335715Y-51605714D01*
X174407143Y-51462857D01*
X174550001Y-51320000D01*
X174764286Y-51248571D01*
X174907143Y-51248571D01*
X175121429Y-51320000D01*
X175192858Y-51391429D01*
X175621429Y-51248571D02*
X176121429Y-52748571D01*
X176621429Y-51248571D01*
X177907143Y-52748571D02*
X177050000Y-52748571D01*
X177478572Y-52748571D02*
X177478572Y-51248571D01*
X177335715Y-51462857D01*
X177192857Y-51605714D01*
X177050000Y-51677143D01*
X179692857Y-52748571D02*
X179692857Y-51248571D01*
X180407143Y-52748571D02*
X180407143Y-51248571D01*
X181264286Y-52748571D01*
X181264286Y-51248571D01*
X187892858Y-52605714D02*
X187821429Y-52677143D01*
X187607143Y-52748571D01*
X187464286Y-52748571D01*
X187250001Y-52677143D01*
X187107143Y-52534286D01*
X187035715Y-52391429D01*
X186964286Y-52105714D01*
X186964286Y-51891429D01*
X187035715Y-51605714D01*
X187107143Y-51462857D01*
X187250001Y-51320000D01*
X187464286Y-51248571D01*
X187607143Y-51248571D01*
X187821429Y-51320000D01*
X187892858Y-51391429D01*
X188321429Y-51248571D02*
X188821429Y-52748571D01*
X189321429Y-51248571D01*
X189750000Y-51391429D02*
X189821429Y-51320000D01*
X189964286Y-51248571D01*
X190321429Y-51248571D01*
X190464286Y-51320000D01*
X190535715Y-51391429D01*
X190607143Y-51534286D01*
X190607143Y-51677143D01*
X190535715Y-51891429D01*
X189678572Y-52748571D01*
X190607143Y-52748571D01*
X192392857Y-52748571D02*
X192392857Y-51248571D01*
X193107143Y-52748571D02*
X193107143Y-51248571D01*
X193964286Y-52748571D01*
X193964286Y-51248571D01*
X200592858Y-52605714D02*
X200521429Y-52677143D01*
X200307143Y-52748571D01*
X200164286Y-52748571D01*
X199950001Y-52677143D01*
X199807143Y-52534286D01*
X199735715Y-52391429D01*
X199664286Y-52105714D01*
X199664286Y-51891429D01*
X199735715Y-51605714D01*
X199807143Y-51462857D01*
X199950001Y-51320000D01*
X200164286Y-51248571D01*
X200307143Y-51248571D01*
X200521429Y-51320000D01*
X200592858Y-51391429D01*
X201021429Y-51248571D02*
X201521429Y-52748571D01*
X202021429Y-51248571D01*
X202378572Y-51248571D02*
X203307143Y-51248571D01*
X202807143Y-51820000D01*
X203021429Y-51820000D01*
X203164286Y-51891429D01*
X203235715Y-51962857D01*
X203307143Y-52105714D01*
X203307143Y-52462857D01*
X203235715Y-52605714D01*
X203164286Y-52677143D01*
X203021429Y-52748571D01*
X202592857Y-52748571D01*
X202450000Y-52677143D01*
X202378572Y-52605714D01*
X205092857Y-52748571D02*
X205092857Y-51248571D01*
X205807143Y-52748571D02*
X205807143Y-51248571D01*
X206664286Y-52748571D01*
X206664286Y-51248571D01*
X213292858Y-52605714D02*
X213221429Y-52677143D01*
X213007143Y-52748571D01*
X212864286Y-52748571D01*
X212650001Y-52677143D01*
X212507143Y-52534286D01*
X212435715Y-52391429D01*
X212364286Y-52105714D01*
X212364286Y-51891429D01*
X212435715Y-51605714D01*
X212507143Y-51462857D01*
X212650001Y-51320000D01*
X212864286Y-51248571D01*
X213007143Y-51248571D01*
X213221429Y-51320000D01*
X213292858Y-51391429D01*
X213721429Y-51248571D02*
X214221429Y-52748571D01*
X214721429Y-51248571D01*
X215864286Y-51748571D02*
X215864286Y-52748571D01*
X215507143Y-51177143D02*
X215150000Y-52248571D01*
X216078572Y-52248571D01*
X217792857Y-52748571D02*
X217792857Y-51248571D01*
X218507143Y-52748571D02*
X218507143Y-51248571D01*
X219364286Y-52748571D01*
X219364286Y-51248571D01*
X240407144Y-52605714D02*
X240335715Y-52677143D01*
X240121429Y-52748571D01*
X239978572Y-52748571D01*
X239764287Y-52677143D01*
X239621429Y-52534286D01*
X239550001Y-52391429D01*
X239478572Y-52105714D01*
X239478572Y-51891429D01*
X239550001Y-51605714D01*
X239621429Y-51462857D01*
X239764287Y-51320000D01*
X239978572Y-51248571D01*
X240121429Y-51248571D01*
X240335715Y-51320000D01*
X240407144Y-51391429D01*
X240835715Y-51248571D02*
X241335715Y-52748571D01*
X241835715Y-51248571D01*
X243121429Y-52748571D02*
X242264286Y-52748571D01*
X242692858Y-52748571D02*
X242692858Y-51248571D01*
X242550001Y-51462857D01*
X242407143Y-51605714D01*
X242264286Y-51677143D01*
X240407144Y-65305714D02*
X240335715Y-65377143D01*
X240121429Y-65448571D01*
X239978572Y-65448571D01*
X239764287Y-65377143D01*
X239621429Y-65234286D01*
X239550001Y-65091429D01*
X239478572Y-64805714D01*
X239478572Y-64591429D01*
X239550001Y-64305714D01*
X239621429Y-64162857D01*
X239764287Y-64020000D01*
X239978572Y-63948571D01*
X240121429Y-63948571D01*
X240335715Y-64020000D01*
X240407144Y-64091429D01*
X240835715Y-63948571D02*
X241335715Y-65448571D01*
X241835715Y-63948571D01*
X242264286Y-64091429D02*
X242335715Y-64020000D01*
X242478572Y-63948571D01*
X242835715Y-63948571D01*
X242978572Y-64020000D01*
X243050001Y-64091429D01*
X243121429Y-64234286D01*
X243121429Y-64377143D01*
X243050001Y-64591429D01*
X242192858Y-65448571D01*
X243121429Y-65448571D01*
X240407144Y-78005714D02*
X240335715Y-78077143D01*
X240121429Y-78148571D01*
X239978572Y-78148571D01*
X239764287Y-78077143D01*
X239621429Y-77934286D01*
X239550001Y-77791429D01*
X239478572Y-77505714D01*
X239478572Y-77291429D01*
X239550001Y-77005714D01*
X239621429Y-76862857D01*
X239764287Y-76720000D01*
X239978572Y-76648571D01*
X240121429Y-76648571D01*
X240335715Y-76720000D01*
X240407144Y-76791429D01*
X240835715Y-76648571D02*
X241335715Y-78148571D01*
X241835715Y-76648571D01*
X242192858Y-76648571D02*
X243121429Y-76648571D01*
X242621429Y-77220000D01*
X242835715Y-77220000D01*
X242978572Y-77291429D01*
X243050001Y-77362857D01*
X243121429Y-77505714D01*
X243121429Y-77862857D01*
X243050001Y-78005714D01*
X242978572Y-78077143D01*
X242835715Y-78148571D01*
X242407143Y-78148571D01*
X242264286Y-78077143D01*
X242192858Y-78005714D01*
X240407144Y-90705714D02*
X240335715Y-90777143D01*
X240121429Y-90848571D01*
X239978572Y-90848571D01*
X239764287Y-90777143D01*
X239621429Y-90634286D01*
X239550001Y-90491429D01*
X239478572Y-90205714D01*
X239478572Y-89991429D01*
X239550001Y-89705714D01*
X239621429Y-89562857D01*
X239764287Y-89420000D01*
X239978572Y-89348571D01*
X240121429Y-89348571D01*
X240335715Y-89420000D01*
X240407144Y-89491429D01*
X240835715Y-89348571D02*
X241335715Y-90848571D01*
X241835715Y-89348571D01*
X242978572Y-89848571D02*
X242978572Y-90848571D01*
X242621429Y-89277143D02*
X242264286Y-90348571D01*
X243192858Y-90348571D01*
X240407144Y-103405714D02*
X240335715Y-103477143D01*
X240121429Y-103548571D01*
X239978572Y-103548571D01*
X239764287Y-103477143D01*
X239621429Y-103334286D01*
X239550001Y-103191429D01*
X239478572Y-102905714D01*
X239478572Y-102691429D01*
X239550001Y-102405714D01*
X239621429Y-102262857D01*
X239764287Y-102120000D01*
X239978572Y-102048571D01*
X240121429Y-102048571D01*
X240335715Y-102120000D01*
X240407144Y-102191429D01*
X240835715Y-102048571D02*
X241335715Y-103548571D01*
X241835715Y-102048571D01*
X243050001Y-102048571D02*
X242335715Y-102048571D01*
X242264286Y-102762857D01*
X242335715Y-102691429D01*
X242478572Y-102620000D01*
X242835715Y-102620000D01*
X242978572Y-102691429D01*
X243050001Y-102762857D01*
X243121429Y-102905714D01*
X243121429Y-103262857D01*
X243050001Y-103405714D01*
X242978572Y-103477143D01*
X242835715Y-103548571D01*
X242478572Y-103548571D01*
X242335715Y-103477143D01*
X242264286Y-103405714D01*
X240407144Y-116105714D02*
X240335715Y-116177143D01*
X240121429Y-116248571D01*
X239978572Y-116248571D01*
X239764287Y-116177143D01*
X239621429Y-116034286D01*
X239550001Y-115891429D01*
X239478572Y-115605714D01*
X239478572Y-115391429D01*
X239550001Y-115105714D01*
X239621429Y-114962857D01*
X239764287Y-114820000D01*
X239978572Y-114748571D01*
X240121429Y-114748571D01*
X240335715Y-114820000D01*
X240407144Y-114891429D01*
X240835715Y-114748571D02*
X241335715Y-116248571D01*
X241835715Y-114748571D01*
X242978572Y-114748571D02*
X242692858Y-114748571D01*
X242550001Y-114820000D01*
X242478572Y-114891429D01*
X242335715Y-115105714D01*
X242264286Y-115391429D01*
X242264286Y-115962857D01*
X242335715Y-116105714D01*
X242407143Y-116177143D01*
X242550001Y-116248571D01*
X242835715Y-116248571D01*
X242978572Y-116177143D01*
X243050001Y-116105714D01*
X243121429Y-115962857D01*
X243121429Y-115605714D01*
X243050001Y-115462857D01*
X242978572Y-115391429D01*
X242835715Y-115320000D01*
X242550001Y-115320000D01*
X242407143Y-115391429D01*
X242335715Y-115462857D01*
X242264286Y-115605714D01*
X240407144Y-128805714D02*
X240335715Y-128877143D01*
X240121429Y-128948571D01*
X239978572Y-128948571D01*
X239764287Y-128877143D01*
X239621429Y-128734286D01*
X239550001Y-128591429D01*
X239478572Y-128305714D01*
X239478572Y-128091429D01*
X239550001Y-127805714D01*
X239621429Y-127662857D01*
X239764287Y-127520000D01*
X239978572Y-127448571D01*
X240121429Y-127448571D01*
X240335715Y-127520000D01*
X240407144Y-127591429D01*
X240835715Y-127448571D02*
X241335715Y-128948571D01*
X241835715Y-127448571D01*
X242192858Y-127448571D02*
X243192858Y-127448571D01*
X242550001Y-128948571D01*
X240407144Y-141505714D02*
X240335715Y-141577143D01*
X240121429Y-141648571D01*
X239978572Y-141648571D01*
X239764287Y-141577143D01*
X239621429Y-141434286D01*
X239550001Y-141291429D01*
X239478572Y-141005714D01*
X239478572Y-140791429D01*
X239550001Y-140505714D01*
X239621429Y-140362857D01*
X239764287Y-140220000D01*
X239978572Y-140148571D01*
X240121429Y-140148571D01*
X240335715Y-140220000D01*
X240407144Y-140291429D01*
X240835715Y-140148571D02*
X241335715Y-141648571D01*
X241835715Y-140148571D01*
X242550001Y-140791429D02*
X242407143Y-140720000D01*
X242335715Y-140648571D01*
X242264286Y-140505714D01*
X242264286Y-140434286D01*
X242335715Y-140291429D01*
X242407143Y-140220000D01*
X242550001Y-140148571D01*
X242835715Y-140148571D01*
X242978572Y-140220000D01*
X243050001Y-140291429D01*
X243121429Y-140434286D01*
X243121429Y-140505714D01*
X243050001Y-140648571D01*
X242978572Y-140720000D01*
X242835715Y-140791429D01*
X242550001Y-140791429D01*
X242407143Y-140862857D01*
X242335715Y-140934286D01*
X242264286Y-141077143D01*
X242264286Y-141362857D01*
X242335715Y-141505714D01*
X242407143Y-141577143D01*
X242550001Y-141648571D01*
X242835715Y-141648571D01*
X242978572Y-141577143D01*
X243050001Y-141505714D01*
X243121429Y-141362857D01*
X243121429Y-141077143D01*
X243050001Y-140934286D01*
X242978572Y-140862857D01*
X242835715Y-140791429D01*
X226385715Y-51320000D02*
X226242858Y-51248571D01*
X226028572Y-51248571D01*
X225814287Y-51320000D01*
X225671429Y-51462857D01*
X225600001Y-51605714D01*
X225528572Y-51891429D01*
X225528572Y-52105714D01*
X225600001Y-52391429D01*
X225671429Y-52534286D01*
X225814287Y-52677143D01*
X226028572Y-52748571D01*
X226171429Y-52748571D01*
X226385715Y-52677143D01*
X226457144Y-52605714D01*
X226457144Y-52105714D01*
X226171429Y-52105714D01*
X227028572Y-52320000D02*
X227742858Y-52320000D01*
X226885715Y-52748571D02*
X227385715Y-51248571D01*
X227885715Y-52748571D01*
X228171429Y-51248571D02*
X229028572Y-51248571D01*
X228600001Y-52748571D02*
X228600001Y-51248571D01*
X229528572Y-51962857D02*
X230028572Y-51962857D01*
X230242858Y-52748571D02*
X229528572Y-52748571D01*
X229528572Y-51248571D01*
X230242858Y-51248571D01*
X231671429Y-52748571D02*
X230814286Y-52748571D01*
X231242858Y-52748571D02*
X231242858Y-51248571D01*
X231100001Y-51462857D01*
X230957143Y-51605714D01*
X230814286Y-51677143D01*
X226385715Y-64020000D02*
X226242858Y-63948571D01*
X226028572Y-63948571D01*
X225814287Y-64020000D01*
X225671429Y-64162857D01*
X225600001Y-64305714D01*
X225528572Y-64591429D01*
X225528572Y-64805714D01*
X225600001Y-65091429D01*
X225671429Y-65234286D01*
X225814287Y-65377143D01*
X226028572Y-65448571D01*
X226171429Y-65448571D01*
X226385715Y-65377143D01*
X226457144Y-65305714D01*
X226457144Y-64805714D01*
X226171429Y-64805714D01*
X227028572Y-65020000D02*
X227742858Y-65020000D01*
X226885715Y-65448571D02*
X227385715Y-63948571D01*
X227885715Y-65448571D01*
X228171429Y-63948571D02*
X229028572Y-63948571D01*
X228600001Y-65448571D02*
X228600001Y-63948571D01*
X229528572Y-64662857D02*
X230028572Y-64662857D01*
X230242858Y-65448571D02*
X229528572Y-65448571D01*
X229528572Y-63948571D01*
X230242858Y-63948571D01*
X230814286Y-64091429D02*
X230885715Y-64020000D01*
X231028572Y-63948571D01*
X231385715Y-63948571D01*
X231528572Y-64020000D01*
X231600001Y-64091429D01*
X231671429Y-64234286D01*
X231671429Y-64377143D01*
X231600001Y-64591429D01*
X230742858Y-65448571D01*
X231671429Y-65448571D01*
X226385715Y-76720000D02*
X226242858Y-76648571D01*
X226028572Y-76648571D01*
X225814287Y-76720000D01*
X225671429Y-76862857D01*
X225600001Y-77005714D01*
X225528572Y-77291429D01*
X225528572Y-77505714D01*
X225600001Y-77791429D01*
X225671429Y-77934286D01*
X225814287Y-78077143D01*
X226028572Y-78148571D01*
X226171429Y-78148571D01*
X226385715Y-78077143D01*
X226457144Y-78005714D01*
X226457144Y-77505714D01*
X226171429Y-77505714D01*
X227028572Y-77720000D02*
X227742858Y-77720000D01*
X226885715Y-78148571D02*
X227385715Y-76648571D01*
X227885715Y-78148571D01*
X228171429Y-76648571D02*
X229028572Y-76648571D01*
X228600001Y-78148571D02*
X228600001Y-76648571D01*
X229528572Y-77362857D02*
X230028572Y-77362857D01*
X230242858Y-78148571D02*
X229528572Y-78148571D01*
X229528572Y-76648571D01*
X230242858Y-76648571D01*
X230742858Y-76648571D02*
X231671429Y-76648571D01*
X231171429Y-77220000D01*
X231385715Y-77220000D01*
X231528572Y-77291429D01*
X231600001Y-77362857D01*
X231671429Y-77505714D01*
X231671429Y-77862857D01*
X231600001Y-78005714D01*
X231528572Y-78077143D01*
X231385715Y-78148571D01*
X230957143Y-78148571D01*
X230814286Y-78077143D01*
X230742858Y-78005714D01*
X226385715Y-89420000D02*
X226242858Y-89348571D01*
X226028572Y-89348571D01*
X225814287Y-89420000D01*
X225671429Y-89562857D01*
X225600001Y-89705714D01*
X225528572Y-89991429D01*
X225528572Y-90205714D01*
X225600001Y-90491429D01*
X225671429Y-90634286D01*
X225814287Y-90777143D01*
X226028572Y-90848571D01*
X226171429Y-90848571D01*
X226385715Y-90777143D01*
X226457144Y-90705714D01*
X226457144Y-90205714D01*
X226171429Y-90205714D01*
X227028572Y-90420000D02*
X227742858Y-90420000D01*
X226885715Y-90848571D02*
X227385715Y-89348571D01*
X227885715Y-90848571D01*
X228171429Y-89348571D02*
X229028572Y-89348571D01*
X228600001Y-90848571D02*
X228600001Y-89348571D01*
X229528572Y-90062857D02*
X230028572Y-90062857D01*
X230242858Y-90848571D02*
X229528572Y-90848571D01*
X229528572Y-89348571D01*
X230242858Y-89348571D01*
X231528572Y-89848571D02*
X231528572Y-90848571D01*
X231171429Y-89277143D02*
X230814286Y-90348571D01*
X231742858Y-90348571D01*
X226385715Y-102120000D02*
X226242858Y-102048571D01*
X226028572Y-102048571D01*
X225814287Y-102120000D01*
X225671429Y-102262857D01*
X225600001Y-102405714D01*
X225528572Y-102691429D01*
X225528572Y-102905714D01*
X225600001Y-103191429D01*
X225671429Y-103334286D01*
X225814287Y-103477143D01*
X226028572Y-103548571D01*
X226171429Y-103548571D01*
X226385715Y-103477143D01*
X226457144Y-103405714D01*
X226457144Y-102905714D01*
X226171429Y-102905714D01*
X227028572Y-103120000D02*
X227742858Y-103120000D01*
X226885715Y-103548571D02*
X227385715Y-102048571D01*
X227885715Y-103548571D01*
X228171429Y-102048571D02*
X229028572Y-102048571D01*
X228600001Y-103548571D02*
X228600001Y-102048571D01*
X229528572Y-102762857D02*
X230028572Y-102762857D01*
X230242858Y-103548571D02*
X229528572Y-103548571D01*
X229528572Y-102048571D01*
X230242858Y-102048571D01*
X231600001Y-102048571D02*
X230885715Y-102048571D01*
X230814286Y-102762857D01*
X230885715Y-102691429D01*
X231028572Y-102620000D01*
X231385715Y-102620000D01*
X231528572Y-102691429D01*
X231600001Y-102762857D01*
X231671429Y-102905714D01*
X231671429Y-103262857D01*
X231600001Y-103405714D01*
X231528572Y-103477143D01*
X231385715Y-103548571D01*
X231028572Y-103548571D01*
X230885715Y-103477143D01*
X230814286Y-103405714D01*
X226385715Y-114820000D02*
X226242858Y-114748571D01*
X226028572Y-114748571D01*
X225814287Y-114820000D01*
X225671429Y-114962857D01*
X225600001Y-115105714D01*
X225528572Y-115391429D01*
X225528572Y-115605714D01*
X225600001Y-115891429D01*
X225671429Y-116034286D01*
X225814287Y-116177143D01*
X226028572Y-116248571D01*
X226171429Y-116248571D01*
X226385715Y-116177143D01*
X226457144Y-116105714D01*
X226457144Y-115605714D01*
X226171429Y-115605714D01*
X227028572Y-115820000D02*
X227742858Y-115820000D01*
X226885715Y-116248571D02*
X227385715Y-114748571D01*
X227885715Y-116248571D01*
X228171429Y-114748571D02*
X229028572Y-114748571D01*
X228600001Y-116248571D02*
X228600001Y-114748571D01*
X229528572Y-115462857D02*
X230028572Y-115462857D01*
X230242858Y-116248571D02*
X229528572Y-116248571D01*
X229528572Y-114748571D01*
X230242858Y-114748571D01*
X231528572Y-114748571D02*
X231242858Y-114748571D01*
X231100001Y-114820000D01*
X231028572Y-114891429D01*
X230885715Y-115105714D01*
X230814286Y-115391429D01*
X230814286Y-115962857D01*
X230885715Y-116105714D01*
X230957143Y-116177143D01*
X231100001Y-116248571D01*
X231385715Y-116248571D01*
X231528572Y-116177143D01*
X231600001Y-116105714D01*
X231671429Y-115962857D01*
X231671429Y-115605714D01*
X231600001Y-115462857D01*
X231528572Y-115391429D01*
X231385715Y-115320000D01*
X231100001Y-115320000D01*
X230957143Y-115391429D01*
X230885715Y-115462857D01*
X230814286Y-115605714D01*
X226385715Y-127520000D02*
X226242858Y-127448571D01*
X226028572Y-127448571D01*
X225814287Y-127520000D01*
X225671429Y-127662857D01*
X225600001Y-127805714D01*
X225528572Y-128091429D01*
X225528572Y-128305714D01*
X225600001Y-128591429D01*
X225671429Y-128734286D01*
X225814287Y-128877143D01*
X226028572Y-128948571D01*
X226171429Y-128948571D01*
X226385715Y-128877143D01*
X226457144Y-128805714D01*
X226457144Y-128305714D01*
X226171429Y-128305714D01*
X227028572Y-128520000D02*
X227742858Y-128520000D01*
X226885715Y-128948571D02*
X227385715Y-127448571D01*
X227885715Y-128948571D01*
X228171429Y-127448571D02*
X229028572Y-127448571D01*
X228600001Y-128948571D02*
X228600001Y-127448571D01*
X229528572Y-128162857D02*
X230028572Y-128162857D01*
X230242858Y-128948571D02*
X229528572Y-128948571D01*
X229528572Y-127448571D01*
X230242858Y-127448571D01*
X230742858Y-127448571D02*
X231742858Y-127448571D01*
X231100001Y-128948571D01*
X226385715Y-140220000D02*
X226242858Y-140148571D01*
X226028572Y-140148571D01*
X225814287Y-140220000D01*
X225671429Y-140362857D01*
X225600001Y-140505714D01*
X225528572Y-140791429D01*
X225528572Y-141005714D01*
X225600001Y-141291429D01*
X225671429Y-141434286D01*
X225814287Y-141577143D01*
X226028572Y-141648571D01*
X226171429Y-141648571D01*
X226385715Y-141577143D01*
X226457144Y-141505714D01*
X226457144Y-141005714D01*
X226171429Y-141005714D01*
X227028572Y-141220000D02*
X227742858Y-141220000D01*
X226885715Y-141648571D02*
X227385715Y-140148571D01*
X227885715Y-141648571D01*
X228171429Y-140148571D02*
X229028572Y-140148571D01*
X228600001Y-141648571D02*
X228600001Y-140148571D01*
X229528572Y-140862857D02*
X230028572Y-140862857D01*
X230242858Y-141648571D02*
X229528572Y-141648571D01*
X229528572Y-140148571D01*
X230242858Y-140148571D01*
X231100001Y-140791429D02*
X230957143Y-140720000D01*
X230885715Y-140648571D01*
X230814286Y-140505714D01*
X230814286Y-140434286D01*
X230885715Y-140291429D01*
X230957143Y-140220000D01*
X231100001Y-140148571D01*
X231385715Y-140148571D01*
X231528572Y-140220000D01*
X231600001Y-140291429D01*
X231671429Y-140434286D01*
X231671429Y-140505714D01*
X231600001Y-140648571D01*
X231528572Y-140720000D01*
X231385715Y-140791429D01*
X231100001Y-140791429D01*
X230957143Y-140862857D01*
X230885715Y-140934286D01*
X230814286Y-141077143D01*
X230814286Y-141362857D01*
X230885715Y-141505714D01*
X230957143Y-141577143D01*
X231100001Y-141648571D01*
X231385715Y-141648571D01*
X231528572Y-141577143D01*
X231600001Y-141505714D01*
X231671429Y-141362857D01*
X231671429Y-141077143D01*
X231600001Y-140934286D01*
X231528572Y-140862857D01*
X231385715Y-140791429D01*
D15*
X107950000Y-75565000D02*
X98425000Y-71755000D01*
X107950000Y-75565000D02*
X98425000Y-79375000D01*
X107950000Y-75565000D02*
X104140000Y-85090000D01*
X107950000Y-75565000D02*
X111760000Y-85090000D01*
X107950000Y-75565000D02*
X117475000Y-79375000D01*
X107950000Y-75565000D02*
X117475000Y-71755000D01*
X107950000Y-75565000D02*
X111760000Y-66040000D01*
X107950000Y-75565000D02*
X104140000Y-66040000D01*
X107950000Y-75565000D02*
X100330000Y-67945000D01*
X107950000Y-75565000D02*
X100330000Y-83185000D01*
X107950000Y-75565000D02*
X115570000Y-83185000D01*
X107950000Y-75565000D02*
X115570000Y-67945000D01*
X107950000Y-75565000D02*
X107950000Y-64770000D01*
X107950000Y-75565000D02*
X97155000Y-75565000D01*
X107950000Y-75565000D02*
X107950000Y-86360000D01*
X107950000Y-75565000D02*
X118745000Y-75565000D01*
D12*
X192405000Y-94615000D02*
X192405000Y-86995000D01*
X177165000Y-94615000D02*
X177165000Y-86995000D01*
X161925000Y-94615000D02*
X161925000Y-86995000D01*
X146685000Y-94615000D02*
X146685000Y-86995000D01*
X131445000Y-94615000D02*
X131445000Y-86995000D01*
X191905001Y-97047857D02*
X191405001Y-97047857D01*
X191405001Y-97833571D02*
X191405001Y-96333571D01*
X192119287Y-96333571D01*
X193405001Y-96333571D02*
X192690715Y-96333571D01*
X192619286Y-97047857D01*
X192690715Y-96976429D01*
X192833572Y-96905000D01*
X193190715Y-96905000D01*
X193333572Y-96976429D01*
X193405001Y-97047857D01*
X193476429Y-97190714D01*
X193476429Y-97547857D01*
X193405001Y-97690714D01*
X193333572Y-97762143D01*
X193190715Y-97833571D01*
X192833572Y-97833571D01*
X192690715Y-97762143D01*
X192619286Y-97690714D01*
X176665001Y-97047857D02*
X176165001Y-97047857D01*
X176165001Y-97833571D02*
X176165001Y-96333571D01*
X176879287Y-96333571D01*
X178093572Y-96833571D02*
X178093572Y-97833571D01*
X177736429Y-96262143D02*
X177379286Y-97333571D01*
X178307858Y-97333571D01*
X161425001Y-97047857D02*
X160925001Y-97047857D01*
X160925001Y-97833571D02*
X160925001Y-96333571D01*
X161639287Y-96333571D01*
X162067858Y-96333571D02*
X162996429Y-96333571D01*
X162496429Y-96905000D01*
X162710715Y-96905000D01*
X162853572Y-96976429D01*
X162925001Y-97047857D01*
X162996429Y-97190714D01*
X162996429Y-97547857D01*
X162925001Y-97690714D01*
X162853572Y-97762143D01*
X162710715Y-97833571D01*
X162282143Y-97833571D01*
X162139286Y-97762143D01*
X162067858Y-97690714D01*
X146185001Y-97047857D02*
X145685001Y-97047857D01*
X145685001Y-97833571D02*
X145685001Y-96333571D01*
X146399287Y-96333571D01*
X146899286Y-96476429D02*
X146970715Y-96405000D01*
X147113572Y-96333571D01*
X147470715Y-96333571D01*
X147613572Y-96405000D01*
X147685001Y-96476429D01*
X147756429Y-96619286D01*
X147756429Y-96762143D01*
X147685001Y-96976429D01*
X146827858Y-97833571D01*
X147756429Y-97833571D01*
X130945001Y-97047857D02*
X130445001Y-97047857D01*
X130445001Y-97833571D02*
X130445001Y-96333571D01*
X131159287Y-96333571D01*
X132516429Y-97833571D02*
X131659286Y-97833571D01*
X132087858Y-97833571D02*
X132087858Y-96333571D01*
X131945001Y-96547857D01*
X131802143Y-96690714D01*
X131659286Y-96762143D01*
D11*
X191008333Y-141422381D02*
X190532142Y-141422381D01*
X190532142Y-140422381D01*
X191294047Y-141136667D02*
X191770238Y-141136667D01*
X191198809Y-141422381D02*
X191532142Y-140422381D01*
X191865476Y-141422381D01*
X192151190Y-141374762D02*
X192294047Y-141422381D01*
X192532143Y-141422381D01*
X192627381Y-141374762D01*
X192675000Y-141327143D01*
X192722619Y-141231905D01*
X192722619Y-141136667D01*
X192675000Y-141041429D01*
X192627381Y-140993810D01*
X192532143Y-140946190D01*
X192341666Y-140898571D01*
X192246428Y-140850952D01*
X192198809Y-140803333D01*
X192151190Y-140708095D01*
X192151190Y-140612857D01*
X192198809Y-140517619D01*
X192246428Y-140470000D01*
X192341666Y-140422381D01*
X192579762Y-140422381D01*
X192722619Y-140470000D01*
X193008333Y-140422381D02*
X193579762Y-140422381D01*
X193294047Y-141422381D02*
X193294047Y-140422381D01*
X177498810Y-140898571D02*
X177165476Y-140898571D01*
X177165476Y-141422381D02*
X177165476Y-140422381D01*
X177641667Y-140422381D01*
X178022619Y-141422381D02*
X178022619Y-140422381D01*
X179070238Y-141422381D02*
X178736904Y-140946190D01*
X178498809Y-141422381D02*
X178498809Y-140422381D01*
X178879762Y-140422381D01*
X178975000Y-140470000D01*
X179022619Y-140517619D01*
X179070238Y-140612857D01*
X179070238Y-140755714D01*
X179022619Y-140850952D01*
X178975000Y-140898571D01*
X178879762Y-140946190D01*
X178498809Y-140946190D01*
X179451190Y-141374762D02*
X179594047Y-141422381D01*
X179832143Y-141422381D01*
X179927381Y-141374762D01*
X179975000Y-141327143D01*
X180022619Y-141231905D01*
X180022619Y-141136667D01*
X179975000Y-141041429D01*
X179927381Y-140993810D01*
X179832143Y-140946190D01*
X179641666Y-140898571D01*
X179546428Y-140850952D01*
X179498809Y-140803333D01*
X179451190Y-140708095D01*
X179451190Y-140612857D01*
X179498809Y-140517619D01*
X179546428Y-140470000D01*
X179641666Y-140422381D01*
X179879762Y-140422381D01*
X180022619Y-140470000D01*
X180308333Y-140422381D02*
X180879762Y-140422381D01*
X180594047Y-141422381D02*
X180594047Y-140422381D01*
X164417857Y-141422381D02*
X164417857Y-140422381D01*
X164751191Y-141136667D01*
X165084524Y-140422381D01*
X165084524Y-141422381D01*
X165751190Y-140422381D02*
X165941667Y-140422381D01*
X166036905Y-140470000D01*
X166132143Y-140565238D01*
X166179762Y-140755714D01*
X166179762Y-141089048D01*
X166132143Y-141279524D01*
X166036905Y-141374762D01*
X165941667Y-141422381D01*
X165751190Y-141422381D01*
X165655952Y-141374762D01*
X165560714Y-141279524D01*
X165513095Y-141089048D01*
X165513095Y-140755714D01*
X165560714Y-140565238D01*
X165655952Y-140470000D01*
X165751190Y-140422381D01*
X166608333Y-141422381D02*
X166608333Y-140422381D01*
X166846428Y-140422381D01*
X166989286Y-140470000D01*
X167084524Y-140565238D01*
X167132143Y-140660476D01*
X167179762Y-140850952D01*
X167179762Y-140993810D01*
X167132143Y-141184286D01*
X167084524Y-141279524D01*
X166989286Y-141374762D01*
X166846428Y-141422381D01*
X166608333Y-141422381D01*
X167608333Y-140898571D02*
X167941667Y-140898571D01*
X168084524Y-141422381D02*
X167608333Y-141422381D01*
X167608333Y-140422381D01*
X168084524Y-140422381D01*
X151860714Y-141422381D02*
X151527380Y-140946190D01*
X151289285Y-141422381D02*
X151289285Y-140422381D01*
X151670238Y-140422381D01*
X151765476Y-140470000D01*
X151813095Y-140517619D01*
X151860714Y-140612857D01*
X151860714Y-140755714D01*
X151813095Y-140850952D01*
X151765476Y-140898571D01*
X151670238Y-140946190D01*
X151289285Y-140946190D01*
X152289285Y-140898571D02*
X152622619Y-140898571D01*
X152765476Y-141422381D02*
X152289285Y-141422381D01*
X152289285Y-140422381D01*
X152765476Y-140422381D01*
X153146428Y-141374762D02*
X153289285Y-141422381D01*
X153527381Y-141422381D01*
X153622619Y-141374762D01*
X153670238Y-141327143D01*
X153717857Y-141231905D01*
X153717857Y-141136667D01*
X153670238Y-141041429D01*
X153622619Y-140993810D01*
X153527381Y-140946190D01*
X153336904Y-140898571D01*
X153241666Y-140850952D01*
X153194047Y-140803333D01*
X153146428Y-140708095D01*
X153146428Y-140612857D01*
X153194047Y-140517619D01*
X153241666Y-140470000D01*
X153336904Y-140422381D01*
X153575000Y-140422381D01*
X153717857Y-140470000D01*
X154146428Y-140898571D02*
X154479762Y-140898571D01*
X154622619Y-141422381D02*
X154146428Y-141422381D01*
X154146428Y-140422381D01*
X154622619Y-140422381D01*
X154908333Y-140422381D02*
X155479762Y-140422381D01*
X155194047Y-141422381D02*
X155194047Y-140422381D01*
X137303572Y-141422381D02*
X137303572Y-140422381D01*
X137541667Y-140422381D01*
X137684525Y-140470000D01*
X137779763Y-140565238D01*
X137827382Y-140660476D01*
X137875001Y-140850952D01*
X137875001Y-140993810D01*
X137827382Y-141184286D01*
X137779763Y-141279524D01*
X137684525Y-141374762D01*
X137541667Y-141422381D01*
X137303572Y-141422381D01*
X138303572Y-141422381D02*
X138303572Y-140422381D01*
X138636905Y-140422381D02*
X138970238Y-141422381D01*
X139303572Y-140422381D01*
X139636905Y-141422381D02*
X139636905Y-140422381D01*
X140065476Y-141374762D02*
X140208333Y-141422381D01*
X140446429Y-141422381D01*
X140541667Y-141374762D01*
X140589286Y-141327143D01*
X140636905Y-141231905D01*
X140636905Y-141136667D01*
X140589286Y-141041429D01*
X140541667Y-140993810D01*
X140446429Y-140946190D01*
X140255952Y-140898571D01*
X140160714Y-140850952D01*
X140113095Y-140803333D01*
X140065476Y-140708095D01*
X140065476Y-140612857D01*
X140113095Y-140517619D01*
X140160714Y-140470000D01*
X140255952Y-140422381D01*
X140494048Y-140422381D01*
X140636905Y-140470000D01*
X141255952Y-140422381D02*
X141446429Y-140422381D01*
X141541667Y-140470000D01*
X141636905Y-140565238D01*
X141684524Y-140755714D01*
X141684524Y-141089048D01*
X141636905Y-141279524D01*
X141541667Y-141374762D01*
X141446429Y-141422381D01*
X141255952Y-141422381D01*
X141160714Y-141374762D01*
X141065476Y-141279524D01*
X141017857Y-141089048D01*
X141017857Y-140755714D01*
X141065476Y-140565238D01*
X141160714Y-140470000D01*
X141255952Y-140422381D01*
X142684524Y-141422381D02*
X142351190Y-140946190D01*
X142113095Y-141422381D02*
X142113095Y-140422381D01*
X142494048Y-140422381D01*
X142589286Y-140470000D01*
X142636905Y-140517619D01*
X142684524Y-140612857D01*
X142684524Y-140755714D01*
X142636905Y-140850952D01*
X142589286Y-140898571D01*
X142494048Y-140946190D01*
X142113095Y-140946190D01*
X127127381Y-141422381D02*
X126794047Y-140946190D01*
X126555952Y-141422381D02*
X126555952Y-140422381D01*
X126936905Y-140422381D01*
X127032143Y-140470000D01*
X127079762Y-140517619D01*
X127127381Y-140612857D01*
X127127381Y-140755714D01*
X127079762Y-140850952D01*
X127032143Y-140898571D01*
X126936905Y-140946190D01*
X126555952Y-140946190D01*
X127746428Y-140422381D02*
X127936905Y-140422381D01*
X128032143Y-140470000D01*
X128127381Y-140565238D01*
X128175000Y-140755714D01*
X128175000Y-141089048D01*
X128127381Y-141279524D01*
X128032143Y-141374762D01*
X127936905Y-141422381D01*
X127746428Y-141422381D01*
X127651190Y-141374762D01*
X127555952Y-141279524D01*
X127508333Y-141089048D01*
X127508333Y-140755714D01*
X127555952Y-140565238D01*
X127651190Y-140470000D01*
X127746428Y-140422381D01*
X128794047Y-140422381D02*
X128984524Y-140422381D01*
X129079762Y-140470000D01*
X129175000Y-140565238D01*
X129222619Y-140755714D01*
X129222619Y-141089048D01*
X129175000Y-141279524D01*
X129079762Y-141374762D01*
X128984524Y-141422381D01*
X128794047Y-141422381D01*
X128698809Y-141374762D01*
X128603571Y-141279524D01*
X128555952Y-141089048D01*
X128555952Y-140755714D01*
X128603571Y-140565238D01*
X128698809Y-140470000D01*
X128794047Y-140422381D01*
X129508333Y-140422381D02*
X130079762Y-140422381D01*
X129794047Y-141422381D02*
X129794047Y-140422381D01*
X113141666Y-141374762D02*
X113284523Y-141422381D01*
X113522619Y-141422381D01*
X113617857Y-141374762D01*
X113665476Y-141327143D01*
X113713095Y-141231905D01*
X113713095Y-141136667D01*
X113665476Y-141041429D01*
X113617857Y-140993810D01*
X113522619Y-140946190D01*
X113332142Y-140898571D01*
X113236904Y-140850952D01*
X113189285Y-140803333D01*
X113141666Y-140708095D01*
X113141666Y-140612857D01*
X113189285Y-140517619D01*
X113236904Y-140470000D01*
X113332142Y-140422381D01*
X113570238Y-140422381D01*
X113713095Y-140470000D01*
X114713095Y-141327143D02*
X114665476Y-141374762D01*
X114522619Y-141422381D01*
X114427381Y-141422381D01*
X114284523Y-141374762D01*
X114189285Y-141279524D01*
X114141666Y-141184286D01*
X114094047Y-140993810D01*
X114094047Y-140850952D01*
X114141666Y-140660476D01*
X114189285Y-140565238D01*
X114284523Y-140470000D01*
X114427381Y-140422381D01*
X114522619Y-140422381D01*
X114665476Y-140470000D01*
X114713095Y-140517619D01*
X115094047Y-141136667D02*
X115570238Y-141136667D01*
X114998809Y-141422381D02*
X115332142Y-140422381D01*
X115665476Y-141422381D01*
X116475000Y-141422381D02*
X115998809Y-141422381D01*
X115998809Y-140422381D01*
X116808333Y-140898571D02*
X117141667Y-140898571D01*
X117284524Y-141422381D02*
X116808333Y-141422381D01*
X116808333Y-140422381D01*
X117284524Y-140422381D01*
X187389286Y-128722381D02*
X187389286Y-127722381D01*
X187722620Y-128436667D01*
X188055953Y-127722381D01*
X188055953Y-128722381D01*
X188722619Y-127722381D02*
X188913096Y-127722381D01*
X189008334Y-127770000D01*
X189103572Y-127865238D01*
X189151191Y-128055714D01*
X189151191Y-128389048D01*
X189103572Y-128579524D01*
X189008334Y-128674762D01*
X188913096Y-128722381D01*
X188722619Y-128722381D01*
X188627381Y-128674762D01*
X188532143Y-128579524D01*
X188484524Y-128389048D01*
X188484524Y-128055714D01*
X188532143Y-127865238D01*
X188627381Y-127770000D01*
X188722619Y-127722381D01*
X189579762Y-128722381D02*
X189579762Y-127722381D01*
X190151191Y-128722381D01*
X190151191Y-127722381D01*
X190627381Y-128722381D02*
X190627381Y-127722381D01*
X190960714Y-127722381D02*
X191532143Y-127722381D01*
X191246428Y-128722381D02*
X191246428Y-127722381D01*
X192055952Y-127722381D02*
X192246429Y-127722381D01*
X192341667Y-127770000D01*
X192436905Y-127865238D01*
X192484524Y-128055714D01*
X192484524Y-128389048D01*
X192436905Y-128579524D01*
X192341667Y-128674762D01*
X192246429Y-128722381D01*
X192055952Y-128722381D01*
X191960714Y-128674762D01*
X191865476Y-128579524D01*
X191817857Y-128389048D01*
X191817857Y-128055714D01*
X191865476Y-127865238D01*
X191960714Y-127770000D01*
X192055952Y-127722381D01*
X193484524Y-128722381D02*
X193151190Y-128246190D01*
X192913095Y-128722381D02*
X192913095Y-127722381D01*
X193294048Y-127722381D01*
X193389286Y-127770000D01*
X193436905Y-127817619D01*
X193484524Y-127912857D01*
X193484524Y-128055714D01*
X193436905Y-128150952D01*
X193389286Y-128198571D01*
X193294048Y-128246190D01*
X192913095Y-128246190D01*
X109284523Y-127722381D02*
X109284523Y-128531905D01*
X109332142Y-128627143D01*
X109379761Y-128674762D01*
X109474999Y-128722381D01*
X109665476Y-128722381D01*
X109760714Y-128674762D01*
X109808333Y-128627143D01*
X109855952Y-128531905D01*
X109855952Y-127722381D01*
X110284523Y-128674762D02*
X110427380Y-128722381D01*
X110665476Y-128722381D01*
X110760714Y-128674762D01*
X110808333Y-128627143D01*
X110855952Y-128531905D01*
X110855952Y-128436667D01*
X110808333Y-128341429D01*
X110760714Y-128293810D01*
X110665476Y-128246190D01*
X110474999Y-128198571D01*
X110379761Y-128150952D01*
X110332142Y-128103333D01*
X110284523Y-128008095D01*
X110284523Y-127912857D01*
X110332142Y-127817619D01*
X110379761Y-127770000D01*
X110474999Y-127722381D01*
X110713095Y-127722381D01*
X110855952Y-127770000D01*
X111284523Y-128198571D02*
X111617857Y-128198571D01*
X111760714Y-128722381D02*
X111284523Y-128722381D01*
X111284523Y-127722381D01*
X111760714Y-127722381D01*
X112760714Y-128722381D02*
X112427380Y-128246190D01*
X112189285Y-128722381D02*
X112189285Y-127722381D01*
X112570238Y-127722381D01*
X112665476Y-127770000D01*
X112713095Y-127817619D01*
X112760714Y-127912857D01*
X112760714Y-128055714D01*
X112713095Y-128150952D01*
X112665476Y-128198571D01*
X112570238Y-128246190D01*
X112189285Y-128246190D01*
X113141666Y-128674762D02*
X113284523Y-128722381D01*
X113522619Y-128722381D01*
X113617857Y-128674762D01*
X113665476Y-128627143D01*
X113713095Y-128531905D01*
X113713095Y-128436667D01*
X113665476Y-128341429D01*
X113617857Y-128293810D01*
X113522619Y-128246190D01*
X113332142Y-128198571D01*
X113236904Y-128150952D01*
X113189285Y-128103333D01*
X113141666Y-128008095D01*
X113141666Y-127912857D01*
X113189285Y-127817619D01*
X113236904Y-127770000D01*
X113332142Y-127722381D01*
X113570238Y-127722381D01*
X113713095Y-127770000D01*
X114713095Y-128627143D02*
X114665476Y-128674762D01*
X114522619Y-128722381D01*
X114427381Y-128722381D01*
X114284523Y-128674762D01*
X114189285Y-128579524D01*
X114141666Y-128484286D01*
X114094047Y-128293810D01*
X114094047Y-128150952D01*
X114141666Y-127960476D01*
X114189285Y-127865238D01*
X114284523Y-127770000D01*
X114427381Y-127722381D01*
X114522619Y-127722381D01*
X114665476Y-127770000D01*
X114713095Y-127817619D01*
X115094047Y-128436667D02*
X115570238Y-128436667D01*
X114998809Y-128722381D02*
X115332142Y-127722381D01*
X115665476Y-128722381D01*
X116475000Y-128722381D02*
X115998809Y-128722381D01*
X115998809Y-127722381D01*
X116808333Y-128198571D02*
X117141667Y-128198571D01*
X117284524Y-128722381D02*
X116808333Y-128722381D01*
X116808333Y-127722381D01*
X117284524Y-127722381D01*
X201755953Y-128627143D02*
X201708334Y-128674762D01*
X201565477Y-128722381D01*
X201470239Y-128722381D01*
X201327381Y-128674762D01*
X201232143Y-128579524D01*
X201184524Y-128484286D01*
X201136905Y-128293810D01*
X201136905Y-128150952D01*
X201184524Y-127960476D01*
X201232143Y-127865238D01*
X201327381Y-127770000D01*
X201470239Y-127722381D01*
X201565477Y-127722381D01*
X201708334Y-127770000D01*
X201755953Y-127817619D01*
X202375000Y-127722381D02*
X202565477Y-127722381D01*
X202660715Y-127770000D01*
X202755953Y-127865238D01*
X202803572Y-128055714D01*
X202803572Y-128389048D01*
X202755953Y-128579524D01*
X202660715Y-128674762D01*
X202565477Y-128722381D01*
X202375000Y-128722381D01*
X202279762Y-128674762D01*
X202184524Y-128579524D01*
X202136905Y-128389048D01*
X202136905Y-128055714D01*
X202184524Y-127865238D01*
X202279762Y-127770000D01*
X202375000Y-127722381D01*
X203232143Y-128722381D02*
X203232143Y-127722381D01*
X203803572Y-128722381D01*
X203803572Y-127722381D01*
X204613096Y-128198571D02*
X204279762Y-128198571D01*
X204279762Y-128722381D02*
X204279762Y-127722381D01*
X204755953Y-127722381D01*
X205136905Y-128722381D02*
X205136905Y-127722381D01*
X206136905Y-127770000D02*
X206041667Y-127722381D01*
X205898810Y-127722381D01*
X205755952Y-127770000D01*
X205660714Y-127865238D01*
X205613095Y-127960476D01*
X205565476Y-128150952D01*
X205565476Y-128293810D01*
X205613095Y-128484286D01*
X205660714Y-128579524D01*
X205755952Y-128674762D01*
X205898810Y-128722381D01*
X205994048Y-128722381D01*
X206136905Y-128674762D01*
X206184524Y-128627143D01*
X206184524Y-128293810D01*
X205994048Y-128293810D01*
X94377381Y-103227143D02*
X94329762Y-103274762D01*
X94186905Y-103322381D01*
X94091667Y-103322381D01*
X93948809Y-103274762D01*
X93853571Y-103179524D01*
X93805952Y-103084286D01*
X93758333Y-102893810D01*
X93758333Y-102750952D01*
X93805952Y-102560476D01*
X93853571Y-102465238D01*
X93948809Y-102370000D01*
X94091667Y-102322381D01*
X94186905Y-102322381D01*
X94329762Y-102370000D01*
X94377381Y-102417619D01*
X95282143Y-103322381D02*
X94805952Y-103322381D01*
X94805952Y-102322381D01*
X95805952Y-102322381D02*
X95996429Y-102322381D01*
X96091667Y-102370000D01*
X96186905Y-102465238D01*
X96234524Y-102655714D01*
X96234524Y-102989048D01*
X96186905Y-103179524D01*
X96091667Y-103274762D01*
X95996429Y-103322381D01*
X95805952Y-103322381D01*
X95710714Y-103274762D01*
X95615476Y-103179524D01*
X95567857Y-102989048D01*
X95567857Y-102655714D01*
X95615476Y-102465238D01*
X95710714Y-102370000D01*
X95805952Y-102322381D01*
X97234524Y-103227143D02*
X97186905Y-103274762D01*
X97044048Y-103322381D01*
X96948810Y-103322381D01*
X96805952Y-103274762D01*
X96710714Y-103179524D01*
X96663095Y-103084286D01*
X96615476Y-102893810D01*
X96615476Y-102750952D01*
X96663095Y-102560476D01*
X96710714Y-102465238D01*
X96805952Y-102370000D01*
X96948810Y-102322381D01*
X97044048Y-102322381D01*
X97186905Y-102370000D01*
X97234524Y-102417619D01*
X97663095Y-103322381D02*
X97663095Y-102322381D01*
X98234524Y-103322381D02*
X97805952Y-102750952D01*
X98234524Y-102322381D02*
X97663095Y-102893810D01*
X200803572Y-116022381D02*
X200470238Y-115546190D01*
X200232143Y-116022381D02*
X200232143Y-115022381D01*
X200613096Y-115022381D01*
X200708334Y-115070000D01*
X200755953Y-115117619D01*
X200803572Y-115212857D01*
X200803572Y-115355714D01*
X200755953Y-115450952D01*
X200708334Y-115498571D01*
X200613096Y-115546190D01*
X200232143Y-115546190D01*
X201422619Y-115022381D02*
X201613096Y-115022381D01*
X201708334Y-115070000D01*
X201803572Y-115165238D01*
X201851191Y-115355714D01*
X201851191Y-115689048D01*
X201803572Y-115879524D01*
X201708334Y-115974762D01*
X201613096Y-116022381D01*
X201422619Y-116022381D01*
X201327381Y-115974762D01*
X201232143Y-115879524D01*
X201184524Y-115689048D01*
X201184524Y-115355714D01*
X201232143Y-115165238D01*
X201327381Y-115070000D01*
X201422619Y-115022381D01*
X202279762Y-115022381D02*
X202279762Y-115831905D01*
X202327381Y-115927143D01*
X202375000Y-115974762D01*
X202470238Y-116022381D01*
X202660715Y-116022381D01*
X202755953Y-115974762D01*
X202803572Y-115927143D01*
X202851191Y-115831905D01*
X202851191Y-115022381D01*
X203184524Y-115022381D02*
X203755953Y-115022381D01*
X203470238Y-116022381D02*
X203470238Y-115022381D01*
X204089286Y-116022381D02*
X204089286Y-115022381D01*
X204565476Y-116022381D02*
X204565476Y-115022381D01*
X205136905Y-116022381D01*
X205136905Y-115022381D01*
X206136905Y-115070000D02*
X206041667Y-115022381D01*
X205898810Y-115022381D01*
X205755952Y-115070000D01*
X205660714Y-115165238D01*
X205613095Y-115260476D01*
X205565476Y-115450952D01*
X205565476Y-115593810D01*
X205613095Y-115784286D01*
X205660714Y-115879524D01*
X205755952Y-115974762D01*
X205898810Y-116022381D01*
X205994048Y-116022381D01*
X206136905Y-115974762D01*
X206184524Y-115927143D01*
X206184524Y-115593810D01*
X205994048Y-115593810D01*
D12*
X202375001Y-139037143D02*
X202589287Y-139108571D01*
X202946430Y-139108571D01*
X203089287Y-139037143D01*
X203160716Y-138965714D01*
X203232144Y-138822857D01*
X203232144Y-138680000D01*
X203160716Y-138537143D01*
X203089287Y-138465714D01*
X202946430Y-138394286D01*
X202660716Y-138322857D01*
X202517858Y-138251429D01*
X202446430Y-138180000D01*
X202375001Y-138037143D01*
X202375001Y-137894286D01*
X202446430Y-137751429D01*
X202517858Y-137680000D01*
X202660716Y-137608571D01*
X203017858Y-137608571D01*
X203232144Y-137680000D01*
X204660715Y-139108571D02*
X203803572Y-139108571D01*
X204232144Y-139108571D02*
X204232144Y-137608571D01*
X204089287Y-137822857D01*
X203946429Y-137965714D01*
X203803572Y-138037143D01*
X205946429Y-137608571D02*
X205660715Y-137608571D01*
X205517858Y-137680000D01*
X205446429Y-137751429D01*
X205303572Y-137965714D01*
X205232143Y-138251429D01*
X205232143Y-138822857D01*
X205303572Y-138965714D01*
X205375000Y-139037143D01*
X205517858Y-139108571D01*
X205803572Y-139108571D01*
X205946429Y-139037143D01*
X206017858Y-138965714D01*
X206089286Y-138822857D01*
X206089286Y-138465714D01*
X206017858Y-138322857D01*
X205946429Y-138251429D01*
X205803572Y-138180000D01*
X205517858Y-138180000D01*
X205375000Y-138251429D01*
X205303572Y-138322857D01*
X205232143Y-138465714D01*
X189675001Y-139037143D02*
X189889287Y-139108571D01*
X190246430Y-139108571D01*
X190389287Y-139037143D01*
X190460716Y-138965714D01*
X190532144Y-138822857D01*
X190532144Y-138680000D01*
X190460716Y-138537143D01*
X190389287Y-138465714D01*
X190246430Y-138394286D01*
X189960716Y-138322857D01*
X189817858Y-138251429D01*
X189746430Y-138180000D01*
X189675001Y-138037143D01*
X189675001Y-137894286D01*
X189746430Y-137751429D01*
X189817858Y-137680000D01*
X189960716Y-137608571D01*
X190317858Y-137608571D01*
X190532144Y-137680000D01*
X191960715Y-139108571D02*
X191103572Y-139108571D01*
X191532144Y-139108571D02*
X191532144Y-137608571D01*
X191389287Y-137822857D01*
X191246429Y-137965714D01*
X191103572Y-138037143D01*
X193317858Y-137608571D02*
X192603572Y-137608571D01*
X192532143Y-138322857D01*
X192603572Y-138251429D01*
X192746429Y-138180000D01*
X193103572Y-138180000D01*
X193246429Y-138251429D01*
X193317858Y-138322857D01*
X193389286Y-138465714D01*
X193389286Y-138822857D01*
X193317858Y-138965714D01*
X193246429Y-139037143D01*
X193103572Y-139108571D01*
X192746429Y-139108571D01*
X192603572Y-139037143D01*
X192532143Y-138965714D01*
X176975001Y-139037143D02*
X177189287Y-139108571D01*
X177546430Y-139108571D01*
X177689287Y-139037143D01*
X177760716Y-138965714D01*
X177832144Y-138822857D01*
X177832144Y-138680000D01*
X177760716Y-138537143D01*
X177689287Y-138465714D01*
X177546430Y-138394286D01*
X177260716Y-138322857D01*
X177117858Y-138251429D01*
X177046430Y-138180000D01*
X176975001Y-138037143D01*
X176975001Y-137894286D01*
X177046430Y-137751429D01*
X177117858Y-137680000D01*
X177260716Y-137608571D01*
X177617858Y-137608571D01*
X177832144Y-137680000D01*
X179260715Y-139108571D02*
X178403572Y-139108571D01*
X178832144Y-139108571D02*
X178832144Y-137608571D01*
X178689287Y-137822857D01*
X178546429Y-137965714D01*
X178403572Y-138037143D01*
X180546429Y-138108571D02*
X180546429Y-139108571D01*
X180189286Y-137537143D02*
X179832143Y-138608571D01*
X180760715Y-138608571D01*
X164275001Y-139037143D02*
X164489287Y-139108571D01*
X164846430Y-139108571D01*
X164989287Y-139037143D01*
X165060716Y-138965714D01*
X165132144Y-138822857D01*
X165132144Y-138680000D01*
X165060716Y-138537143D01*
X164989287Y-138465714D01*
X164846430Y-138394286D01*
X164560716Y-138322857D01*
X164417858Y-138251429D01*
X164346430Y-138180000D01*
X164275001Y-138037143D01*
X164275001Y-137894286D01*
X164346430Y-137751429D01*
X164417858Y-137680000D01*
X164560716Y-137608571D01*
X164917858Y-137608571D01*
X165132144Y-137680000D01*
X166560715Y-139108571D02*
X165703572Y-139108571D01*
X166132144Y-139108571D02*
X166132144Y-137608571D01*
X165989287Y-137822857D01*
X165846429Y-137965714D01*
X165703572Y-138037143D01*
X167060715Y-137608571D02*
X167989286Y-137608571D01*
X167489286Y-138180000D01*
X167703572Y-138180000D01*
X167846429Y-138251429D01*
X167917858Y-138322857D01*
X167989286Y-138465714D01*
X167989286Y-138822857D01*
X167917858Y-138965714D01*
X167846429Y-139037143D01*
X167703572Y-139108571D01*
X167275000Y-139108571D01*
X167132143Y-139037143D01*
X167060715Y-138965714D01*
X151575001Y-139037143D02*
X151789287Y-139108571D01*
X152146430Y-139108571D01*
X152289287Y-139037143D01*
X152360716Y-138965714D01*
X152432144Y-138822857D01*
X152432144Y-138680000D01*
X152360716Y-138537143D01*
X152289287Y-138465714D01*
X152146430Y-138394286D01*
X151860716Y-138322857D01*
X151717858Y-138251429D01*
X151646430Y-138180000D01*
X151575001Y-138037143D01*
X151575001Y-137894286D01*
X151646430Y-137751429D01*
X151717858Y-137680000D01*
X151860716Y-137608571D01*
X152217858Y-137608571D01*
X152432144Y-137680000D01*
X153860715Y-139108571D02*
X153003572Y-139108571D01*
X153432144Y-139108571D02*
X153432144Y-137608571D01*
X153289287Y-137822857D01*
X153146429Y-137965714D01*
X153003572Y-138037143D01*
X154432143Y-137751429D02*
X154503572Y-137680000D01*
X154646429Y-137608571D01*
X155003572Y-137608571D01*
X155146429Y-137680000D01*
X155217858Y-137751429D01*
X155289286Y-137894286D01*
X155289286Y-138037143D01*
X155217858Y-138251429D01*
X154360715Y-139108571D01*
X155289286Y-139108571D01*
X138875001Y-139037143D02*
X139089287Y-139108571D01*
X139446430Y-139108571D01*
X139589287Y-139037143D01*
X139660716Y-138965714D01*
X139732144Y-138822857D01*
X139732144Y-138680000D01*
X139660716Y-138537143D01*
X139589287Y-138465714D01*
X139446430Y-138394286D01*
X139160716Y-138322857D01*
X139017858Y-138251429D01*
X138946430Y-138180000D01*
X138875001Y-138037143D01*
X138875001Y-137894286D01*
X138946430Y-137751429D01*
X139017858Y-137680000D01*
X139160716Y-137608571D01*
X139517858Y-137608571D01*
X139732144Y-137680000D01*
X141160715Y-139108571D02*
X140303572Y-139108571D01*
X140732144Y-139108571D02*
X140732144Y-137608571D01*
X140589287Y-137822857D01*
X140446429Y-137965714D01*
X140303572Y-138037143D01*
X142589286Y-139108571D02*
X141732143Y-139108571D01*
X142160715Y-139108571D02*
X142160715Y-137608571D01*
X142017858Y-137822857D01*
X141875000Y-137965714D01*
X141732143Y-138037143D01*
X126175001Y-139037143D02*
X126389287Y-139108571D01*
X126746430Y-139108571D01*
X126889287Y-139037143D01*
X126960716Y-138965714D01*
X127032144Y-138822857D01*
X127032144Y-138680000D01*
X126960716Y-138537143D01*
X126889287Y-138465714D01*
X126746430Y-138394286D01*
X126460716Y-138322857D01*
X126317858Y-138251429D01*
X126246430Y-138180000D01*
X126175001Y-138037143D01*
X126175001Y-137894286D01*
X126246430Y-137751429D01*
X126317858Y-137680000D01*
X126460716Y-137608571D01*
X126817858Y-137608571D01*
X127032144Y-137680000D01*
X128460715Y-139108571D02*
X127603572Y-139108571D01*
X128032144Y-139108571D02*
X128032144Y-137608571D01*
X127889287Y-137822857D01*
X127746429Y-137965714D01*
X127603572Y-138037143D01*
X129389286Y-137608571D02*
X129532143Y-137608571D01*
X129675000Y-137680000D01*
X129746429Y-137751429D01*
X129817858Y-137894286D01*
X129889286Y-138180000D01*
X129889286Y-138537143D01*
X129817858Y-138822857D01*
X129746429Y-138965714D01*
X129675000Y-139037143D01*
X129532143Y-139108571D01*
X129389286Y-139108571D01*
X129246429Y-139037143D01*
X129175000Y-138965714D01*
X129103572Y-138822857D01*
X129032143Y-138537143D01*
X129032143Y-138180000D01*
X129103572Y-137894286D01*
X129175000Y-137751429D01*
X129246429Y-137680000D01*
X129389286Y-137608571D01*
X114903572Y-139037143D02*
X115117858Y-139108571D01*
X115475001Y-139108571D01*
X115617858Y-139037143D01*
X115689287Y-138965714D01*
X115760715Y-138822857D01*
X115760715Y-138680000D01*
X115689287Y-138537143D01*
X115617858Y-138465714D01*
X115475001Y-138394286D01*
X115189287Y-138322857D01*
X115046429Y-138251429D01*
X114975001Y-138180000D01*
X114903572Y-138037143D01*
X114903572Y-137894286D01*
X114975001Y-137751429D01*
X115046429Y-137680000D01*
X115189287Y-137608571D01*
X115546429Y-137608571D01*
X115760715Y-137680000D01*
X116475000Y-139108571D02*
X116760715Y-139108571D01*
X116903572Y-139037143D01*
X116975000Y-138965714D01*
X117117858Y-138751429D01*
X117189286Y-138465714D01*
X117189286Y-137894286D01*
X117117858Y-137751429D01*
X117046429Y-137680000D01*
X116903572Y-137608571D01*
X116617858Y-137608571D01*
X116475000Y-137680000D01*
X116403572Y-137751429D01*
X116332143Y-137894286D01*
X116332143Y-138251429D01*
X116403572Y-138394286D01*
X116475000Y-138465714D01*
X116617858Y-138537143D01*
X116903572Y-138537143D01*
X117046429Y-138465714D01*
X117117858Y-138394286D01*
X117189286Y-138251429D01*
X203803572Y-126337143D02*
X204017858Y-126408571D01*
X204375001Y-126408571D01*
X204517858Y-126337143D01*
X204589287Y-126265714D01*
X204660715Y-126122857D01*
X204660715Y-125980000D01*
X204589287Y-125837143D01*
X204517858Y-125765714D01*
X204375001Y-125694286D01*
X204089287Y-125622857D01*
X203946429Y-125551429D01*
X203875001Y-125480000D01*
X203803572Y-125337143D01*
X203803572Y-125194286D01*
X203875001Y-125051429D01*
X203946429Y-124980000D01*
X204089287Y-124908571D01*
X204446429Y-124908571D01*
X204660715Y-124980000D01*
X205517858Y-125551429D02*
X205375000Y-125480000D01*
X205303572Y-125408571D01*
X205232143Y-125265714D01*
X205232143Y-125194286D01*
X205303572Y-125051429D01*
X205375000Y-124980000D01*
X205517858Y-124908571D01*
X205803572Y-124908571D01*
X205946429Y-124980000D01*
X206017858Y-125051429D01*
X206089286Y-125194286D01*
X206089286Y-125265714D01*
X206017858Y-125408571D01*
X205946429Y-125480000D01*
X205803572Y-125551429D01*
X205517858Y-125551429D01*
X205375000Y-125622857D01*
X205303572Y-125694286D01*
X205232143Y-125837143D01*
X205232143Y-126122857D01*
X205303572Y-126265714D01*
X205375000Y-126337143D01*
X205517858Y-126408571D01*
X205803572Y-126408571D01*
X205946429Y-126337143D01*
X206017858Y-126265714D01*
X206089286Y-126122857D01*
X206089286Y-125837143D01*
X206017858Y-125694286D01*
X205946429Y-125622857D01*
X205803572Y-125551429D01*
X191103572Y-126337143D02*
X191317858Y-126408571D01*
X191675001Y-126408571D01*
X191817858Y-126337143D01*
X191889287Y-126265714D01*
X191960715Y-126122857D01*
X191960715Y-125980000D01*
X191889287Y-125837143D01*
X191817858Y-125765714D01*
X191675001Y-125694286D01*
X191389287Y-125622857D01*
X191246429Y-125551429D01*
X191175001Y-125480000D01*
X191103572Y-125337143D01*
X191103572Y-125194286D01*
X191175001Y-125051429D01*
X191246429Y-124980000D01*
X191389287Y-124908571D01*
X191746429Y-124908571D01*
X191960715Y-124980000D01*
X192460715Y-124908571D02*
X193460715Y-124908571D01*
X192817858Y-126408571D01*
X178403572Y-126337143D02*
X178617858Y-126408571D01*
X178975001Y-126408571D01*
X179117858Y-126337143D01*
X179189287Y-126265714D01*
X179260715Y-126122857D01*
X179260715Y-125980000D01*
X179189287Y-125837143D01*
X179117858Y-125765714D01*
X178975001Y-125694286D01*
X178689287Y-125622857D01*
X178546429Y-125551429D01*
X178475001Y-125480000D01*
X178403572Y-125337143D01*
X178403572Y-125194286D01*
X178475001Y-125051429D01*
X178546429Y-124980000D01*
X178689287Y-124908571D01*
X179046429Y-124908571D01*
X179260715Y-124980000D01*
X180546429Y-124908571D02*
X180260715Y-124908571D01*
X180117858Y-124980000D01*
X180046429Y-125051429D01*
X179903572Y-125265714D01*
X179832143Y-125551429D01*
X179832143Y-126122857D01*
X179903572Y-126265714D01*
X179975000Y-126337143D01*
X180117858Y-126408571D01*
X180403572Y-126408571D01*
X180546429Y-126337143D01*
X180617858Y-126265714D01*
X180689286Y-126122857D01*
X180689286Y-125765714D01*
X180617858Y-125622857D01*
X180546429Y-125551429D01*
X180403572Y-125480000D01*
X180117858Y-125480000D01*
X179975000Y-125551429D01*
X179903572Y-125622857D01*
X179832143Y-125765714D01*
X165703572Y-126337143D02*
X165917858Y-126408571D01*
X166275001Y-126408571D01*
X166417858Y-126337143D01*
X166489287Y-126265714D01*
X166560715Y-126122857D01*
X166560715Y-125980000D01*
X166489287Y-125837143D01*
X166417858Y-125765714D01*
X166275001Y-125694286D01*
X165989287Y-125622857D01*
X165846429Y-125551429D01*
X165775001Y-125480000D01*
X165703572Y-125337143D01*
X165703572Y-125194286D01*
X165775001Y-125051429D01*
X165846429Y-124980000D01*
X165989287Y-124908571D01*
X166346429Y-124908571D01*
X166560715Y-124980000D01*
X167917858Y-124908571D02*
X167203572Y-124908571D01*
X167132143Y-125622857D01*
X167203572Y-125551429D01*
X167346429Y-125480000D01*
X167703572Y-125480000D01*
X167846429Y-125551429D01*
X167917858Y-125622857D01*
X167989286Y-125765714D01*
X167989286Y-126122857D01*
X167917858Y-126265714D01*
X167846429Y-126337143D01*
X167703572Y-126408571D01*
X167346429Y-126408571D01*
X167203572Y-126337143D01*
X167132143Y-126265714D01*
X153003572Y-126337143D02*
X153217858Y-126408571D01*
X153575001Y-126408571D01*
X153717858Y-126337143D01*
X153789287Y-126265714D01*
X153860715Y-126122857D01*
X153860715Y-125980000D01*
X153789287Y-125837143D01*
X153717858Y-125765714D01*
X153575001Y-125694286D01*
X153289287Y-125622857D01*
X153146429Y-125551429D01*
X153075001Y-125480000D01*
X153003572Y-125337143D01*
X153003572Y-125194286D01*
X153075001Y-125051429D01*
X153146429Y-124980000D01*
X153289287Y-124908571D01*
X153646429Y-124908571D01*
X153860715Y-124980000D01*
X155146429Y-125408571D02*
X155146429Y-126408571D01*
X154789286Y-124837143D02*
X154432143Y-125908571D01*
X155360715Y-125908571D01*
X140303572Y-126337143D02*
X140517858Y-126408571D01*
X140875001Y-126408571D01*
X141017858Y-126337143D01*
X141089287Y-126265714D01*
X141160715Y-126122857D01*
X141160715Y-125980000D01*
X141089287Y-125837143D01*
X141017858Y-125765714D01*
X140875001Y-125694286D01*
X140589287Y-125622857D01*
X140446429Y-125551429D01*
X140375001Y-125480000D01*
X140303572Y-125337143D01*
X140303572Y-125194286D01*
X140375001Y-125051429D01*
X140446429Y-124980000D01*
X140589287Y-124908571D01*
X140946429Y-124908571D01*
X141160715Y-124980000D01*
X141660715Y-124908571D02*
X142589286Y-124908571D01*
X142089286Y-125480000D01*
X142303572Y-125480000D01*
X142446429Y-125551429D01*
X142517858Y-125622857D01*
X142589286Y-125765714D01*
X142589286Y-126122857D01*
X142517858Y-126265714D01*
X142446429Y-126337143D01*
X142303572Y-126408571D01*
X141875000Y-126408571D01*
X141732143Y-126337143D01*
X141660715Y-126265714D01*
X127603572Y-126337143D02*
X127817858Y-126408571D01*
X128175001Y-126408571D01*
X128317858Y-126337143D01*
X128389287Y-126265714D01*
X128460715Y-126122857D01*
X128460715Y-125980000D01*
X128389287Y-125837143D01*
X128317858Y-125765714D01*
X128175001Y-125694286D01*
X127889287Y-125622857D01*
X127746429Y-125551429D01*
X127675001Y-125480000D01*
X127603572Y-125337143D01*
X127603572Y-125194286D01*
X127675001Y-125051429D01*
X127746429Y-124980000D01*
X127889287Y-124908571D01*
X128246429Y-124908571D01*
X128460715Y-124980000D01*
X129032143Y-125051429D02*
X129103572Y-124980000D01*
X129246429Y-124908571D01*
X129603572Y-124908571D01*
X129746429Y-124980000D01*
X129817858Y-125051429D01*
X129889286Y-125194286D01*
X129889286Y-125337143D01*
X129817858Y-125551429D01*
X128960715Y-126408571D01*
X129889286Y-126408571D01*
X114903572Y-126337143D02*
X115117858Y-126408571D01*
X115475001Y-126408571D01*
X115617858Y-126337143D01*
X115689287Y-126265714D01*
X115760715Y-126122857D01*
X115760715Y-125980000D01*
X115689287Y-125837143D01*
X115617858Y-125765714D01*
X115475001Y-125694286D01*
X115189287Y-125622857D01*
X115046429Y-125551429D01*
X114975001Y-125480000D01*
X114903572Y-125337143D01*
X114903572Y-125194286D01*
X114975001Y-125051429D01*
X115046429Y-124980000D01*
X115189287Y-124908571D01*
X115546429Y-124908571D01*
X115760715Y-124980000D01*
X117189286Y-126408571D02*
X116332143Y-126408571D01*
X116760715Y-126408571D02*
X116760715Y-124908571D01*
X116617858Y-125122857D01*
X116475000Y-125265714D01*
X116332143Y-125337143D01*
X203946429Y-112208571D02*
X204803572Y-112208571D01*
X204375001Y-113708571D02*
X204375001Y-112208571D01*
X205517858Y-112851429D02*
X205375000Y-112780000D01*
X205303572Y-112708571D01*
X205232143Y-112565714D01*
X205232143Y-112494286D01*
X205303572Y-112351429D01*
X205375000Y-112280000D01*
X205517858Y-112208571D01*
X205803572Y-112208571D01*
X205946429Y-112280000D01*
X206017858Y-112351429D01*
X206089286Y-112494286D01*
X206089286Y-112565714D01*
X206017858Y-112708571D01*
X205946429Y-112780000D01*
X205803572Y-112851429D01*
X205517858Y-112851429D01*
X205375000Y-112922857D01*
X205303572Y-112994286D01*
X205232143Y-113137143D01*
X205232143Y-113422857D01*
X205303572Y-113565714D01*
X205375000Y-113637143D01*
X205517858Y-113708571D01*
X205803572Y-113708571D01*
X205946429Y-113637143D01*
X206017858Y-113565714D01*
X206089286Y-113422857D01*
X206089286Y-113137143D01*
X206017858Y-112994286D01*
X205946429Y-112922857D01*
X205803572Y-112851429D01*
X191246429Y-112208571D02*
X192103572Y-112208571D01*
X191675001Y-113708571D02*
X191675001Y-112208571D01*
X192460715Y-112208571D02*
X193460715Y-112208571D01*
X192817858Y-113708571D01*
X178546429Y-112208571D02*
X179403572Y-112208571D01*
X178975001Y-113708571D02*
X178975001Y-112208571D01*
X180546429Y-112208571D02*
X180260715Y-112208571D01*
X180117858Y-112280000D01*
X180046429Y-112351429D01*
X179903572Y-112565714D01*
X179832143Y-112851429D01*
X179832143Y-113422857D01*
X179903572Y-113565714D01*
X179975000Y-113637143D01*
X180117858Y-113708571D01*
X180403572Y-113708571D01*
X180546429Y-113637143D01*
X180617858Y-113565714D01*
X180689286Y-113422857D01*
X180689286Y-113065714D01*
X180617858Y-112922857D01*
X180546429Y-112851429D01*
X180403572Y-112780000D01*
X180117858Y-112780000D01*
X179975000Y-112851429D01*
X179903572Y-112922857D01*
X179832143Y-113065714D01*
D11*
X165370238Y-115498571D02*
X165703572Y-115498571D01*
X165846429Y-116022381D02*
X165370238Y-116022381D01*
X165370238Y-115022381D01*
X165846429Y-115022381D01*
X166275000Y-116022381D02*
X166275000Y-115022381D01*
X166513095Y-115022381D01*
X166655953Y-115070000D01*
X166751191Y-115165238D01*
X166798810Y-115260476D01*
X166846429Y-115450952D01*
X166846429Y-115593810D01*
X166798810Y-115784286D01*
X166751191Y-115879524D01*
X166655953Y-115974762D01*
X166513095Y-116022381D01*
X166275000Y-116022381D01*
X167275000Y-116022381D02*
X167275000Y-115022381D01*
X167608333Y-115022381D02*
X168179762Y-115022381D01*
X167894047Y-116022381D02*
X167894047Y-115022381D01*
D12*
X165846429Y-112208571D02*
X166703572Y-112208571D01*
X166275001Y-113708571D02*
X166275001Y-112208571D01*
X167917858Y-112208571D02*
X167203572Y-112208571D01*
X167132143Y-112922857D01*
X167203572Y-112851429D01*
X167346429Y-112780000D01*
X167703572Y-112780000D01*
X167846429Y-112851429D01*
X167917858Y-112922857D01*
X167989286Y-113065714D01*
X167989286Y-113422857D01*
X167917858Y-113565714D01*
X167846429Y-113637143D01*
X167703572Y-113708571D01*
X167346429Y-113708571D01*
X167203572Y-113637143D01*
X167132143Y-113565714D01*
D11*
X152860714Y-115974762D02*
X153003571Y-116022381D01*
X153241667Y-116022381D01*
X153336905Y-115974762D01*
X153384524Y-115927143D01*
X153432143Y-115831905D01*
X153432143Y-115736667D01*
X153384524Y-115641429D01*
X153336905Y-115593810D01*
X153241667Y-115546190D01*
X153051190Y-115498571D01*
X152955952Y-115450952D01*
X152908333Y-115403333D01*
X152860714Y-115308095D01*
X152860714Y-115212857D01*
X152908333Y-115117619D01*
X152955952Y-115070000D01*
X153051190Y-115022381D01*
X153289286Y-115022381D01*
X153432143Y-115070000D01*
X153860714Y-115498571D02*
X154194048Y-115498571D01*
X154336905Y-116022381D02*
X153860714Y-116022381D01*
X153860714Y-115022381D01*
X154336905Y-115022381D01*
X155432143Y-116117619D02*
X155336905Y-116070000D01*
X155241667Y-115974762D01*
X155098810Y-115831905D01*
X155003571Y-115784286D01*
X154908333Y-115784286D01*
X154955952Y-116022381D02*
X154860714Y-115974762D01*
X154765476Y-115879524D01*
X154717857Y-115689048D01*
X154717857Y-115355714D01*
X154765476Y-115165238D01*
X154860714Y-115070000D01*
X154955952Y-115022381D01*
X155146429Y-115022381D01*
X155241667Y-115070000D01*
X155336905Y-115165238D01*
X155384524Y-115355714D01*
X155384524Y-115689048D01*
X155336905Y-115879524D01*
X155241667Y-115974762D01*
X155146429Y-116022381D01*
X154955952Y-116022381D01*
D12*
X153146429Y-112208571D02*
X154003572Y-112208571D01*
X153575001Y-113708571D02*
X153575001Y-112208571D01*
X155146429Y-112708571D02*
X155146429Y-113708571D01*
X154789286Y-112137143D02*
X154432143Y-113208571D01*
X155360715Y-113208571D01*
D11*
X138351190Y-115022381D02*
X138922619Y-115022381D01*
X138636904Y-116022381D02*
X138636904Y-115022381D01*
X139827381Y-116022381D02*
X139494047Y-115546190D01*
X139255952Y-116022381D02*
X139255952Y-115022381D01*
X139636905Y-115022381D01*
X139732143Y-115070000D01*
X139779762Y-115117619D01*
X139827381Y-115212857D01*
X139827381Y-115355714D01*
X139779762Y-115450952D01*
X139732143Y-115498571D01*
X139636905Y-115546190D01*
X139255952Y-115546190D01*
X140208333Y-115736667D02*
X140684524Y-115736667D01*
X140113095Y-116022381D02*
X140446428Y-115022381D01*
X140779762Y-116022381D01*
X141684524Y-115927143D02*
X141636905Y-115974762D01*
X141494048Y-116022381D01*
X141398810Y-116022381D01*
X141255952Y-115974762D01*
X141160714Y-115879524D01*
X141113095Y-115784286D01*
X141065476Y-115593810D01*
X141065476Y-115450952D01*
X141113095Y-115260476D01*
X141160714Y-115165238D01*
X141255952Y-115070000D01*
X141398810Y-115022381D01*
X141494048Y-115022381D01*
X141636905Y-115070000D01*
X141684524Y-115117619D01*
X142113095Y-116022381D02*
X142113095Y-115022381D01*
X142684524Y-116022381D02*
X142255952Y-115450952D01*
X142684524Y-115022381D02*
X142113095Y-115593810D01*
D12*
X140446429Y-112208571D02*
X141303572Y-112208571D01*
X140875001Y-113708571D02*
X140875001Y-112208571D01*
X141660715Y-112208571D02*
X142589286Y-112208571D01*
X142089286Y-112780000D01*
X142303572Y-112780000D01*
X142446429Y-112851429D01*
X142517858Y-112922857D01*
X142589286Y-113065714D01*
X142589286Y-113422857D01*
X142517858Y-113565714D01*
X142446429Y-113637143D01*
X142303572Y-113708571D01*
X141875000Y-113708571D01*
X141732143Y-113637143D01*
X141660715Y-113565714D01*
D11*
X125508333Y-116022381D02*
X125032142Y-116022381D01*
X125032142Y-115022381D01*
X125794047Y-115736667D02*
X126270238Y-115736667D01*
X125698809Y-116022381D02*
X126032142Y-115022381D01*
X126365476Y-116022381D01*
X126889285Y-115546190D02*
X126889285Y-116022381D01*
X126555952Y-115022381D02*
X126889285Y-115546190D01*
X127222619Y-115022381D01*
X127746428Y-115022381D02*
X127936905Y-115022381D01*
X128032143Y-115070000D01*
X128127381Y-115165238D01*
X128175000Y-115355714D01*
X128175000Y-115689048D01*
X128127381Y-115879524D01*
X128032143Y-115974762D01*
X127936905Y-116022381D01*
X127746428Y-116022381D01*
X127651190Y-115974762D01*
X127555952Y-115879524D01*
X127508333Y-115689048D01*
X127508333Y-115355714D01*
X127555952Y-115165238D01*
X127651190Y-115070000D01*
X127746428Y-115022381D01*
X128603571Y-115022381D02*
X128603571Y-115831905D01*
X128651190Y-115927143D01*
X128698809Y-115974762D01*
X128794047Y-116022381D01*
X128984524Y-116022381D01*
X129079762Y-115974762D01*
X129127381Y-115927143D01*
X129175000Y-115831905D01*
X129175000Y-115022381D01*
X129508333Y-115022381D02*
X130079762Y-115022381D01*
X129794047Y-116022381D02*
X129794047Y-115022381D01*
D12*
X127746429Y-112208571D02*
X128603572Y-112208571D01*
X128175001Y-113708571D02*
X128175001Y-112208571D01*
X129032143Y-112351429D02*
X129103572Y-112280000D01*
X129246429Y-112208571D01*
X129603572Y-112208571D01*
X129746429Y-112280000D01*
X129817858Y-112351429D01*
X129889286Y-112494286D01*
X129889286Y-112637143D01*
X129817858Y-112851429D01*
X128960715Y-113708571D01*
X129889286Y-113708571D01*
D11*
X111236904Y-116022381D02*
X111236904Y-115022381D01*
X111617857Y-115022381D01*
X111713095Y-115070000D01*
X111760714Y-115117619D01*
X111808333Y-115212857D01*
X111808333Y-115355714D01*
X111760714Y-115450952D01*
X111713095Y-115498571D01*
X111617857Y-115546190D01*
X111236904Y-115546190D01*
X112808333Y-116022381D02*
X112474999Y-115546190D01*
X112236904Y-116022381D02*
X112236904Y-115022381D01*
X112617857Y-115022381D01*
X112713095Y-115070000D01*
X112760714Y-115117619D01*
X112808333Y-115212857D01*
X112808333Y-115355714D01*
X112760714Y-115450952D01*
X112713095Y-115498571D01*
X112617857Y-115546190D01*
X112236904Y-115546190D01*
X113427380Y-115022381D02*
X113617857Y-115022381D01*
X113713095Y-115070000D01*
X113808333Y-115165238D01*
X113855952Y-115355714D01*
X113855952Y-115689048D01*
X113808333Y-115879524D01*
X113713095Y-115974762D01*
X113617857Y-116022381D01*
X113427380Y-116022381D01*
X113332142Y-115974762D01*
X113236904Y-115879524D01*
X113189285Y-115689048D01*
X113189285Y-115355714D01*
X113236904Y-115165238D01*
X113332142Y-115070000D01*
X113427380Y-115022381D01*
X114570238Y-115022381D02*
X114570238Y-115736667D01*
X114522618Y-115879524D01*
X114427380Y-115974762D01*
X114284523Y-116022381D01*
X114189285Y-116022381D01*
X115046428Y-115498571D02*
X115379762Y-115498571D01*
X115522619Y-116022381D02*
X115046428Y-116022381D01*
X115046428Y-115022381D01*
X115522619Y-115022381D01*
X116522619Y-115927143D02*
X116475000Y-115974762D01*
X116332143Y-116022381D01*
X116236905Y-116022381D01*
X116094047Y-115974762D01*
X115998809Y-115879524D01*
X115951190Y-115784286D01*
X115903571Y-115593810D01*
X115903571Y-115450952D01*
X115951190Y-115260476D01*
X115998809Y-115165238D01*
X116094047Y-115070000D01*
X116236905Y-115022381D01*
X116332143Y-115022381D01*
X116475000Y-115070000D01*
X116522619Y-115117619D01*
X116808333Y-115022381D02*
X117379762Y-115022381D01*
X117094047Y-116022381D02*
X117094047Y-115022381D01*
D12*
X115046429Y-112208571D02*
X115903572Y-112208571D01*
X115475001Y-113708571D02*
X115475001Y-112208571D01*
X117189286Y-113708571D02*
X116332143Y-113708571D01*
X116760715Y-113708571D02*
X116760715Y-112208571D01*
X116617858Y-112422857D01*
X116475000Y-112565714D01*
X116332143Y-112637143D01*
X93139286Y-139108571D02*
X93139286Y-137608571D01*
X93710714Y-137608571D01*
X93853572Y-137680000D01*
X93925000Y-137751429D01*
X93996429Y-137894286D01*
X93996429Y-138108571D01*
X93925000Y-138251429D01*
X93853572Y-138322857D01*
X93710714Y-138394286D01*
X93139286Y-138394286D01*
X94567857Y-138680000D02*
X95282143Y-138680000D01*
X94425000Y-139108571D02*
X94925000Y-137608571D01*
X95425000Y-139108571D01*
X96710714Y-137680000D02*
X96567857Y-137608571D01*
X96353571Y-137608571D01*
X96139286Y-137680000D01*
X95996428Y-137822857D01*
X95925000Y-137965714D01*
X95853571Y-138251429D01*
X95853571Y-138465714D01*
X95925000Y-138751429D01*
X95996428Y-138894286D01*
X96139286Y-139037143D01*
X96353571Y-139108571D01*
X96496428Y-139108571D01*
X96710714Y-139037143D01*
X96782143Y-138965714D01*
X96782143Y-138465714D01*
X96496428Y-138465714D01*
X97425000Y-138322857D02*
X97925000Y-138322857D01*
X98139286Y-139108571D02*
X97425000Y-139108571D01*
X97425000Y-137608571D01*
X98139286Y-137608571D01*
X79867857Y-139037143D02*
X80082143Y-139108571D01*
X80439286Y-139108571D01*
X80582143Y-139037143D01*
X80653572Y-138965714D01*
X80725000Y-138822857D01*
X80725000Y-138680000D01*
X80653572Y-138537143D01*
X80582143Y-138465714D01*
X80439286Y-138394286D01*
X80153572Y-138322857D01*
X80010714Y-138251429D01*
X79939286Y-138180000D01*
X79867857Y-138037143D01*
X79867857Y-137894286D01*
X79939286Y-137751429D01*
X80010714Y-137680000D01*
X80153572Y-137608571D01*
X80510714Y-137608571D01*
X80725000Y-137680000D01*
X81367857Y-139108571D02*
X81367857Y-137608571D01*
X81367857Y-138322857D02*
X82225000Y-138322857D01*
X82225000Y-139108571D02*
X82225000Y-137608571D01*
X82939286Y-139108571D02*
X82939286Y-137608571D01*
X84153572Y-138322857D02*
X83653572Y-138322857D01*
X83653572Y-139108571D02*
X83653572Y-137608571D01*
X84367858Y-137608571D01*
X84725000Y-137608571D02*
X85582143Y-137608571D01*
X85153572Y-139108571D02*
X85153572Y-137608571D01*
X93210714Y-126408571D02*
X92710714Y-125694286D01*
X92353571Y-126408571D02*
X92353571Y-124908571D01*
X92924999Y-124908571D01*
X93067857Y-124980000D01*
X93139285Y-125051429D01*
X93210714Y-125194286D01*
X93210714Y-125408571D01*
X93139285Y-125551429D01*
X93067857Y-125622857D01*
X92924999Y-125694286D01*
X92353571Y-125694286D01*
X93853571Y-126408571D02*
X93853571Y-124908571D01*
X95353571Y-124980000D02*
X95210714Y-124908571D01*
X94996428Y-124908571D01*
X94782143Y-124980000D01*
X94639285Y-125122857D01*
X94567857Y-125265714D01*
X94496428Y-125551429D01*
X94496428Y-125765714D01*
X94567857Y-126051429D01*
X94639285Y-126194286D01*
X94782143Y-126337143D01*
X94996428Y-126408571D01*
X95139285Y-126408571D01*
X95353571Y-126337143D01*
X95425000Y-126265714D01*
X95425000Y-125765714D01*
X95139285Y-125765714D01*
X96067857Y-126408571D02*
X96067857Y-124908571D01*
X96067857Y-125622857D02*
X96925000Y-125622857D01*
X96925000Y-126408571D02*
X96925000Y-124908571D01*
X97425000Y-124908571D02*
X98282143Y-124908571D01*
X97853572Y-126408571D02*
X97853572Y-124908571D01*
X81796429Y-126408571D02*
X81082143Y-126408571D01*
X81082143Y-124908571D01*
X82296429Y-125622857D02*
X82796429Y-125622857D01*
X83010715Y-126408571D02*
X82296429Y-126408571D01*
X82296429Y-124908571D01*
X83010715Y-124908571D01*
X84153572Y-125622857D02*
X83653572Y-125622857D01*
X83653572Y-126408571D02*
X83653572Y-124908571D01*
X84367858Y-124908571D01*
X84725000Y-124908571D02*
X85582143Y-124908571D01*
X85153572Y-126408571D02*
X85153572Y-124908571D01*
X93139286Y-113708571D02*
X93139286Y-112208571D01*
X93710714Y-112208571D01*
X93853572Y-112280000D01*
X93925000Y-112351429D01*
X93996429Y-112494286D01*
X93996429Y-112708571D01*
X93925000Y-112851429D01*
X93853572Y-112922857D01*
X93710714Y-112994286D01*
X93139286Y-112994286D01*
X94639286Y-112922857D02*
X95139286Y-112922857D01*
X95353572Y-113708571D02*
X94639286Y-113708571D01*
X94639286Y-112208571D01*
X95353572Y-112208571D01*
X96853572Y-113708571D02*
X96353572Y-112994286D01*
X95996429Y-113708571D02*
X95996429Y-112208571D01*
X96567857Y-112208571D01*
X96710715Y-112280000D01*
X96782143Y-112351429D01*
X96853572Y-112494286D01*
X96853572Y-112708571D01*
X96782143Y-112851429D01*
X96710715Y-112922857D01*
X96567857Y-112994286D01*
X95996429Y-112994286D01*
X97996429Y-112922857D02*
X97496429Y-112922857D01*
X97496429Y-113708571D02*
X97496429Y-112208571D01*
X98210715Y-112208571D01*
X81010715Y-113708571D02*
X81010715Y-112208571D01*
X81582143Y-112208571D01*
X81725001Y-112280000D01*
X81796429Y-112351429D01*
X81867858Y-112494286D01*
X81867858Y-112708571D01*
X81796429Y-112851429D01*
X81725001Y-112922857D01*
X81582143Y-112994286D01*
X81010715Y-112994286D01*
X82439286Y-113280000D02*
X83153572Y-113280000D01*
X82296429Y-113708571D02*
X82796429Y-112208571D01*
X83296429Y-113708571D01*
X83582143Y-112208571D02*
X84439286Y-112208571D01*
X84010715Y-113708571D02*
X84010715Y-112208571D01*
X84725000Y-112208571D02*
X85582143Y-112208571D01*
X85153572Y-113708571D02*
X85153572Y-112208571D01*
X94567857Y-100222857D02*
X94782143Y-100294286D01*
X94853571Y-100365714D01*
X94925000Y-100508571D01*
X94925000Y-100722857D01*
X94853571Y-100865714D01*
X94782143Y-100937143D01*
X94639285Y-101008571D01*
X94067857Y-101008571D01*
X94067857Y-99508571D01*
X94567857Y-99508571D01*
X94710714Y-99580000D01*
X94782143Y-99651429D01*
X94853571Y-99794286D01*
X94853571Y-99937143D01*
X94782143Y-100080000D01*
X94710714Y-100151429D01*
X94567857Y-100222857D01*
X94067857Y-100222857D01*
X95567857Y-101008571D02*
X95567857Y-99508571D01*
X96139285Y-99508571D01*
X96282143Y-99580000D01*
X96353571Y-99651429D01*
X96425000Y-99794286D01*
X96425000Y-100008571D01*
X96353571Y-100151429D01*
X96282143Y-100222857D01*
X96139285Y-100294286D01*
X95567857Y-100294286D01*
X97067857Y-101008571D02*
X97067857Y-99508571D01*
X97567857Y-100580000D01*
X98067857Y-99508571D01*
X98067857Y-101008571D01*
X80796429Y-101008571D02*
X80796429Y-99508571D01*
X81367857Y-99508571D01*
X81510715Y-99580000D01*
X81582143Y-99651429D01*
X81653572Y-99794286D01*
X81653572Y-100008571D01*
X81582143Y-100151429D01*
X81510715Y-100222857D01*
X81367857Y-100294286D01*
X80796429Y-100294286D01*
X83010715Y-101008571D02*
X82296429Y-101008571D01*
X82296429Y-99508571D01*
X83439286Y-100580000D02*
X84153572Y-100580000D01*
X83296429Y-101008571D02*
X83796429Y-99508571D01*
X84296429Y-101008571D01*
X85082143Y-100294286D02*
X85082143Y-101008571D01*
X84582143Y-99508571D02*
X85082143Y-100294286D01*
X85582143Y-99508571D01*
M02*
