M48
INCH,TZ
T1C0.106
T2C0.122
T3C0.126
T4C0.201
T5C0.240
%
G90
G05
T1
X43750Y-55000
T2
X35000Y-37500
X35000Y-42500
X35000Y-47500
X35000Y-52500
X40000Y-37500
X40000Y-42500
X40000Y-47500
X40000Y-52500
X47500Y-42500
X47500Y-47500
X47500Y-52500
X52500Y-42500
X52500Y-47500
X52500Y-52500
X57500Y-42500
X57500Y-47500
X57500Y-52500
X62500Y-42500
X62500Y-47500
X62500Y-52500
X67500Y-42500
X67500Y-47500
X67500Y-52500
X72500Y-42500
X72500Y-47500
X72500Y-52500
X77500Y-42500
X77500Y-47500
X77500Y-52500
X82500Y-42500
X82500Y-47500
X82500Y-52500
T4
X35000Y-40000
X35000Y-45000
X35000Y-50000
X35000Y-55000
X40000Y-40000
X40000Y-45000
X40000Y-50000
X40000Y-55000
X47500Y-45000
X47500Y-50000
X47500Y-55000
X52500Y-45000
X52500Y-50000
X52500Y-55000
X57500Y-45000
X57500Y-50000
X57500Y-55000
X62500Y-45000
X62500Y-50000
X62500Y-55000
X67500Y-45000
X67500Y-50000
X67500Y-55000
X72500Y-45000
X72500Y-50000
X72500Y-55000
X77500Y-45000
X77500Y-50000
X77500Y-55000
X82500Y-45000
X82500Y-50000
X82500Y-55000
T5
X40000Y-18000
X45000Y-18000
X50000Y-18000
X55000Y-18000
X60000Y-18000
X65000Y-18000
X70000Y-18000
X75000Y-18000
X80000Y-18000
X85000Y-18000
X90000Y-18000
X90000Y-23000
X90000Y-28000
X90000Y-33000
X90000Y-38000
X90000Y-43000
X90000Y-48000
X90000Y-53000
X95000Y-18000
X95000Y-23000
X95000Y-28000
X95000Y-33000
X95000Y-38000
X95000Y-43000
X95000Y-48000
X95000Y-53000
T3
X32559Y-11841G85X33346Y-11841
G05
X32559Y-60069G85X33346Y-60069
G05
X94559Y-11841G85X95346Y-11841
G05
X94559Y-60069G85X95346Y-60069
G05
T0
M30
