G04 #@! TF.FileFunction,Legend,Top*
%FSLAX46Y46*%
G04 Gerber Fmt 4.6, Leading zero omitted, Abs format (unit mm)*
G04 Created by KiCad (PCBNEW 4.0.7) date 2017 October 30, Monday 23:29:17*
%MOMM*%
%LPD*%
G01*
G04 APERTURE LIST*
%ADD10C,0.100000*%
%ADD11C,0.200000*%
%ADD12C,0.250000*%
%ADD13C,0.500000*%
G04 APERTURE END LIST*
D10*
D11*
X76200000Y-147955000D02*
X248920000Y-147955000D01*
X76200000Y-34925000D02*
X248920000Y-34925000D01*
D12*
X168910000Y-87630000D02*
X168910000Y-93980000D01*
X153670000Y-87630000D02*
X153670000Y-93980000D01*
X138430000Y-87630000D02*
X138430000Y-93980000D01*
X123190000Y-87630000D02*
X123190000Y-93980000D01*
X107950000Y-87630000D02*
X107950000Y-93980000D01*
X94615000Y-76200000D02*
G75*
G03X94615000Y-76200000I-8255000J0D01*
G01*
X155591666Y-151336429D02*
X155972619Y-152669762D01*
X156353571Y-151717381D01*
X156734523Y-152669762D01*
X157115476Y-151336429D01*
X158639285Y-152574524D02*
X158448809Y-152669762D01*
X158067857Y-152669762D01*
X157877380Y-152574524D01*
X157782142Y-152384048D01*
X157782142Y-151622143D01*
X157877380Y-151431667D01*
X158067857Y-151336429D01*
X158448809Y-151336429D01*
X158639285Y-151431667D01*
X158734523Y-151622143D01*
X158734523Y-151812619D01*
X157782142Y-152003095D01*
X159496428Y-152574524D02*
X159686905Y-152669762D01*
X160067857Y-152669762D01*
X160258333Y-152574524D01*
X160353571Y-152384048D01*
X160353571Y-152288810D01*
X160258333Y-152098333D01*
X160067857Y-152003095D01*
X159782143Y-152003095D01*
X159591666Y-151907857D01*
X159496428Y-151717381D01*
X159496428Y-151622143D01*
X159591666Y-151431667D01*
X159782143Y-151336429D01*
X160067857Y-151336429D01*
X160258333Y-151431667D01*
X160925000Y-151336429D02*
X161686905Y-151336429D01*
X161210714Y-150669762D02*
X161210714Y-152384048D01*
X161305953Y-152574524D01*
X161496429Y-152669762D01*
X161686905Y-152669762D01*
X162639286Y-152669762D02*
X162448810Y-152574524D01*
X162353571Y-152384048D01*
X162353571Y-150669762D01*
X163401190Y-152669762D02*
X163401190Y-151336429D01*
X163401190Y-150669762D02*
X163305952Y-150765000D01*
X163401190Y-150860238D01*
X163496429Y-150765000D01*
X163401190Y-150669762D01*
X163401190Y-150860238D01*
X165210714Y-152574524D02*
X165020238Y-152669762D01*
X164639286Y-152669762D01*
X164448810Y-152574524D01*
X164353571Y-152479286D01*
X164258333Y-152288810D01*
X164258333Y-151717381D01*
X164353571Y-151526905D01*
X164448810Y-151431667D01*
X164639286Y-151336429D01*
X165020238Y-151336429D01*
X165210714Y-151431667D01*
X166067857Y-152669762D02*
X166067857Y-150669762D01*
X166925000Y-152669762D02*
X166925000Y-151622143D01*
X166829762Y-151431667D01*
X166639286Y-151336429D01*
X166353572Y-151336429D01*
X166163096Y-151431667D01*
X166067857Y-151526905D01*
X167591667Y-151336429D02*
X168353572Y-151336429D01*
X167877381Y-150669762D02*
X167877381Y-152384048D01*
X167972620Y-152574524D01*
X168163096Y-152669762D01*
X168353572Y-152669762D01*
D13*
X184465715Y-73330714D02*
X184465715Y-77830714D01*
X184465715Y-73545000D02*
X184894286Y-73330714D01*
X185751429Y-73330714D01*
X186180000Y-73545000D01*
X186394286Y-73759286D01*
X186608572Y-74187857D01*
X186608572Y-75473571D01*
X186394286Y-75902143D01*
X186180000Y-76116429D01*
X185751429Y-76330714D01*
X184894286Y-76330714D01*
X184465715Y-76116429D01*
X190251429Y-76116429D02*
X189822858Y-76330714D01*
X188965715Y-76330714D01*
X188537144Y-76116429D01*
X188322858Y-75687857D01*
X188322858Y-73973571D01*
X188537144Y-73545000D01*
X188965715Y-73330714D01*
X189822858Y-73330714D01*
X190251429Y-73545000D01*
X190465715Y-73973571D01*
X190465715Y-74402143D01*
X188322858Y-74830714D01*
X192394287Y-76330714D02*
X192394287Y-73330714D01*
X192394287Y-74187857D02*
X192608572Y-73759286D01*
X192822858Y-73545000D01*
X193251429Y-73330714D01*
X193680001Y-73330714D01*
X196251429Y-77830714D02*
X196251429Y-71402143D01*
X198822857Y-73330714D02*
X200537143Y-73330714D01*
X199465715Y-76330714D02*
X199465715Y-72473571D01*
X199680000Y-72045000D01*
X200108572Y-71830714D01*
X200537143Y-71830714D01*
X202680001Y-76330714D02*
X202251429Y-76116429D01*
X202037144Y-75902143D01*
X201822858Y-75473571D01*
X201822858Y-74187857D01*
X202037144Y-73759286D01*
X202251429Y-73545000D01*
X202680001Y-73330714D01*
X203322858Y-73330714D01*
X203751429Y-73545000D01*
X203965715Y-73759286D01*
X204180001Y-74187857D01*
X204180001Y-75473571D01*
X203965715Y-75902143D01*
X203751429Y-76116429D01*
X203322858Y-76330714D01*
X202680001Y-76330714D01*
X206108573Y-76330714D02*
X206108573Y-73330714D01*
X206108573Y-74187857D02*
X206322858Y-73759286D01*
X206537144Y-73545000D01*
X206965715Y-73330714D01*
X207394287Y-73330714D01*
X208894287Y-76330714D02*
X208894287Y-73330714D01*
X208894287Y-73759286D02*
X209108572Y-73545000D01*
X209537144Y-73330714D01*
X210180001Y-73330714D01*
X210608572Y-73545000D01*
X210822858Y-73973571D01*
X210822858Y-76330714D01*
X210822858Y-73973571D02*
X211037144Y-73545000D01*
X211465715Y-73330714D01*
X212108572Y-73330714D01*
X212537144Y-73545000D01*
X212751429Y-73973571D01*
X212751429Y-76330714D01*
X216608572Y-76116429D02*
X216180001Y-76330714D01*
X215322858Y-76330714D01*
X214894287Y-76116429D01*
X214680001Y-75687857D01*
X214680001Y-73973571D01*
X214894287Y-73545000D01*
X215322858Y-73330714D01*
X216180001Y-73330714D01*
X216608572Y-73545000D01*
X216822858Y-73973571D01*
X216822858Y-74402143D01*
X214680001Y-74830714D01*
X218751430Y-76330714D02*
X218751430Y-73330714D01*
X218751430Y-74187857D02*
X218965715Y-73759286D01*
X219180001Y-73545000D01*
X219608572Y-73330714D01*
X220037144Y-73330714D01*
D12*
X97921428Y-40048571D02*
X97921428Y-38548571D01*
X98421428Y-39620000D01*
X98921428Y-38548571D01*
X98921428Y-40048571D01*
X99635714Y-40048571D02*
X99635714Y-38548571D01*
X100350000Y-40048571D02*
X100350000Y-38548571D01*
X100707143Y-38548571D01*
X100921428Y-38620000D01*
X101064286Y-38762857D01*
X101135714Y-38905714D01*
X101207143Y-39191429D01*
X101207143Y-39405714D01*
X101135714Y-39691429D01*
X101064286Y-39834286D01*
X100921428Y-39977143D01*
X100707143Y-40048571D01*
X100350000Y-40048571D01*
X101850000Y-40048571D02*
X101850000Y-38548571D01*
X103707143Y-40048571D02*
X103707143Y-38548571D01*
X104421429Y-40048571D02*
X104421429Y-38548571D01*
X105278572Y-40048571D01*
X105278572Y-38548571D01*
X109621428Y-40048571D02*
X109621428Y-38548571D01*
X110121428Y-39620000D01*
X110621428Y-38548571D01*
X110621428Y-40048571D01*
X111335714Y-40048571D02*
X111335714Y-38548571D01*
X112050000Y-40048571D02*
X112050000Y-38548571D01*
X112407143Y-38548571D01*
X112621428Y-38620000D01*
X112764286Y-38762857D01*
X112835714Y-38905714D01*
X112907143Y-39191429D01*
X112907143Y-39405714D01*
X112835714Y-39691429D01*
X112764286Y-39834286D01*
X112621428Y-39977143D01*
X112407143Y-40048571D01*
X112050000Y-40048571D01*
X113550000Y-40048571D02*
X113550000Y-38548571D01*
X115692857Y-38548571D02*
X115978571Y-38548571D01*
X116121429Y-38620000D01*
X116264286Y-38762857D01*
X116335714Y-39048571D01*
X116335714Y-39548571D01*
X116264286Y-39834286D01*
X116121429Y-39977143D01*
X115978571Y-40048571D01*
X115692857Y-40048571D01*
X115550000Y-39977143D01*
X115407143Y-39834286D01*
X115335714Y-39548571D01*
X115335714Y-39048571D01*
X115407143Y-38762857D01*
X115550000Y-38620000D01*
X115692857Y-38548571D01*
X116978572Y-38548571D02*
X116978572Y-39762857D01*
X117050000Y-39905714D01*
X117121429Y-39977143D01*
X117264286Y-40048571D01*
X117550000Y-40048571D01*
X117692858Y-39977143D01*
X117764286Y-39905714D01*
X117835715Y-39762857D01*
X117835715Y-38548571D01*
X118335715Y-38548571D02*
X119192858Y-38548571D01*
X118764287Y-40048571D02*
X118764287Y-38548571D01*
X124392857Y-39905714D02*
X124321428Y-39977143D01*
X124107142Y-40048571D01*
X123964285Y-40048571D01*
X123750000Y-39977143D01*
X123607142Y-39834286D01*
X123535714Y-39691429D01*
X123464285Y-39405714D01*
X123464285Y-39191429D01*
X123535714Y-38905714D01*
X123607142Y-38762857D01*
X123750000Y-38620000D01*
X123964285Y-38548571D01*
X124107142Y-38548571D01*
X124321428Y-38620000D01*
X124392857Y-38691429D01*
X125750000Y-40048571D02*
X125035714Y-40048571D01*
X125035714Y-38548571D01*
X126250000Y-40048571D02*
X126250000Y-38548571D01*
X127107143Y-40048571D02*
X126464286Y-39191429D01*
X127107143Y-38548571D02*
X126250000Y-39405714D01*
X128892857Y-40048571D02*
X128892857Y-38548571D01*
X129607143Y-40048571D02*
X129607143Y-38548571D01*
X130464286Y-40048571D01*
X130464286Y-38548571D01*
X148792857Y-39905714D02*
X148721428Y-39977143D01*
X148507142Y-40048571D01*
X148364285Y-40048571D01*
X148150000Y-39977143D01*
X148007142Y-39834286D01*
X147935714Y-39691429D01*
X147864285Y-39405714D01*
X147864285Y-39191429D01*
X147935714Y-38905714D01*
X148007142Y-38762857D01*
X148150000Y-38620000D01*
X148364285Y-38548571D01*
X148507142Y-38548571D01*
X148721428Y-38620000D01*
X148792857Y-38691429D01*
X150150000Y-40048571D02*
X149435714Y-40048571D01*
X149435714Y-38548571D01*
X150650000Y-40048571D02*
X150650000Y-38548571D01*
X151507143Y-40048571D02*
X150864286Y-39191429D01*
X151507143Y-38548571D02*
X150650000Y-39405714D01*
X153578571Y-38548571D02*
X153864285Y-38548571D01*
X154007143Y-38620000D01*
X154150000Y-38762857D01*
X154221428Y-39048571D01*
X154221428Y-39548571D01*
X154150000Y-39834286D01*
X154007143Y-39977143D01*
X153864285Y-40048571D01*
X153578571Y-40048571D01*
X153435714Y-39977143D01*
X153292857Y-39834286D01*
X153221428Y-39548571D01*
X153221428Y-39048571D01*
X153292857Y-38762857D01*
X153435714Y-38620000D01*
X153578571Y-38548571D01*
X154864286Y-38548571D02*
X154864286Y-39762857D01*
X154935714Y-39905714D01*
X155007143Y-39977143D01*
X155150000Y-40048571D01*
X155435714Y-40048571D01*
X155578572Y-39977143D01*
X155650000Y-39905714D01*
X155721429Y-39762857D01*
X155721429Y-38548571D01*
X156221429Y-38548571D02*
X157078572Y-38548571D01*
X156650001Y-40048571D02*
X156650001Y-38548571D01*
X240407144Y-39905714D02*
X240335715Y-39977143D01*
X240121429Y-40048571D01*
X239978572Y-40048571D01*
X239764287Y-39977143D01*
X239621429Y-39834286D01*
X239550001Y-39691429D01*
X239478572Y-39405714D01*
X239478572Y-39191429D01*
X239550001Y-38905714D01*
X239621429Y-38762857D01*
X239764287Y-38620000D01*
X239978572Y-38548571D01*
X240121429Y-38548571D01*
X240335715Y-38620000D01*
X240407144Y-38691429D01*
X240835715Y-38548571D02*
X241335715Y-40048571D01*
X241835715Y-38548571D01*
X243121429Y-40048571D02*
X242264286Y-40048571D01*
X242692858Y-40048571D02*
X242692858Y-38548571D01*
X242550001Y-38762857D01*
X242407143Y-38905714D01*
X242264286Y-38977143D01*
X240407144Y-52605714D02*
X240335715Y-52677143D01*
X240121429Y-52748571D01*
X239978572Y-52748571D01*
X239764287Y-52677143D01*
X239621429Y-52534286D01*
X239550001Y-52391429D01*
X239478572Y-52105714D01*
X239478572Y-51891429D01*
X239550001Y-51605714D01*
X239621429Y-51462857D01*
X239764287Y-51320000D01*
X239978572Y-51248571D01*
X240121429Y-51248571D01*
X240335715Y-51320000D01*
X240407144Y-51391429D01*
X240835715Y-51248571D02*
X241335715Y-52748571D01*
X241835715Y-51248571D01*
X242264286Y-51391429D02*
X242335715Y-51320000D01*
X242478572Y-51248571D01*
X242835715Y-51248571D01*
X242978572Y-51320000D01*
X243050001Y-51391429D01*
X243121429Y-51534286D01*
X243121429Y-51677143D01*
X243050001Y-51891429D01*
X242192858Y-52748571D01*
X243121429Y-52748571D01*
X240407144Y-65305714D02*
X240335715Y-65377143D01*
X240121429Y-65448571D01*
X239978572Y-65448571D01*
X239764287Y-65377143D01*
X239621429Y-65234286D01*
X239550001Y-65091429D01*
X239478572Y-64805714D01*
X239478572Y-64591429D01*
X239550001Y-64305714D01*
X239621429Y-64162857D01*
X239764287Y-64020000D01*
X239978572Y-63948571D01*
X240121429Y-63948571D01*
X240335715Y-64020000D01*
X240407144Y-64091429D01*
X240835715Y-63948571D02*
X241335715Y-65448571D01*
X241835715Y-63948571D01*
X242192858Y-63948571D02*
X243121429Y-63948571D01*
X242621429Y-64520000D01*
X242835715Y-64520000D01*
X242978572Y-64591429D01*
X243050001Y-64662857D01*
X243121429Y-64805714D01*
X243121429Y-65162857D01*
X243050001Y-65305714D01*
X242978572Y-65377143D01*
X242835715Y-65448571D01*
X242407143Y-65448571D01*
X242264286Y-65377143D01*
X242192858Y-65305714D01*
X240407144Y-78005714D02*
X240335715Y-78077143D01*
X240121429Y-78148571D01*
X239978572Y-78148571D01*
X239764287Y-78077143D01*
X239621429Y-77934286D01*
X239550001Y-77791429D01*
X239478572Y-77505714D01*
X239478572Y-77291429D01*
X239550001Y-77005714D01*
X239621429Y-76862857D01*
X239764287Y-76720000D01*
X239978572Y-76648571D01*
X240121429Y-76648571D01*
X240335715Y-76720000D01*
X240407144Y-76791429D01*
X240835715Y-76648571D02*
X241335715Y-78148571D01*
X241835715Y-76648571D01*
X242978572Y-77148571D02*
X242978572Y-78148571D01*
X242621429Y-76577143D02*
X242264286Y-77648571D01*
X243192858Y-77648571D01*
X240407144Y-90705714D02*
X240335715Y-90777143D01*
X240121429Y-90848571D01*
X239978572Y-90848571D01*
X239764287Y-90777143D01*
X239621429Y-90634286D01*
X239550001Y-90491429D01*
X239478572Y-90205714D01*
X239478572Y-89991429D01*
X239550001Y-89705714D01*
X239621429Y-89562857D01*
X239764287Y-89420000D01*
X239978572Y-89348571D01*
X240121429Y-89348571D01*
X240335715Y-89420000D01*
X240407144Y-89491429D01*
X240835715Y-89348571D02*
X241335715Y-90848571D01*
X241835715Y-89348571D01*
X243050001Y-89348571D02*
X242335715Y-89348571D01*
X242264286Y-90062857D01*
X242335715Y-89991429D01*
X242478572Y-89920000D01*
X242835715Y-89920000D01*
X242978572Y-89991429D01*
X243050001Y-90062857D01*
X243121429Y-90205714D01*
X243121429Y-90562857D01*
X243050001Y-90705714D01*
X242978572Y-90777143D01*
X242835715Y-90848571D01*
X242478572Y-90848571D01*
X242335715Y-90777143D01*
X242264286Y-90705714D01*
X240407144Y-103405714D02*
X240335715Y-103477143D01*
X240121429Y-103548571D01*
X239978572Y-103548571D01*
X239764287Y-103477143D01*
X239621429Y-103334286D01*
X239550001Y-103191429D01*
X239478572Y-102905714D01*
X239478572Y-102691429D01*
X239550001Y-102405714D01*
X239621429Y-102262857D01*
X239764287Y-102120000D01*
X239978572Y-102048571D01*
X240121429Y-102048571D01*
X240335715Y-102120000D01*
X240407144Y-102191429D01*
X240835715Y-102048571D02*
X241335715Y-103548571D01*
X241835715Y-102048571D01*
X242978572Y-102048571D02*
X242692858Y-102048571D01*
X242550001Y-102120000D01*
X242478572Y-102191429D01*
X242335715Y-102405714D01*
X242264286Y-102691429D01*
X242264286Y-103262857D01*
X242335715Y-103405714D01*
X242407143Y-103477143D01*
X242550001Y-103548571D01*
X242835715Y-103548571D01*
X242978572Y-103477143D01*
X243050001Y-103405714D01*
X243121429Y-103262857D01*
X243121429Y-102905714D01*
X243050001Y-102762857D01*
X242978572Y-102691429D01*
X242835715Y-102620000D01*
X242550001Y-102620000D01*
X242407143Y-102691429D01*
X242335715Y-102762857D01*
X242264286Y-102905714D01*
X240407144Y-116105714D02*
X240335715Y-116177143D01*
X240121429Y-116248571D01*
X239978572Y-116248571D01*
X239764287Y-116177143D01*
X239621429Y-116034286D01*
X239550001Y-115891429D01*
X239478572Y-115605714D01*
X239478572Y-115391429D01*
X239550001Y-115105714D01*
X239621429Y-114962857D01*
X239764287Y-114820000D01*
X239978572Y-114748571D01*
X240121429Y-114748571D01*
X240335715Y-114820000D01*
X240407144Y-114891429D01*
X240835715Y-114748571D02*
X241335715Y-116248571D01*
X241835715Y-114748571D01*
X242192858Y-114748571D02*
X243192858Y-114748571D01*
X242550001Y-116248571D01*
X240407144Y-128805714D02*
X240335715Y-128877143D01*
X240121429Y-128948571D01*
X239978572Y-128948571D01*
X239764287Y-128877143D01*
X239621429Y-128734286D01*
X239550001Y-128591429D01*
X239478572Y-128305714D01*
X239478572Y-128091429D01*
X239550001Y-127805714D01*
X239621429Y-127662857D01*
X239764287Y-127520000D01*
X239978572Y-127448571D01*
X240121429Y-127448571D01*
X240335715Y-127520000D01*
X240407144Y-127591429D01*
X240835715Y-127448571D02*
X241335715Y-128948571D01*
X241835715Y-127448571D01*
X242550001Y-128091429D02*
X242407143Y-128020000D01*
X242335715Y-127948571D01*
X242264286Y-127805714D01*
X242264286Y-127734286D01*
X242335715Y-127591429D01*
X242407143Y-127520000D01*
X242550001Y-127448571D01*
X242835715Y-127448571D01*
X242978572Y-127520000D01*
X243050001Y-127591429D01*
X243121429Y-127734286D01*
X243121429Y-127805714D01*
X243050001Y-127948571D01*
X242978572Y-128020000D01*
X242835715Y-128091429D01*
X242550001Y-128091429D01*
X242407143Y-128162857D01*
X242335715Y-128234286D01*
X242264286Y-128377143D01*
X242264286Y-128662857D01*
X242335715Y-128805714D01*
X242407143Y-128877143D01*
X242550001Y-128948571D01*
X242835715Y-128948571D01*
X242978572Y-128877143D01*
X243050001Y-128805714D01*
X243121429Y-128662857D01*
X243121429Y-128377143D01*
X243050001Y-128234286D01*
X242978572Y-128162857D01*
X242835715Y-128091429D01*
X175192858Y-39905714D02*
X175121429Y-39977143D01*
X174907143Y-40048571D01*
X174764286Y-40048571D01*
X174550001Y-39977143D01*
X174407143Y-39834286D01*
X174335715Y-39691429D01*
X174264286Y-39405714D01*
X174264286Y-39191429D01*
X174335715Y-38905714D01*
X174407143Y-38762857D01*
X174550001Y-38620000D01*
X174764286Y-38548571D01*
X174907143Y-38548571D01*
X175121429Y-38620000D01*
X175192858Y-38691429D01*
X175621429Y-38548571D02*
X176121429Y-40048571D01*
X176621429Y-38548571D01*
X177907143Y-40048571D02*
X177050000Y-40048571D01*
X177478572Y-40048571D02*
X177478572Y-38548571D01*
X177335715Y-38762857D01*
X177192857Y-38905714D01*
X177050000Y-38977143D01*
X179692857Y-40048571D02*
X179692857Y-38548571D01*
X180407143Y-40048571D02*
X180407143Y-38548571D01*
X181264286Y-40048571D01*
X181264286Y-38548571D01*
X187892858Y-39905714D02*
X187821429Y-39977143D01*
X187607143Y-40048571D01*
X187464286Y-40048571D01*
X187250001Y-39977143D01*
X187107143Y-39834286D01*
X187035715Y-39691429D01*
X186964286Y-39405714D01*
X186964286Y-39191429D01*
X187035715Y-38905714D01*
X187107143Y-38762857D01*
X187250001Y-38620000D01*
X187464286Y-38548571D01*
X187607143Y-38548571D01*
X187821429Y-38620000D01*
X187892858Y-38691429D01*
X188321429Y-38548571D02*
X188821429Y-40048571D01*
X189321429Y-38548571D01*
X189750000Y-38691429D02*
X189821429Y-38620000D01*
X189964286Y-38548571D01*
X190321429Y-38548571D01*
X190464286Y-38620000D01*
X190535715Y-38691429D01*
X190607143Y-38834286D01*
X190607143Y-38977143D01*
X190535715Y-39191429D01*
X189678572Y-40048571D01*
X190607143Y-40048571D01*
X192392857Y-40048571D02*
X192392857Y-38548571D01*
X193107143Y-40048571D02*
X193107143Y-38548571D01*
X193964286Y-40048571D01*
X193964286Y-38548571D01*
X200592858Y-39905714D02*
X200521429Y-39977143D01*
X200307143Y-40048571D01*
X200164286Y-40048571D01*
X199950001Y-39977143D01*
X199807143Y-39834286D01*
X199735715Y-39691429D01*
X199664286Y-39405714D01*
X199664286Y-39191429D01*
X199735715Y-38905714D01*
X199807143Y-38762857D01*
X199950001Y-38620000D01*
X200164286Y-38548571D01*
X200307143Y-38548571D01*
X200521429Y-38620000D01*
X200592858Y-38691429D01*
X201021429Y-38548571D02*
X201521429Y-40048571D01*
X202021429Y-38548571D01*
X202378572Y-38548571D02*
X203307143Y-38548571D01*
X202807143Y-39120000D01*
X203021429Y-39120000D01*
X203164286Y-39191429D01*
X203235715Y-39262857D01*
X203307143Y-39405714D01*
X203307143Y-39762857D01*
X203235715Y-39905714D01*
X203164286Y-39977143D01*
X203021429Y-40048571D01*
X202592857Y-40048571D01*
X202450000Y-39977143D01*
X202378572Y-39905714D01*
X205092857Y-40048571D02*
X205092857Y-38548571D01*
X205807143Y-40048571D02*
X205807143Y-38548571D01*
X206664286Y-40048571D01*
X206664286Y-38548571D01*
X213292858Y-39905714D02*
X213221429Y-39977143D01*
X213007143Y-40048571D01*
X212864286Y-40048571D01*
X212650001Y-39977143D01*
X212507143Y-39834286D01*
X212435715Y-39691429D01*
X212364286Y-39405714D01*
X212364286Y-39191429D01*
X212435715Y-38905714D01*
X212507143Y-38762857D01*
X212650001Y-38620000D01*
X212864286Y-38548571D01*
X213007143Y-38548571D01*
X213221429Y-38620000D01*
X213292858Y-38691429D01*
X213721429Y-38548571D02*
X214221429Y-40048571D01*
X214721429Y-38548571D01*
X215864286Y-39048571D02*
X215864286Y-40048571D01*
X215507143Y-38477143D02*
X215150000Y-39548571D01*
X216078572Y-39548571D01*
X217792857Y-40048571D02*
X217792857Y-38548571D01*
X218507143Y-40048571D02*
X218507143Y-38548571D01*
X219364286Y-40048571D01*
X219364286Y-38548571D01*
X226385715Y-38620000D02*
X226242858Y-38548571D01*
X226028572Y-38548571D01*
X225814287Y-38620000D01*
X225671429Y-38762857D01*
X225600001Y-38905714D01*
X225528572Y-39191429D01*
X225528572Y-39405714D01*
X225600001Y-39691429D01*
X225671429Y-39834286D01*
X225814287Y-39977143D01*
X226028572Y-40048571D01*
X226171429Y-40048571D01*
X226385715Y-39977143D01*
X226457144Y-39905714D01*
X226457144Y-39405714D01*
X226171429Y-39405714D01*
X227028572Y-39620000D02*
X227742858Y-39620000D01*
X226885715Y-40048571D02*
X227385715Y-38548571D01*
X227885715Y-40048571D01*
X228171429Y-38548571D02*
X229028572Y-38548571D01*
X228600001Y-40048571D02*
X228600001Y-38548571D01*
X229528572Y-39262857D02*
X230028572Y-39262857D01*
X230242858Y-40048571D02*
X229528572Y-40048571D01*
X229528572Y-38548571D01*
X230242858Y-38548571D01*
X231671429Y-40048571D02*
X230814286Y-40048571D01*
X231242858Y-40048571D02*
X231242858Y-38548571D01*
X231100001Y-38762857D01*
X230957143Y-38905714D01*
X230814286Y-38977143D01*
X226385715Y-51320000D02*
X226242858Y-51248571D01*
X226028572Y-51248571D01*
X225814287Y-51320000D01*
X225671429Y-51462857D01*
X225600001Y-51605714D01*
X225528572Y-51891429D01*
X225528572Y-52105714D01*
X225600001Y-52391429D01*
X225671429Y-52534286D01*
X225814287Y-52677143D01*
X226028572Y-52748571D01*
X226171429Y-52748571D01*
X226385715Y-52677143D01*
X226457144Y-52605714D01*
X226457144Y-52105714D01*
X226171429Y-52105714D01*
X227028572Y-52320000D02*
X227742858Y-52320000D01*
X226885715Y-52748571D02*
X227385715Y-51248571D01*
X227885715Y-52748571D01*
X228171429Y-51248571D02*
X229028572Y-51248571D01*
X228600001Y-52748571D02*
X228600001Y-51248571D01*
X229528572Y-51962857D02*
X230028572Y-51962857D01*
X230242858Y-52748571D02*
X229528572Y-52748571D01*
X229528572Y-51248571D01*
X230242858Y-51248571D01*
X230814286Y-51391429D02*
X230885715Y-51320000D01*
X231028572Y-51248571D01*
X231385715Y-51248571D01*
X231528572Y-51320000D01*
X231600001Y-51391429D01*
X231671429Y-51534286D01*
X231671429Y-51677143D01*
X231600001Y-51891429D01*
X230742858Y-52748571D01*
X231671429Y-52748571D01*
X226385715Y-64020000D02*
X226242858Y-63948571D01*
X226028572Y-63948571D01*
X225814287Y-64020000D01*
X225671429Y-64162857D01*
X225600001Y-64305714D01*
X225528572Y-64591429D01*
X225528572Y-64805714D01*
X225600001Y-65091429D01*
X225671429Y-65234286D01*
X225814287Y-65377143D01*
X226028572Y-65448571D01*
X226171429Y-65448571D01*
X226385715Y-65377143D01*
X226457144Y-65305714D01*
X226457144Y-64805714D01*
X226171429Y-64805714D01*
X227028572Y-65020000D02*
X227742858Y-65020000D01*
X226885715Y-65448571D02*
X227385715Y-63948571D01*
X227885715Y-65448571D01*
X228171429Y-63948571D02*
X229028572Y-63948571D01*
X228600001Y-65448571D02*
X228600001Y-63948571D01*
X229528572Y-64662857D02*
X230028572Y-64662857D01*
X230242858Y-65448571D02*
X229528572Y-65448571D01*
X229528572Y-63948571D01*
X230242858Y-63948571D01*
X230742858Y-63948571D02*
X231671429Y-63948571D01*
X231171429Y-64520000D01*
X231385715Y-64520000D01*
X231528572Y-64591429D01*
X231600001Y-64662857D01*
X231671429Y-64805714D01*
X231671429Y-65162857D01*
X231600001Y-65305714D01*
X231528572Y-65377143D01*
X231385715Y-65448571D01*
X230957143Y-65448571D01*
X230814286Y-65377143D01*
X230742858Y-65305714D01*
X226385715Y-76720000D02*
X226242858Y-76648571D01*
X226028572Y-76648571D01*
X225814287Y-76720000D01*
X225671429Y-76862857D01*
X225600001Y-77005714D01*
X225528572Y-77291429D01*
X225528572Y-77505714D01*
X225600001Y-77791429D01*
X225671429Y-77934286D01*
X225814287Y-78077143D01*
X226028572Y-78148571D01*
X226171429Y-78148571D01*
X226385715Y-78077143D01*
X226457144Y-78005714D01*
X226457144Y-77505714D01*
X226171429Y-77505714D01*
X227028572Y-77720000D02*
X227742858Y-77720000D01*
X226885715Y-78148571D02*
X227385715Y-76648571D01*
X227885715Y-78148571D01*
X228171429Y-76648571D02*
X229028572Y-76648571D01*
X228600001Y-78148571D02*
X228600001Y-76648571D01*
X229528572Y-77362857D02*
X230028572Y-77362857D01*
X230242858Y-78148571D02*
X229528572Y-78148571D01*
X229528572Y-76648571D01*
X230242858Y-76648571D01*
X231528572Y-77148571D02*
X231528572Y-78148571D01*
X231171429Y-76577143D02*
X230814286Y-77648571D01*
X231742858Y-77648571D01*
X226385715Y-89420000D02*
X226242858Y-89348571D01*
X226028572Y-89348571D01*
X225814287Y-89420000D01*
X225671429Y-89562857D01*
X225600001Y-89705714D01*
X225528572Y-89991429D01*
X225528572Y-90205714D01*
X225600001Y-90491429D01*
X225671429Y-90634286D01*
X225814287Y-90777143D01*
X226028572Y-90848571D01*
X226171429Y-90848571D01*
X226385715Y-90777143D01*
X226457144Y-90705714D01*
X226457144Y-90205714D01*
X226171429Y-90205714D01*
X227028572Y-90420000D02*
X227742858Y-90420000D01*
X226885715Y-90848571D02*
X227385715Y-89348571D01*
X227885715Y-90848571D01*
X228171429Y-89348571D02*
X229028572Y-89348571D01*
X228600001Y-90848571D02*
X228600001Y-89348571D01*
X229528572Y-90062857D02*
X230028572Y-90062857D01*
X230242858Y-90848571D02*
X229528572Y-90848571D01*
X229528572Y-89348571D01*
X230242858Y-89348571D01*
X231600001Y-89348571D02*
X230885715Y-89348571D01*
X230814286Y-90062857D01*
X230885715Y-89991429D01*
X231028572Y-89920000D01*
X231385715Y-89920000D01*
X231528572Y-89991429D01*
X231600001Y-90062857D01*
X231671429Y-90205714D01*
X231671429Y-90562857D01*
X231600001Y-90705714D01*
X231528572Y-90777143D01*
X231385715Y-90848571D01*
X231028572Y-90848571D01*
X230885715Y-90777143D01*
X230814286Y-90705714D01*
X226385715Y-102120000D02*
X226242858Y-102048571D01*
X226028572Y-102048571D01*
X225814287Y-102120000D01*
X225671429Y-102262857D01*
X225600001Y-102405714D01*
X225528572Y-102691429D01*
X225528572Y-102905714D01*
X225600001Y-103191429D01*
X225671429Y-103334286D01*
X225814287Y-103477143D01*
X226028572Y-103548571D01*
X226171429Y-103548571D01*
X226385715Y-103477143D01*
X226457144Y-103405714D01*
X226457144Y-102905714D01*
X226171429Y-102905714D01*
X227028572Y-103120000D02*
X227742858Y-103120000D01*
X226885715Y-103548571D02*
X227385715Y-102048571D01*
X227885715Y-103548571D01*
X228171429Y-102048571D02*
X229028572Y-102048571D01*
X228600001Y-103548571D02*
X228600001Y-102048571D01*
X229528572Y-102762857D02*
X230028572Y-102762857D01*
X230242858Y-103548571D02*
X229528572Y-103548571D01*
X229528572Y-102048571D01*
X230242858Y-102048571D01*
X231528572Y-102048571D02*
X231242858Y-102048571D01*
X231100001Y-102120000D01*
X231028572Y-102191429D01*
X230885715Y-102405714D01*
X230814286Y-102691429D01*
X230814286Y-103262857D01*
X230885715Y-103405714D01*
X230957143Y-103477143D01*
X231100001Y-103548571D01*
X231385715Y-103548571D01*
X231528572Y-103477143D01*
X231600001Y-103405714D01*
X231671429Y-103262857D01*
X231671429Y-102905714D01*
X231600001Y-102762857D01*
X231528572Y-102691429D01*
X231385715Y-102620000D01*
X231100001Y-102620000D01*
X230957143Y-102691429D01*
X230885715Y-102762857D01*
X230814286Y-102905714D01*
X226385715Y-114820000D02*
X226242858Y-114748571D01*
X226028572Y-114748571D01*
X225814287Y-114820000D01*
X225671429Y-114962857D01*
X225600001Y-115105714D01*
X225528572Y-115391429D01*
X225528572Y-115605714D01*
X225600001Y-115891429D01*
X225671429Y-116034286D01*
X225814287Y-116177143D01*
X226028572Y-116248571D01*
X226171429Y-116248571D01*
X226385715Y-116177143D01*
X226457144Y-116105714D01*
X226457144Y-115605714D01*
X226171429Y-115605714D01*
X227028572Y-115820000D02*
X227742858Y-115820000D01*
X226885715Y-116248571D02*
X227385715Y-114748571D01*
X227885715Y-116248571D01*
X228171429Y-114748571D02*
X229028572Y-114748571D01*
X228600001Y-116248571D02*
X228600001Y-114748571D01*
X229528572Y-115462857D02*
X230028572Y-115462857D01*
X230242858Y-116248571D02*
X229528572Y-116248571D01*
X229528572Y-114748571D01*
X230242858Y-114748571D01*
X230742858Y-114748571D02*
X231742858Y-114748571D01*
X231100001Y-116248571D01*
X226385715Y-127520000D02*
X226242858Y-127448571D01*
X226028572Y-127448571D01*
X225814287Y-127520000D01*
X225671429Y-127662857D01*
X225600001Y-127805714D01*
X225528572Y-128091429D01*
X225528572Y-128305714D01*
X225600001Y-128591429D01*
X225671429Y-128734286D01*
X225814287Y-128877143D01*
X226028572Y-128948571D01*
X226171429Y-128948571D01*
X226385715Y-128877143D01*
X226457144Y-128805714D01*
X226457144Y-128305714D01*
X226171429Y-128305714D01*
X227028572Y-128520000D02*
X227742858Y-128520000D01*
X226885715Y-128948571D02*
X227385715Y-127448571D01*
X227885715Y-128948571D01*
X228171429Y-127448571D02*
X229028572Y-127448571D01*
X228600001Y-128948571D02*
X228600001Y-127448571D01*
X229528572Y-128162857D02*
X230028572Y-128162857D01*
X230242858Y-128948571D02*
X229528572Y-128948571D01*
X229528572Y-127448571D01*
X230242858Y-127448571D01*
X231100001Y-128091429D02*
X230957143Y-128020000D01*
X230885715Y-127948571D01*
X230814286Y-127805714D01*
X230814286Y-127734286D01*
X230885715Y-127591429D01*
X230957143Y-127520000D01*
X231100001Y-127448571D01*
X231385715Y-127448571D01*
X231528572Y-127520000D01*
X231600001Y-127591429D01*
X231671429Y-127734286D01*
X231671429Y-127805714D01*
X231600001Y-127948571D01*
X231528572Y-128020000D01*
X231385715Y-128091429D01*
X231100001Y-128091429D01*
X230957143Y-128162857D01*
X230885715Y-128234286D01*
X230814286Y-128377143D01*
X230814286Y-128662857D01*
X230885715Y-128805714D01*
X230957143Y-128877143D01*
X231100001Y-128948571D01*
X231385715Y-128948571D01*
X231528572Y-128877143D01*
X231600001Y-128805714D01*
X231671429Y-128662857D01*
X231671429Y-128377143D01*
X231600001Y-128234286D01*
X231528572Y-128162857D01*
X231385715Y-128091429D01*
X137164286Y-40048571D02*
X136664286Y-39334286D01*
X136307143Y-40048571D02*
X136307143Y-38548571D01*
X136878571Y-38548571D01*
X137021429Y-38620000D01*
X137092857Y-38691429D01*
X137164286Y-38834286D01*
X137164286Y-39048571D01*
X137092857Y-39191429D01*
X137021429Y-39262857D01*
X136878571Y-39334286D01*
X136307143Y-39334286D01*
X137735714Y-39977143D02*
X137950000Y-40048571D01*
X138307143Y-40048571D01*
X138450000Y-39977143D01*
X138521429Y-39905714D01*
X138592857Y-39762857D01*
X138592857Y-39620000D01*
X138521429Y-39477143D01*
X138450000Y-39405714D01*
X138307143Y-39334286D01*
X138021429Y-39262857D01*
X137878571Y-39191429D01*
X137807143Y-39120000D01*
X137735714Y-38977143D01*
X137735714Y-38834286D01*
X137807143Y-38691429D01*
X137878571Y-38620000D01*
X138021429Y-38548571D01*
X138378571Y-38548571D01*
X138592857Y-38620000D01*
X139021428Y-38548571D02*
X139878571Y-38548571D01*
X139450000Y-40048571D02*
X139450000Y-38548571D01*
X141521428Y-40048571D02*
X141521428Y-38548571D01*
X142235714Y-40048571D02*
X142235714Y-38548571D01*
X143092857Y-40048571D01*
X143092857Y-38548571D01*
X161564286Y-40048571D02*
X161064286Y-39334286D01*
X160707143Y-40048571D02*
X160707143Y-38548571D01*
X161278571Y-38548571D01*
X161421429Y-38620000D01*
X161492857Y-38691429D01*
X161564286Y-38834286D01*
X161564286Y-39048571D01*
X161492857Y-39191429D01*
X161421429Y-39262857D01*
X161278571Y-39334286D01*
X160707143Y-39334286D01*
X162135714Y-39977143D02*
X162350000Y-40048571D01*
X162707143Y-40048571D01*
X162850000Y-39977143D01*
X162921429Y-39905714D01*
X162992857Y-39762857D01*
X162992857Y-39620000D01*
X162921429Y-39477143D01*
X162850000Y-39405714D01*
X162707143Y-39334286D01*
X162421429Y-39262857D01*
X162278571Y-39191429D01*
X162207143Y-39120000D01*
X162135714Y-38977143D01*
X162135714Y-38834286D01*
X162207143Y-38691429D01*
X162278571Y-38620000D01*
X162421429Y-38548571D01*
X162778571Y-38548571D01*
X162992857Y-38620000D01*
X163421428Y-38548571D02*
X164278571Y-38548571D01*
X163850000Y-40048571D02*
X163850000Y-38548571D01*
X166207142Y-38548571D02*
X166492856Y-38548571D01*
X166635714Y-38620000D01*
X166778571Y-38762857D01*
X166849999Y-39048571D01*
X166849999Y-39548571D01*
X166778571Y-39834286D01*
X166635714Y-39977143D01*
X166492856Y-40048571D01*
X166207142Y-40048571D01*
X166064285Y-39977143D01*
X165921428Y-39834286D01*
X165849999Y-39548571D01*
X165849999Y-39048571D01*
X165921428Y-38762857D01*
X166064285Y-38620000D01*
X166207142Y-38548571D01*
X167492857Y-38548571D02*
X167492857Y-39762857D01*
X167564285Y-39905714D01*
X167635714Y-39977143D01*
X167778571Y-40048571D01*
X168064285Y-40048571D01*
X168207143Y-39977143D01*
X168278571Y-39905714D01*
X168350000Y-39762857D01*
X168350000Y-38548571D01*
X168850000Y-38548571D02*
X169707143Y-38548571D01*
X169278572Y-40048571D02*
X169278572Y-38548571D01*
X84467143Y-38548571D02*
X84467143Y-39762857D01*
X84538571Y-39905714D01*
X84610000Y-39977143D01*
X84752857Y-40048571D01*
X85038571Y-40048571D01*
X85181429Y-39977143D01*
X85252857Y-39905714D01*
X85324286Y-39762857D01*
X85324286Y-38548571D01*
X85967143Y-39977143D02*
X86181429Y-40048571D01*
X86538572Y-40048571D01*
X86681429Y-39977143D01*
X86752858Y-39905714D01*
X86824286Y-39762857D01*
X86824286Y-39620000D01*
X86752858Y-39477143D01*
X86681429Y-39405714D01*
X86538572Y-39334286D01*
X86252858Y-39262857D01*
X86110000Y-39191429D01*
X86038572Y-39120000D01*
X85967143Y-38977143D01*
X85967143Y-38834286D01*
X86038572Y-38691429D01*
X86110000Y-38620000D01*
X86252858Y-38548571D01*
X86610000Y-38548571D01*
X86824286Y-38620000D01*
X87967143Y-39262857D02*
X88181429Y-39334286D01*
X88252857Y-39405714D01*
X88324286Y-39548571D01*
X88324286Y-39762857D01*
X88252857Y-39905714D01*
X88181429Y-39977143D01*
X88038571Y-40048571D01*
X87467143Y-40048571D01*
X87467143Y-38548571D01*
X87967143Y-38548571D01*
X88110000Y-38620000D01*
X88181429Y-38691429D01*
X88252857Y-38834286D01*
X88252857Y-38977143D01*
X88181429Y-39120000D01*
X88110000Y-39191429D01*
X87967143Y-39262857D01*
X87467143Y-39262857D01*
X82288572Y-55852143D02*
X82502858Y-55923571D01*
X82860001Y-55923571D01*
X83002858Y-55852143D01*
X83074287Y-55780714D01*
X83145715Y-55637857D01*
X83145715Y-55495000D01*
X83074287Y-55352143D01*
X83002858Y-55280714D01*
X82860001Y-55209286D01*
X82574287Y-55137857D01*
X82431429Y-55066429D01*
X82360001Y-54995000D01*
X82288572Y-54852143D01*
X82288572Y-54709286D01*
X82360001Y-54566429D01*
X82431429Y-54495000D01*
X82574287Y-54423571D01*
X82931429Y-54423571D01*
X83145715Y-54495000D01*
X83788572Y-55923571D02*
X83788572Y-54423571D01*
X84145715Y-54423571D01*
X84360000Y-54495000D01*
X84502858Y-54637857D01*
X84574286Y-54780714D01*
X84645715Y-55066429D01*
X84645715Y-55280714D01*
X84574286Y-55566429D01*
X84502858Y-55709286D01*
X84360000Y-55852143D01*
X84145715Y-55923571D01*
X83788572Y-55923571D01*
X86145715Y-55780714D02*
X86074286Y-55852143D01*
X85860000Y-55923571D01*
X85717143Y-55923571D01*
X85502858Y-55852143D01*
X85360000Y-55709286D01*
X85288572Y-55566429D01*
X85217143Y-55280714D01*
X85217143Y-55066429D01*
X85288572Y-54780714D01*
X85360000Y-54637857D01*
X85502858Y-54495000D01*
X85717143Y-54423571D01*
X85860000Y-54423571D01*
X86074286Y-54495000D01*
X86145715Y-54566429D01*
X86717143Y-55495000D02*
X87431429Y-55495000D01*
X86574286Y-55923571D02*
X87074286Y-54423571D01*
X87574286Y-55923571D01*
X88931429Y-55923571D02*
X88431429Y-55209286D01*
X88074286Y-55923571D02*
X88074286Y-54423571D01*
X88645714Y-54423571D01*
X88788572Y-54495000D01*
X88860000Y-54566429D01*
X88931429Y-54709286D01*
X88931429Y-54923571D01*
X88860000Y-55066429D01*
X88788572Y-55137857D01*
X88645714Y-55209286D01*
X88074286Y-55209286D01*
X89574286Y-55923571D02*
X89574286Y-54423571D01*
X89931429Y-54423571D01*
X90145714Y-54495000D01*
X90288572Y-54637857D01*
X90360000Y-54780714D01*
X90431429Y-55066429D01*
X90431429Y-55280714D01*
X90360000Y-55566429D01*
X90288572Y-55709286D01*
X90145714Y-55852143D01*
X89931429Y-55923571D01*
X89574286Y-55923571D01*
X168410001Y-96412857D02*
X167910001Y-96412857D01*
X167910001Y-97198571D02*
X167910001Y-95698571D01*
X168624287Y-95698571D01*
X169910001Y-95698571D02*
X169195715Y-95698571D01*
X169124286Y-96412857D01*
X169195715Y-96341429D01*
X169338572Y-96270000D01*
X169695715Y-96270000D01*
X169838572Y-96341429D01*
X169910001Y-96412857D01*
X169981429Y-96555714D01*
X169981429Y-96912857D01*
X169910001Y-97055714D01*
X169838572Y-97127143D01*
X169695715Y-97198571D01*
X169338572Y-97198571D01*
X169195715Y-97127143D01*
X169124286Y-97055714D01*
X153170001Y-96412857D02*
X152670001Y-96412857D01*
X152670001Y-97198571D02*
X152670001Y-95698571D01*
X153384287Y-95698571D01*
X154598572Y-96198571D02*
X154598572Y-97198571D01*
X154241429Y-95627143D02*
X153884286Y-96698571D01*
X154812858Y-96698571D01*
X137930001Y-96412857D02*
X137430001Y-96412857D01*
X137430001Y-97198571D02*
X137430001Y-95698571D01*
X138144287Y-95698571D01*
X138572858Y-95698571D02*
X139501429Y-95698571D01*
X139001429Y-96270000D01*
X139215715Y-96270000D01*
X139358572Y-96341429D01*
X139430001Y-96412857D01*
X139501429Y-96555714D01*
X139501429Y-96912857D01*
X139430001Y-97055714D01*
X139358572Y-97127143D01*
X139215715Y-97198571D01*
X138787143Y-97198571D01*
X138644286Y-97127143D01*
X138572858Y-97055714D01*
X122690001Y-96412857D02*
X122190001Y-96412857D01*
X122190001Y-97198571D02*
X122190001Y-95698571D01*
X122904287Y-95698571D01*
X123404286Y-95841429D02*
X123475715Y-95770000D01*
X123618572Y-95698571D01*
X123975715Y-95698571D01*
X124118572Y-95770000D01*
X124190001Y-95841429D01*
X124261429Y-95984286D01*
X124261429Y-96127143D01*
X124190001Y-96341429D01*
X123332858Y-97198571D01*
X124261429Y-97198571D01*
X107450001Y-96412857D02*
X106950001Y-96412857D01*
X106950001Y-97198571D02*
X106950001Y-95698571D01*
X107664287Y-95698571D01*
X109021429Y-97198571D02*
X108164286Y-97198571D01*
X108592858Y-97198571D02*
X108592858Y-95698571D01*
X108450001Y-95912857D01*
X108307143Y-96055714D01*
X108164286Y-96127143D01*
X172434286Y-140378571D02*
X171577143Y-140378571D01*
X172005715Y-140378571D02*
X172005715Y-138878571D01*
X171862858Y-139092857D01*
X171720000Y-139235714D01*
X171577143Y-139307143D01*
X173720000Y-138878571D02*
X173434286Y-138878571D01*
X173291429Y-138950000D01*
X173220000Y-139021429D01*
X173077143Y-139235714D01*
X173005714Y-139521429D01*
X173005714Y-140092857D01*
X173077143Y-140235714D01*
X173148571Y-140307143D01*
X173291429Y-140378571D01*
X173577143Y-140378571D01*
X173720000Y-140307143D01*
X173791429Y-140235714D01*
X173862857Y-140092857D01*
X173862857Y-139735714D01*
X173791429Y-139592857D01*
X173720000Y-139521429D01*
X173577143Y-139450000D01*
X173291429Y-139450000D01*
X173148571Y-139521429D01*
X173077143Y-139592857D01*
X173005714Y-139735714D01*
X159734286Y-140378571D02*
X158877143Y-140378571D01*
X159305715Y-140378571D02*
X159305715Y-138878571D01*
X159162858Y-139092857D01*
X159020000Y-139235714D01*
X158877143Y-139307143D01*
X161091429Y-138878571D02*
X160377143Y-138878571D01*
X160305714Y-139592857D01*
X160377143Y-139521429D01*
X160520000Y-139450000D01*
X160877143Y-139450000D01*
X161020000Y-139521429D01*
X161091429Y-139592857D01*
X161162857Y-139735714D01*
X161162857Y-140092857D01*
X161091429Y-140235714D01*
X161020000Y-140307143D01*
X160877143Y-140378571D01*
X160520000Y-140378571D01*
X160377143Y-140307143D01*
X160305714Y-140235714D01*
X147034286Y-140378571D02*
X146177143Y-140378571D01*
X146605715Y-140378571D02*
X146605715Y-138878571D01*
X146462858Y-139092857D01*
X146320000Y-139235714D01*
X146177143Y-139307143D01*
X148320000Y-139378571D02*
X148320000Y-140378571D01*
X147962857Y-138807143D02*
X147605714Y-139878571D01*
X148534286Y-139878571D01*
X134334286Y-140378571D02*
X133477143Y-140378571D01*
X133905715Y-140378571D02*
X133905715Y-138878571D01*
X133762858Y-139092857D01*
X133620000Y-139235714D01*
X133477143Y-139307143D01*
X134834286Y-138878571D02*
X135762857Y-138878571D01*
X135262857Y-139450000D01*
X135477143Y-139450000D01*
X135620000Y-139521429D01*
X135691429Y-139592857D01*
X135762857Y-139735714D01*
X135762857Y-140092857D01*
X135691429Y-140235714D01*
X135620000Y-140307143D01*
X135477143Y-140378571D01*
X135048571Y-140378571D01*
X134905714Y-140307143D01*
X134834286Y-140235714D01*
X121634286Y-140378571D02*
X120777143Y-140378571D01*
X121205715Y-140378571D02*
X121205715Y-138878571D01*
X121062858Y-139092857D01*
X120920000Y-139235714D01*
X120777143Y-139307143D01*
X122205714Y-139021429D02*
X122277143Y-138950000D01*
X122420000Y-138878571D01*
X122777143Y-138878571D01*
X122920000Y-138950000D01*
X122991429Y-139021429D01*
X123062857Y-139164286D01*
X123062857Y-139307143D01*
X122991429Y-139521429D01*
X122134286Y-140378571D01*
X123062857Y-140378571D01*
X108934286Y-140378571D02*
X108077143Y-140378571D01*
X108505715Y-140378571D02*
X108505715Y-138878571D01*
X108362858Y-139092857D01*
X108220000Y-139235714D01*
X108077143Y-139307143D01*
X110362857Y-140378571D02*
X109505714Y-140378571D01*
X109934286Y-140378571D02*
X109934286Y-138878571D01*
X109791429Y-139092857D01*
X109648571Y-139235714D01*
X109505714Y-139307143D01*
X96234286Y-140378571D02*
X95377143Y-140378571D01*
X95805715Y-140378571D02*
X95805715Y-138878571D01*
X95662858Y-139092857D01*
X95520000Y-139235714D01*
X95377143Y-139307143D01*
X97162857Y-138878571D02*
X97305714Y-138878571D01*
X97448571Y-138950000D01*
X97520000Y-139021429D01*
X97591429Y-139164286D01*
X97662857Y-139450000D01*
X97662857Y-139807143D01*
X97591429Y-140092857D01*
X97520000Y-140235714D01*
X97448571Y-140307143D01*
X97305714Y-140378571D01*
X97162857Y-140378571D01*
X97020000Y-140307143D01*
X96948571Y-140235714D01*
X96877143Y-140092857D01*
X96805714Y-139807143D01*
X96805714Y-139450000D01*
X96877143Y-139164286D01*
X96948571Y-139021429D01*
X97020000Y-138950000D01*
X97162857Y-138878571D01*
X83534286Y-140378571D02*
X83820001Y-140378571D01*
X83962858Y-140307143D01*
X84034286Y-140235714D01*
X84177144Y-140021429D01*
X84248572Y-139735714D01*
X84248572Y-139164286D01*
X84177144Y-139021429D01*
X84105715Y-138950000D01*
X83962858Y-138878571D01*
X83677144Y-138878571D01*
X83534286Y-138950000D01*
X83462858Y-139021429D01*
X83391429Y-139164286D01*
X83391429Y-139521429D01*
X83462858Y-139664286D01*
X83534286Y-139735714D01*
X83677144Y-139807143D01*
X83962858Y-139807143D01*
X84105715Y-139735714D01*
X84177144Y-139664286D01*
X84248572Y-139521429D01*
X172577144Y-126821429D02*
X172434286Y-126750000D01*
X172362858Y-126678571D01*
X172291429Y-126535714D01*
X172291429Y-126464286D01*
X172362858Y-126321429D01*
X172434286Y-126250000D01*
X172577144Y-126178571D01*
X172862858Y-126178571D01*
X173005715Y-126250000D01*
X173077144Y-126321429D01*
X173148572Y-126464286D01*
X173148572Y-126535714D01*
X173077144Y-126678571D01*
X173005715Y-126750000D01*
X172862858Y-126821429D01*
X172577144Y-126821429D01*
X172434286Y-126892857D01*
X172362858Y-126964286D01*
X172291429Y-127107143D01*
X172291429Y-127392857D01*
X172362858Y-127535714D01*
X172434286Y-127607143D01*
X172577144Y-127678571D01*
X172862858Y-127678571D01*
X173005715Y-127607143D01*
X173077144Y-127535714D01*
X173148572Y-127392857D01*
X173148572Y-127107143D01*
X173077144Y-126964286D01*
X173005715Y-126892857D01*
X172862858Y-126821429D01*
X159520001Y-126178571D02*
X160520001Y-126178571D01*
X159877144Y-127678571D01*
X147605715Y-126178571D02*
X147320001Y-126178571D01*
X147177144Y-126250000D01*
X147105715Y-126321429D01*
X146962858Y-126535714D01*
X146891429Y-126821429D01*
X146891429Y-127392857D01*
X146962858Y-127535714D01*
X147034286Y-127607143D01*
X147177144Y-127678571D01*
X147462858Y-127678571D01*
X147605715Y-127607143D01*
X147677144Y-127535714D01*
X147748572Y-127392857D01*
X147748572Y-127035714D01*
X147677144Y-126892857D01*
X147605715Y-126821429D01*
X147462858Y-126750000D01*
X147177144Y-126750000D01*
X147034286Y-126821429D01*
X146962858Y-126892857D01*
X146891429Y-127035714D01*
X134977144Y-126178571D02*
X134262858Y-126178571D01*
X134191429Y-126892857D01*
X134262858Y-126821429D01*
X134405715Y-126750000D01*
X134762858Y-126750000D01*
X134905715Y-126821429D01*
X134977144Y-126892857D01*
X135048572Y-127035714D01*
X135048572Y-127392857D01*
X134977144Y-127535714D01*
X134905715Y-127607143D01*
X134762858Y-127678571D01*
X134405715Y-127678571D01*
X134262858Y-127607143D01*
X134191429Y-127535714D01*
X122205715Y-126678571D02*
X122205715Y-127678571D01*
X121848572Y-126107143D02*
X121491429Y-127178571D01*
X122420001Y-127178571D01*
X108720001Y-126178571D02*
X109648572Y-126178571D01*
X109148572Y-126750000D01*
X109362858Y-126750000D01*
X109505715Y-126821429D01*
X109577144Y-126892857D01*
X109648572Y-127035714D01*
X109648572Y-127392857D01*
X109577144Y-127535714D01*
X109505715Y-127607143D01*
X109362858Y-127678571D01*
X108934286Y-127678571D01*
X108791429Y-127607143D01*
X108720001Y-127535714D01*
X96091429Y-126321429D02*
X96162858Y-126250000D01*
X96305715Y-126178571D01*
X96662858Y-126178571D01*
X96805715Y-126250000D01*
X96877144Y-126321429D01*
X96948572Y-126464286D01*
X96948572Y-126607143D01*
X96877144Y-126821429D01*
X96020001Y-127678571D01*
X96948572Y-127678571D01*
X84248572Y-127678571D02*
X83391429Y-127678571D01*
X83820001Y-127678571D02*
X83820001Y-126178571D01*
X83677144Y-126392857D01*
X83534286Y-126535714D01*
X83391429Y-126607143D01*
X171577143Y-113478571D02*
X172434286Y-113478571D01*
X172005715Y-114978571D02*
X172005715Y-113478571D01*
X173148572Y-114121429D02*
X173005714Y-114050000D01*
X172934286Y-113978571D01*
X172862857Y-113835714D01*
X172862857Y-113764286D01*
X172934286Y-113621429D01*
X173005714Y-113550000D01*
X173148572Y-113478571D01*
X173434286Y-113478571D01*
X173577143Y-113550000D01*
X173648572Y-113621429D01*
X173720000Y-113764286D01*
X173720000Y-113835714D01*
X173648572Y-113978571D01*
X173577143Y-114050000D01*
X173434286Y-114121429D01*
X173148572Y-114121429D01*
X173005714Y-114192857D01*
X172934286Y-114264286D01*
X172862857Y-114407143D01*
X172862857Y-114692857D01*
X172934286Y-114835714D01*
X173005714Y-114907143D01*
X173148572Y-114978571D01*
X173434286Y-114978571D01*
X173577143Y-114907143D01*
X173648572Y-114835714D01*
X173720000Y-114692857D01*
X173720000Y-114407143D01*
X173648572Y-114264286D01*
X173577143Y-114192857D01*
X173434286Y-114121429D01*
X158877143Y-113478571D02*
X159734286Y-113478571D01*
X159305715Y-114978571D02*
X159305715Y-113478571D01*
X160091429Y-113478571D02*
X161091429Y-113478571D01*
X160448572Y-114978571D01*
X146177143Y-113478571D02*
X147034286Y-113478571D01*
X146605715Y-114978571D02*
X146605715Y-113478571D01*
X148177143Y-113478571D02*
X147891429Y-113478571D01*
X147748572Y-113550000D01*
X147677143Y-113621429D01*
X147534286Y-113835714D01*
X147462857Y-114121429D01*
X147462857Y-114692857D01*
X147534286Y-114835714D01*
X147605714Y-114907143D01*
X147748572Y-114978571D01*
X148034286Y-114978571D01*
X148177143Y-114907143D01*
X148248572Y-114835714D01*
X148320000Y-114692857D01*
X148320000Y-114335714D01*
X148248572Y-114192857D01*
X148177143Y-114121429D01*
X148034286Y-114050000D01*
X147748572Y-114050000D01*
X147605714Y-114121429D01*
X147534286Y-114192857D01*
X147462857Y-114335714D01*
X133477143Y-113478571D02*
X134334286Y-113478571D01*
X133905715Y-114978571D02*
X133905715Y-113478571D01*
X135548572Y-113478571D02*
X134834286Y-113478571D01*
X134762857Y-114192857D01*
X134834286Y-114121429D01*
X134977143Y-114050000D01*
X135334286Y-114050000D01*
X135477143Y-114121429D01*
X135548572Y-114192857D01*
X135620000Y-114335714D01*
X135620000Y-114692857D01*
X135548572Y-114835714D01*
X135477143Y-114907143D01*
X135334286Y-114978571D01*
X134977143Y-114978571D01*
X134834286Y-114907143D01*
X134762857Y-114835714D01*
X120777143Y-113478571D02*
X121634286Y-113478571D01*
X121205715Y-114978571D02*
X121205715Y-113478571D01*
X122777143Y-113978571D02*
X122777143Y-114978571D01*
X122420000Y-113407143D02*
X122062857Y-114478571D01*
X122991429Y-114478571D01*
X108077143Y-113478571D02*
X108934286Y-113478571D01*
X108505715Y-114978571D02*
X108505715Y-113478571D01*
X109291429Y-113478571D02*
X110220000Y-113478571D01*
X109720000Y-114050000D01*
X109934286Y-114050000D01*
X110077143Y-114121429D01*
X110148572Y-114192857D01*
X110220000Y-114335714D01*
X110220000Y-114692857D01*
X110148572Y-114835714D01*
X110077143Y-114907143D01*
X109934286Y-114978571D01*
X109505714Y-114978571D01*
X109362857Y-114907143D01*
X109291429Y-114835714D01*
X95377143Y-113478571D02*
X96234286Y-113478571D01*
X95805715Y-114978571D02*
X95805715Y-113478571D01*
X96662857Y-113621429D02*
X96734286Y-113550000D01*
X96877143Y-113478571D01*
X97234286Y-113478571D01*
X97377143Y-113550000D01*
X97448572Y-113621429D01*
X97520000Y-113764286D01*
X97520000Y-113907143D01*
X97448572Y-114121429D01*
X96591429Y-114978571D01*
X97520000Y-114978571D01*
X82677143Y-113478571D02*
X83534286Y-113478571D01*
X83105715Y-114978571D02*
X83105715Y-113478571D01*
X84820000Y-114978571D02*
X83962857Y-114978571D01*
X84391429Y-114978571D02*
X84391429Y-113478571D01*
X84248572Y-113692857D01*
X84105714Y-113835714D01*
X83962857Y-113907143D01*
X213114286Y-140307143D02*
X213328572Y-140378571D01*
X213685715Y-140378571D01*
X213828572Y-140307143D01*
X213900001Y-140235714D01*
X213971429Y-140092857D01*
X213971429Y-139950000D01*
X213900001Y-139807143D01*
X213828572Y-139735714D01*
X213685715Y-139664286D01*
X213400001Y-139592857D01*
X213257143Y-139521429D01*
X213185715Y-139450000D01*
X213114286Y-139307143D01*
X213114286Y-139164286D01*
X213185715Y-139021429D01*
X213257143Y-138950000D01*
X213400001Y-138878571D01*
X213757143Y-138878571D01*
X213971429Y-138950000D01*
X214614286Y-140378571D02*
X214614286Y-138878571D01*
X214614286Y-139592857D02*
X215471429Y-139592857D01*
X215471429Y-140378571D02*
X215471429Y-138878571D01*
X216185715Y-140378571D02*
X216185715Y-138878571D01*
X217400001Y-139592857D02*
X216900001Y-139592857D01*
X216900001Y-140378571D02*
X216900001Y-138878571D01*
X217614287Y-138878571D01*
X217971429Y-138878571D02*
X218828572Y-138878571D01*
X218400001Y-140378571D02*
X218400001Y-138878571D01*
X200664286Y-140378571D02*
X200664286Y-138878571D01*
X201164286Y-139950000D01*
X201664286Y-138878571D01*
X201664286Y-140378571D01*
X202378572Y-138878571D02*
X202378572Y-140092857D01*
X202450000Y-140235714D01*
X202521429Y-140307143D01*
X202664286Y-140378571D01*
X202950000Y-140378571D01*
X203092858Y-140307143D01*
X203164286Y-140235714D01*
X203235715Y-140092857D01*
X203235715Y-138878571D01*
X203735715Y-138878571D02*
X204592858Y-138878571D01*
X204164287Y-140378571D02*
X204164287Y-138878571D01*
X205092858Y-139592857D02*
X205592858Y-139592857D01*
X205807144Y-140378571D02*
X205092858Y-140378571D01*
X205092858Y-138878571D01*
X205807144Y-138878571D01*
X213292857Y-127607143D02*
X213507143Y-127678571D01*
X213864286Y-127678571D01*
X214007143Y-127607143D01*
X214078572Y-127535714D01*
X214150000Y-127392857D01*
X214150000Y-127250000D01*
X214078572Y-127107143D01*
X214007143Y-127035714D01*
X213864286Y-126964286D01*
X213578572Y-126892857D01*
X213435714Y-126821429D01*
X213364286Y-126750000D01*
X213292857Y-126607143D01*
X213292857Y-126464286D01*
X213364286Y-126321429D01*
X213435714Y-126250000D01*
X213578572Y-126178571D01*
X213935714Y-126178571D01*
X214150000Y-126250000D01*
X214792857Y-127678571D02*
X214792857Y-126178571D01*
X215650000Y-127678571D01*
X215650000Y-126178571D01*
X216292857Y-127250000D02*
X217007143Y-127250000D01*
X216150000Y-127678571D02*
X216650000Y-126178571D01*
X217150000Y-127678571D01*
X217650000Y-127678571D02*
X217650000Y-126178571D01*
X218221428Y-126178571D01*
X218364286Y-126250000D01*
X218435714Y-126321429D01*
X218507143Y-126464286D01*
X218507143Y-126678571D01*
X218435714Y-126821429D01*
X218364286Y-126892857D01*
X218221428Y-126964286D01*
X217650000Y-126964286D01*
X201842857Y-126892857D02*
X201342857Y-126892857D01*
X201342857Y-127678571D02*
X201342857Y-126178571D01*
X202057143Y-126178571D01*
X202628571Y-127678571D02*
X202628571Y-126178571D01*
X204057143Y-127678571D02*
X203342857Y-127678571D01*
X203342857Y-126178571D01*
X205271429Y-127678571D02*
X204557143Y-127678571D01*
X204557143Y-126178571D01*
X214400000Y-101492857D02*
X214614286Y-101564286D01*
X214685714Y-101635714D01*
X214757143Y-101778571D01*
X214757143Y-101992857D01*
X214685714Y-102135714D01*
X214614286Y-102207143D01*
X214471428Y-102278571D01*
X213900000Y-102278571D01*
X213900000Y-100778571D01*
X214400000Y-100778571D01*
X214542857Y-100850000D01*
X214614286Y-100921429D01*
X214685714Y-101064286D01*
X214685714Y-101207143D01*
X214614286Y-101350000D01*
X214542857Y-101421429D01*
X214400000Y-101492857D01*
X213900000Y-101492857D01*
X215400000Y-102278571D02*
X215400000Y-100778571D01*
X215971428Y-100778571D01*
X216114286Y-100850000D01*
X216185714Y-100921429D01*
X216257143Y-101064286D01*
X216257143Y-101278571D01*
X216185714Y-101421429D01*
X216114286Y-101492857D01*
X215971428Y-101564286D01*
X215400000Y-101564286D01*
X216900000Y-102278571D02*
X216900000Y-100778571D01*
X217400000Y-101850000D01*
X217900000Y-100778571D01*
X217900000Y-102278571D01*
X200914286Y-102278571D02*
X200914286Y-100778571D01*
X201485714Y-100778571D01*
X201628572Y-100850000D01*
X201700000Y-100921429D01*
X201771429Y-101064286D01*
X201771429Y-101278571D01*
X201700000Y-101421429D01*
X201628572Y-101492857D01*
X201485714Y-101564286D01*
X200914286Y-101564286D01*
X203128572Y-102278571D02*
X202414286Y-102278571D01*
X202414286Y-100778571D01*
X203557143Y-101850000D02*
X204271429Y-101850000D01*
X203414286Y-102278571D02*
X203914286Y-100778571D01*
X204414286Y-102278571D01*
X205200000Y-101564286D02*
X205200000Y-102278571D01*
X204700000Y-100778571D02*
X205200000Y-101564286D01*
X205700000Y-100778571D01*
M02*
