M48
INCH,TZ
T1C0.087
T2C0.122
T3C0.126
T4C0.205
T5C0.240
%
G90
G05
T1
X31250Y-45000
X31250Y-55000
X73750Y-45000
X73750Y-55000
T2
X35000Y-42500
X35000Y-47500
X35000Y-52500
X40000Y-42500
X40000Y-47500
X40000Y-52500
X45000Y-42500
X45000Y-47500
X45000Y-52500
X50000Y-42500
X50000Y-47500
X50000Y-52500
X55000Y-42500
X55000Y-47500
X55000Y-52500
X60000Y-42500
X60000Y-47500
X60000Y-52500
X65000Y-42500
X65000Y-47500
X65000Y-52500
X70000Y-42500
X70000Y-47500
X70000Y-52500
X77500Y-37500
X77500Y-42500
X77500Y-47500
X77500Y-52500
X82500Y-37500
X82500Y-42500
X82500Y-47500
X82500Y-52500
T3
X32953Y-11841
X32953Y-60069
X94953Y-11841
X94953Y-60069
T4
X35000Y-45000
X35000Y-50000
X35000Y-55000
X40000Y-45000
X40000Y-50000
X40000Y-55000
X45000Y-45000
X45000Y-50000
X45000Y-55000
X50000Y-45000
X50000Y-50000
X50000Y-55000
X55000Y-45000
X55000Y-50000
X55000Y-55000
X60000Y-45000
X60000Y-50000
X60000Y-55000
X65000Y-45000
X65000Y-50000
X65000Y-55000
X70000Y-45000
X70000Y-50000
X70000Y-55000
X77500Y-40000
X77500Y-45000
X77500Y-50000
X77500Y-55000
X82500Y-40000
X82500Y-45000
X82500Y-50000
X82500Y-55000
T5
X40000Y-18000
X45000Y-18000
X50000Y-18000
X55000Y-18000
X60000Y-18000
X65000Y-18000
X70000Y-18000
X75000Y-18000
X80000Y-18000
X85000Y-18000
X90000Y-18000
X90000Y-23000
X90000Y-28000
X90000Y-33000
X90000Y-38000
X90000Y-43000
X90000Y-48000
X90000Y-53000
X95000Y-18000
X95000Y-23000
X95000Y-28000
X95000Y-33000
X95000Y-38000
X95000Y-43000
X95000Y-48000
X95000Y-53000
T0
M30
