G04 #@! TF.FileFunction,Paste,Top*
%FSLAX46Y46*%
G04 Gerber Fmt 4.6, Leading zero omitted, Abs format (unit mm)*
G04 Created by KiCad (PCBNEW 4.0.7) date 2019 January 06, Sunday 22:42:44*
%MOMM*%
%LPD*%
G01*
G04 APERTURE LIST*
%ADD10C,0.100000*%
%ADD11R,1.000000X1.000000*%
%ADD12R,0.800000X0.900000*%
%ADD13R,0.250000X1.000000*%
%ADD14R,1.000000X0.250000*%
%ADD15R,1.000000X3.200000*%
%ADD16R,1.500000X0.600000*%
%ADD17R,1.500000X0.450000*%
%ADD18R,3.000000X1.600000*%
%ADD19R,1.600000X3.500000*%
%ADD20R,2.000000X3.800000*%
%ADD21R,2.000000X1.500000*%
%ADD22R,0.650000X1.060000*%
%ADD23R,0.900000X0.800000*%
%ADD24R,1.550000X0.600000*%
%ADD25R,3.325000X2.400000*%
%ADD26R,1.300000X0.700000*%
%ADD27R,0.700000X1.300000*%
%ADD28R,1.200000X0.900000*%
%ADD29R,0.900000X1.200000*%
G04 APERTURE END LIST*
D10*
D11*
X165735000Y-93765000D03*
X165735000Y-95465000D03*
D12*
X152720000Y-61325000D03*
X154620000Y-61325000D03*
X153670000Y-59325000D03*
X137475000Y-59325000D03*
X135575000Y-59325000D03*
X136525000Y-61325000D03*
X140020000Y-61325000D03*
X141920000Y-61325000D03*
X140970000Y-59325000D03*
X124775000Y-59325000D03*
X122875000Y-59325000D03*
X123825000Y-61325000D03*
D13*
X129600000Y-82520000D03*
X130100000Y-82520000D03*
X130600000Y-82520000D03*
X131100000Y-82520000D03*
X131600000Y-82520000D03*
X132100000Y-82520000D03*
X132600000Y-82520000D03*
X133100000Y-82520000D03*
X133600000Y-82520000D03*
X134100000Y-82520000D03*
X134600000Y-82520000D03*
X135100000Y-82520000D03*
X135600000Y-82520000D03*
X136100000Y-82520000D03*
X136600000Y-82520000D03*
X137100000Y-82520000D03*
D14*
X139050000Y-80570000D03*
X139050000Y-80070000D03*
X139050000Y-79570000D03*
X139050000Y-79070000D03*
X139050000Y-78570000D03*
X139050000Y-78070000D03*
X139050000Y-77570000D03*
X139050000Y-77070000D03*
X139050000Y-76570000D03*
X139050000Y-76070000D03*
X139050000Y-75570000D03*
X139050000Y-75070000D03*
X139050000Y-74570000D03*
X139050000Y-74070000D03*
X139050000Y-73570000D03*
X139050000Y-73070000D03*
D13*
X137100000Y-71120000D03*
X136600000Y-71120000D03*
X136100000Y-71120000D03*
X135600000Y-71120000D03*
X135100000Y-71120000D03*
X134600000Y-71120000D03*
X134100000Y-71120000D03*
X133600000Y-71120000D03*
X133100000Y-71120000D03*
X132600000Y-71120000D03*
X132100000Y-71120000D03*
X131600000Y-71120000D03*
X131100000Y-71120000D03*
X130600000Y-71120000D03*
X130100000Y-71120000D03*
X129600000Y-71120000D03*
D14*
X127650000Y-73070000D03*
X127650000Y-73570000D03*
X127650000Y-74070000D03*
X127650000Y-74570000D03*
X127650000Y-75070000D03*
X127650000Y-75570000D03*
X127650000Y-76070000D03*
X127650000Y-76570000D03*
X127650000Y-77070000D03*
X127650000Y-77570000D03*
X127650000Y-78070000D03*
X127650000Y-78570000D03*
X127650000Y-79070000D03*
X127650000Y-79570000D03*
X127650000Y-80070000D03*
X127650000Y-80570000D03*
D15*
X83280000Y-124050000D03*
X83280000Y-117250000D03*
X79280000Y-117250000D03*
X79280000Y-124050000D03*
X79280000Y-104550000D03*
X79280000Y-111350000D03*
X83280000Y-111350000D03*
X83280000Y-104550000D03*
D16*
X181770000Y-71120000D03*
X181770000Y-69850000D03*
X181770000Y-68580000D03*
X181770000Y-67310000D03*
X181770000Y-66040000D03*
X181770000Y-64770000D03*
X181770000Y-63500000D03*
X176370000Y-63500000D03*
X176370000Y-64770000D03*
X176370000Y-66040000D03*
X176370000Y-67310000D03*
X176370000Y-68580000D03*
X176370000Y-69850000D03*
X176370000Y-71120000D03*
D17*
X205330000Y-73290000D03*
X205330000Y-73940000D03*
X205330000Y-74590000D03*
X205330000Y-75240000D03*
X205330000Y-75890000D03*
X205330000Y-76540000D03*
X205330000Y-77190000D03*
X205330000Y-77840000D03*
X211230000Y-77840000D03*
X211230000Y-77190000D03*
X211230000Y-76540000D03*
X211230000Y-75890000D03*
X211230000Y-75240000D03*
X211230000Y-74590000D03*
X211230000Y-73940000D03*
X211230000Y-73290000D03*
D18*
X91780000Y-75565000D03*
X96180000Y-75565000D03*
D19*
X81280000Y-68740000D03*
X81280000Y-63340000D03*
X81280000Y-92870000D03*
X81280000Y-87470000D03*
D18*
X91780000Y-89535000D03*
X96180000Y-89535000D03*
X91780000Y-61595000D03*
X96180000Y-61595000D03*
D12*
X192725000Y-56880000D03*
X194625000Y-56880000D03*
X193675000Y-54880000D03*
D20*
X97765000Y-68580000D03*
D21*
X91465000Y-68580000D03*
X91465000Y-70880000D03*
X91465000Y-66280000D03*
D20*
X97765000Y-82550000D03*
D21*
X91465000Y-82550000D03*
X91465000Y-84850000D03*
X91465000Y-80250000D03*
D22*
X113350000Y-60790000D03*
X114300000Y-60790000D03*
X115250000Y-60790000D03*
X115250000Y-58590000D03*
X113350000Y-58590000D03*
D16*
X172245000Y-87630000D03*
X172245000Y-86360000D03*
X172245000Y-85090000D03*
X172245000Y-83820000D03*
X172245000Y-82550000D03*
X172245000Y-81280000D03*
X172245000Y-80010000D03*
X172245000Y-78740000D03*
X166845000Y-78740000D03*
X166845000Y-80010000D03*
X166845000Y-81280000D03*
X166845000Y-82550000D03*
X166845000Y-83820000D03*
X166845000Y-85090000D03*
X166845000Y-86360000D03*
X166845000Y-87630000D03*
X181770000Y-87630000D03*
X181770000Y-86360000D03*
X181770000Y-85090000D03*
X181770000Y-83820000D03*
X181770000Y-82550000D03*
X181770000Y-81280000D03*
X181770000Y-80010000D03*
X181770000Y-78740000D03*
X176370000Y-78740000D03*
X176370000Y-80010000D03*
X176370000Y-81280000D03*
X176370000Y-82550000D03*
X176370000Y-83820000D03*
X176370000Y-85090000D03*
X176370000Y-86360000D03*
X176370000Y-87630000D03*
X191295000Y-87630000D03*
X191295000Y-86360000D03*
X191295000Y-85090000D03*
X191295000Y-83820000D03*
X191295000Y-82550000D03*
X191295000Y-81280000D03*
X191295000Y-80010000D03*
X191295000Y-78740000D03*
X185895000Y-78740000D03*
X185895000Y-80010000D03*
X185895000Y-81280000D03*
X185895000Y-82550000D03*
X185895000Y-83820000D03*
X185895000Y-85090000D03*
X185895000Y-86360000D03*
X185895000Y-87630000D03*
X162720000Y-87630000D03*
X162720000Y-86360000D03*
X162720000Y-85090000D03*
X162720000Y-83820000D03*
X162720000Y-82550000D03*
X162720000Y-81280000D03*
X162720000Y-80010000D03*
X162720000Y-78740000D03*
X157320000Y-78740000D03*
X157320000Y-80010000D03*
X157320000Y-81280000D03*
X157320000Y-82550000D03*
X157320000Y-83820000D03*
X157320000Y-85090000D03*
X157320000Y-86360000D03*
X157320000Y-87630000D03*
X210980000Y-69850000D03*
X210980000Y-68580000D03*
X210980000Y-67310000D03*
X210980000Y-66040000D03*
X210980000Y-64770000D03*
X210980000Y-63500000D03*
X210980000Y-62230000D03*
X205580000Y-62230000D03*
X205580000Y-63500000D03*
X205580000Y-64770000D03*
X205580000Y-66040000D03*
X205580000Y-67310000D03*
X205580000Y-68580000D03*
X205580000Y-69850000D03*
X210999434Y-88900000D03*
X210999434Y-87630000D03*
X210999434Y-86360000D03*
X210999434Y-85090000D03*
X210999434Y-83820000D03*
X210999434Y-82550000D03*
X210999434Y-81280000D03*
X205599434Y-81280000D03*
X205599434Y-82550000D03*
X205599434Y-83820000D03*
X205599434Y-85090000D03*
X205599434Y-86360000D03*
X205599434Y-87630000D03*
X205599434Y-88900000D03*
X157320000Y-63500000D03*
X157320000Y-64770000D03*
X157320000Y-66040000D03*
X157320000Y-67310000D03*
X157320000Y-68580000D03*
X157320000Y-69850000D03*
X157320000Y-71120000D03*
X162720000Y-71120000D03*
X162720000Y-69850000D03*
X162720000Y-68580000D03*
X162720000Y-67310000D03*
X162720000Y-66040000D03*
X162720000Y-64770000D03*
X162720000Y-63500000D03*
D23*
X157115000Y-92075000D03*
X157115000Y-93975000D03*
X159115000Y-93025000D03*
D22*
X109540000Y-60790000D03*
X110490000Y-60790000D03*
X111440000Y-60790000D03*
X111440000Y-58590000D03*
X109540000Y-58590000D03*
D24*
X101440000Y-54610000D03*
X101440000Y-55880000D03*
X101440000Y-57150000D03*
X101440000Y-58420000D03*
X106840000Y-58420000D03*
X106840000Y-57150000D03*
X106840000Y-55880000D03*
X106840000Y-54610000D03*
D25*
X131667500Y-86360000D03*
X126142500Y-86360000D03*
D11*
X148590000Y-61175000D03*
X148590000Y-59475000D03*
X133350000Y-59475000D03*
X133350000Y-61175000D03*
X150495000Y-59475000D03*
X150495000Y-61175000D03*
X131445000Y-57365000D03*
X131445000Y-55665000D03*
X146050000Y-61175000D03*
X146050000Y-59475000D03*
X127000000Y-59475000D03*
X127000000Y-61175000D03*
X144145000Y-59475000D03*
X144145000Y-61175000D03*
X128905000Y-57365000D03*
X128905000Y-55665000D03*
X218225000Y-106680000D03*
X219925000Y-106680000D03*
X218225000Y-104775000D03*
X219925000Y-104775000D03*
X218225000Y-102870000D03*
X219925000Y-102870000D03*
X218225000Y-100965000D03*
X219925000Y-100965000D03*
X218225000Y-99060000D03*
X219925000Y-99060000D03*
X218225000Y-97155000D03*
X219925000Y-97155000D03*
X218225000Y-95250000D03*
X219925000Y-95250000D03*
X218225000Y-93345000D03*
X219925000Y-93345000D03*
X82130000Y-100330000D03*
X80430000Y-100330000D03*
X80430000Y-97790000D03*
X82130000Y-97790000D03*
X186270000Y-68580000D03*
X184570000Y-68580000D03*
X186270000Y-66040000D03*
X184570000Y-66040000D03*
X190715000Y-68580000D03*
X189015000Y-68580000D03*
X190715000Y-66040000D03*
X189015000Y-66040000D03*
X190715000Y-71120000D03*
X189015000Y-71120000D03*
X190715000Y-63500000D03*
X189015000Y-63500000D03*
X171870000Y-66040000D03*
X173570000Y-66040000D03*
X171870000Y-68580000D03*
X173570000Y-68580000D03*
X167425000Y-66040000D03*
X169125000Y-66040000D03*
X167425000Y-68580000D03*
X169125000Y-68580000D03*
X167425000Y-63500000D03*
X169125000Y-63500000D03*
X167425000Y-71120000D03*
X169125000Y-71120000D03*
X109220000Y-56095000D03*
X109220000Y-54395000D03*
X99060000Y-54395000D03*
X99060000Y-56095000D03*
X113030000Y-54395000D03*
X113030000Y-56095000D03*
X111125000Y-54395000D03*
X111125000Y-56095000D03*
X88265000Y-76415000D03*
X88265000Y-74715000D03*
X88265000Y-90385000D03*
X88265000Y-88685000D03*
X196850000Y-56730000D03*
X196850000Y-55030000D03*
X115570000Y-54395000D03*
X115570000Y-56095000D03*
X213780000Y-62230000D03*
X215480000Y-62230000D03*
X213780000Y-69850000D03*
X215480000Y-69850000D03*
X202780000Y-62230000D03*
X201080000Y-62230000D03*
X202780000Y-69850000D03*
X201080000Y-69850000D03*
X218225000Y-69850000D03*
X219925000Y-69850000D03*
X213780000Y-67310000D03*
X215480000Y-67310000D03*
X218225000Y-62230000D03*
X219925000Y-62230000D03*
X213780000Y-64770000D03*
X215480000Y-64770000D03*
X198335000Y-62230000D03*
X196635000Y-62230000D03*
X202780000Y-64770000D03*
X201080000Y-64770000D03*
X198335000Y-69850000D03*
X196635000Y-69850000D03*
X202780000Y-67310000D03*
X201080000Y-67310000D03*
X213799434Y-88900000D03*
X215499434Y-88900000D03*
X213799434Y-81280000D03*
X215499434Y-81280000D03*
X202780000Y-81280000D03*
X201080000Y-81280000D03*
X202780000Y-88900000D03*
X201080000Y-88900000D03*
X218225000Y-88900000D03*
X219925000Y-88900000D03*
X213780000Y-86360000D03*
X215480000Y-86360000D03*
X218225000Y-81280000D03*
X219925000Y-81280000D03*
X213780000Y-83820000D03*
X215480000Y-83820000D03*
X198335000Y-81280000D03*
X196635000Y-81280000D03*
X202799434Y-83820000D03*
X201099434Y-83820000D03*
X198335000Y-88900000D03*
X196635000Y-88900000D03*
X202780000Y-86360000D03*
X201080000Y-86360000D03*
X154520000Y-81280000D03*
X152820000Y-81280000D03*
X154520000Y-83185000D03*
X152820000Y-83185000D03*
X154520000Y-85090000D03*
X152820000Y-85090000D03*
X154520000Y-86995000D03*
X152820000Y-86995000D03*
X154520000Y-79375000D03*
X152820000Y-79375000D03*
X183515000Y-93765000D03*
X183515000Y-95465000D03*
X181610000Y-93765000D03*
X181610000Y-95465000D03*
X179705000Y-93765000D03*
X179705000Y-95465000D03*
X177800000Y-93765000D03*
X177800000Y-95465000D03*
X175895000Y-93765000D03*
X175895000Y-95465000D03*
X173990000Y-93765000D03*
X173990000Y-95465000D03*
X167640000Y-93765000D03*
X167640000Y-95465000D03*
X195580000Y-74715000D03*
X195580000Y-76415000D03*
X193675000Y-76415000D03*
X193675000Y-74715000D03*
X78740000Y-59270000D03*
X78740000Y-57570000D03*
X80645000Y-59270000D03*
X80645000Y-57570000D03*
X82550000Y-59270000D03*
X82550000Y-57570000D03*
X84455000Y-59270000D03*
X84455000Y-57570000D03*
X161710000Y-92075000D03*
X163410000Y-92075000D03*
X91225000Y-57150000D03*
X92925000Y-57150000D03*
X152820000Y-92075000D03*
X154520000Y-92075000D03*
X152820000Y-93980000D03*
X154520000Y-93980000D03*
X138430000Y-67095000D03*
X138430000Y-68795000D03*
X130595000Y-89535000D03*
X132295000Y-89535000D03*
X127215000Y-89535000D03*
X125515000Y-89535000D03*
X187745000Y-91440000D03*
X189445000Y-91440000D03*
X178220000Y-89535000D03*
X179920000Y-89535000D03*
X168695000Y-89535000D03*
X170395000Y-89535000D03*
X159170000Y-89535000D03*
X160870000Y-89535000D03*
X159170000Y-61595000D03*
X160870000Y-61595000D03*
X184570000Y-71120000D03*
X186270000Y-71120000D03*
X184570000Y-63500000D03*
X186270000Y-63500000D03*
X173570000Y-63500000D03*
X171870000Y-63500000D03*
X173570000Y-71120000D03*
X171870000Y-71120000D03*
X178220000Y-61595000D03*
X179920000Y-61595000D03*
X88265000Y-71335000D03*
X88265000Y-69635000D03*
X88265000Y-67525000D03*
X88265000Y-65825000D03*
X88265000Y-85305000D03*
X88265000Y-83605000D03*
X88265000Y-81495000D03*
X88265000Y-79795000D03*
X190500000Y-56730000D03*
X190500000Y-55030000D03*
X88265000Y-63715000D03*
X88265000Y-62015000D03*
X88265000Y-59905000D03*
X88265000Y-58205000D03*
X125095000Y-80860000D03*
X125095000Y-79160000D03*
X141605000Y-79795000D03*
X141605000Y-81495000D03*
X141390000Y-71120000D03*
X143090000Y-71120000D03*
X127635000Y-68795000D03*
X127635000Y-67095000D03*
X137375000Y-86995000D03*
X135675000Y-86995000D03*
X137375000Y-85090000D03*
X135675000Y-85090000D03*
X218225000Y-67310000D03*
X219925000Y-67310000D03*
X218225000Y-64770000D03*
X219925000Y-64770000D03*
X198335000Y-64770000D03*
X196635000Y-64770000D03*
X198335000Y-67310000D03*
X196635000Y-67310000D03*
X218225000Y-86360000D03*
X219925000Y-86360000D03*
X218225000Y-83820000D03*
X219925000Y-83820000D03*
X198335000Y-83820000D03*
X196635000Y-83820000D03*
X198335000Y-86360000D03*
X196635000Y-86360000D03*
X209335000Y-60325000D03*
X211035000Y-60325000D03*
X209335000Y-90805000D03*
X211035000Y-90805000D03*
X205525000Y-60325000D03*
X207225000Y-60325000D03*
X205525000Y-90805000D03*
X207225000Y-90805000D03*
X201930000Y-76415000D03*
X201930000Y-74715000D03*
X214630000Y-76415000D03*
X214630000Y-74715000D03*
X197485000Y-74715000D03*
X197485000Y-76415000D03*
D26*
X216535000Y-76515000D03*
X216535000Y-74615000D03*
X200025000Y-76515000D03*
X200025000Y-74615000D03*
D27*
X143190000Y-73660000D03*
X141290000Y-73660000D03*
D26*
X129540000Y-66995000D03*
X129540000Y-68895000D03*
D28*
X79375000Y-83565000D03*
X79375000Y-80265000D03*
X79375000Y-75945000D03*
X79375000Y-72645000D03*
D29*
X102490000Y-60960000D03*
X105790000Y-60960000D03*
D28*
X125095000Y-97410000D03*
X125095000Y-100710000D03*
X140335000Y-97410000D03*
X140335000Y-100710000D03*
X155575000Y-97410000D03*
X155575000Y-100710000D03*
X170815000Y-97410000D03*
X170815000Y-100710000D03*
X186055000Y-97410000D03*
X186055000Y-100710000D03*
X95250000Y-97410000D03*
X95250000Y-100710000D03*
X107950000Y-97410000D03*
X107950000Y-100710000D03*
X95250000Y-110110000D03*
X95250000Y-113410000D03*
X107950000Y-110110000D03*
X107950000Y-113410000D03*
X95250000Y-122810000D03*
X95250000Y-126110000D03*
X107950000Y-122810000D03*
X107950000Y-126110000D03*
X95250000Y-135510000D03*
X95250000Y-138810000D03*
X107950000Y-131700000D03*
X107950000Y-135000000D03*
X114300000Y-110110000D03*
X114300000Y-113410000D03*
X127000000Y-110110000D03*
X127000000Y-113410000D03*
X139700000Y-110110000D03*
X139700000Y-113410000D03*
X152400000Y-110110000D03*
X152400000Y-113410000D03*
X165100000Y-110110000D03*
X165100000Y-113410000D03*
X177800000Y-110110000D03*
X177800000Y-113410000D03*
X190500000Y-110110000D03*
X190500000Y-113410000D03*
X203200000Y-110110000D03*
X203200000Y-113410000D03*
X114300000Y-122810000D03*
X114300000Y-126110000D03*
X127000000Y-122810000D03*
X127000000Y-126110000D03*
X139700000Y-122810000D03*
X139700000Y-126110000D03*
X152400000Y-122810000D03*
X152400000Y-126110000D03*
X165100000Y-122810000D03*
X165100000Y-126110000D03*
X177800000Y-122810000D03*
X177800000Y-126110000D03*
X190500000Y-122810000D03*
X190500000Y-126110000D03*
X203200000Y-122810000D03*
X203200000Y-126110000D03*
X114300000Y-131700000D03*
X114300000Y-135000000D03*
X127000000Y-135510000D03*
X127000000Y-138810000D03*
X139700000Y-135510000D03*
X139700000Y-138810000D03*
X152400000Y-135510000D03*
X152400000Y-138810000D03*
X165100000Y-135510000D03*
X165100000Y-138810000D03*
X177800000Y-135510000D03*
X177800000Y-138810000D03*
X190500000Y-135510000D03*
X190500000Y-138810000D03*
X203200000Y-135510000D03*
X203200000Y-138810000D03*
D11*
X128905000Y-59475000D03*
X128905000Y-61175000D03*
X131445000Y-59475000D03*
X131445000Y-61175000D03*
M02*
