G04 #@! TF.FileFunction,Soldermask,Bot*
%FSLAX46Y46*%
G04 Gerber Fmt 4.6, Leading zero omitted, Abs format (unit mm)*
G04 Created by KiCad (PCBNEW 4.0.7) date 2017 October 30, Monday 23:27:59*
%MOMM*%
%LPD*%
G01*
G04 APERTURE LIST*
%ADD10C,0.100000*%
%ADD11C,4.600000*%
%ADD12R,1.600000X1.600000*%
%ADD13C,1.600000*%
%ADD14R,1.900000X1.900000*%
%ADD15O,1.900000X1.900000*%
%ADD16R,1.200000X1.200000*%
%ADD17O,1.200000X1.200000*%
%ADD18C,2.200000*%
%ADD19C,4.200000*%
%ADD20O,2.100000X3.800000*%
%ADD21O,3.800000X2.100000*%
%ADD22O,2.300000X2.700000*%
%ADD23O,2.300000X3.800000*%
%ADD24O,3.800000X1.800000*%
%ADD25O,3.100000X2.100000*%
%ADD26C,1.500000*%
%ADD27O,2.100000X3.100000*%
%ADD28C,1.950000*%
%ADD29O,4.200000X4.200000*%
G04 APERTURE END LIST*
D10*
D11*
X187325000Y-114300000D03*
X79375000Y-114300000D03*
X187325000Y-139700000D03*
D12*
X194850000Y-95250000D03*
D13*
X196850000Y-95250000D03*
X198850000Y-95250000D03*
D12*
X207550000Y-95250000D03*
D13*
X209550000Y-95250000D03*
X211550000Y-95250000D03*
D12*
X194850000Y-107950000D03*
D13*
X196850000Y-107950000D03*
X198850000Y-107950000D03*
D12*
X207550000Y-107950000D03*
D13*
X209550000Y-107950000D03*
X211550000Y-107950000D03*
D12*
X194850000Y-120650000D03*
D13*
X196850000Y-120650000D03*
X198850000Y-120650000D03*
D12*
X207550000Y-120650000D03*
D13*
X209550000Y-120650000D03*
X211550000Y-120650000D03*
D12*
X194850000Y-133350000D03*
D13*
X196850000Y-133350000D03*
X198850000Y-133350000D03*
D12*
X207550000Y-133350000D03*
D13*
X209550000Y-133350000D03*
X211550000Y-133350000D03*
D12*
X86900000Y-107950000D03*
D13*
X88900000Y-107950000D03*
X90900000Y-107950000D03*
D12*
X99600000Y-107950000D03*
D13*
X101600000Y-107950000D03*
X103600000Y-107950000D03*
D12*
X112300000Y-107950000D03*
D13*
X114300000Y-107950000D03*
X116300000Y-107950000D03*
D12*
X125000000Y-107950000D03*
D13*
X127000000Y-107950000D03*
X129000000Y-107950000D03*
D12*
X137700000Y-107950000D03*
D13*
X139700000Y-107950000D03*
X141700000Y-107950000D03*
D12*
X150400000Y-107950000D03*
D13*
X152400000Y-107950000D03*
X154400000Y-107950000D03*
D12*
X163100000Y-107950000D03*
D13*
X165100000Y-107950000D03*
X167100000Y-107950000D03*
D12*
X175800000Y-107950000D03*
D13*
X177800000Y-107950000D03*
X179800000Y-107950000D03*
D12*
X86900000Y-120650000D03*
D13*
X88900000Y-120650000D03*
X90900000Y-120650000D03*
D12*
X99600000Y-120650000D03*
D13*
X101600000Y-120650000D03*
X103600000Y-120650000D03*
D12*
X112300000Y-120650000D03*
D13*
X114300000Y-120650000D03*
X116300000Y-120650000D03*
D12*
X125000000Y-120650000D03*
D13*
X127000000Y-120650000D03*
X129000000Y-120650000D03*
D12*
X137700000Y-120650000D03*
D13*
X139700000Y-120650000D03*
X141700000Y-120650000D03*
D12*
X150400000Y-120650000D03*
D13*
X152400000Y-120650000D03*
X154400000Y-120650000D03*
D12*
X163100000Y-120650000D03*
D13*
X165100000Y-120650000D03*
X167100000Y-120650000D03*
D12*
X175800000Y-120650000D03*
D13*
X177800000Y-120650000D03*
X179800000Y-120650000D03*
D12*
X86900000Y-133350000D03*
D13*
X88900000Y-133350000D03*
X90900000Y-133350000D03*
D12*
X99600000Y-133350000D03*
D13*
X101600000Y-133350000D03*
X103600000Y-133350000D03*
D12*
X112300000Y-133350000D03*
D13*
X114300000Y-133350000D03*
X116300000Y-133350000D03*
D12*
X125000000Y-133350000D03*
D13*
X127000000Y-133350000D03*
X129000000Y-133350000D03*
D12*
X137700000Y-133350000D03*
D13*
X139700000Y-133350000D03*
X141700000Y-133350000D03*
D12*
X150400000Y-133350000D03*
D13*
X152400000Y-133350000D03*
X154400000Y-133350000D03*
D12*
X163100000Y-133350000D03*
D13*
X165100000Y-133350000D03*
X167100000Y-133350000D03*
D12*
X175800000Y-133350000D03*
D13*
X177800000Y-133350000D03*
X179800000Y-133350000D03*
D14*
X88900000Y-101600000D03*
D15*
X88900000Y-99060000D03*
X88900000Y-96520000D03*
X88900000Y-93980000D03*
X88900000Y-91440000D03*
X88900000Y-88900000D03*
D16*
X107950000Y-93345000D03*
D17*
X107950000Y-92075000D03*
X106680000Y-93345000D03*
X106680000Y-92075000D03*
X105410000Y-93345000D03*
X105410000Y-92075000D03*
X104140000Y-93345000D03*
X104140000Y-92075000D03*
X102870000Y-93345000D03*
X102870000Y-92075000D03*
D18*
X174550000Y-141950000D03*
X181050000Y-141950000D03*
X181050000Y-137450000D03*
X174550000Y-137450000D03*
X161850000Y-141950000D03*
X168350000Y-141950000D03*
X168350000Y-137450000D03*
X161850000Y-137450000D03*
X149150000Y-141950000D03*
X155650000Y-141950000D03*
X155650000Y-137450000D03*
X149150000Y-137450000D03*
X136450000Y-141950000D03*
X142950000Y-141950000D03*
X142950000Y-137450000D03*
X136450000Y-137450000D03*
X123750000Y-141950000D03*
X130250000Y-141950000D03*
X130250000Y-137450000D03*
X123750000Y-137450000D03*
X111050000Y-141950000D03*
X117550000Y-141950000D03*
X117550000Y-137450000D03*
X111050000Y-137450000D03*
X98350000Y-141950000D03*
X104850000Y-141950000D03*
X104850000Y-137450000D03*
X98350000Y-137450000D03*
X85650000Y-141950000D03*
X92150000Y-141950000D03*
X92150000Y-137450000D03*
X85650000Y-137450000D03*
X174550000Y-129250000D03*
X181050000Y-129250000D03*
X181050000Y-124750000D03*
X174550000Y-124750000D03*
X161850000Y-129250000D03*
X168350000Y-129250000D03*
X168350000Y-124750000D03*
X161850000Y-124750000D03*
X149150000Y-129250000D03*
X155650000Y-129250000D03*
X155650000Y-124750000D03*
X149150000Y-124750000D03*
X136450000Y-129250000D03*
X142950000Y-129250000D03*
X142950000Y-124750000D03*
X136450000Y-124750000D03*
X123750000Y-129250000D03*
X130250000Y-129250000D03*
X130250000Y-124750000D03*
X123750000Y-124750000D03*
X111050000Y-129250000D03*
X117550000Y-129250000D03*
X117550000Y-124750000D03*
X111050000Y-124750000D03*
X98350000Y-129250000D03*
X104850000Y-129250000D03*
X104850000Y-124750000D03*
X98350000Y-124750000D03*
X85650000Y-129250000D03*
X92150000Y-129250000D03*
X92150000Y-124750000D03*
X85650000Y-124750000D03*
X174550000Y-116550000D03*
X181050000Y-116550000D03*
X181050000Y-112050000D03*
X174550000Y-112050000D03*
X161850000Y-116550000D03*
X168350000Y-116550000D03*
X168350000Y-112050000D03*
X161850000Y-112050000D03*
X149150000Y-116550000D03*
X155650000Y-116550000D03*
X155650000Y-112050000D03*
X149150000Y-112050000D03*
X136450000Y-116550000D03*
X142950000Y-116550000D03*
X142950000Y-112050000D03*
X136450000Y-112050000D03*
X123750000Y-116550000D03*
X130250000Y-116550000D03*
X130250000Y-112050000D03*
X123750000Y-112050000D03*
X111050000Y-116550000D03*
X117550000Y-116550000D03*
X117550000Y-112050000D03*
X111050000Y-112050000D03*
X98350000Y-116550000D03*
X104850000Y-116550000D03*
X104850000Y-112050000D03*
X98350000Y-112050000D03*
X85650000Y-116550000D03*
X92150000Y-116550000D03*
X92150000Y-112050000D03*
X85650000Y-112050000D03*
X206300000Y-141950000D03*
X212800000Y-141950000D03*
X212800000Y-137450000D03*
X206300000Y-137450000D03*
X193600000Y-141950000D03*
X200100000Y-141950000D03*
X200100000Y-137450000D03*
X193600000Y-137450000D03*
X206300000Y-129250000D03*
X212800000Y-129250000D03*
X212800000Y-124750000D03*
X206300000Y-124750000D03*
X193600000Y-129250000D03*
X200100000Y-129250000D03*
X200100000Y-124750000D03*
X193600000Y-124750000D03*
X206300000Y-116550000D03*
X212800000Y-116550000D03*
X212800000Y-112050000D03*
X206300000Y-112050000D03*
X193600000Y-116550000D03*
X200100000Y-116550000D03*
X200100000Y-112050000D03*
X193600000Y-112050000D03*
X206300000Y-103850000D03*
X212800000Y-103850000D03*
X212800000Y-99350000D03*
X206300000Y-99350000D03*
X193600000Y-103850000D03*
X200100000Y-103850000D03*
X200100000Y-99350000D03*
X193600000Y-99350000D03*
X165660000Y-103850000D03*
X172160000Y-103850000D03*
X172160000Y-99350000D03*
X165660000Y-99350000D03*
X150420000Y-103850000D03*
X156920000Y-103850000D03*
X156920000Y-99350000D03*
X150420000Y-99350000D03*
X135180000Y-103850000D03*
X141680000Y-103850000D03*
X141680000Y-99350000D03*
X135180000Y-99350000D03*
X119940000Y-103850000D03*
X126440000Y-103850000D03*
X126440000Y-99350000D03*
X119940000Y-99350000D03*
X104700000Y-103850000D03*
X111200000Y-103850000D03*
X111200000Y-99350000D03*
X104700000Y-99350000D03*
D14*
X198120000Y-55245000D03*
D15*
X198120000Y-57785000D03*
X200660000Y-55245000D03*
X200660000Y-57785000D03*
X203200000Y-55245000D03*
X203200000Y-57785000D03*
X205740000Y-55245000D03*
X205740000Y-57785000D03*
X208280000Y-55245000D03*
X208280000Y-57785000D03*
D14*
X162560000Y-55880000D03*
D15*
X160020000Y-55880000D03*
X157480000Y-55880000D03*
X154940000Y-55880000D03*
X152400000Y-55880000D03*
X149860000Y-55880000D03*
X147320000Y-55880000D03*
X144780000Y-55880000D03*
X142240000Y-55880000D03*
X139700000Y-55880000D03*
X137160000Y-55880000D03*
X134620000Y-55880000D03*
X132080000Y-55880000D03*
X129540000Y-55880000D03*
X127000000Y-55880000D03*
X124460000Y-55880000D03*
X121920000Y-55880000D03*
X119380000Y-55880000D03*
X116840000Y-55880000D03*
X114300000Y-55880000D03*
D19*
X96830000Y-56380000D03*
X180030000Y-56380000D03*
X96830000Y-94380000D03*
X180030000Y-94380000D03*
D13*
X90210000Y-53340000D03*
X89110000Y-54440000D03*
X88010000Y-53340000D03*
X86910000Y-54440000D03*
X85810000Y-53340000D03*
X84710000Y-54440000D03*
X83610000Y-53340000D03*
X82510000Y-54440000D03*
D18*
X90660000Y-50170000D03*
X82060000Y-50170000D03*
D11*
X79375000Y-139700000D03*
D20*
X118700000Y-44920000D03*
D21*
X114300000Y-50220000D03*
X114300000Y-42420000D03*
D19*
X114300000Y-45720000D03*
D20*
X106000000Y-44920000D03*
D21*
X101600000Y-50220000D03*
X101600000Y-42420000D03*
D19*
X101600000Y-45720000D03*
D22*
X160400000Y-45720000D03*
D23*
X169800000Y-45720000D03*
D24*
X165100000Y-42420000D03*
X165100000Y-50520000D03*
D19*
X165100000Y-45720000D03*
D22*
X135000000Y-45720000D03*
D23*
X144400000Y-45720000D03*
D24*
X139700000Y-42420000D03*
X139700000Y-50520000D03*
D19*
X139700000Y-45720000D03*
D22*
X223900000Y-134620000D03*
D23*
X233300000Y-134620000D03*
D24*
X228600000Y-131320000D03*
X228600000Y-139420000D03*
D19*
X228600000Y-134620000D03*
D22*
X223900000Y-121920000D03*
D23*
X233300000Y-121920000D03*
D24*
X228600000Y-118620000D03*
X228600000Y-126720000D03*
D19*
X228600000Y-121920000D03*
D22*
X223900000Y-109220000D03*
D23*
X233300000Y-109220000D03*
D24*
X228600000Y-105920000D03*
X228600000Y-114020000D03*
D19*
X228600000Y-109220000D03*
D22*
X223900000Y-96520000D03*
D23*
X233300000Y-96520000D03*
D24*
X228600000Y-93220000D03*
X228600000Y-101320000D03*
D19*
X228600000Y-96520000D03*
D22*
X223900000Y-83820000D03*
D23*
X233300000Y-83820000D03*
D24*
X228600000Y-80520000D03*
X228600000Y-88620000D03*
D19*
X228600000Y-83820000D03*
D22*
X223900000Y-71120000D03*
D23*
X233300000Y-71120000D03*
D24*
X228600000Y-67820000D03*
X228600000Y-75920000D03*
D19*
X228600000Y-71120000D03*
D22*
X223900000Y-58420000D03*
D23*
X233300000Y-58420000D03*
D24*
X228600000Y-55120000D03*
X228600000Y-63220000D03*
D19*
X228600000Y-58420000D03*
D22*
X223900000Y-45720000D03*
D23*
X233300000Y-45720000D03*
D24*
X228600000Y-42420000D03*
X228600000Y-50520000D03*
D19*
X228600000Y-45720000D03*
D22*
X211200000Y-45720000D03*
D23*
X220600000Y-45720000D03*
D24*
X215900000Y-42420000D03*
X215900000Y-50520000D03*
D19*
X215900000Y-45720000D03*
D22*
X198500000Y-45720000D03*
D23*
X207900000Y-45720000D03*
D24*
X203200000Y-42420000D03*
X203200000Y-50520000D03*
D19*
X203200000Y-45720000D03*
D22*
X185800000Y-45720000D03*
D23*
X195200000Y-45720000D03*
D24*
X190500000Y-42420000D03*
X190500000Y-50520000D03*
D19*
X190500000Y-45720000D03*
D22*
X173100000Y-45720000D03*
D23*
X182500000Y-45720000D03*
D24*
X177800000Y-42420000D03*
X177800000Y-50520000D03*
D19*
X177800000Y-45720000D03*
D22*
X236600000Y-134620000D03*
D23*
X246000000Y-134620000D03*
D24*
X241300000Y-131320000D03*
X241300000Y-139420000D03*
D19*
X241300000Y-134620000D03*
D22*
X236600000Y-121920000D03*
D23*
X246000000Y-121920000D03*
D24*
X241300000Y-118620000D03*
X241300000Y-126720000D03*
D19*
X241300000Y-121920000D03*
D22*
X236600000Y-109220000D03*
D23*
X246000000Y-109220000D03*
D24*
X241300000Y-105920000D03*
X241300000Y-114020000D03*
D19*
X241300000Y-109220000D03*
D22*
X236600000Y-96520000D03*
D23*
X246000000Y-96520000D03*
D24*
X241300000Y-93220000D03*
X241300000Y-101320000D03*
D19*
X241300000Y-96520000D03*
D22*
X236600000Y-83820000D03*
D23*
X246000000Y-83820000D03*
D24*
X241300000Y-80520000D03*
X241300000Y-88620000D03*
D19*
X241300000Y-83820000D03*
D22*
X236600000Y-71120000D03*
D23*
X246000000Y-71120000D03*
D24*
X241300000Y-67820000D03*
X241300000Y-75920000D03*
D19*
X241300000Y-71120000D03*
D22*
X236600000Y-58420000D03*
D23*
X246000000Y-58420000D03*
D24*
X241300000Y-55120000D03*
X241300000Y-63220000D03*
D19*
X241300000Y-58420000D03*
D22*
X236600000Y-45720000D03*
D23*
X246000000Y-45720000D03*
D24*
X241300000Y-42420000D03*
X241300000Y-50520000D03*
D19*
X241300000Y-45720000D03*
D22*
X147700000Y-45720000D03*
D23*
X157100000Y-45720000D03*
D24*
X152400000Y-42420000D03*
X152400000Y-50520000D03*
D19*
X152400000Y-45720000D03*
D22*
X122300000Y-45720000D03*
D23*
X131700000Y-45720000D03*
D24*
X127000000Y-42420000D03*
X127000000Y-50520000D03*
D19*
X127000000Y-45720000D03*
D25*
X86360000Y-41540000D03*
D26*
X82860000Y-45720000D03*
X85360000Y-45720000D03*
X87360000Y-45720000D03*
X89860000Y-45720000D03*
D27*
X79790000Y-45120000D03*
X92930000Y-45120000D03*
D28*
X83860000Y-83700000D03*
X88860000Y-83700000D03*
X86360000Y-83700000D03*
X88860000Y-69200000D03*
X83860000Y-69200000D03*
D29*
X92560000Y-76200000D03*
X80160000Y-76200000D03*
M02*
