G04 #@! TF.FileFunction,Legend,Bot*
%FSLAX46Y46*%
G04 Gerber Fmt 4.6, Leading zero omitted, Abs format (unit mm)*
G04 Created by KiCad (PCBNEW 4.0.7) date 2019 January 06, Sunday 22:42:44*
%MOMM*%
%LPD*%
G01*
G04 APERTURE LIST*
%ADD10C,0.100000*%
%ADD11C,0.250000*%
%ADD12C,0.500000*%
%ADD13C,0.120000*%
%ADD14C,0.127000*%
%ADD15C,0.150000*%
G04 APERTURE END LIST*
D10*
D11*
X79467857Y-122414286D02*
X79405952Y-122228572D01*
X79344048Y-122166667D01*
X79220238Y-122104762D01*
X79034524Y-122104762D01*
X78910714Y-122166667D01*
X78848810Y-122228572D01*
X78786905Y-122352381D01*
X78786905Y-122847619D01*
X80086905Y-122847619D01*
X80086905Y-122414286D01*
X80025000Y-122290476D01*
X79963095Y-122228572D01*
X79839286Y-122166667D01*
X79715476Y-122166667D01*
X79591667Y-122228572D01*
X79529762Y-122290476D01*
X79467857Y-122414286D01*
X79467857Y-122847619D01*
X80086905Y-121300000D02*
X80086905Y-121052381D01*
X80025000Y-120928572D01*
X79901190Y-120804762D01*
X79653571Y-120742857D01*
X79220238Y-120742857D01*
X78972619Y-120804762D01*
X78848810Y-120928572D01*
X78786905Y-121052381D01*
X78786905Y-121300000D01*
X78848810Y-121423810D01*
X78972619Y-121547619D01*
X79220238Y-121609524D01*
X79653571Y-121609524D01*
X79901190Y-121547619D01*
X80025000Y-121423810D01*
X80086905Y-121300000D01*
X80086905Y-119938095D02*
X80086905Y-119690476D01*
X80025000Y-119566667D01*
X79901190Y-119442857D01*
X79653571Y-119380952D01*
X79220238Y-119380952D01*
X78972619Y-119442857D01*
X78848810Y-119566667D01*
X78786905Y-119690476D01*
X78786905Y-119938095D01*
X78848810Y-120061905D01*
X78972619Y-120185714D01*
X79220238Y-120247619D01*
X79653571Y-120247619D01*
X79901190Y-120185714D01*
X80025000Y-120061905D01*
X80086905Y-119938095D01*
X80086905Y-119009523D02*
X80086905Y-118266666D01*
X78786905Y-118638095D02*
X80086905Y-118638095D01*
X78786905Y-109838094D02*
X79405952Y-110271427D01*
X78786905Y-110580951D02*
X80086905Y-110580951D01*
X80086905Y-110085713D01*
X80025000Y-109961904D01*
X79963095Y-109899999D01*
X79839286Y-109838094D01*
X79653571Y-109838094D01*
X79529762Y-109899999D01*
X79467857Y-109961904D01*
X79405952Y-110085713D01*
X79405952Y-110580951D01*
X79467857Y-109280951D02*
X79467857Y-108847618D01*
X78786905Y-108661904D02*
X78786905Y-109280951D01*
X80086905Y-109280951D01*
X80086905Y-108661904D01*
X78848810Y-108166666D02*
X78786905Y-107980952D01*
X78786905Y-107671428D01*
X78848810Y-107547618D01*
X78910714Y-107485714D01*
X79034524Y-107423809D01*
X79158333Y-107423809D01*
X79282143Y-107485714D01*
X79344048Y-107547618D01*
X79405952Y-107671428D01*
X79467857Y-107919047D01*
X79529762Y-108042856D01*
X79591667Y-108104761D01*
X79715476Y-108166666D01*
X79839286Y-108166666D01*
X79963095Y-108104761D01*
X80025000Y-108042856D01*
X80086905Y-107919047D01*
X80086905Y-107609523D01*
X80025000Y-107423809D01*
X79467857Y-106866666D02*
X79467857Y-106433333D01*
X78786905Y-106247619D02*
X78786905Y-106866666D01*
X80086905Y-106866666D01*
X80086905Y-106247619D01*
X80086905Y-105876190D02*
X80086905Y-105133333D01*
X78786905Y-105504762D02*
X80086905Y-105504762D01*
D12*
X186306667Y-71024524D02*
X186306667Y-67024524D01*
X184782858Y-67024524D01*
X184401905Y-67215000D01*
X184211429Y-67405476D01*
X184020953Y-67786429D01*
X184020953Y-68357857D01*
X184211429Y-68738810D01*
X184401905Y-68929286D01*
X184782858Y-69119762D01*
X186306667Y-69119762D01*
X182306667Y-68929286D02*
X180973334Y-68929286D01*
X180401905Y-71024524D02*
X182306667Y-71024524D01*
X182306667Y-67024524D01*
X180401905Y-67024524D01*
X176401905Y-71024524D02*
X177735238Y-69119762D01*
X178687619Y-71024524D02*
X178687619Y-67024524D01*
X177163810Y-67024524D01*
X176782857Y-67215000D01*
X176592381Y-67405476D01*
X176401905Y-67786429D01*
X176401905Y-68357857D01*
X176592381Y-68738810D01*
X176782857Y-68929286D01*
X177163810Y-69119762D01*
X178687619Y-69119762D01*
X173735238Y-72357857D02*
X173735238Y-66643571D01*
X169544762Y-68929286D02*
X170878095Y-68929286D01*
X170878095Y-71024524D02*
X170878095Y-67024524D01*
X168973333Y-67024524D01*
X166687619Y-67024524D02*
X165925715Y-67024524D01*
X165544762Y-67215000D01*
X165163810Y-67595952D01*
X164973334Y-68357857D01*
X164973334Y-69691190D01*
X165163810Y-70453095D01*
X165544762Y-70834048D01*
X165925715Y-71024524D01*
X166687619Y-71024524D01*
X167068572Y-70834048D01*
X167449524Y-70453095D01*
X167640000Y-69691190D01*
X167640000Y-68357857D01*
X167449524Y-67595952D01*
X167068572Y-67215000D01*
X166687619Y-67024524D01*
X160973334Y-71024524D02*
X162306667Y-69119762D01*
X163259048Y-71024524D02*
X163259048Y-67024524D01*
X161735239Y-67024524D01*
X161354286Y-67215000D01*
X161163810Y-67405476D01*
X160973334Y-67786429D01*
X160973334Y-68357857D01*
X161163810Y-68738810D01*
X161354286Y-68929286D01*
X161735239Y-69119762D01*
X163259048Y-69119762D01*
X159259048Y-71024524D02*
X159259048Y-67024524D01*
X157925715Y-69881667D01*
X156592381Y-67024524D01*
X156592381Y-71024524D01*
X154687619Y-68929286D02*
X153354286Y-68929286D01*
X152782857Y-71024524D02*
X154687619Y-71024524D01*
X154687619Y-67024524D01*
X152782857Y-67024524D01*
X148782857Y-71024524D02*
X150116190Y-69119762D01*
X151068571Y-71024524D02*
X151068571Y-67024524D01*
X149544762Y-67024524D01*
X149163809Y-67215000D01*
X148973333Y-67405476D01*
X148782857Y-67786429D01*
X148782857Y-68357857D01*
X148973333Y-68738810D01*
X149163809Y-68929286D01*
X149544762Y-69119762D01*
X151068571Y-69119762D01*
D11*
X184416188Y-75626190D02*
X184539998Y-75688095D01*
X184787617Y-75688095D01*
X184911426Y-75626190D01*
X184973331Y-75564286D01*
X185035236Y-75440476D01*
X185035236Y-75069048D01*
X184973331Y-74945238D01*
X184911426Y-74883333D01*
X184787617Y-74821429D01*
X184539998Y-74821429D01*
X184416188Y-74883333D01*
X183301902Y-75626190D02*
X183425712Y-75688095D01*
X183673331Y-75688095D01*
X183797140Y-75626190D01*
X183859045Y-75564286D01*
X183920950Y-75440476D01*
X183920950Y-75069048D01*
X183859045Y-74945238D01*
X183797140Y-74883333D01*
X183673331Y-74821429D01*
X183425712Y-74821429D01*
X183301902Y-74883333D01*
X182744759Y-75192857D02*
X181754283Y-75192857D01*
X181135235Y-75688095D02*
X181135235Y-74388095D01*
X181135235Y-74883333D02*
X181011426Y-74821429D01*
X180763807Y-74821429D01*
X180639997Y-74883333D01*
X180578092Y-74945238D01*
X180516188Y-75069048D01*
X180516188Y-75440476D01*
X180578092Y-75564286D01*
X180639997Y-75626190D01*
X180763807Y-75688095D01*
X181011426Y-75688095D01*
X181135235Y-75626190D01*
X180082855Y-74821429D02*
X179773331Y-75688095D01*
X179463807Y-74821429D02*
X179773331Y-75688095D01*
X179897140Y-75997619D01*
X179959045Y-76059524D01*
X180082855Y-76121429D01*
X178968569Y-75192857D02*
X177978093Y-75192857D01*
X177359045Y-74821429D02*
X177359045Y-75688095D01*
X177359045Y-74945238D02*
X177297140Y-74883333D01*
X177173331Y-74821429D01*
X176987617Y-74821429D01*
X176863807Y-74883333D01*
X176801902Y-75007143D01*
X176801902Y-75688095D01*
X175625712Y-75626190D02*
X175749522Y-75688095D01*
X175997141Y-75688095D01*
X176120950Y-75626190D01*
X176182855Y-75564286D01*
X176244760Y-75440476D01*
X176244760Y-75069048D01*
X176182855Y-74945238D01*
X176120950Y-74883333D01*
X175997141Y-74821429D01*
X175749522Y-74821429D01*
X175625712Y-74883333D01*
X175068569Y-75192857D02*
X174078093Y-75192857D01*
X173520950Y-75626190D02*
X173397140Y-75688095D01*
X173149521Y-75688095D01*
X173025712Y-75626190D01*
X172963807Y-75502381D01*
X172963807Y-75440476D01*
X173025712Y-75316667D01*
X173149521Y-75254762D01*
X173335236Y-75254762D01*
X173459045Y-75192857D01*
X173520950Y-75069048D01*
X173520950Y-75007143D01*
X173459045Y-74883333D01*
X173335236Y-74821429D01*
X173149521Y-74821429D01*
X173025712Y-74883333D01*
X171849521Y-75688095D02*
X171849521Y-75007143D01*
X171911426Y-74883333D01*
X172035236Y-74821429D01*
X172282855Y-74821429D01*
X172406664Y-74883333D01*
X171849521Y-75626190D02*
X171973331Y-75688095D01*
X172282855Y-75688095D01*
X172406664Y-75626190D01*
X172468569Y-75502381D01*
X172468569Y-75378571D01*
X172406664Y-75254762D01*
X172282855Y-75192857D01*
X171973331Y-75192857D01*
X171849521Y-75130952D01*
X170301903Y-75626190D02*
X170116189Y-75688095D01*
X169806665Y-75688095D01*
X169682855Y-75626190D01*
X169620951Y-75564286D01*
X169559046Y-75440476D01*
X169559046Y-75316667D01*
X169620951Y-75192857D01*
X169682855Y-75130952D01*
X169806665Y-75069048D01*
X170054284Y-75007143D01*
X170178093Y-74945238D01*
X170239998Y-74883333D01*
X170301903Y-74759524D01*
X170301903Y-74635714D01*
X170239998Y-74511905D01*
X170178093Y-74450000D01*
X170054284Y-74388095D01*
X169744760Y-74388095D01*
X169559046Y-74450000D01*
X169001903Y-75688095D02*
X169001903Y-74821429D01*
X169001903Y-74388095D02*
X169063808Y-74450000D01*
X169001903Y-74511905D01*
X168939998Y-74450000D01*
X169001903Y-74388095D01*
X169001903Y-74511905D01*
X168382855Y-75688095D02*
X168382855Y-74821429D01*
X168382855Y-74945238D02*
X168320950Y-74883333D01*
X168197141Y-74821429D01*
X168011427Y-74821429D01*
X167887617Y-74883333D01*
X167825712Y-75007143D01*
X167825712Y-75688095D01*
X167825712Y-75007143D02*
X167763808Y-74883333D01*
X167639998Y-74821429D01*
X167454284Y-74821429D01*
X167330474Y-74883333D01*
X167268569Y-75007143D01*
X167268569Y-75688095D01*
X166463808Y-75688095D02*
X166587617Y-75626190D01*
X166649522Y-75564286D01*
X166711427Y-75440476D01*
X166711427Y-75069048D01*
X166649522Y-74945238D01*
X166587617Y-74883333D01*
X166463808Y-74821429D01*
X166278094Y-74821429D01*
X166154284Y-74883333D01*
X166092379Y-74945238D01*
X166030475Y-75069048D01*
X166030475Y-75440476D01*
X166092379Y-75564286D01*
X166154284Y-75626190D01*
X166278094Y-75688095D01*
X166463808Y-75688095D01*
X165473332Y-74821429D02*
X165473332Y-75688095D01*
X165473332Y-74945238D02*
X165411427Y-74883333D01*
X165287618Y-74821429D01*
X165101904Y-74821429D01*
X164978094Y-74883333D01*
X164916189Y-75007143D01*
X164916189Y-75688095D01*
X163306666Y-75688095D02*
X163306666Y-74388095D01*
X162563809Y-75688095D02*
X163120952Y-74945238D01*
X162563809Y-74388095D02*
X163306666Y-75130952D01*
X161449523Y-75688095D02*
X161449523Y-75007143D01*
X161511428Y-74883333D01*
X161635238Y-74821429D01*
X161882857Y-74821429D01*
X162006666Y-74883333D01*
X161449523Y-75626190D02*
X161573333Y-75688095D01*
X161882857Y-75688095D01*
X162006666Y-75626190D01*
X162068571Y-75502381D01*
X162068571Y-75378571D01*
X162006666Y-75254762D01*
X161882857Y-75192857D01*
X161573333Y-75192857D01*
X161449523Y-75130952D01*
X160644762Y-75688095D02*
X160768571Y-75626190D01*
X160830476Y-75502381D01*
X160830476Y-74388095D01*
X159963810Y-75688095D02*
X160087619Y-75626190D01*
X160149524Y-75502381D01*
X160149524Y-74388095D01*
X159592382Y-74821429D02*
X159344763Y-75688095D01*
X159097144Y-75069048D01*
X158849525Y-75688095D01*
X158601906Y-74821429D01*
X157611429Y-75626190D02*
X157735239Y-75688095D01*
X157982858Y-75688095D01*
X158106667Y-75626190D01*
X158168572Y-75502381D01*
X158168572Y-75007143D01*
X158106667Y-74883333D01*
X157982858Y-74821429D01*
X157735239Y-74821429D01*
X157611429Y-74883333D01*
X157549524Y-75007143D01*
X157549524Y-75130952D01*
X158168572Y-75254762D01*
X156992381Y-75688095D02*
X156992381Y-74821429D01*
X156992381Y-74388095D02*
X157054286Y-74450000D01*
X156992381Y-74511905D01*
X156930476Y-74450000D01*
X156992381Y-74388095D01*
X156992381Y-74511905D01*
X156559047Y-74821429D02*
X156063809Y-74821429D01*
X156373333Y-74388095D02*
X156373333Y-75502381D01*
X156311428Y-75626190D01*
X156187619Y-75688095D01*
X156063809Y-75688095D01*
X154701905Y-74511905D02*
X154640000Y-74450000D01*
X154516191Y-74388095D01*
X154206667Y-74388095D01*
X154082857Y-74450000D01*
X154020953Y-74511905D01*
X153959048Y-74635714D01*
X153959048Y-74759524D01*
X154020953Y-74945238D01*
X154763810Y-75688095D01*
X153959048Y-75688095D01*
X153154286Y-74388095D02*
X153030477Y-74388095D01*
X152906667Y-74450000D01*
X152844762Y-74511905D01*
X152782858Y-74635714D01*
X152720953Y-74883333D01*
X152720953Y-75192857D01*
X152782858Y-75440476D01*
X152844762Y-75564286D01*
X152906667Y-75626190D01*
X153030477Y-75688095D01*
X153154286Y-75688095D01*
X153278096Y-75626190D01*
X153340000Y-75564286D01*
X153401905Y-75440476D01*
X153463810Y-75192857D01*
X153463810Y-74883333D01*
X153401905Y-74635714D01*
X153340000Y-74511905D01*
X153278096Y-74450000D01*
X153154286Y-74388095D01*
X151482858Y-75688095D02*
X152225715Y-75688095D01*
X151854286Y-75688095D02*
X151854286Y-74388095D01*
X151978096Y-74573810D01*
X152101905Y-74697619D01*
X152225715Y-74759524D01*
X150740001Y-74945238D02*
X150863810Y-74883333D01*
X150925715Y-74821429D01*
X150987620Y-74697619D01*
X150987620Y-74635714D01*
X150925715Y-74511905D01*
X150863810Y-74450000D01*
X150740001Y-74388095D01*
X150492382Y-74388095D01*
X150368572Y-74450000D01*
X150306668Y-74511905D01*
X150244763Y-74635714D01*
X150244763Y-74697619D01*
X150306668Y-74821429D01*
X150368572Y-74883333D01*
X150492382Y-74945238D01*
X150740001Y-74945238D01*
X150863810Y-75007143D01*
X150925715Y-75069048D01*
X150987620Y-75192857D01*
X150987620Y-75440476D01*
X150925715Y-75564286D01*
X150863810Y-75626190D01*
X150740001Y-75688095D01*
X150492382Y-75688095D01*
X150368572Y-75626190D01*
X150306668Y-75564286D01*
X150244763Y-75440476D01*
X150244763Y-75192857D01*
X150306668Y-75069048D01*
X150368572Y-75007143D01*
X150492382Y-74945238D01*
X176399522Y-77888095D02*
X176399522Y-76588095D01*
X176399522Y-77083333D02*
X176275713Y-77021429D01*
X176028094Y-77021429D01*
X175904284Y-77083333D01*
X175842379Y-77145238D01*
X175780475Y-77269048D01*
X175780475Y-77640476D01*
X175842379Y-77764286D01*
X175904284Y-77826190D01*
X176028094Y-77888095D01*
X176275713Y-77888095D01*
X176399522Y-77826190D01*
X175037618Y-77888095D02*
X175161427Y-77826190D01*
X175223332Y-77764286D01*
X175285237Y-77640476D01*
X175285237Y-77269048D01*
X175223332Y-77145238D01*
X175161427Y-77083333D01*
X175037618Y-77021429D01*
X174851904Y-77021429D01*
X174728094Y-77083333D01*
X174666189Y-77145238D01*
X174604285Y-77269048D01*
X174604285Y-77640476D01*
X174666189Y-77764286D01*
X174728094Y-77826190D01*
X174851904Y-77888095D01*
X175037618Y-77888095D01*
X173489999Y-77888095D02*
X173489999Y-77207143D01*
X173551904Y-77083333D01*
X173675714Y-77021429D01*
X173923333Y-77021429D01*
X174047142Y-77083333D01*
X173489999Y-77826190D02*
X173613809Y-77888095D01*
X173923333Y-77888095D01*
X174047142Y-77826190D01*
X174109047Y-77702381D01*
X174109047Y-77578571D01*
X174047142Y-77454762D01*
X173923333Y-77392857D01*
X173613809Y-77392857D01*
X173489999Y-77330952D01*
X172870952Y-77888095D02*
X172870952Y-77021429D01*
X172870952Y-77269048D02*
X172809047Y-77145238D01*
X172747143Y-77083333D01*
X172623333Y-77021429D01*
X172499524Y-77021429D01*
X171509047Y-77888095D02*
X171509047Y-76588095D01*
X171509047Y-77826190D02*
X171632857Y-77888095D01*
X171880476Y-77888095D01*
X172004285Y-77826190D01*
X172066190Y-77764286D01*
X172128095Y-77640476D01*
X172128095Y-77269048D01*
X172066190Y-77145238D01*
X172004285Y-77083333D01*
X171880476Y-77021429D01*
X171632857Y-77021429D01*
X171509047Y-77083333D01*
X169899524Y-77888095D02*
X169899524Y-77021429D01*
X169899524Y-77269048D02*
X169837619Y-77145238D01*
X169775715Y-77083333D01*
X169651905Y-77021429D01*
X169528096Y-77021429D01*
X168599524Y-77826190D02*
X168723334Y-77888095D01*
X168970953Y-77888095D01*
X169094762Y-77826190D01*
X169156667Y-77702381D01*
X169156667Y-77207143D01*
X169094762Y-77083333D01*
X168970953Y-77021429D01*
X168723334Y-77021429D01*
X168599524Y-77083333D01*
X168537619Y-77207143D01*
X168537619Y-77330952D01*
X169156667Y-77454762D01*
X168104286Y-77021429D02*
X167794762Y-77888095D01*
X167485238Y-77021429D01*
X166990000Y-77888095D02*
X166990000Y-77021429D01*
X166990000Y-76588095D02*
X167051905Y-76650000D01*
X166990000Y-76711905D01*
X166928095Y-76650000D01*
X166990000Y-76588095D01*
X166990000Y-76711905D01*
X166432857Y-77826190D02*
X166309047Y-77888095D01*
X166061428Y-77888095D01*
X165937619Y-77826190D01*
X165875714Y-77702381D01*
X165875714Y-77640476D01*
X165937619Y-77516667D01*
X166061428Y-77454762D01*
X166247143Y-77454762D01*
X166370952Y-77392857D01*
X166432857Y-77269048D01*
X166432857Y-77207143D01*
X166370952Y-77083333D01*
X166247143Y-77021429D01*
X166061428Y-77021429D01*
X165937619Y-77083333D01*
X165318571Y-77888095D02*
X165318571Y-77021429D01*
X165318571Y-76588095D02*
X165380476Y-76650000D01*
X165318571Y-76711905D01*
X165256666Y-76650000D01*
X165318571Y-76588095D01*
X165318571Y-76711905D01*
X164513809Y-77888095D02*
X164637618Y-77826190D01*
X164699523Y-77764286D01*
X164761428Y-77640476D01*
X164761428Y-77269048D01*
X164699523Y-77145238D01*
X164637618Y-77083333D01*
X164513809Y-77021429D01*
X164328095Y-77021429D01*
X164204285Y-77083333D01*
X164142380Y-77145238D01*
X164080476Y-77269048D01*
X164080476Y-77640476D01*
X164142380Y-77764286D01*
X164204285Y-77826190D01*
X164328095Y-77888095D01*
X164513809Y-77888095D01*
X163523333Y-77021429D02*
X163523333Y-77888095D01*
X163523333Y-77145238D02*
X163461428Y-77083333D01*
X163337619Y-77021429D01*
X163151905Y-77021429D01*
X163028095Y-77083333D01*
X162966190Y-77207143D01*
X162966190Y-77888095D01*
X160675715Y-77888095D02*
X161418572Y-77888095D01*
X161047143Y-77888095D02*
X161047143Y-76588095D01*
X161170953Y-76773810D01*
X161294762Y-76897619D01*
X161418572Y-76959524D01*
X160118572Y-77764286D02*
X160056667Y-77826190D01*
X160118572Y-77888095D01*
X160180477Y-77826190D01*
X160118572Y-77764286D01*
X160118572Y-77888095D01*
X159251905Y-76588095D02*
X159128096Y-76588095D01*
X159004286Y-76650000D01*
X158942381Y-76711905D01*
X158880477Y-76835714D01*
X158818572Y-77083333D01*
X158818572Y-77392857D01*
X158880477Y-77640476D01*
X158942381Y-77764286D01*
X159004286Y-77826190D01*
X159128096Y-77888095D01*
X159251905Y-77888095D01*
X159375715Y-77826190D01*
X159437619Y-77764286D01*
X159499524Y-77640476D01*
X159561429Y-77392857D01*
X159561429Y-77083333D01*
X159499524Y-76835714D01*
X159437619Y-76711905D01*
X159375715Y-76650000D01*
X159251905Y-76588095D01*
X97898810Y-93172381D02*
X97836905Y-92986667D01*
X97836905Y-92677143D01*
X97898810Y-92553333D01*
X97960714Y-92491429D01*
X98084524Y-92429524D01*
X98208333Y-92429524D01*
X98332143Y-92491429D01*
X98394048Y-92553333D01*
X98455952Y-92677143D01*
X98517857Y-92924762D01*
X98579762Y-93048571D01*
X98641667Y-93110476D01*
X98765476Y-93172381D01*
X98889286Y-93172381D01*
X99013095Y-93110476D01*
X99075000Y-93048571D01*
X99136905Y-92924762D01*
X99136905Y-92615238D01*
X99075000Y-92429524D01*
X98517857Y-91872381D02*
X98517857Y-91439048D01*
X97836905Y-91253334D02*
X97836905Y-91872381D01*
X99136905Y-91872381D01*
X99136905Y-91253334D01*
X97836905Y-89953334D02*
X98455952Y-90386667D01*
X97836905Y-90696191D02*
X99136905Y-90696191D01*
X99136905Y-90200953D01*
X99075000Y-90077144D01*
X99013095Y-90015239D01*
X98889286Y-89953334D01*
X98703571Y-89953334D01*
X98579762Y-90015239D01*
X98517857Y-90077144D01*
X98455952Y-90200953D01*
X98455952Y-90696191D01*
X97836905Y-89396191D02*
X99136905Y-89396191D01*
X98208333Y-88839048D02*
X98208333Y-88220000D01*
X97836905Y-88962857D02*
X99136905Y-88529524D01*
X97836905Y-88096191D01*
X97836905Y-87043810D02*
X97836905Y-87662857D01*
X99136905Y-87662857D01*
D12*
X122555000Y-78740000D02*
X118745000Y-78740000D01*
D11*
X90430714Y-88218095D02*
X90864047Y-87599048D01*
X91173571Y-88218095D02*
X91173571Y-86918095D01*
X90678333Y-86918095D01*
X90554524Y-86980000D01*
X90492619Y-87041905D01*
X90430714Y-87165714D01*
X90430714Y-87351429D01*
X90492619Y-87475238D01*
X90554524Y-87537143D01*
X90678333Y-87599048D01*
X91173571Y-87599048D01*
X89873571Y-87537143D02*
X89440238Y-87537143D01*
X89254524Y-88218095D02*
X89873571Y-88218095D01*
X89873571Y-86918095D01*
X89254524Y-86918095D01*
X88697381Y-88218095D02*
X88697381Y-86918095D01*
X88387857Y-86918095D01*
X88202143Y-86980000D01*
X88078334Y-87103810D01*
X88016429Y-87227619D01*
X87954524Y-87475238D01*
X87954524Y-87660952D01*
X88016429Y-87908571D01*
X88078334Y-88032381D01*
X88202143Y-88156190D01*
X88387857Y-88218095D01*
X88697381Y-88218095D01*
X85787858Y-88218095D02*
X86406905Y-88218095D01*
X86406905Y-86918095D01*
X85354524Y-88218095D02*
X85354524Y-86918095D01*
X84735476Y-88218095D02*
X84735476Y-86918095D01*
X83992619Y-88218095D01*
X83992619Y-86918095D01*
X83373571Y-87537143D02*
X82940238Y-87537143D01*
X82754524Y-88218095D02*
X83373571Y-88218095D01*
X83373571Y-86918095D01*
X82754524Y-86918095D01*
D12*
X81280000Y-85725000D02*
X92710000Y-85725000D01*
D11*
X91885476Y-73117857D02*
X90895000Y-73117857D01*
X91390238Y-73613095D02*
X91390238Y-72622619D01*
X89595000Y-73613095D02*
X90337857Y-73613095D01*
X89966428Y-73613095D02*
X89966428Y-72313095D01*
X90090238Y-72498810D01*
X90214047Y-72622619D01*
X90337857Y-72684524D01*
X89099762Y-72436905D02*
X89037857Y-72375000D01*
X88914048Y-72313095D01*
X88604524Y-72313095D01*
X88480714Y-72375000D01*
X88418810Y-72436905D01*
X88356905Y-72560714D01*
X88356905Y-72684524D01*
X88418810Y-72870238D01*
X89161667Y-73613095D01*
X88356905Y-73613095D01*
X87985476Y-72313095D02*
X87552143Y-73613095D01*
X87118810Y-72313095D01*
X91885476Y-83277857D02*
X90895000Y-83277857D01*
X89595000Y-83773095D02*
X90337857Y-83773095D01*
X89966428Y-83773095D02*
X89966428Y-82473095D01*
X90090238Y-82658810D01*
X90214047Y-82782619D01*
X90337857Y-82844524D01*
X89099762Y-82596905D02*
X89037857Y-82535000D01*
X88914048Y-82473095D01*
X88604524Y-82473095D01*
X88480714Y-82535000D01*
X88418810Y-82596905D01*
X88356905Y-82720714D01*
X88356905Y-82844524D01*
X88418810Y-83030238D01*
X89161667Y-83773095D01*
X88356905Y-83773095D01*
X87985476Y-82473095D02*
X87552143Y-83773095D01*
X87118810Y-82473095D01*
X89966429Y-74915000D02*
X90090238Y-74853095D01*
X90275953Y-74853095D01*
X90461667Y-74915000D01*
X90585476Y-75038810D01*
X90647381Y-75162619D01*
X90709286Y-75410238D01*
X90709286Y-75595952D01*
X90647381Y-75843571D01*
X90585476Y-75967381D01*
X90461667Y-76091190D01*
X90275953Y-76153095D01*
X90152143Y-76153095D01*
X89966429Y-76091190D01*
X89904524Y-76029286D01*
X89904524Y-75595952D01*
X90152143Y-75595952D01*
X89347381Y-76153095D02*
X89347381Y-74853095D01*
X88604524Y-76153095D01*
X88604524Y-74853095D01*
X87985476Y-76153095D02*
X87985476Y-74853095D01*
X87675952Y-74853095D01*
X87490238Y-74915000D01*
X87366429Y-75038810D01*
X87304524Y-75162619D01*
X87242619Y-75410238D01*
X87242619Y-75595952D01*
X87304524Y-75843571D01*
X87366429Y-75967381D01*
X87490238Y-76091190D01*
X87675952Y-76153095D01*
X87985476Y-76153095D01*
X89966429Y-77455000D02*
X90090238Y-77393095D01*
X90275953Y-77393095D01*
X90461667Y-77455000D01*
X90585476Y-77578810D01*
X90647381Y-77702619D01*
X90709286Y-77950238D01*
X90709286Y-78135952D01*
X90647381Y-78383571D01*
X90585476Y-78507381D01*
X90461667Y-78631190D01*
X90275953Y-78693095D01*
X90152143Y-78693095D01*
X89966429Y-78631190D01*
X89904524Y-78569286D01*
X89904524Y-78135952D01*
X90152143Y-78135952D01*
X89347381Y-78693095D02*
X89347381Y-77393095D01*
X88604524Y-78693095D01*
X88604524Y-77393095D01*
X87985476Y-78693095D02*
X87985476Y-77393095D01*
X87675952Y-77393095D01*
X87490238Y-77455000D01*
X87366429Y-77578810D01*
X87304524Y-77702619D01*
X87242619Y-77950238D01*
X87242619Y-78135952D01*
X87304524Y-78383571D01*
X87366429Y-78507381D01*
X87490238Y-78631190D01*
X87675952Y-78693095D01*
X87985476Y-78693095D01*
X89966429Y-79995000D02*
X90090238Y-79933095D01*
X90275953Y-79933095D01*
X90461667Y-79995000D01*
X90585476Y-80118810D01*
X90647381Y-80242619D01*
X90709286Y-80490238D01*
X90709286Y-80675952D01*
X90647381Y-80923571D01*
X90585476Y-81047381D01*
X90461667Y-81171190D01*
X90275953Y-81233095D01*
X90152143Y-81233095D01*
X89966429Y-81171190D01*
X89904524Y-81109286D01*
X89904524Y-80675952D01*
X90152143Y-80675952D01*
X89347381Y-81233095D02*
X89347381Y-79933095D01*
X88604524Y-81233095D01*
X88604524Y-79933095D01*
X87985476Y-81233095D02*
X87985476Y-79933095D01*
X87675952Y-79933095D01*
X87490238Y-79995000D01*
X87366429Y-80118810D01*
X87304524Y-80242619D01*
X87242619Y-80490238D01*
X87242619Y-80675952D01*
X87304524Y-80923571D01*
X87366429Y-81047381D01*
X87490238Y-81171190D01*
X87675952Y-81233095D01*
X87985476Y-81233095D01*
X102250000Y-87274524D02*
X102311905Y-87398333D01*
X102311905Y-87584048D01*
X102250000Y-87769762D01*
X102126190Y-87893571D01*
X102002381Y-87955476D01*
X101754762Y-88017381D01*
X101569048Y-88017381D01*
X101321429Y-87955476D01*
X101197619Y-87893571D01*
X101073810Y-87769762D01*
X101011905Y-87584048D01*
X101011905Y-87460238D01*
X101073810Y-87274524D01*
X101135714Y-87212619D01*
X101569048Y-87212619D01*
X101569048Y-87460238D01*
X101011905Y-86655476D02*
X102311905Y-86655476D01*
X101011905Y-85912619D01*
X102311905Y-85912619D01*
X101011905Y-85293571D02*
X102311905Y-85293571D01*
X102311905Y-84984047D01*
X102250000Y-84798333D01*
X102126190Y-84674524D01*
X102002381Y-84612619D01*
X101754762Y-84550714D01*
X101569048Y-84550714D01*
X101321429Y-84612619D01*
X101197619Y-84674524D01*
X101073810Y-84798333D01*
X101011905Y-84984047D01*
X101011905Y-85293571D01*
X112471905Y-88141190D02*
X112471905Y-87398333D01*
X111171905Y-87769762D02*
X112471905Y-87769762D01*
X112471905Y-87088810D02*
X111171905Y-86222143D01*
X112471905Y-86222143D02*
X111171905Y-87088810D01*
X108631905Y-87212619D02*
X109250952Y-87645952D01*
X108631905Y-87955476D02*
X109931905Y-87955476D01*
X109931905Y-87460238D01*
X109870000Y-87336429D01*
X109808095Y-87274524D01*
X109684286Y-87212619D01*
X109498571Y-87212619D01*
X109374762Y-87274524D01*
X109312857Y-87336429D01*
X109250952Y-87460238D01*
X109250952Y-87955476D01*
X109931905Y-86779286D02*
X108631905Y-85912619D01*
X109931905Y-85912619D02*
X108631905Y-86779286D01*
X124536905Y-75811667D02*
X123608333Y-75811667D01*
X123422619Y-75873571D01*
X123298810Y-75997381D01*
X123236905Y-76183095D01*
X123236905Y-76306905D01*
X124536905Y-75378333D02*
X124536905Y-74635476D01*
X123236905Y-75006905D02*
X124536905Y-75006905D01*
X123608333Y-74264048D02*
X123608333Y-73645000D01*
X123236905Y-74387857D02*
X124536905Y-73954524D01*
X123236905Y-73521191D01*
X124475000Y-72406905D02*
X124536905Y-72530714D01*
X124536905Y-72716429D01*
X124475000Y-72902143D01*
X124351190Y-73025952D01*
X124227381Y-73087857D01*
X123979762Y-73149762D01*
X123794048Y-73149762D01*
X123546429Y-73087857D01*
X123422619Y-73025952D01*
X123298810Y-72902143D01*
X123236905Y-72716429D01*
X123236905Y-72592619D01*
X123298810Y-72406905D01*
X123360714Y-72345000D01*
X123794048Y-72345000D01*
X123794048Y-72592619D01*
D13*
X115630000Y-88840000D02*
X115630000Y-91500000D01*
X102870000Y-88840000D02*
X115630000Y-88840000D01*
X102870000Y-91500000D02*
X115630000Y-91500000D01*
X102870000Y-88840000D02*
X102870000Y-91500000D01*
X101600000Y-88840000D02*
X100270000Y-88840000D01*
X100270000Y-88840000D02*
X100270000Y-90170000D01*
X118885000Y-71060000D02*
X119707470Y-71060000D01*
X121592530Y-71060000D02*
X122415000Y-71060000D01*
X120322530Y-71060000D02*
X120977470Y-71060000D01*
X118885000Y-76075000D02*
X118885000Y-71060000D01*
X122415000Y-77530000D02*
X122415000Y-71060000D01*
X118885000Y-76075000D02*
X119451529Y-76075000D01*
X120578471Y-76075000D02*
X120721529Y-76075000D01*
X120775000Y-76128471D02*
X120775000Y-76271529D01*
X120775000Y-77398471D02*
X120775000Y-77530000D01*
X120775000Y-77530000D02*
X120977470Y-77530000D01*
X121592530Y-77530000D02*
X122415000Y-77530000D01*
X118885000Y-76835000D02*
X118885000Y-77595000D01*
X118885000Y-77595000D02*
X120015000Y-77595000D01*
X81220000Y-71695000D02*
X86420000Y-71695000D01*
X81220000Y-81915000D02*
X81220000Y-71695000D01*
X86420000Y-84515000D02*
X86420000Y-71695000D01*
X81220000Y-81915000D02*
X83820000Y-81915000D01*
X83820000Y-81915000D02*
X83820000Y-84515000D01*
X83820000Y-84515000D02*
X86420000Y-84515000D01*
X81220000Y-83185000D02*
X81220000Y-84515000D01*
X81220000Y-84515000D02*
X82550000Y-84515000D01*
D14*
X84360000Y-68665000D02*
X84360000Y-57065000D01*
X84360000Y-57065000D02*
X92860000Y-57065000D01*
X92860000Y-57065000D02*
X92860000Y-68665000D01*
X92860000Y-68665000D02*
X84360000Y-68665000D01*
D15*
X109886666Y-92271905D02*
X109886666Y-92843333D01*
X109924762Y-92957619D01*
X110000952Y-93033810D01*
X110115238Y-93071905D01*
X110191428Y-93071905D01*
X109505714Y-93071905D02*
X109505714Y-92271905D01*
X109200952Y-92271905D01*
X109124761Y-92310000D01*
X109086666Y-92348095D01*
X109048571Y-92424286D01*
X109048571Y-92538571D01*
X109086666Y-92614762D01*
X109124761Y-92652857D01*
X109200952Y-92690952D01*
X109505714Y-92690952D01*
X108362857Y-92271905D02*
X108515238Y-92271905D01*
X108591428Y-92310000D01*
X108629523Y-92348095D01*
X108705714Y-92462381D01*
X108743809Y-92614762D01*
X108743809Y-92919524D01*
X108705714Y-92995714D01*
X108667619Y-93033810D01*
X108591428Y-93071905D01*
X108439047Y-93071905D01*
X108362857Y-93033810D01*
X108324761Y-92995714D01*
X108286666Y-92919524D01*
X108286666Y-92729048D01*
X108324761Y-92652857D01*
X108362857Y-92614762D01*
X108439047Y-92576667D01*
X108591428Y-92576667D01*
X108667619Y-92614762D01*
X108705714Y-92652857D01*
X108743809Y-92729048D01*
X117671905Y-73628334D02*
X118243333Y-73628334D01*
X118357619Y-73590238D01*
X118433810Y-73514048D01*
X118471905Y-73399762D01*
X118471905Y-73323572D01*
X118471905Y-74009286D02*
X117671905Y-74009286D01*
X117671905Y-74314048D01*
X117710000Y-74390239D01*
X117748095Y-74428334D01*
X117824286Y-74466429D01*
X117938571Y-74466429D01*
X118014762Y-74428334D01*
X118052857Y-74390239D01*
X118090952Y-74314048D01*
X118090952Y-74009286D01*
X117938571Y-75152143D02*
X118471905Y-75152143D01*
X117633810Y-74961667D02*
X118205238Y-74771191D01*
X118205238Y-75266429D01*
X79571905Y-77438334D02*
X80143333Y-77438334D01*
X80257619Y-77400238D01*
X80333810Y-77324048D01*
X80371905Y-77209762D01*
X80371905Y-77133572D01*
X80371905Y-77819286D02*
X79571905Y-77819286D01*
X79571905Y-78124048D01*
X79610000Y-78200239D01*
X79648095Y-78238334D01*
X79724286Y-78276429D01*
X79838571Y-78276429D01*
X79914762Y-78238334D01*
X79952857Y-78200239D01*
X79990952Y-78124048D01*
X79990952Y-77819286D01*
X79571905Y-79000239D02*
X79571905Y-78619286D01*
X79952857Y-78581191D01*
X79914762Y-78619286D01*
X79876667Y-78695477D01*
X79876667Y-78885953D01*
X79914762Y-78962143D01*
X79952857Y-79000239D01*
X80029048Y-79038334D01*
X80219524Y-79038334D01*
X80295714Y-79000239D01*
X80333810Y-78962143D01*
X80371905Y-78885953D01*
X80371905Y-78695477D01*
X80333810Y-78619286D01*
X80295714Y-78581191D01*
X82981905Y-61785476D02*
X83629524Y-61785476D01*
X83705714Y-61823571D01*
X83743810Y-61861667D01*
X83781905Y-61937857D01*
X83781905Y-62090238D01*
X83743810Y-62166429D01*
X83705714Y-62204524D01*
X83629524Y-62242619D01*
X82981905Y-62242619D01*
X83781905Y-63042619D02*
X83781905Y-62585476D01*
X83781905Y-62814047D02*
X82981905Y-62814047D01*
X83096190Y-62737857D01*
X83172381Y-62661666D01*
X83210476Y-62585476D01*
X82981905Y-63728333D02*
X82981905Y-63575952D01*
X83020000Y-63499762D01*
X83058095Y-63461667D01*
X83172381Y-63385476D01*
X83324762Y-63347381D01*
X83629524Y-63347381D01*
X83705714Y-63385476D01*
X83743810Y-63423571D01*
X83781905Y-63499762D01*
X83781905Y-63652143D01*
X83743810Y-63728333D01*
X83705714Y-63766429D01*
X83629524Y-63804524D01*
X83439048Y-63804524D01*
X83362857Y-63766429D01*
X83324762Y-63728333D01*
X83286667Y-63652143D01*
X83286667Y-63499762D01*
X83324762Y-63423571D01*
X83362857Y-63385476D01*
X83439048Y-63347381D01*
M02*
