G04 #@! TF.FileFunction,Paste,Top*
%FSLAX46Y46*%
G04 Gerber Fmt 4.6, Leading zero omitted, Abs format (unit mm)*
G04 Created by KiCad (PCBNEW 4.0.7) date 2017 October 30, Monday 23:27:59*
%MOMM*%
%LPD*%
G01*
G04 APERTURE LIST*
%ADD10C,0.100000*%
%ADD11R,0.900000X0.500000*%
%ADD12R,0.500000X0.900000*%
%ADD13R,0.800000X0.750000*%
%ADD14R,1.250000X1.000000*%
%ADD15R,1.000000X1.250000*%
%ADD16R,0.750000X0.800000*%
%ADD17R,1.200000X0.900000*%
%ADD18R,0.800000X0.900000*%
%ADD19R,0.250000X1.000000*%
%ADD20R,1.000000X0.250000*%
%ADD21R,1.000000X3.200000*%
%ADD22R,4.500000X2.000000*%
%ADD23R,1.500000X0.600000*%
%ADD24R,2.000000X1.780000*%
%ADD25R,0.450000X1.500000*%
%ADD26R,1.600000X3.000000*%
%ADD27R,3.500000X1.600000*%
%ADD28R,3.800000X2.000000*%
%ADD29R,1.500000X2.000000*%
%ADD30R,1.060000X0.650000*%
%ADD31R,0.600000X1.500000*%
G04 APERTURE END LIST*
D10*
D11*
X140970000Y-58940000D03*
X140970000Y-60440000D03*
X122555000Y-60440000D03*
X122555000Y-58940000D03*
X142875000Y-60440000D03*
X142875000Y-58940000D03*
X120650000Y-60440000D03*
X120650000Y-58940000D03*
X138430000Y-58940000D03*
X138430000Y-60440000D03*
X116205000Y-60440000D03*
X116205000Y-58940000D03*
X136525000Y-60440000D03*
X136525000Y-58940000D03*
X118110000Y-60440000D03*
X118110000Y-58940000D03*
D12*
X221095000Y-106680000D03*
X219595000Y-106680000D03*
X221095000Y-104775000D03*
X219595000Y-104775000D03*
X221095000Y-102870000D03*
X219595000Y-102870000D03*
X221095000Y-100965000D03*
X219595000Y-100965000D03*
X221095000Y-99060000D03*
X219595000Y-99060000D03*
X221095000Y-97155000D03*
X219595000Y-97155000D03*
X221095000Y-95250000D03*
X219595000Y-95250000D03*
X221095000Y-93345000D03*
X219595000Y-93345000D03*
D13*
X106160000Y-87630000D03*
X104660000Y-87630000D03*
X97040000Y-87630000D03*
X98540000Y-87630000D03*
D14*
X104140000Y-63135000D03*
X104140000Y-65135000D03*
D15*
X117840000Y-69215000D03*
X115840000Y-69215000D03*
D13*
X219190000Y-121920000D03*
X217690000Y-121920000D03*
D16*
X146050000Y-89650000D03*
X146050000Y-88150000D03*
X130175000Y-89650000D03*
X130175000Y-88150000D03*
X127000000Y-88150000D03*
X127000000Y-89650000D03*
X130810000Y-77585000D03*
X130810000Y-76085000D03*
D17*
X171450000Y-138810000D03*
X171450000Y-135510000D03*
X158750000Y-138810000D03*
X158750000Y-135510000D03*
X146050000Y-138810000D03*
X146050000Y-135510000D03*
X133350000Y-138810000D03*
X133350000Y-135510000D03*
X120650000Y-138810000D03*
X120650000Y-135510000D03*
X107950000Y-138810000D03*
X107950000Y-135510000D03*
X95250000Y-138810000D03*
X95250000Y-135510000D03*
X82550000Y-135000000D03*
X82550000Y-131700000D03*
X171450000Y-126110000D03*
X171450000Y-122810000D03*
X158750000Y-126110000D03*
X158750000Y-122810000D03*
X146050000Y-126110000D03*
X146050000Y-122810000D03*
X133350000Y-126110000D03*
X133350000Y-122810000D03*
X120650000Y-126110000D03*
X120650000Y-122810000D03*
X107950000Y-126110000D03*
X107950000Y-122810000D03*
X95250000Y-126110000D03*
X95250000Y-122810000D03*
X82550000Y-128650000D03*
X82550000Y-125350000D03*
X171450000Y-113410000D03*
X171450000Y-110110000D03*
X158750000Y-113410000D03*
X158750000Y-110110000D03*
X146050000Y-113410000D03*
X146050000Y-110110000D03*
X133350000Y-113410000D03*
X133350000Y-110110000D03*
X120650000Y-113410000D03*
X120650000Y-110110000D03*
X107950000Y-113410000D03*
X107950000Y-110110000D03*
X95250000Y-113410000D03*
X95250000Y-110110000D03*
X82550000Y-122300000D03*
X82550000Y-119000000D03*
X203200000Y-138810000D03*
X203200000Y-135510000D03*
X190500000Y-135000000D03*
X190500000Y-131700000D03*
X203200000Y-126110000D03*
X203200000Y-122810000D03*
X190500000Y-128650000D03*
X190500000Y-125350000D03*
X203200000Y-113410000D03*
X203200000Y-110110000D03*
X190500000Y-122300000D03*
X190500000Y-119000000D03*
X203200000Y-100710000D03*
X203200000Y-97410000D03*
X190500000Y-100710000D03*
X190500000Y-97410000D03*
X162560000Y-100710000D03*
X162560000Y-97410000D03*
X147320000Y-100710000D03*
X147320000Y-97410000D03*
X132080000Y-100710000D03*
X132080000Y-97410000D03*
X116840000Y-100710000D03*
X116840000Y-97410000D03*
X101600000Y-100710000D03*
X101600000Y-97410000D03*
D18*
X145100000Y-60690000D03*
X147000000Y-60690000D03*
X146050000Y-58690000D03*
X126680000Y-58690000D03*
X124780000Y-58690000D03*
X125730000Y-60690000D03*
X132400000Y-60690000D03*
X134300000Y-60690000D03*
X133350000Y-58690000D03*
X113980000Y-58690000D03*
X112080000Y-58690000D03*
X113030000Y-60690000D03*
D19*
X104200000Y-78710000D03*
X104700000Y-78710000D03*
X105200000Y-78710000D03*
X105700000Y-78710000D03*
X106200000Y-78710000D03*
X106700000Y-78710000D03*
X107200000Y-78710000D03*
X107700000Y-78710000D03*
X108200000Y-78710000D03*
X108700000Y-78710000D03*
X109200000Y-78710000D03*
X109700000Y-78710000D03*
X110200000Y-78710000D03*
X110700000Y-78710000D03*
X111200000Y-78710000D03*
X111700000Y-78710000D03*
D20*
X113650000Y-76760000D03*
X113650000Y-76260000D03*
X113650000Y-75760000D03*
X113650000Y-75260000D03*
X113650000Y-74760000D03*
X113650000Y-74260000D03*
X113650000Y-73760000D03*
X113650000Y-73260000D03*
X113650000Y-72760000D03*
X113650000Y-72260000D03*
X113650000Y-71760000D03*
X113650000Y-71260000D03*
X113650000Y-70760000D03*
X113650000Y-70260000D03*
X113650000Y-69760000D03*
X113650000Y-69260000D03*
D19*
X111700000Y-67310000D03*
X111200000Y-67310000D03*
X110700000Y-67310000D03*
X110200000Y-67310000D03*
X109700000Y-67310000D03*
X109200000Y-67310000D03*
X108700000Y-67310000D03*
X108200000Y-67310000D03*
X107700000Y-67310000D03*
X107200000Y-67310000D03*
X106700000Y-67310000D03*
X106200000Y-67310000D03*
X105700000Y-67310000D03*
X105200000Y-67310000D03*
X104700000Y-67310000D03*
X104200000Y-67310000D03*
D20*
X102250000Y-69260000D03*
X102250000Y-69760000D03*
X102250000Y-70260000D03*
X102250000Y-70760000D03*
X102250000Y-71260000D03*
X102250000Y-71760000D03*
X102250000Y-72260000D03*
X102250000Y-72760000D03*
X102250000Y-73260000D03*
X102250000Y-73760000D03*
X102250000Y-74260000D03*
X102250000Y-74760000D03*
X102250000Y-75260000D03*
X102250000Y-75760000D03*
X102250000Y-76260000D03*
X102250000Y-76760000D03*
D11*
X85725000Y-91555000D03*
X85725000Y-90055000D03*
X85725000Y-101485000D03*
X85725000Y-102985000D03*
D21*
X83280000Y-105635000D03*
X83280000Y-98835000D03*
X79280000Y-98835000D03*
X79280000Y-105635000D03*
X79280000Y-87405000D03*
X79280000Y-94205000D03*
X83280000Y-94205000D03*
X83280000Y-87405000D03*
D22*
X105850000Y-83820000D03*
X97350000Y-83820000D03*
D13*
X160540000Y-59690000D03*
X162040000Y-59690000D03*
X160540000Y-67310000D03*
X162040000Y-67310000D03*
X173470000Y-67310000D03*
X171970000Y-67310000D03*
X173470000Y-59690000D03*
X171970000Y-59690000D03*
X166255000Y-69215000D03*
X167755000Y-69215000D03*
X166255000Y-57785000D03*
X167755000Y-57785000D03*
D12*
X162040000Y-62230000D03*
X160540000Y-62230000D03*
X162040000Y-64770000D03*
X160540000Y-64770000D03*
X158230000Y-62230000D03*
X156730000Y-62230000D03*
X158230000Y-64770000D03*
X156730000Y-64770000D03*
X158230000Y-59690000D03*
X156730000Y-59690000D03*
X158230000Y-67310000D03*
X156730000Y-67310000D03*
X171970000Y-64770000D03*
X173470000Y-64770000D03*
X171970000Y-62230000D03*
X173470000Y-62230000D03*
X175145000Y-64770000D03*
X176645000Y-64770000D03*
X175145000Y-62230000D03*
X176645000Y-62230000D03*
X175145000Y-67310000D03*
X176645000Y-67310000D03*
X175145000Y-59690000D03*
X176645000Y-59690000D03*
D23*
X164305000Y-59690000D03*
X164305000Y-60960000D03*
X164305000Y-62230000D03*
X164305000Y-63500000D03*
X164305000Y-64770000D03*
X164305000Y-66040000D03*
X164305000Y-67310000D03*
X169705000Y-67310000D03*
X169705000Y-66040000D03*
X169705000Y-64770000D03*
X169705000Y-63500000D03*
X169705000Y-62230000D03*
X169705000Y-60960000D03*
X169705000Y-59690000D03*
D17*
X94615000Y-63245000D03*
X94615000Y-59945000D03*
D11*
X78740000Y-62345000D03*
X78740000Y-60845000D03*
X97155000Y-62345000D03*
X97155000Y-60845000D03*
X111760000Y-54725000D03*
X111760000Y-53225000D03*
X109220000Y-54725000D03*
X109220000Y-53225000D03*
D24*
X91125000Y-65405000D03*
X81595000Y-57785000D03*
X91125000Y-62865000D03*
X81595000Y-60325000D03*
X91125000Y-60325000D03*
X81595000Y-62865000D03*
X91125000Y-57785000D03*
X81595000Y-65405000D03*
D25*
X194575000Y-85500000D03*
X195225000Y-85500000D03*
X195875000Y-85500000D03*
X196525000Y-85500000D03*
X197175000Y-85500000D03*
X197825000Y-85500000D03*
X198475000Y-85500000D03*
X199125000Y-85500000D03*
X199125000Y-79600000D03*
X198475000Y-79600000D03*
X197825000Y-79600000D03*
X197175000Y-79600000D03*
X196525000Y-79600000D03*
X195875000Y-79600000D03*
X195225000Y-79600000D03*
X194575000Y-79600000D03*
D13*
X191250000Y-61595000D03*
X189750000Y-61595000D03*
D26*
X186055000Y-64475000D03*
X186055000Y-68875000D03*
D13*
X195060000Y-61595000D03*
X193560000Y-61595000D03*
D27*
X215105000Y-56515000D03*
X220505000Y-56515000D03*
X185895000Y-56515000D03*
X191295000Y-56515000D03*
D13*
X204585000Y-61595000D03*
X203085000Y-61595000D03*
D26*
X199390000Y-64475000D03*
X199390000Y-68875000D03*
D13*
X208395000Y-61595000D03*
X206895000Y-61595000D03*
D16*
X169545000Y-57380000D03*
X169545000Y-55880000D03*
D13*
X217920000Y-61595000D03*
X216420000Y-61595000D03*
D26*
X212725000Y-64475000D03*
X212725000Y-68875000D03*
D13*
X221730000Y-61595000D03*
X220230000Y-61595000D03*
D17*
X211455000Y-58165000D03*
X211455000Y-54865000D03*
D18*
X171770000Y-57515000D03*
X173670000Y-57515000D03*
X172720000Y-55515000D03*
D12*
X186805000Y-61595000D03*
X185305000Y-61595000D03*
X200140000Y-61595000D03*
X198640000Y-61595000D03*
X213475000Y-61595000D03*
X211975000Y-61595000D03*
D11*
X175895000Y-55765000D03*
X175895000Y-57265000D03*
D12*
X103620000Y-59690000D03*
X102120000Y-59690000D03*
D28*
X192405000Y-70460000D03*
D29*
X192405000Y-64160000D03*
X190105000Y-64160000D03*
X194705000Y-64160000D03*
D28*
X205740000Y-70460000D03*
D29*
X205740000Y-64160000D03*
X203440000Y-64160000D03*
X208040000Y-64160000D03*
D28*
X219075000Y-70460000D03*
D29*
X219075000Y-64160000D03*
X216775000Y-64160000D03*
X221375000Y-64160000D03*
D30*
X101770000Y-55565000D03*
X101770000Y-56515000D03*
X101770000Y-57465000D03*
X103970000Y-57465000D03*
X103970000Y-55565000D03*
D17*
X194945000Y-54865000D03*
X194945000Y-58165000D03*
D12*
X175780000Y-86360000D03*
X177280000Y-86360000D03*
D31*
X132080000Y-91600000D03*
X133350000Y-91600000D03*
X134620000Y-91600000D03*
X135890000Y-91600000D03*
X137160000Y-91600000D03*
X138430000Y-91600000D03*
X139700000Y-91600000D03*
X140970000Y-91600000D03*
X140970000Y-86200000D03*
X139700000Y-86200000D03*
X138430000Y-86200000D03*
X137160000Y-86200000D03*
X135890000Y-86200000D03*
X134620000Y-86200000D03*
X133350000Y-86200000D03*
X132080000Y-86200000D03*
X147955000Y-91600000D03*
X149225000Y-91600000D03*
X150495000Y-91600000D03*
X151765000Y-91600000D03*
X153035000Y-91600000D03*
X154305000Y-91600000D03*
X155575000Y-91600000D03*
X156845000Y-91600000D03*
X156845000Y-86200000D03*
X155575000Y-86200000D03*
X154305000Y-86200000D03*
X153035000Y-86200000D03*
X151765000Y-86200000D03*
X150495000Y-86200000D03*
X149225000Y-86200000D03*
X147955000Y-86200000D03*
D23*
X221140000Y-120015000D03*
X221140000Y-118745000D03*
X221140000Y-117475000D03*
X221140000Y-116205000D03*
X221140000Y-114935000D03*
X221140000Y-113665000D03*
X221140000Y-112395000D03*
X221140000Y-111125000D03*
X215740000Y-111125000D03*
X215740000Y-112395000D03*
X215740000Y-113665000D03*
X215740000Y-114935000D03*
X215740000Y-116205000D03*
X215740000Y-117475000D03*
X215740000Y-118745000D03*
X215740000Y-120015000D03*
D31*
X125095000Y-86200000D03*
X123825000Y-86200000D03*
X122555000Y-86200000D03*
X121285000Y-86200000D03*
X120015000Y-86200000D03*
X118745000Y-86200000D03*
X117475000Y-86200000D03*
X116205000Y-86200000D03*
X116205000Y-91600000D03*
X117475000Y-91600000D03*
X118745000Y-91600000D03*
X120015000Y-91600000D03*
X121285000Y-91600000D03*
X122555000Y-91600000D03*
X123825000Y-91600000D03*
X125095000Y-91600000D03*
D16*
X99695000Y-75450000D03*
X99695000Y-76950000D03*
X116840000Y-76950000D03*
X116840000Y-75450000D03*
D13*
X117590000Y-67310000D03*
X116090000Y-67310000D03*
D16*
X102235000Y-63385000D03*
X102235000Y-64885000D03*
D13*
X110375000Y-83185000D03*
X111875000Y-83185000D03*
X110375000Y-81280000D03*
X111875000Y-81280000D03*
X172605000Y-80645000D03*
X174105000Y-80645000D03*
X172605000Y-84455000D03*
X174105000Y-84455000D03*
X191885000Y-84455000D03*
X190385000Y-84455000D03*
X191885000Y-80645000D03*
X190385000Y-80645000D03*
X201815000Y-80645000D03*
X203315000Y-80645000D03*
X201815000Y-84455000D03*
X203315000Y-84455000D03*
X221095000Y-84455000D03*
X219595000Y-84455000D03*
X221095000Y-80645000D03*
X219595000Y-80645000D03*
X179590000Y-76835000D03*
X181090000Y-76835000D03*
X208800000Y-76835000D03*
X210300000Y-76835000D03*
X183400000Y-76835000D03*
X184900000Y-76835000D03*
X212610000Y-76835000D03*
X214110000Y-76835000D03*
D12*
X175780000Y-78740000D03*
X177280000Y-78740000D03*
X188710000Y-86360000D03*
X187210000Y-86360000D03*
X188710000Y-78740000D03*
X187210000Y-78740000D03*
X172605000Y-78740000D03*
X174105000Y-78740000D03*
X175780000Y-80645000D03*
X177280000Y-80645000D03*
X172605000Y-86360000D03*
X174105000Y-86360000D03*
X175780000Y-84455000D03*
X177280000Y-84455000D03*
X191885000Y-86360000D03*
X190385000Y-86360000D03*
X188710000Y-84455000D03*
X187210000Y-84455000D03*
X191885000Y-78740000D03*
X190385000Y-78740000D03*
X188710000Y-80645000D03*
X187210000Y-80645000D03*
X204990000Y-78740000D03*
X206490000Y-78740000D03*
X204990000Y-86360000D03*
X206490000Y-86360000D03*
X217920000Y-86360000D03*
X216420000Y-86360000D03*
X217920000Y-78740000D03*
X216420000Y-78740000D03*
X201815000Y-78740000D03*
X203315000Y-78740000D03*
X204990000Y-80645000D03*
X206490000Y-80645000D03*
X201815000Y-86360000D03*
X203315000Y-86360000D03*
X204990000Y-84455000D03*
X206490000Y-84455000D03*
X221095000Y-86360000D03*
X219595000Y-86360000D03*
X217920000Y-84455000D03*
X216420000Y-84455000D03*
X221095000Y-78740000D03*
X219595000Y-78740000D03*
X217920000Y-80645000D03*
X216420000Y-80645000D03*
D23*
X179545000Y-78740000D03*
X179545000Y-80010000D03*
X179545000Y-81280000D03*
X179545000Y-82550000D03*
X179545000Y-83820000D03*
X179545000Y-85090000D03*
X179545000Y-86360000D03*
X184945000Y-86360000D03*
X184945000Y-85090000D03*
X184945000Y-83820000D03*
X184945000Y-82550000D03*
X184945000Y-81280000D03*
X184945000Y-80010000D03*
X184945000Y-78740000D03*
X208755000Y-78740000D03*
X208755000Y-80010000D03*
X208755000Y-81280000D03*
X208755000Y-82550000D03*
X208755000Y-83820000D03*
X208755000Y-85090000D03*
X208755000Y-86360000D03*
X214155000Y-86360000D03*
X214155000Y-85090000D03*
X214155000Y-83820000D03*
X214155000Y-82550000D03*
X214155000Y-81280000D03*
X214155000Y-80010000D03*
X214155000Y-78740000D03*
D11*
X118745000Y-95365000D03*
X118745000Y-93865000D03*
X120650000Y-95365000D03*
X120650000Y-93865000D03*
X122555000Y-95365000D03*
X122555000Y-93865000D03*
X124460000Y-95365000D03*
X124460000Y-93865000D03*
X116840000Y-95365000D03*
X116840000Y-93865000D03*
X185420000Y-102350000D03*
X185420000Y-100850000D03*
X183515000Y-102350000D03*
X183515000Y-100850000D03*
X181610000Y-102350000D03*
X181610000Y-100850000D03*
X179705000Y-102465000D03*
X179705000Y-100965000D03*
X177800000Y-102350000D03*
X177800000Y-100850000D03*
X175895000Y-102350000D03*
X175895000Y-100850000D03*
D12*
X187440000Y-96520000D03*
X185940000Y-96520000D03*
X187440000Y-94615000D03*
X185940000Y-94615000D03*
D31*
X132715000Y-79535000D03*
X133985000Y-79535000D03*
X135255000Y-79535000D03*
X136525000Y-79535000D03*
X137795000Y-79535000D03*
X139065000Y-79535000D03*
X140335000Y-79535000D03*
X140335000Y-74135000D03*
X139065000Y-74135000D03*
X137795000Y-74135000D03*
X136525000Y-74135000D03*
X135255000Y-74135000D03*
X133985000Y-74135000D03*
X132715000Y-74135000D03*
D15*
X197755000Y-90170000D03*
X199755000Y-90170000D03*
D13*
X199505000Y-88265000D03*
X198005000Y-88265000D03*
X196100000Y-76835000D03*
X197600000Y-76835000D03*
D15*
X197850000Y-74930000D03*
X195850000Y-74930000D03*
D13*
X191655000Y-90170000D03*
X193155000Y-90170000D03*
D12*
X196330000Y-88265000D03*
X194830000Y-88265000D03*
X194830000Y-90170000D03*
X196330000Y-90170000D03*
M02*
