M48
INCH,TZ
T1C0.013
T2C0.014
T3C0.024
T4C0.026
T5C0.028
T6C0.031
T7C0.035
T8C0.039
T9C0.043
T10C0.051
T11C0.098
T12C0.106
T13C0.157
%
G90
G05
T1
X31000Y-25750
X31750Y-33250
X31750Y-39000
X32250Y-20500
X33250Y-24000
X34000Y-22500
X34250Y-35500
X35250Y-29750
X37000Y-25750
X37000Y-30250
X37000Y-35750
X39000Y-35000
X39250Y-34750
X40750Y-22000
X40750Y-23000
X40750Y-32000
X41000Y-32250
X42750Y-22500
X43000Y-38500
X43000Y-43250
X43000Y-48250
X43000Y-51750
X43250Y-20500
X43500Y-24500
X43500Y-29500
X43750Y-32000
X44000Y-24500
X44000Y-31750
X45000Y-20500
X45000Y-21000
X45000Y-24500
X45000Y-27750
X45250Y-27000
X45250Y-27500
X45250Y-28000
X45500Y-27250
X46000Y-21250
X46000Y-23250
X46000Y-24750
X46250Y-26500
X46750Y-26500
X46750Y-32000
X46750Y-33500
X47000Y-19250
X47000Y-24750
X47000Y-34750
X47131Y-18932
X47250Y-20500
X48000Y-23500
X48750Y-31500
X49000Y-26250
X49000Y-28750
X49500Y-22750
X49500Y-28250
X49500Y-30250
X49750Y-26250
X49750Y-28750
X50000Y-22750
X50750Y-35250
X50750Y-37250
X51250Y-23000
X51250Y-29000
X51500Y-28750
X51500Y-37000
X51912Y-28758
X52250Y-28750
X52500Y-22750
X52500Y-29750
X52750Y-21000
X52750Y-21500
X52936Y-36125
X53000Y-28500
X53000Y-31750
X53250Y-27250
X53497Y-28504
X53500Y-21000
X53500Y-22250
X53500Y-41500
X53750Y-26750
X54000Y-21000
X54000Y-35250
X54250Y-24250
X54250Y-29500
X55750Y-40750
X56000Y-28500
X56250Y-24000
X56250Y-25500
X56250Y-31750
X56250Y-33750
X56500Y-40000
X56750Y-27000
X57000Y-27250
X57250Y-25250
X57500Y-31500
X57750Y-25500
X57750Y-29750
X58000Y-23750
X58000Y-24250
X58000Y-25250
X58415Y-30495
X58500Y-26250
X58500Y-41500
X59500Y-22750
X59500Y-36250
X59500Y-37000
X59750Y-26250
X60500Y-53350
X60605Y-48350
X60750Y-43350
X61000Y-30000
X61250Y-37000
X61300Y-30800
X61750Y-30000
X62000Y-29750
X62000Y-38000
X62500Y-25000
X62500Y-26500
X62500Y-28000
X62500Y-32000
X62500Y-33000
X62500Y-33500
X62750Y-32500
X63250Y-33500
X63500Y-31000
X63500Y-38500
X63500Y-41500
X63750Y-36750
X64000Y-35250
X64500Y-22750
X64750Y-26750
X64750Y-34250
X65000Y-31750
X65249Y-32251
X65249Y-33249
X65250Y-26750
X65250Y-28000
X65250Y-28500
X65750Y-23250
X65750Y-27500
X66175Y-39250
X66250Y-33250
X66250Y-34000
X66638Y-34135
X66750Y-31500
X66750Y-33000
X67000Y-39000
X67250Y-31000
X67250Y-33000
X67250Y-33500
X67250Y-34500
X67500Y-36250
X67750Y-35250
X68000Y-36250
X68250Y-28750
X68335Y-25500
X68335Y-27500
X68500Y-29250
X68500Y-31500
X68500Y-32000
X68500Y-32500
X68500Y-36250
X68500Y-38250
X68500Y-41500
X68750Y-30500
X68964Y-42036
X69250Y-36250
X69250Y-38250
X69250Y-42500
X69500Y-24250
X69975Y-26000
X70000Y-26500
X70000Y-27000
X70000Y-36250
X70000Y-38250
X70750Y-36250
X70750Y-38250
X71000Y-27000
X71000Y-31500
X71000Y-32000
X71000Y-32500
X71000Y-33000
X71000Y-33500
X71000Y-34000
X71000Y-34500
X71025Y-26000
X71500Y-35250
X71500Y-36250
X71500Y-38250
X72250Y-31000
X72250Y-35250
X72250Y-36250
X72250Y-38250
X72500Y-28750
X72665Y-25500
X72665Y-27500
X72750Y-29250
X73750Y-31500
X73750Y-34500
X74250Y-23000
X74750Y-20500
X74750Y-31000
X75250Y-27500
X75250Y-36000
X75750Y-24500
X76110Y-19890
X77250Y-19275
X77500Y-21250
X78250Y-25000
X78250Y-27000
X78250Y-32500
X78250Y-34500
X78750Y-20750
X79000Y-21000
X79500Y-29000
X80000Y-24000
X80000Y-31500
X80250Y-26000
X80250Y-29750
X80250Y-30250
X80250Y-33500
X80250Y-35500
X80750Y-31000
X81378Y-28763
X81475Y-29250
X81475Y-30500
X81500Y-19500
X81500Y-23250
X81500Y-36250
X82250Y-19750
X82500Y-23250
X82500Y-36250
X82525Y-29250
X82525Y-30000
X82613Y-29632
X83250Y-28500
X83750Y-28250
X83750Y-29750
X83750Y-30330
X83750Y-31275
X83750Y-35500
X84500Y-28500
X84750Y-24000
X85000Y-55000
X85250Y-50000
X86000Y-25000
X86000Y-27000
X86000Y-32500
X86000Y-34500
X86250Y-24000
X86250Y-45000
X86500Y-45750
X87500Y-36500
X88750Y-42500
X89000Y-42250
X93750Y-21250
X94000Y-21000
T2
X30750Y-15500
X30750Y-20500
X30750Y-25250
X30750Y-30500
X30750Y-35500
X30750Y-40250
X30750Y-45500
X30750Y-50500
X30750Y-56500
X35250Y-35500
X35750Y-15500
X35750Y-25500
X35750Y-31000
X35750Y-56500
X36000Y-40250
X36000Y-45250
X36000Y-50250
X36500Y-20250
X38000Y-36000
X40500Y-56500
X40750Y-15500
X40750Y-20500
X40750Y-24750
X40750Y-30500
X40750Y-34750
X41000Y-40250
X41000Y-45250
X41000Y-50250
X45000Y-22500
X45500Y-46000
X45500Y-51000
X45750Y-15500
X45750Y-20000
X45750Y-30500
X45750Y-35500
X45750Y-40500
X45750Y-56500
X49500Y-27500
X50750Y-15500
X50750Y-34750
X50750Y-40000
X50750Y-45500
X50750Y-50500
X50750Y-56500
X51250Y-21500
X51250Y-24000
X52250Y-30500
X53000Y-35000
X55750Y-15500
X55750Y-26000
X55750Y-32500
X55750Y-35500
X55750Y-50500
X55750Y-56500
X56000Y-40000
X56000Y-45250
X56250Y-20000
X57250Y-26250
X60500Y-26750
X60750Y-15500
X60750Y-40500
X60750Y-50500
X60750Y-56500
X61000Y-35250
X61000Y-45250
X61250Y-20000
X61250Y-28500
X64500Y-37000
X65250Y-25500
X65750Y-15500
X65750Y-35250
X65750Y-40750
X65750Y-45500
X65750Y-56500
X66000Y-50250
X66250Y-20000
X70750Y-15500
X70750Y-40250
X70750Y-45500
X70750Y-56500
X71000Y-50250
X71250Y-21000
X72000Y-23750
X72250Y-34750
X73500Y-29250
X75500Y-30000
X75500Y-36500
X75750Y-15500
X75750Y-26500
X75750Y-40500
X75750Y-45500
X75750Y-50500
X75750Y-56500
X76250Y-21000
X78750Y-29750
X79250Y-36000
X80250Y-23500
X80750Y-15500
X80750Y-31500
X80750Y-40500
X80750Y-45500
X80750Y-50500
X80750Y-56500
X81000Y-20250
X85250Y-23500
X85750Y-15500
X85750Y-20500
X85750Y-30500
X85750Y-35750
X85750Y-45500
X85750Y-50750
X85750Y-56500
X90750Y-15500
X90750Y-20500
X90750Y-25500
X90750Y-30500
X90750Y-35500
X90750Y-40500
X90750Y-45500
X90750Y-50750
X90750Y-56500
X97250Y-15500
X97250Y-20500
X97250Y-25500
X97250Y-30500
X97250Y-35500
X97250Y-40500
X97250Y-45500
X97250Y-50500
X97250Y-56500
T4
X47250Y-28250
X47250Y-28750
X47250Y-29250
X47250Y-29750
X47250Y-30250
X47750Y-28250
X47750Y-28750
X47750Y-29250
X47750Y-29750
X47750Y-30250
T5
X32484Y-21433
X32917Y-21000
X33350Y-21433
X33783Y-21000
X34217Y-21433
X34650Y-21000
X35083Y-21433
X35516Y-21000
T6
X34000Y-23750
X34000Y-24750
X34000Y-25750
T7
X32307Y-19752
X32622Y-18000
X33606Y-18000
X34000Y-37500
X34000Y-42500
X34000Y-47500
X34000Y-52500
X34394Y-18000
X35000Y-37500
X35000Y-42500
X35000Y-47500
X35000Y-52500
X35378Y-18000
X35693Y-19752
X36000Y-37500
X36000Y-42500
X36000Y-47500
X36000Y-52500
X39000Y-37500
X39000Y-42500
X39000Y-47500
X39000Y-52500
X40000Y-37500
X40000Y-42500
X40000Y-47500
X40000Y-52500
X41000Y-37500
X41000Y-42500
X41000Y-47500
X41000Y-52500
X46500Y-42500
X46500Y-47500
X46500Y-52500
X47500Y-42500
X47500Y-47500
X47500Y-52500
X48500Y-42500
X48500Y-47500
X48500Y-52500
X51500Y-42500
X51500Y-47500
X51500Y-52500
X52500Y-42500
X52500Y-47500
X52500Y-52500
X53500Y-42500
X53500Y-47500
X53500Y-52500
X56500Y-42500
X56500Y-47500
X56500Y-52500
X57500Y-42500
X57500Y-47500
X57500Y-52500
X58500Y-42500
X58500Y-47500
X58500Y-52500
X61500Y-42500
X61500Y-47500
X61500Y-52500
X62500Y-42500
X62500Y-47500
X62500Y-52500
X63500Y-42500
X63500Y-47500
X63500Y-52500
X66500Y-42500
X66500Y-47500
X66500Y-52500
X67500Y-42500
X67500Y-47500
X67500Y-52500
X68500Y-42500
X68500Y-47500
X68500Y-52500
X71500Y-42500
X71500Y-47500
X71500Y-52500
X72500Y-42500
X72500Y-47500
X72500Y-52500
X73500Y-42500
X73500Y-47500
X73500Y-52500
X76500Y-42500
X76500Y-47500
X76500Y-52500
X77500Y-42500
X77500Y-47500
X77500Y-52500
X78500Y-42500
X78500Y-47500
X78500Y-52500
X81500Y-42500
X81500Y-47500
X81500Y-52500
X82500Y-42500
X82500Y-47500
X82500Y-52500
X83500Y-42500
X83500Y-47500
X83500Y-52500
T8
X32500Y-28750
X32500Y-29750
X32500Y-30750
X32500Y-31750
X32500Y-32750
X33500Y-28750
X33500Y-29750
X33500Y-30750
X33500Y-31750
X33500Y-32750
X40000Y-35500
X41000Y-35500
X42000Y-35500
X43000Y-35500
X44000Y-35500
X45000Y-35500
X54250Y-22000
X55250Y-22000
X56250Y-22000
X57250Y-22000
X58250Y-22000
X59250Y-22000
X60250Y-22000
X61250Y-22000
X62250Y-22000
X63250Y-22000
X64250Y-22000
X65250Y-22000
X66250Y-22000
X67250Y-22000
X68250Y-22000
X69250Y-22000
X70250Y-22000
X71250Y-22000
X72250Y-22000
X73250Y-22000
T9
X33720Y-39114
X33720Y-40886
X33720Y-44114
X33720Y-45886
X33720Y-49114
X33720Y-50886
X33720Y-54114
X33720Y-55886
X36280Y-39114
X36280Y-40886
X36280Y-44114
X36280Y-45886
X36280Y-49114
X36280Y-50886
X36280Y-54114
X36280Y-55886
X38720Y-39114
X38720Y-40886
X38720Y-44114
X38720Y-45886
X38720Y-49114
X38720Y-50886
X38720Y-54114
X38720Y-55886
X41280Y-39114
X41280Y-40886
X41280Y-44114
X41280Y-45886
X41280Y-49114
X41280Y-50886
X41280Y-54114
X41280Y-55886
X41516Y-26994
X41516Y-32703
X42500Y-32703
X43484Y-26994
X43484Y-32703
X46220Y-44114
X46220Y-45886
X46220Y-49114
X46220Y-50886
X46220Y-54114
X46220Y-55886
X48780Y-44114
X48780Y-45886
X48780Y-49114
X48780Y-50886
X48780Y-54114
X48780Y-55886
X50470Y-39114
X50470Y-40886
X51220Y-44114
X51220Y-45886
X51220Y-49114
X51220Y-50886
X51220Y-54114
X51220Y-55886
X53030Y-39114
X53030Y-40886
X53780Y-44114
X53780Y-45886
X53780Y-49114
X53780Y-50886
X53780Y-54114
X53780Y-55886
X56220Y-44114
X56220Y-45886
X56220Y-49114
X56220Y-50886
X56220Y-54114
X56220Y-55886
X56470Y-39114
X56470Y-40886
X58780Y-44114
X58780Y-45886
X58780Y-49114
X58780Y-50886
X58780Y-54114
X58780Y-55886
X59030Y-39114
X59030Y-40886
X61220Y-44114
X61220Y-45886
X61220Y-49114
X61220Y-50886
X61220Y-54114
X61220Y-55886
X62470Y-39114
X62470Y-40886
X63780Y-44114
X63780Y-45886
X63780Y-49114
X63780Y-50886
X63780Y-54114
X63780Y-55886
X65030Y-39114
X65030Y-40886
X66220Y-44114
X66220Y-45886
X66220Y-49114
X66220Y-50886
X66220Y-54114
X66220Y-55886
X68470Y-39114
X68470Y-40886
X68780Y-44114
X68780Y-45886
X68780Y-49114
X68780Y-50886
X68780Y-54114
X68780Y-55886
X71030Y-39114
X71030Y-40886
X71220Y-44114
X71220Y-45886
X71220Y-49114
X71220Y-50886
X71220Y-54114
X71220Y-55886
X73780Y-44114
X73780Y-45886
X73780Y-49114
X73780Y-50886
X73780Y-54114
X73780Y-55886
X74470Y-39114
X74470Y-40886
X76220Y-44114
X76220Y-45886
X76220Y-49114
X76220Y-50886
X76220Y-54114
X76220Y-55886
X77030Y-39114
X77030Y-40886
X78780Y-44114
X78780Y-45886
X78780Y-49114
X78780Y-50886
X78780Y-54114
X78780Y-55886
X81220Y-44114
X81220Y-45886
X81220Y-49114
X81220Y-50886
X81220Y-54114
X81220Y-55886
X83780Y-44114
X83780Y-45886
X83780Y-49114
X83780Y-50886
X83780Y-54114
X83780Y-55886
T11
X40059Y-29750
X44941Y-29750
T12
X43750Y-55000
T13
X40000Y-18000
X45000Y-18000
X50000Y-18000
X55000Y-18000
X60000Y-18000
X65000Y-18000
X70000Y-18000
X75000Y-18000
X80000Y-18000
X85000Y-18000
X90000Y-18000
X90000Y-23000
X90000Y-28000
X90000Y-33000
X90000Y-38000
X90000Y-43000
X90000Y-48000
X90000Y-53000
X95000Y-18000
X95000Y-23000
X95000Y-28000
X95000Y-33000
X95000Y-38000
X95000Y-43000
X95000Y-48000
X95000Y-53000
T3
X50394Y-16701G85X49606Y-16701
G05
X50394Y-19890G85X49606Y-19890
G05
X55394Y-16701G85X54606Y-16701
G05
X55394Y-19890G85X54606Y-19890
G05
X60394Y-16701G85X59606Y-16701
G05
X60394Y-19890G85X59606Y-19890
G05
X65394Y-16701G85X64606Y-16701
G05
X65394Y-19890G85X64606Y-19890
G05
X70394Y-16701G85X69606Y-16701
G05
X70394Y-19890G85X69606Y-19890
G05
X75394Y-16701G85X74606Y-16701
G05
X75394Y-19890G85X74606Y-19890
G05
X80394Y-16701G85X79606Y-16701
G05
X80394Y-19890G85X79606Y-19890
G05
X85394Y-16701G85X84606Y-16701
G05
X85394Y-19890G85X84606Y-19890
G05
X90394Y-16701G85X89606Y-16701
G05
X90394Y-19890G85X89606Y-19890
G05
X90394Y-21701G85X89606Y-21701
G05
X90394Y-24890G85X89606Y-24890
G05
X90394Y-26701G85X89606Y-26701
G05
X90394Y-29890G85X89606Y-29890
G05
X90394Y-31701G85X89606Y-31701
G05
X90394Y-34890G85X89606Y-34890
G05
X90394Y-36701G85X89606Y-36701
G05
X90394Y-39890G85X89606Y-39890
G05
X90394Y-41701G85X89606Y-41701
G05
X90394Y-44890G85X89606Y-44890
G05
X90394Y-46701G85X89606Y-46701
G05
X90394Y-49890G85X89606Y-49890
G05
X90394Y-51701G85X89606Y-51701
G05
X90394Y-54890G85X89606Y-54890
G05
X95394Y-16701G85X94606Y-16701
G05
X95394Y-19890G85X94606Y-19890
G05
X95394Y-21701G85X94606Y-21701
G05
X95394Y-24890G85X94606Y-24890
G05
X95394Y-26701G85X94606Y-26701
G05
X95394Y-29890G85X94606Y-29890
G05
X95394Y-31701G85X94606Y-31701
G05
X95394Y-34890G85X94606Y-34890
G05
X95394Y-36701G85X94606Y-36701
G05
X95394Y-39890G85X94606Y-39890
G05
X95394Y-41701G85X94606Y-41701
G05
X95394Y-44890G85X94606Y-44890
G05
X95394Y-46701G85X94606Y-46701
G05
X95394Y-49890G85X94606Y-49890
G05
X95394Y-51701G85X94606Y-51701
G05
X95394Y-54890G85X94606Y-54890
G05
T7
X39193Y-16701G85X39862Y-16701
G05
X39193Y-19772G85X39862Y-19772
G05
X41260Y-17350G85X41260Y-18020
G05
X44193Y-16701G85X44862Y-16701
G05
X44193Y-19772G85X44862Y-19772
G05
X46260Y-17350G85X46260Y-18020
G05
T9
X48150Y-18079G85X48150Y-17921
G05
X51850Y-18295G85X51850Y-17705
G05
X53150Y-18079G85X53150Y-17921
G05
X56850Y-18295G85X56850Y-17705
G05
X58150Y-18079G85X58150Y-17921
G05
X61850Y-18295G85X61850Y-17705
G05
X63150Y-18079G85X63150Y-17921
G05
X66850Y-18295G85X66850Y-17705
G05
X68150Y-18079G85X68150Y-17921
G05
X71850Y-18295G85X71850Y-17705
G05
X73150Y-18079G85X73150Y-17921
G05
X76850Y-18295G85X76850Y-17705
G05
X78150Y-18079G85X78150Y-17921
G05
X81850Y-18295G85X81850Y-17705
G05
X83150Y-18079G85X83150Y-17921
G05
X86850Y-18295G85X86850Y-17705
G05
X88150Y-18079G85X88150Y-17921
G05
X88150Y-23079G85X88150Y-22921
G05
X88150Y-28079G85X88150Y-27921
G05
X88150Y-33079G85X88150Y-32921
G05
X88150Y-38079G85X88150Y-37921
G05
X88150Y-43079G85X88150Y-42921
G05
X88150Y-48079G85X88150Y-47921
G05
X88150Y-53079G85X88150Y-52921
G05
X91850Y-18295G85X91850Y-17705
G05
X91850Y-23295G85X91850Y-22705
G05
X91850Y-28295G85X91850Y-27705
G05
X91850Y-33295G85X91850Y-32705
G05
X91850Y-38295G85X91850Y-37705
G05
X91850Y-43295G85X91850Y-42705
G05
X91850Y-48295G85X91850Y-47705
G05
X91850Y-53295G85X91850Y-52705
G05
X93150Y-18079G85X93150Y-17921
G05
X93150Y-23079G85X93150Y-22921
G05
X93150Y-28079G85X93150Y-27921
G05
X93150Y-33079G85X93150Y-32921
G05
X93150Y-38079G85X93150Y-37921
G05
X93150Y-43079G85X93150Y-42921
G05
X93150Y-48079G85X93150Y-47921
G05
X93150Y-53079G85X93150Y-52921
G05
X96850Y-18295G85X96850Y-17705
G05
X96850Y-23295G85X96850Y-22705
G05
X96850Y-28295G85X96850Y-27705
G05
X96850Y-33295G85X96850Y-32705
G05
X96850Y-38295G85X96850Y-37705
G05
X96850Y-43295G85X96850Y-42705
G05
X96850Y-48295G85X96850Y-47705
G05
X96850Y-53295G85X96850Y-52705
G05
T10
X31413Y-17567G85X31413Y-17961
G05
X33803Y-16354G85X34197Y-16354
G05
X36587Y-17567G85X36587Y-17961
G05
T0
M30
