G04 #@! TF.FileFunction,Soldermask,Bot*
%FSLAX46Y46*%
G04 Gerber Fmt 4.6, Leading zero omitted, Abs format (unit mm)*
G04 Created by KiCad (PCBNEW 4.0.7) date 2018 August 26, Sunday 22:33:41*
%MOMM*%
%LPD*%
G01*
G04 APERTURE LIST*
%ADD10C,0.100000*%
%ADD11C,4.600000*%
%ADD12R,1.900000X1.900000*%
%ADD13O,1.900000X1.900000*%
%ADD14R,1.200000X1.200000*%
%ADD15O,1.200000X1.200000*%
%ADD16C,2.200000*%
%ADD17C,4.200000*%
%ADD18C,1.600000*%
%ADD19O,2.300000X2.700000*%
%ADD20O,2.300000X3.800000*%
%ADD21O,3.800000X1.800000*%
%ADD22O,3.100000X2.100000*%
%ADD23C,1.500000*%
%ADD24O,2.100000X3.100000*%
%ADD25C,1.950000*%
%ADD26O,4.200000X4.200000*%
%ADD27R,2.000000X2.000000*%
%ADD28C,2.000000*%
%ADD29C,1.876400*%
%ADD30R,1.876400X1.876400*%
%ADD31O,2.100000X3.800000*%
%ADD32O,3.800000X2.100000*%
G04 APERTURE END LIST*
D10*
D11*
X111125000Y-139700000D03*
D12*
X101600000Y-90170000D03*
D13*
X104140000Y-90170000D03*
X106680000Y-90170000D03*
X109220000Y-90170000D03*
X111760000Y-90170000D03*
X114300000Y-90170000D03*
D14*
X120015000Y-76835000D03*
D15*
X121285000Y-76835000D03*
X120015000Y-75565000D03*
X121285000Y-75565000D03*
X120015000Y-74295000D03*
X121285000Y-74295000D03*
X120015000Y-73025000D03*
X121285000Y-73025000D03*
X120015000Y-71755000D03*
X121285000Y-71755000D03*
D16*
X206300000Y-141950000D03*
X212800000Y-141950000D03*
X212800000Y-137450000D03*
X206300000Y-137450000D03*
X193600000Y-141950000D03*
X200100000Y-141950000D03*
X200100000Y-137450000D03*
X193600000Y-137450000D03*
X180900000Y-141950000D03*
X187400000Y-141950000D03*
X187400000Y-137450000D03*
X180900000Y-137450000D03*
X168200000Y-141950000D03*
X174700000Y-141950000D03*
X174700000Y-137450000D03*
X168200000Y-137450000D03*
X155500000Y-141950000D03*
X162000000Y-141950000D03*
X162000000Y-137450000D03*
X155500000Y-137450000D03*
X142800000Y-141950000D03*
X149300000Y-141950000D03*
X149300000Y-137450000D03*
X142800000Y-137450000D03*
X130100000Y-141950000D03*
X136600000Y-141950000D03*
X136600000Y-137450000D03*
X130100000Y-137450000D03*
X117400000Y-141950000D03*
X123900000Y-141950000D03*
X123900000Y-137450000D03*
X117400000Y-137450000D03*
X206300000Y-129250000D03*
X212800000Y-129250000D03*
X212800000Y-124750000D03*
X206300000Y-124750000D03*
X193600000Y-129250000D03*
X200100000Y-129250000D03*
X200100000Y-124750000D03*
X193600000Y-124750000D03*
X180900000Y-129250000D03*
X187400000Y-129250000D03*
X187400000Y-124750000D03*
X180900000Y-124750000D03*
X168200000Y-129250000D03*
X174700000Y-129250000D03*
X174700000Y-124750000D03*
X168200000Y-124750000D03*
X155500000Y-129250000D03*
X162000000Y-129250000D03*
X162000000Y-124750000D03*
X155500000Y-124750000D03*
X142800000Y-129250000D03*
X149300000Y-129250000D03*
X149300000Y-124750000D03*
X142800000Y-124750000D03*
X130100000Y-129250000D03*
X136600000Y-129250000D03*
X136600000Y-124750000D03*
X130100000Y-124750000D03*
X117400000Y-129250000D03*
X123900000Y-129250000D03*
X123900000Y-124750000D03*
X117400000Y-124750000D03*
X206300000Y-116550000D03*
X212800000Y-116550000D03*
X212800000Y-112050000D03*
X206300000Y-112050000D03*
X193600000Y-116550000D03*
X200100000Y-116550000D03*
X200100000Y-112050000D03*
X193600000Y-112050000D03*
X180900000Y-116550000D03*
X187400000Y-116550000D03*
X187400000Y-112050000D03*
X180900000Y-112050000D03*
X168200000Y-116550000D03*
X174700000Y-116550000D03*
X174700000Y-112050000D03*
X168200000Y-112050000D03*
X155500000Y-116550000D03*
X162000000Y-116550000D03*
X162000000Y-112050000D03*
X155500000Y-112050000D03*
X142800000Y-116550000D03*
X149300000Y-116550000D03*
X149300000Y-112050000D03*
X142800000Y-112050000D03*
X130100000Y-116550000D03*
X136600000Y-116550000D03*
X136600000Y-112050000D03*
X130100000Y-112050000D03*
X117400000Y-116550000D03*
X123900000Y-116550000D03*
X123900000Y-112050000D03*
X117400000Y-112050000D03*
X98350000Y-141950000D03*
X104850000Y-141950000D03*
X104850000Y-137450000D03*
X98350000Y-137450000D03*
X85650000Y-141950000D03*
X92150000Y-141950000D03*
X92150000Y-137450000D03*
X85650000Y-137450000D03*
X98350000Y-129250000D03*
X104850000Y-129250000D03*
X104850000Y-124750000D03*
X98350000Y-124750000D03*
X85650000Y-129250000D03*
X92150000Y-129250000D03*
X92150000Y-124750000D03*
X85650000Y-124750000D03*
X98350000Y-116550000D03*
X104850000Y-116550000D03*
X104850000Y-112050000D03*
X98350000Y-112050000D03*
X85650000Y-116550000D03*
X92150000Y-116550000D03*
X92150000Y-112050000D03*
X85650000Y-112050000D03*
X98350000Y-103850000D03*
X104850000Y-103850000D03*
X104850000Y-99350000D03*
X98350000Y-99350000D03*
X85650000Y-103850000D03*
X92150000Y-103850000D03*
X92150000Y-99350000D03*
X85650000Y-99350000D03*
X189155000Y-103850000D03*
X195655000Y-103850000D03*
X195655000Y-99350000D03*
X189155000Y-99350000D03*
X173915000Y-103850000D03*
X180415000Y-103850000D03*
X180415000Y-99350000D03*
X173915000Y-99350000D03*
X158675000Y-103850000D03*
X165175000Y-103850000D03*
X165175000Y-99350000D03*
X158675000Y-99350000D03*
X143435000Y-103850000D03*
X149935000Y-103850000D03*
X149935000Y-99350000D03*
X143435000Y-99350000D03*
X128195000Y-103850000D03*
X134695000Y-103850000D03*
X134695000Y-99350000D03*
X128195000Y-99350000D03*
D12*
X82550000Y-83185000D03*
D13*
X85090000Y-83185000D03*
X82550000Y-80645000D03*
X85090000Y-80645000D03*
X82550000Y-78105000D03*
X85090000Y-78105000D03*
X82550000Y-75565000D03*
X85090000Y-75565000D03*
X82550000Y-73025000D03*
X85090000Y-73025000D03*
D12*
X186055000Y-55880000D03*
D13*
X183515000Y-55880000D03*
X180975000Y-55880000D03*
X178435000Y-55880000D03*
X175895000Y-55880000D03*
X173355000Y-55880000D03*
X170815000Y-55880000D03*
X168275000Y-55880000D03*
X165735000Y-55880000D03*
X163195000Y-55880000D03*
X160655000Y-55880000D03*
X158115000Y-55880000D03*
X155575000Y-55880000D03*
X153035000Y-55880000D03*
X150495000Y-55880000D03*
X147955000Y-55880000D03*
X145415000Y-55880000D03*
X142875000Y-55880000D03*
X140335000Y-55880000D03*
X137795000Y-55880000D03*
D17*
X120325000Y-56380000D03*
X203525000Y-56380000D03*
X120325000Y-94380000D03*
X203525000Y-94380000D03*
D18*
X90210000Y-53340000D03*
X89110000Y-54440000D03*
X88010000Y-53340000D03*
X86910000Y-54440000D03*
X85810000Y-53340000D03*
X84710000Y-54440000D03*
X83610000Y-53340000D03*
X82510000Y-54440000D03*
D16*
X90660000Y-50170000D03*
X82060000Y-50170000D03*
D19*
X160400000Y-45720000D03*
D20*
X169800000Y-45720000D03*
D21*
X165100000Y-42420000D03*
X165100000Y-50520000D03*
D17*
X165100000Y-45720000D03*
D19*
X135000000Y-45720000D03*
D20*
X144400000Y-45720000D03*
D21*
X139700000Y-42420000D03*
X139700000Y-50520000D03*
D17*
X139700000Y-45720000D03*
D19*
X223900000Y-134620000D03*
D20*
X233300000Y-134620000D03*
D21*
X228600000Y-131320000D03*
X228600000Y-139420000D03*
D17*
X228600000Y-134620000D03*
D19*
X223900000Y-121920000D03*
D20*
X233300000Y-121920000D03*
D21*
X228600000Y-118620000D03*
X228600000Y-126720000D03*
D17*
X228600000Y-121920000D03*
D19*
X223900000Y-109220000D03*
D20*
X233300000Y-109220000D03*
D21*
X228600000Y-105920000D03*
X228600000Y-114020000D03*
D17*
X228600000Y-109220000D03*
D19*
X223900000Y-96520000D03*
D20*
X233300000Y-96520000D03*
D21*
X228600000Y-93220000D03*
X228600000Y-101320000D03*
D17*
X228600000Y-96520000D03*
D19*
X223900000Y-83820000D03*
D20*
X233300000Y-83820000D03*
D21*
X228600000Y-80520000D03*
X228600000Y-88620000D03*
D17*
X228600000Y-83820000D03*
D19*
X223900000Y-71120000D03*
D20*
X233300000Y-71120000D03*
D21*
X228600000Y-67820000D03*
X228600000Y-75920000D03*
D17*
X228600000Y-71120000D03*
D19*
X223900000Y-58420000D03*
D20*
X233300000Y-58420000D03*
D21*
X228600000Y-55120000D03*
X228600000Y-63220000D03*
D17*
X228600000Y-58420000D03*
D19*
X223900000Y-45720000D03*
D20*
X233300000Y-45720000D03*
D21*
X228600000Y-42420000D03*
X228600000Y-50520000D03*
D17*
X228600000Y-45720000D03*
D19*
X211200000Y-45720000D03*
D20*
X220600000Y-45720000D03*
D21*
X215900000Y-42420000D03*
X215900000Y-50520000D03*
D17*
X215900000Y-45720000D03*
D19*
X198500000Y-45720000D03*
D20*
X207900000Y-45720000D03*
D21*
X203200000Y-42420000D03*
X203200000Y-50520000D03*
D17*
X203200000Y-45720000D03*
D19*
X185800000Y-45720000D03*
D20*
X195200000Y-45720000D03*
D21*
X190500000Y-42420000D03*
X190500000Y-50520000D03*
D17*
X190500000Y-45720000D03*
D19*
X173100000Y-45720000D03*
D20*
X182500000Y-45720000D03*
D21*
X177800000Y-42420000D03*
X177800000Y-50520000D03*
D17*
X177800000Y-45720000D03*
D19*
X236600000Y-134620000D03*
D20*
X246000000Y-134620000D03*
D21*
X241300000Y-131320000D03*
X241300000Y-139420000D03*
D17*
X241300000Y-134620000D03*
D19*
X236600000Y-121920000D03*
D20*
X246000000Y-121920000D03*
D21*
X241300000Y-118620000D03*
X241300000Y-126720000D03*
D17*
X241300000Y-121920000D03*
D19*
X236600000Y-109220000D03*
D20*
X246000000Y-109220000D03*
D21*
X241300000Y-105920000D03*
X241300000Y-114020000D03*
D17*
X241300000Y-109220000D03*
D19*
X236600000Y-96520000D03*
D20*
X246000000Y-96520000D03*
D21*
X241300000Y-93220000D03*
X241300000Y-101320000D03*
D17*
X241300000Y-96520000D03*
D19*
X236600000Y-83820000D03*
D20*
X246000000Y-83820000D03*
D21*
X241300000Y-80520000D03*
X241300000Y-88620000D03*
D17*
X241300000Y-83820000D03*
D19*
X236600000Y-71120000D03*
D20*
X246000000Y-71120000D03*
D21*
X241300000Y-67820000D03*
X241300000Y-75920000D03*
D17*
X241300000Y-71120000D03*
D19*
X236600000Y-58420000D03*
D20*
X246000000Y-58420000D03*
D21*
X241300000Y-55120000D03*
X241300000Y-63220000D03*
D17*
X241300000Y-58420000D03*
D19*
X236600000Y-45720000D03*
D20*
X246000000Y-45720000D03*
D21*
X241300000Y-42420000D03*
X241300000Y-50520000D03*
D17*
X241300000Y-45720000D03*
D19*
X147700000Y-45720000D03*
D20*
X157100000Y-45720000D03*
D21*
X152400000Y-42420000D03*
X152400000Y-50520000D03*
D17*
X152400000Y-45720000D03*
D19*
X122300000Y-45720000D03*
D20*
X131700000Y-45720000D03*
D21*
X127000000Y-42420000D03*
X127000000Y-50520000D03*
D17*
X127000000Y-45720000D03*
D22*
X86360000Y-41540000D03*
D23*
X82860000Y-45720000D03*
X85360000Y-45720000D03*
X87360000Y-45720000D03*
X89860000Y-45720000D03*
D24*
X79790000Y-45120000D03*
X92930000Y-45120000D03*
D25*
X105450000Y-83065000D03*
X110450000Y-83065000D03*
X107950000Y-83065000D03*
X110450000Y-68565000D03*
X105450000Y-68565000D03*
D26*
X114150000Y-75565000D03*
X101750000Y-75565000D03*
D27*
X86360000Y-95250000D03*
D28*
X88900000Y-95250000D03*
X91440000Y-95250000D03*
D27*
X99060000Y-95250000D03*
D28*
X101600000Y-95250000D03*
X104140000Y-95250000D03*
D27*
X86360000Y-107950000D03*
D28*
X88900000Y-107950000D03*
X91440000Y-107950000D03*
D27*
X99060000Y-107950000D03*
D28*
X101600000Y-107950000D03*
X104140000Y-107950000D03*
D27*
X86360000Y-120650000D03*
D28*
X88900000Y-120650000D03*
X91440000Y-120650000D03*
D27*
X99060000Y-120650000D03*
D28*
X101600000Y-120650000D03*
X104140000Y-120650000D03*
D27*
X86360000Y-133350000D03*
D28*
X88900000Y-133350000D03*
X91440000Y-133350000D03*
D27*
X99060000Y-133350000D03*
D28*
X101600000Y-133350000D03*
X104140000Y-133350000D03*
D27*
X118110000Y-107950000D03*
D28*
X120650000Y-107950000D03*
X123190000Y-107950000D03*
D27*
X130810000Y-107950000D03*
D28*
X133350000Y-107950000D03*
X135890000Y-107950000D03*
D27*
X143510000Y-107950000D03*
D28*
X146050000Y-107950000D03*
X148590000Y-107950000D03*
D27*
X156210000Y-107950000D03*
D28*
X158750000Y-107950000D03*
X161290000Y-107950000D03*
D27*
X168910000Y-107950000D03*
D28*
X171450000Y-107950000D03*
X173990000Y-107950000D03*
D27*
X181610000Y-107950000D03*
D28*
X184150000Y-107950000D03*
X186690000Y-107950000D03*
D27*
X194310000Y-107950000D03*
D28*
X196850000Y-107950000D03*
X199390000Y-107950000D03*
D27*
X207010000Y-107950000D03*
D28*
X209550000Y-107950000D03*
X212090000Y-107950000D03*
D27*
X118110000Y-120650000D03*
D28*
X120650000Y-120650000D03*
X123190000Y-120650000D03*
D27*
X130810000Y-120650000D03*
D28*
X133350000Y-120650000D03*
X135890000Y-120650000D03*
D27*
X143510000Y-120650000D03*
D28*
X146050000Y-120650000D03*
X148590000Y-120650000D03*
D27*
X156210000Y-120650000D03*
D28*
X158750000Y-120650000D03*
X161290000Y-120650000D03*
D27*
X168910000Y-120650000D03*
D28*
X171450000Y-120650000D03*
X173990000Y-120650000D03*
D27*
X181610000Y-120650000D03*
D28*
X184150000Y-120650000D03*
X186690000Y-120650000D03*
D27*
X194310000Y-120650000D03*
D28*
X196850000Y-120650000D03*
X199390000Y-120650000D03*
D27*
X207010000Y-120650000D03*
D28*
X209550000Y-120650000D03*
X212090000Y-120650000D03*
D27*
X118110000Y-133350000D03*
D28*
X120650000Y-133350000D03*
X123190000Y-133350000D03*
D27*
X130810000Y-133350000D03*
D28*
X133350000Y-133350000D03*
X135890000Y-133350000D03*
D27*
X143510000Y-133350000D03*
D28*
X146050000Y-133350000D03*
X148590000Y-133350000D03*
D27*
X156210000Y-133350000D03*
D28*
X158750000Y-133350000D03*
X161290000Y-133350000D03*
D27*
X168910000Y-133350000D03*
D28*
X171450000Y-133350000D03*
X173990000Y-133350000D03*
D27*
X181610000Y-133350000D03*
D28*
X184150000Y-133350000D03*
X186690000Y-133350000D03*
D27*
X194310000Y-133350000D03*
D28*
X196850000Y-133350000D03*
X199390000Y-133350000D03*
D27*
X207010000Y-133350000D03*
D28*
X209550000Y-133350000D03*
X212090000Y-133350000D03*
D29*
X86360000Y-62865000D03*
D30*
X86360000Y-65405000D03*
D29*
X86360000Y-60325000D03*
D31*
X104800000Y-44920000D03*
D32*
X100400000Y-50220000D03*
X100400000Y-42420000D03*
D17*
X101600000Y-45720000D03*
D31*
X117500000Y-44920000D03*
D32*
X113100000Y-50220000D03*
X113100000Y-42420000D03*
D17*
X114300000Y-45720000D03*
M02*
