G04 #@! TF.FileFunction,Legend,Bot*
%FSLAX46Y46*%
G04 Gerber Fmt 4.6, Leading zero omitted, Abs format (unit mm)*
G04 Created by KiCad (PCBNEW 4.0.7) date 2018 October 09, Tuesday 21:54:13*
%MOMM*%
%LPD*%
G01*
G04 APERTURE LIST*
%ADD10C,0.100000*%
%ADD11C,0.250000*%
%ADD12C,0.500000*%
%ADD13C,0.120000*%
%ADD14C,0.127000*%
%ADD15C,0.010000*%
%ADD16C,0.150000*%
G04 APERTURE END LIST*
D10*
D11*
X79467857Y-122414286D02*
X79405952Y-122228572D01*
X79344048Y-122166667D01*
X79220238Y-122104762D01*
X79034524Y-122104762D01*
X78910714Y-122166667D01*
X78848810Y-122228572D01*
X78786905Y-122352381D01*
X78786905Y-122847619D01*
X80086905Y-122847619D01*
X80086905Y-122414286D01*
X80025000Y-122290476D01*
X79963095Y-122228572D01*
X79839286Y-122166667D01*
X79715476Y-122166667D01*
X79591667Y-122228572D01*
X79529762Y-122290476D01*
X79467857Y-122414286D01*
X79467857Y-122847619D01*
X80086905Y-121300000D02*
X80086905Y-121052381D01*
X80025000Y-120928572D01*
X79901190Y-120804762D01*
X79653571Y-120742857D01*
X79220238Y-120742857D01*
X78972619Y-120804762D01*
X78848810Y-120928572D01*
X78786905Y-121052381D01*
X78786905Y-121300000D01*
X78848810Y-121423810D01*
X78972619Y-121547619D01*
X79220238Y-121609524D01*
X79653571Y-121609524D01*
X79901190Y-121547619D01*
X80025000Y-121423810D01*
X80086905Y-121300000D01*
X80086905Y-119938095D02*
X80086905Y-119690476D01*
X80025000Y-119566667D01*
X79901190Y-119442857D01*
X79653571Y-119380952D01*
X79220238Y-119380952D01*
X78972619Y-119442857D01*
X78848810Y-119566667D01*
X78786905Y-119690476D01*
X78786905Y-119938095D01*
X78848810Y-120061905D01*
X78972619Y-120185714D01*
X79220238Y-120247619D01*
X79653571Y-120247619D01*
X79901190Y-120185714D01*
X80025000Y-120061905D01*
X80086905Y-119938095D01*
X80086905Y-119009523D02*
X80086905Y-118266666D01*
X78786905Y-118638095D02*
X80086905Y-118638095D01*
X78786905Y-109838094D02*
X79405952Y-110271427D01*
X78786905Y-110580951D02*
X80086905Y-110580951D01*
X80086905Y-110085713D01*
X80025000Y-109961904D01*
X79963095Y-109899999D01*
X79839286Y-109838094D01*
X79653571Y-109838094D01*
X79529762Y-109899999D01*
X79467857Y-109961904D01*
X79405952Y-110085713D01*
X79405952Y-110580951D01*
X79467857Y-109280951D02*
X79467857Y-108847618D01*
X78786905Y-108661904D02*
X78786905Y-109280951D01*
X80086905Y-109280951D01*
X80086905Y-108661904D01*
X78848810Y-108166666D02*
X78786905Y-107980952D01*
X78786905Y-107671428D01*
X78848810Y-107547618D01*
X78910714Y-107485714D01*
X79034524Y-107423809D01*
X79158333Y-107423809D01*
X79282143Y-107485714D01*
X79344048Y-107547618D01*
X79405952Y-107671428D01*
X79467857Y-107919047D01*
X79529762Y-108042856D01*
X79591667Y-108104761D01*
X79715476Y-108166666D01*
X79839286Y-108166666D01*
X79963095Y-108104761D01*
X80025000Y-108042856D01*
X80086905Y-107919047D01*
X80086905Y-107609523D01*
X80025000Y-107423809D01*
X79467857Y-106866666D02*
X79467857Y-106433333D01*
X78786905Y-106247619D02*
X78786905Y-106866666D01*
X80086905Y-106866666D01*
X80086905Y-106247619D01*
X80086905Y-105876190D02*
X80086905Y-105133333D01*
X78786905Y-105504762D02*
X80086905Y-105504762D01*
D12*
X183163808Y-68357857D02*
X183163808Y-72357857D01*
X183163808Y-68548333D02*
X182782856Y-68357857D01*
X182020951Y-68357857D01*
X181639999Y-68548333D01*
X181449522Y-68738810D01*
X181259046Y-69119762D01*
X181259046Y-70262619D01*
X181449522Y-70643571D01*
X181639999Y-70834048D01*
X182020951Y-71024524D01*
X182782856Y-71024524D01*
X183163808Y-70834048D01*
X178020951Y-70834048D02*
X178401903Y-71024524D01*
X179163808Y-71024524D01*
X179544760Y-70834048D01*
X179735236Y-70453095D01*
X179735236Y-68929286D01*
X179544760Y-68548333D01*
X179163808Y-68357857D01*
X178401903Y-68357857D01*
X178020951Y-68548333D01*
X177830474Y-68929286D01*
X177830474Y-69310238D01*
X179735236Y-69691190D01*
X176116189Y-71024524D02*
X176116189Y-68357857D01*
X176116189Y-69119762D02*
X175925713Y-68738810D01*
X175735237Y-68548333D01*
X175354284Y-68357857D01*
X174973332Y-68357857D01*
X172687618Y-72357857D02*
X172687618Y-66643571D01*
X170401904Y-68357857D02*
X168878094Y-68357857D01*
X169830475Y-71024524D02*
X169830475Y-67595952D01*
X169639999Y-67215000D01*
X169259046Y-67024524D01*
X168878094Y-67024524D01*
X166973332Y-71024524D02*
X167354285Y-70834048D01*
X167544761Y-70643571D01*
X167735237Y-70262619D01*
X167735237Y-69119762D01*
X167544761Y-68738810D01*
X167354285Y-68548333D01*
X166973332Y-68357857D01*
X166401904Y-68357857D01*
X166020952Y-68548333D01*
X165830475Y-68738810D01*
X165639999Y-69119762D01*
X165639999Y-70262619D01*
X165830475Y-70643571D01*
X166020952Y-70834048D01*
X166401904Y-71024524D01*
X166973332Y-71024524D01*
X163925713Y-71024524D02*
X163925713Y-68357857D01*
X163925713Y-69119762D02*
X163735237Y-68738810D01*
X163544761Y-68548333D01*
X163163808Y-68357857D01*
X162782856Y-68357857D01*
X161449523Y-71024524D02*
X161449523Y-68357857D01*
X161449523Y-68738810D02*
X161259047Y-68548333D01*
X160878094Y-68357857D01*
X160306666Y-68357857D01*
X159925714Y-68548333D01*
X159735237Y-68929286D01*
X159735237Y-71024524D01*
X159735237Y-68929286D02*
X159544761Y-68548333D01*
X159163809Y-68357857D01*
X158592380Y-68357857D01*
X158211428Y-68548333D01*
X158020952Y-68929286D01*
X158020952Y-71024524D01*
X154592381Y-70834048D02*
X154973333Y-71024524D01*
X155735238Y-71024524D01*
X156116190Y-70834048D01*
X156306666Y-70453095D01*
X156306666Y-68929286D01*
X156116190Y-68548333D01*
X155735238Y-68357857D01*
X154973333Y-68357857D01*
X154592381Y-68548333D01*
X154401904Y-68929286D01*
X154401904Y-69310238D01*
X156306666Y-69691190D01*
X152687619Y-71024524D02*
X152687619Y-68357857D01*
X152687619Y-69119762D02*
X152497143Y-68738810D01*
X152306667Y-68548333D01*
X151925714Y-68357857D01*
X151544762Y-68357857D01*
D11*
X182466188Y-75626190D02*
X182589998Y-75688095D01*
X182837617Y-75688095D01*
X182961426Y-75626190D01*
X183023331Y-75564286D01*
X183085236Y-75440476D01*
X183085236Y-75069048D01*
X183023331Y-74945238D01*
X182961426Y-74883333D01*
X182837617Y-74821429D01*
X182589998Y-74821429D01*
X182466188Y-74883333D01*
X181351902Y-75626190D02*
X181475712Y-75688095D01*
X181723331Y-75688095D01*
X181847140Y-75626190D01*
X181909045Y-75564286D01*
X181970950Y-75440476D01*
X181970950Y-75069048D01*
X181909045Y-74945238D01*
X181847140Y-74883333D01*
X181723331Y-74821429D01*
X181475712Y-74821429D01*
X181351902Y-74883333D01*
X180794759Y-75192857D02*
X179804283Y-75192857D01*
X179185235Y-75688095D02*
X179185235Y-74388095D01*
X179185235Y-74883333D02*
X179061426Y-74821429D01*
X178813807Y-74821429D01*
X178689997Y-74883333D01*
X178628092Y-74945238D01*
X178566188Y-75069048D01*
X178566188Y-75440476D01*
X178628092Y-75564286D01*
X178689997Y-75626190D01*
X178813807Y-75688095D01*
X179061426Y-75688095D01*
X179185235Y-75626190D01*
X178132855Y-74821429D02*
X177823331Y-75688095D01*
X177513807Y-74821429D02*
X177823331Y-75688095D01*
X177947140Y-75997619D01*
X178009045Y-76059524D01*
X178132855Y-76121429D01*
X177018569Y-75192857D02*
X176028093Y-75192857D01*
X175470950Y-75626190D02*
X175347140Y-75688095D01*
X175099521Y-75688095D01*
X174975712Y-75626190D01*
X174913807Y-75502381D01*
X174913807Y-75440476D01*
X174975712Y-75316667D01*
X175099521Y-75254762D01*
X175285236Y-75254762D01*
X175409045Y-75192857D01*
X175470950Y-75069048D01*
X175470950Y-75007143D01*
X175409045Y-74883333D01*
X175285236Y-74821429D01*
X175099521Y-74821429D01*
X174975712Y-74883333D01*
X173799521Y-75688095D02*
X173799521Y-75007143D01*
X173861426Y-74883333D01*
X173985236Y-74821429D01*
X174232855Y-74821429D01*
X174356664Y-74883333D01*
X173799521Y-75626190D02*
X173923331Y-75688095D01*
X174232855Y-75688095D01*
X174356664Y-75626190D01*
X174418569Y-75502381D01*
X174418569Y-75378571D01*
X174356664Y-75254762D01*
X174232855Y-75192857D01*
X173923331Y-75192857D01*
X173799521Y-75130952D01*
X172251903Y-75626190D02*
X172066189Y-75688095D01*
X171756665Y-75688095D01*
X171632855Y-75626190D01*
X171570951Y-75564286D01*
X171509046Y-75440476D01*
X171509046Y-75316667D01*
X171570951Y-75192857D01*
X171632855Y-75130952D01*
X171756665Y-75069048D01*
X172004284Y-75007143D01*
X172128093Y-74945238D01*
X172189998Y-74883333D01*
X172251903Y-74759524D01*
X172251903Y-74635714D01*
X172189998Y-74511905D01*
X172128093Y-74450000D01*
X172004284Y-74388095D01*
X171694760Y-74388095D01*
X171509046Y-74450000D01*
X170951903Y-75688095D02*
X170951903Y-74821429D01*
X170951903Y-74388095D02*
X171013808Y-74450000D01*
X170951903Y-74511905D01*
X170889998Y-74450000D01*
X170951903Y-74388095D01*
X170951903Y-74511905D01*
X170332855Y-75688095D02*
X170332855Y-74821429D01*
X170332855Y-74945238D02*
X170270950Y-74883333D01*
X170147141Y-74821429D01*
X169961427Y-74821429D01*
X169837617Y-74883333D01*
X169775712Y-75007143D01*
X169775712Y-75688095D01*
X169775712Y-75007143D02*
X169713808Y-74883333D01*
X169589998Y-74821429D01*
X169404284Y-74821429D01*
X169280474Y-74883333D01*
X169218569Y-75007143D01*
X169218569Y-75688095D01*
X168413808Y-75688095D02*
X168537617Y-75626190D01*
X168599522Y-75564286D01*
X168661427Y-75440476D01*
X168661427Y-75069048D01*
X168599522Y-74945238D01*
X168537617Y-74883333D01*
X168413808Y-74821429D01*
X168228094Y-74821429D01*
X168104284Y-74883333D01*
X168042379Y-74945238D01*
X167980475Y-75069048D01*
X167980475Y-75440476D01*
X168042379Y-75564286D01*
X168104284Y-75626190D01*
X168228094Y-75688095D01*
X168413808Y-75688095D01*
X167423332Y-74821429D02*
X167423332Y-75688095D01*
X167423332Y-74945238D02*
X167361427Y-74883333D01*
X167237618Y-74821429D01*
X167051904Y-74821429D01*
X166928094Y-74883333D01*
X166866189Y-75007143D01*
X166866189Y-75688095D01*
X165256666Y-75688095D02*
X165256666Y-74388095D01*
X164513809Y-75688095D02*
X165070952Y-74945238D01*
X164513809Y-74388095D02*
X165256666Y-75130952D01*
X163399523Y-75688095D02*
X163399523Y-75007143D01*
X163461428Y-74883333D01*
X163585238Y-74821429D01*
X163832857Y-74821429D01*
X163956666Y-74883333D01*
X163399523Y-75626190D02*
X163523333Y-75688095D01*
X163832857Y-75688095D01*
X163956666Y-75626190D01*
X164018571Y-75502381D01*
X164018571Y-75378571D01*
X163956666Y-75254762D01*
X163832857Y-75192857D01*
X163523333Y-75192857D01*
X163399523Y-75130952D01*
X162594762Y-75688095D02*
X162718571Y-75626190D01*
X162780476Y-75502381D01*
X162780476Y-74388095D01*
X161913810Y-75688095D02*
X162037619Y-75626190D01*
X162099524Y-75502381D01*
X162099524Y-74388095D01*
X161542382Y-74821429D02*
X161294763Y-75688095D01*
X161047144Y-75069048D01*
X160799525Y-75688095D01*
X160551906Y-74821429D01*
X159561429Y-75626190D02*
X159685239Y-75688095D01*
X159932858Y-75688095D01*
X160056667Y-75626190D01*
X160118572Y-75502381D01*
X160118572Y-75007143D01*
X160056667Y-74883333D01*
X159932858Y-74821429D01*
X159685239Y-74821429D01*
X159561429Y-74883333D01*
X159499524Y-75007143D01*
X159499524Y-75130952D01*
X160118572Y-75254762D01*
X158942381Y-75688095D02*
X158942381Y-74821429D01*
X158942381Y-74388095D02*
X159004286Y-74450000D01*
X158942381Y-74511905D01*
X158880476Y-74450000D01*
X158942381Y-74388095D01*
X158942381Y-74511905D01*
X158509047Y-74821429D02*
X158013809Y-74821429D01*
X158323333Y-74388095D02*
X158323333Y-75502381D01*
X158261428Y-75626190D01*
X158137619Y-75688095D01*
X158013809Y-75688095D01*
X156651905Y-74511905D02*
X156590000Y-74450000D01*
X156466191Y-74388095D01*
X156156667Y-74388095D01*
X156032857Y-74450000D01*
X155970953Y-74511905D01*
X155909048Y-74635714D01*
X155909048Y-74759524D01*
X155970953Y-74945238D01*
X156713810Y-75688095D01*
X155909048Y-75688095D01*
X155104286Y-74388095D02*
X154980477Y-74388095D01*
X154856667Y-74450000D01*
X154794762Y-74511905D01*
X154732858Y-74635714D01*
X154670953Y-74883333D01*
X154670953Y-75192857D01*
X154732858Y-75440476D01*
X154794762Y-75564286D01*
X154856667Y-75626190D01*
X154980477Y-75688095D01*
X155104286Y-75688095D01*
X155228096Y-75626190D01*
X155290000Y-75564286D01*
X155351905Y-75440476D01*
X155413810Y-75192857D01*
X155413810Y-74883333D01*
X155351905Y-74635714D01*
X155290000Y-74511905D01*
X155228096Y-74450000D01*
X155104286Y-74388095D01*
X153432858Y-75688095D02*
X154175715Y-75688095D01*
X153804286Y-75688095D02*
X153804286Y-74388095D01*
X153928096Y-74573810D01*
X154051905Y-74697619D01*
X154175715Y-74759524D01*
X152690001Y-74945238D02*
X152813810Y-74883333D01*
X152875715Y-74821429D01*
X152937620Y-74697619D01*
X152937620Y-74635714D01*
X152875715Y-74511905D01*
X152813810Y-74450000D01*
X152690001Y-74388095D01*
X152442382Y-74388095D01*
X152318572Y-74450000D01*
X152256668Y-74511905D01*
X152194763Y-74635714D01*
X152194763Y-74697619D01*
X152256668Y-74821429D01*
X152318572Y-74883333D01*
X152442382Y-74945238D01*
X152690001Y-74945238D01*
X152813810Y-75007143D01*
X152875715Y-75069048D01*
X152937620Y-75192857D01*
X152937620Y-75440476D01*
X152875715Y-75564286D01*
X152813810Y-75626190D01*
X152690001Y-75688095D01*
X152442382Y-75688095D01*
X152318572Y-75626190D01*
X152256668Y-75564286D01*
X152194763Y-75440476D01*
X152194763Y-75192857D01*
X152256668Y-75069048D01*
X152318572Y-75007143D01*
X152442382Y-74945238D01*
X176399522Y-77888095D02*
X176399522Y-76588095D01*
X176399522Y-77083333D02*
X176275713Y-77021429D01*
X176028094Y-77021429D01*
X175904284Y-77083333D01*
X175842379Y-77145238D01*
X175780475Y-77269048D01*
X175780475Y-77640476D01*
X175842379Y-77764286D01*
X175904284Y-77826190D01*
X176028094Y-77888095D01*
X176275713Y-77888095D01*
X176399522Y-77826190D01*
X175037618Y-77888095D02*
X175161427Y-77826190D01*
X175223332Y-77764286D01*
X175285237Y-77640476D01*
X175285237Y-77269048D01*
X175223332Y-77145238D01*
X175161427Y-77083333D01*
X175037618Y-77021429D01*
X174851904Y-77021429D01*
X174728094Y-77083333D01*
X174666189Y-77145238D01*
X174604285Y-77269048D01*
X174604285Y-77640476D01*
X174666189Y-77764286D01*
X174728094Y-77826190D01*
X174851904Y-77888095D01*
X175037618Y-77888095D01*
X173489999Y-77888095D02*
X173489999Y-77207143D01*
X173551904Y-77083333D01*
X173675714Y-77021429D01*
X173923333Y-77021429D01*
X174047142Y-77083333D01*
X173489999Y-77826190D02*
X173613809Y-77888095D01*
X173923333Y-77888095D01*
X174047142Y-77826190D01*
X174109047Y-77702381D01*
X174109047Y-77578571D01*
X174047142Y-77454762D01*
X173923333Y-77392857D01*
X173613809Y-77392857D01*
X173489999Y-77330952D01*
X172870952Y-77888095D02*
X172870952Y-77021429D01*
X172870952Y-77269048D02*
X172809047Y-77145238D01*
X172747143Y-77083333D01*
X172623333Y-77021429D01*
X172499524Y-77021429D01*
X171509047Y-77888095D02*
X171509047Y-76588095D01*
X171509047Y-77826190D02*
X171632857Y-77888095D01*
X171880476Y-77888095D01*
X172004285Y-77826190D01*
X172066190Y-77764286D01*
X172128095Y-77640476D01*
X172128095Y-77269048D01*
X172066190Y-77145238D01*
X172004285Y-77083333D01*
X171880476Y-77021429D01*
X171632857Y-77021429D01*
X171509047Y-77083333D01*
X169899524Y-77888095D02*
X169899524Y-77021429D01*
X169899524Y-77269048D02*
X169837619Y-77145238D01*
X169775715Y-77083333D01*
X169651905Y-77021429D01*
X169528096Y-77021429D01*
X168599524Y-77826190D02*
X168723334Y-77888095D01*
X168970953Y-77888095D01*
X169094762Y-77826190D01*
X169156667Y-77702381D01*
X169156667Y-77207143D01*
X169094762Y-77083333D01*
X168970953Y-77021429D01*
X168723334Y-77021429D01*
X168599524Y-77083333D01*
X168537619Y-77207143D01*
X168537619Y-77330952D01*
X169156667Y-77454762D01*
X168104286Y-77021429D02*
X167794762Y-77888095D01*
X167485238Y-77021429D01*
X166990000Y-77888095D02*
X166990000Y-77021429D01*
X166990000Y-76588095D02*
X167051905Y-76650000D01*
X166990000Y-76711905D01*
X166928095Y-76650000D01*
X166990000Y-76588095D01*
X166990000Y-76711905D01*
X166432857Y-77826190D02*
X166309047Y-77888095D01*
X166061428Y-77888095D01*
X165937619Y-77826190D01*
X165875714Y-77702381D01*
X165875714Y-77640476D01*
X165937619Y-77516667D01*
X166061428Y-77454762D01*
X166247143Y-77454762D01*
X166370952Y-77392857D01*
X166432857Y-77269048D01*
X166432857Y-77207143D01*
X166370952Y-77083333D01*
X166247143Y-77021429D01*
X166061428Y-77021429D01*
X165937619Y-77083333D01*
X165318571Y-77888095D02*
X165318571Y-77021429D01*
X165318571Y-76588095D02*
X165380476Y-76650000D01*
X165318571Y-76711905D01*
X165256666Y-76650000D01*
X165318571Y-76588095D01*
X165318571Y-76711905D01*
X164513809Y-77888095D02*
X164637618Y-77826190D01*
X164699523Y-77764286D01*
X164761428Y-77640476D01*
X164761428Y-77269048D01*
X164699523Y-77145238D01*
X164637618Y-77083333D01*
X164513809Y-77021429D01*
X164328095Y-77021429D01*
X164204285Y-77083333D01*
X164142380Y-77145238D01*
X164080476Y-77269048D01*
X164080476Y-77640476D01*
X164142380Y-77764286D01*
X164204285Y-77826190D01*
X164328095Y-77888095D01*
X164513809Y-77888095D01*
X163523333Y-77021429D02*
X163523333Y-77888095D01*
X163523333Y-77145238D02*
X163461428Y-77083333D01*
X163337619Y-77021429D01*
X163151905Y-77021429D01*
X163028095Y-77083333D01*
X162966190Y-77207143D01*
X162966190Y-77888095D01*
X160675715Y-77888095D02*
X161418572Y-77888095D01*
X161047143Y-77888095D02*
X161047143Y-76588095D01*
X161170953Y-76773810D01*
X161294762Y-76897619D01*
X161418572Y-76959524D01*
X160118572Y-77764286D02*
X160056667Y-77826190D01*
X160118572Y-77888095D01*
X160180477Y-77826190D01*
X160118572Y-77764286D01*
X160118572Y-77888095D01*
X159251905Y-76588095D02*
X159128096Y-76588095D01*
X159004286Y-76650000D01*
X158942381Y-76711905D01*
X158880477Y-76835714D01*
X158818572Y-77083333D01*
X158818572Y-77392857D01*
X158880477Y-77640476D01*
X158942381Y-77764286D01*
X159004286Y-77826190D01*
X159128096Y-77888095D01*
X159251905Y-77888095D01*
X159375715Y-77826190D01*
X159437619Y-77764286D01*
X159499524Y-77640476D01*
X159561429Y-77392857D01*
X159561429Y-77083333D01*
X159499524Y-76835714D01*
X159437619Y-76711905D01*
X159375715Y-76650000D01*
X159251905Y-76588095D01*
X97898810Y-93172381D02*
X97836905Y-92986667D01*
X97836905Y-92677143D01*
X97898810Y-92553333D01*
X97960714Y-92491429D01*
X98084524Y-92429524D01*
X98208333Y-92429524D01*
X98332143Y-92491429D01*
X98394048Y-92553333D01*
X98455952Y-92677143D01*
X98517857Y-92924762D01*
X98579762Y-93048571D01*
X98641667Y-93110476D01*
X98765476Y-93172381D01*
X98889286Y-93172381D01*
X99013095Y-93110476D01*
X99075000Y-93048571D01*
X99136905Y-92924762D01*
X99136905Y-92615238D01*
X99075000Y-92429524D01*
X98517857Y-91872381D02*
X98517857Y-91439048D01*
X97836905Y-91253334D02*
X97836905Y-91872381D01*
X99136905Y-91872381D01*
X99136905Y-91253334D01*
X97836905Y-89953334D02*
X98455952Y-90386667D01*
X97836905Y-90696191D02*
X99136905Y-90696191D01*
X99136905Y-90200953D01*
X99075000Y-90077144D01*
X99013095Y-90015239D01*
X98889286Y-89953334D01*
X98703571Y-89953334D01*
X98579762Y-90015239D01*
X98517857Y-90077144D01*
X98455952Y-90200953D01*
X98455952Y-90696191D01*
X97836905Y-89396191D02*
X99136905Y-89396191D01*
X98208333Y-88839048D02*
X98208333Y-88220000D01*
X97836905Y-88962857D02*
X99136905Y-88529524D01*
X97836905Y-88096191D01*
X97836905Y-87043810D02*
X97836905Y-87662857D01*
X99136905Y-87662857D01*
D12*
X122555000Y-78740000D02*
X118745000Y-78740000D01*
D11*
X90430714Y-88218095D02*
X90864047Y-87599048D01*
X91173571Y-88218095D02*
X91173571Y-86918095D01*
X90678333Y-86918095D01*
X90554524Y-86980000D01*
X90492619Y-87041905D01*
X90430714Y-87165714D01*
X90430714Y-87351429D01*
X90492619Y-87475238D01*
X90554524Y-87537143D01*
X90678333Y-87599048D01*
X91173571Y-87599048D01*
X89873571Y-87537143D02*
X89440238Y-87537143D01*
X89254524Y-88218095D02*
X89873571Y-88218095D01*
X89873571Y-86918095D01*
X89254524Y-86918095D01*
X88697381Y-88218095D02*
X88697381Y-86918095D01*
X88387857Y-86918095D01*
X88202143Y-86980000D01*
X88078334Y-87103810D01*
X88016429Y-87227619D01*
X87954524Y-87475238D01*
X87954524Y-87660952D01*
X88016429Y-87908571D01*
X88078334Y-88032381D01*
X88202143Y-88156190D01*
X88387857Y-88218095D01*
X88697381Y-88218095D01*
X85787858Y-88218095D02*
X86406905Y-88218095D01*
X86406905Y-86918095D01*
X85354524Y-88218095D02*
X85354524Y-86918095D01*
X84735476Y-88218095D02*
X84735476Y-86918095D01*
X83992619Y-88218095D01*
X83992619Y-86918095D01*
X83373571Y-87537143D02*
X82940238Y-87537143D01*
X82754524Y-88218095D02*
X83373571Y-88218095D01*
X83373571Y-86918095D01*
X82754524Y-86918095D01*
D12*
X81280000Y-85725000D02*
X92710000Y-85725000D01*
D11*
X91885476Y-73117857D02*
X90895000Y-73117857D01*
X91390238Y-73613095D02*
X91390238Y-72622619D01*
X89595000Y-73613095D02*
X90337857Y-73613095D01*
X89966428Y-73613095D02*
X89966428Y-72313095D01*
X90090238Y-72498810D01*
X90214047Y-72622619D01*
X90337857Y-72684524D01*
X89099762Y-72436905D02*
X89037857Y-72375000D01*
X88914048Y-72313095D01*
X88604524Y-72313095D01*
X88480714Y-72375000D01*
X88418810Y-72436905D01*
X88356905Y-72560714D01*
X88356905Y-72684524D01*
X88418810Y-72870238D01*
X89161667Y-73613095D01*
X88356905Y-73613095D01*
X87985476Y-72313095D02*
X87552143Y-73613095D01*
X87118810Y-72313095D01*
X91885476Y-83277857D02*
X90895000Y-83277857D01*
X89595000Y-83773095D02*
X90337857Y-83773095D01*
X89966428Y-83773095D02*
X89966428Y-82473095D01*
X90090238Y-82658810D01*
X90214047Y-82782619D01*
X90337857Y-82844524D01*
X89099762Y-82596905D02*
X89037857Y-82535000D01*
X88914048Y-82473095D01*
X88604524Y-82473095D01*
X88480714Y-82535000D01*
X88418810Y-82596905D01*
X88356905Y-82720714D01*
X88356905Y-82844524D01*
X88418810Y-83030238D01*
X89161667Y-83773095D01*
X88356905Y-83773095D01*
X87985476Y-82473095D02*
X87552143Y-83773095D01*
X87118810Y-82473095D01*
X89966429Y-74915000D02*
X90090238Y-74853095D01*
X90275953Y-74853095D01*
X90461667Y-74915000D01*
X90585476Y-75038810D01*
X90647381Y-75162619D01*
X90709286Y-75410238D01*
X90709286Y-75595952D01*
X90647381Y-75843571D01*
X90585476Y-75967381D01*
X90461667Y-76091190D01*
X90275953Y-76153095D01*
X90152143Y-76153095D01*
X89966429Y-76091190D01*
X89904524Y-76029286D01*
X89904524Y-75595952D01*
X90152143Y-75595952D01*
X89347381Y-76153095D02*
X89347381Y-74853095D01*
X88604524Y-76153095D01*
X88604524Y-74853095D01*
X87985476Y-76153095D02*
X87985476Y-74853095D01*
X87675952Y-74853095D01*
X87490238Y-74915000D01*
X87366429Y-75038810D01*
X87304524Y-75162619D01*
X87242619Y-75410238D01*
X87242619Y-75595952D01*
X87304524Y-75843571D01*
X87366429Y-75967381D01*
X87490238Y-76091190D01*
X87675952Y-76153095D01*
X87985476Y-76153095D01*
X89966429Y-77455000D02*
X90090238Y-77393095D01*
X90275953Y-77393095D01*
X90461667Y-77455000D01*
X90585476Y-77578810D01*
X90647381Y-77702619D01*
X90709286Y-77950238D01*
X90709286Y-78135952D01*
X90647381Y-78383571D01*
X90585476Y-78507381D01*
X90461667Y-78631190D01*
X90275953Y-78693095D01*
X90152143Y-78693095D01*
X89966429Y-78631190D01*
X89904524Y-78569286D01*
X89904524Y-78135952D01*
X90152143Y-78135952D01*
X89347381Y-78693095D02*
X89347381Y-77393095D01*
X88604524Y-78693095D01*
X88604524Y-77393095D01*
X87985476Y-78693095D02*
X87985476Y-77393095D01*
X87675952Y-77393095D01*
X87490238Y-77455000D01*
X87366429Y-77578810D01*
X87304524Y-77702619D01*
X87242619Y-77950238D01*
X87242619Y-78135952D01*
X87304524Y-78383571D01*
X87366429Y-78507381D01*
X87490238Y-78631190D01*
X87675952Y-78693095D01*
X87985476Y-78693095D01*
X89966429Y-79995000D02*
X90090238Y-79933095D01*
X90275953Y-79933095D01*
X90461667Y-79995000D01*
X90585476Y-80118810D01*
X90647381Y-80242619D01*
X90709286Y-80490238D01*
X90709286Y-80675952D01*
X90647381Y-80923571D01*
X90585476Y-81047381D01*
X90461667Y-81171190D01*
X90275953Y-81233095D01*
X90152143Y-81233095D01*
X89966429Y-81171190D01*
X89904524Y-81109286D01*
X89904524Y-80675952D01*
X90152143Y-80675952D01*
X89347381Y-81233095D02*
X89347381Y-79933095D01*
X88604524Y-81233095D01*
X88604524Y-79933095D01*
X87985476Y-81233095D02*
X87985476Y-79933095D01*
X87675952Y-79933095D01*
X87490238Y-79995000D01*
X87366429Y-80118810D01*
X87304524Y-80242619D01*
X87242619Y-80490238D01*
X87242619Y-80675952D01*
X87304524Y-80923571D01*
X87366429Y-81047381D01*
X87490238Y-81171190D01*
X87675952Y-81233095D01*
X87985476Y-81233095D01*
X102250000Y-87274524D02*
X102311905Y-87398333D01*
X102311905Y-87584048D01*
X102250000Y-87769762D01*
X102126190Y-87893571D01*
X102002381Y-87955476D01*
X101754762Y-88017381D01*
X101569048Y-88017381D01*
X101321429Y-87955476D01*
X101197619Y-87893571D01*
X101073810Y-87769762D01*
X101011905Y-87584048D01*
X101011905Y-87460238D01*
X101073810Y-87274524D01*
X101135714Y-87212619D01*
X101569048Y-87212619D01*
X101569048Y-87460238D01*
X101011905Y-86655476D02*
X102311905Y-86655476D01*
X101011905Y-85912619D01*
X102311905Y-85912619D01*
X101011905Y-85293571D02*
X102311905Y-85293571D01*
X102311905Y-84984047D01*
X102250000Y-84798333D01*
X102126190Y-84674524D01*
X102002381Y-84612619D01*
X101754762Y-84550714D01*
X101569048Y-84550714D01*
X101321429Y-84612619D01*
X101197619Y-84674524D01*
X101073810Y-84798333D01*
X101011905Y-84984047D01*
X101011905Y-85293571D01*
X112471905Y-88141190D02*
X112471905Y-87398333D01*
X111171905Y-87769762D02*
X112471905Y-87769762D01*
X112471905Y-87088810D02*
X111171905Y-86222143D01*
X112471905Y-86222143D02*
X111171905Y-87088810D01*
X108631905Y-87212619D02*
X109250952Y-87645952D01*
X108631905Y-87955476D02*
X109931905Y-87955476D01*
X109931905Y-87460238D01*
X109870000Y-87336429D01*
X109808095Y-87274524D01*
X109684286Y-87212619D01*
X109498571Y-87212619D01*
X109374762Y-87274524D01*
X109312857Y-87336429D01*
X109250952Y-87460238D01*
X109250952Y-87955476D01*
X109931905Y-86779286D02*
X108631905Y-85912619D01*
X109931905Y-85912619D02*
X108631905Y-86779286D01*
X124536905Y-75811667D02*
X123608333Y-75811667D01*
X123422619Y-75873571D01*
X123298810Y-75997381D01*
X123236905Y-76183095D01*
X123236905Y-76306905D01*
X124536905Y-75378333D02*
X124536905Y-74635476D01*
X123236905Y-75006905D02*
X124536905Y-75006905D01*
X123608333Y-74264048D02*
X123608333Y-73645000D01*
X123236905Y-74387857D02*
X124536905Y-73954524D01*
X123236905Y-73521191D01*
X124475000Y-72406905D02*
X124536905Y-72530714D01*
X124536905Y-72716429D01*
X124475000Y-72902143D01*
X124351190Y-73025952D01*
X124227381Y-73087857D01*
X123979762Y-73149762D01*
X123794048Y-73149762D01*
X123546429Y-73087857D01*
X123422619Y-73025952D01*
X123298810Y-72902143D01*
X123236905Y-72716429D01*
X123236905Y-72592619D01*
X123298810Y-72406905D01*
X123360714Y-72345000D01*
X123794048Y-72345000D01*
X123794048Y-72592619D01*
D13*
X115630000Y-88840000D02*
X115630000Y-91500000D01*
X102870000Y-88840000D02*
X115630000Y-88840000D01*
X102870000Y-91500000D02*
X115630000Y-91500000D01*
X102870000Y-88840000D02*
X102870000Y-91500000D01*
X101600000Y-88840000D02*
X100270000Y-88840000D01*
X100270000Y-88840000D02*
X100270000Y-90170000D01*
X118885000Y-71060000D02*
X119707470Y-71060000D01*
X121592530Y-71060000D02*
X122415000Y-71060000D01*
X120322530Y-71060000D02*
X120977470Y-71060000D01*
X118885000Y-76075000D02*
X118885000Y-71060000D01*
X122415000Y-77530000D02*
X122415000Y-71060000D01*
X118885000Y-76075000D02*
X119451529Y-76075000D01*
X120578471Y-76075000D02*
X120721529Y-76075000D01*
X120775000Y-76128471D02*
X120775000Y-76271529D01*
X120775000Y-77398471D02*
X120775000Y-77530000D01*
X120775000Y-77530000D02*
X120977470Y-77530000D01*
X121592530Y-77530000D02*
X122415000Y-77530000D01*
X118885000Y-76835000D02*
X118885000Y-77595000D01*
X118885000Y-77595000D02*
X120015000Y-77595000D01*
X81220000Y-71695000D02*
X86420000Y-71695000D01*
X81220000Y-81915000D02*
X81220000Y-71695000D01*
X86420000Y-84515000D02*
X86420000Y-71695000D01*
X81220000Y-81915000D02*
X83820000Y-81915000D01*
X83820000Y-81915000D02*
X83820000Y-84515000D01*
X83820000Y-84515000D02*
X86420000Y-84515000D01*
X81220000Y-83185000D02*
X81220000Y-84515000D01*
X81220000Y-84515000D02*
X82550000Y-84515000D01*
D14*
X84360000Y-68665000D02*
X84360000Y-57065000D01*
X84360000Y-57065000D02*
X92860000Y-57065000D01*
X92860000Y-57065000D02*
X92860000Y-68665000D01*
X92860000Y-68665000D02*
X84360000Y-68665000D01*
D15*
G36*
X183409754Y-92555945D02*
X183357189Y-92556480D01*
X183203165Y-92560196D01*
X183074171Y-92571235D01*
X182965809Y-92590782D01*
X182873684Y-92620019D01*
X182793399Y-92660133D01*
X182720558Y-92712305D01*
X182694541Y-92734969D01*
X182651383Y-92787998D01*
X182612467Y-92859957D01*
X182582473Y-92939720D01*
X182566081Y-93016161D01*
X182564378Y-93044408D01*
X182575051Y-93122710D01*
X182603653Y-93208241D01*
X182645057Y-93289199D01*
X182694141Y-93353782D01*
X182702113Y-93361574D01*
X182769646Y-93416344D01*
X182843598Y-93459099D01*
X182928234Y-93490959D01*
X183027817Y-93513044D01*
X183146612Y-93526474D01*
X183288880Y-93532370D01*
X183354046Y-93532870D01*
X183436901Y-93532471D01*
X183495169Y-93530802D01*
X183534316Y-93527158D01*
X183559809Y-93520829D01*
X183577114Y-93511110D01*
X183586390Y-93502810D01*
X183595152Y-93492728D01*
X183602025Y-93479721D01*
X183607238Y-93460305D01*
X183611019Y-93430996D01*
X183613597Y-93388309D01*
X183615200Y-93328761D01*
X183616057Y-93248866D01*
X183616397Y-93145141D01*
X183616449Y-93044408D01*
X183616780Y-92910055D01*
X183616708Y-92802728D01*
X183615430Y-92751331D01*
X183421065Y-92751331D01*
X183421065Y-93337485D01*
X183297071Y-93337371D01*
X183222461Y-93335232D01*
X183144318Y-93329719D01*
X183079120Y-93322008D01*
X183077136Y-93321691D01*
X182971763Y-93296214D01*
X182890032Y-93256536D01*
X182827862Y-93200074D01*
X182788360Y-93138942D01*
X182764020Y-93071129D01*
X182765907Y-93007455D01*
X182794155Y-92939201D01*
X182849408Y-92868592D01*
X182925973Y-92816271D01*
X183025495Y-92781299D01*
X183092007Y-92768922D01*
X183167507Y-92760230D01*
X183247525Y-92753940D01*
X183315584Y-92751324D01*
X183319615Y-92751312D01*
X183421065Y-92751331D01*
X183615430Y-92751331D01*
X183614636Y-92719417D01*
X183608961Y-92657115D01*
X183598087Y-92612811D01*
X183580414Y-92583496D01*
X183554343Y-92566161D01*
X183518275Y-92557797D01*
X183470612Y-92555395D01*
X183409754Y-92555945D01*
X183409754Y-92555945D01*
G37*
X183409754Y-92555945D02*
X183357189Y-92556480D01*
X183203165Y-92560196D01*
X183074171Y-92571235D01*
X182965809Y-92590782D01*
X182873684Y-92620019D01*
X182793399Y-92660133D01*
X182720558Y-92712305D01*
X182694541Y-92734969D01*
X182651383Y-92787998D01*
X182612467Y-92859957D01*
X182582473Y-92939720D01*
X182566081Y-93016161D01*
X182564378Y-93044408D01*
X182575051Y-93122710D01*
X182603653Y-93208241D01*
X182645057Y-93289199D01*
X182694141Y-93353782D01*
X182702113Y-93361574D01*
X182769646Y-93416344D01*
X182843598Y-93459099D01*
X182928234Y-93490959D01*
X183027817Y-93513044D01*
X183146612Y-93526474D01*
X183288880Y-93532370D01*
X183354046Y-93532870D01*
X183436901Y-93532471D01*
X183495169Y-93530802D01*
X183534316Y-93527158D01*
X183559809Y-93520829D01*
X183577114Y-93511110D01*
X183586390Y-93502810D01*
X183595152Y-93492728D01*
X183602025Y-93479721D01*
X183607238Y-93460305D01*
X183611019Y-93430996D01*
X183613597Y-93388309D01*
X183615200Y-93328761D01*
X183616057Y-93248866D01*
X183616397Y-93145141D01*
X183616449Y-93044408D01*
X183616780Y-92910055D01*
X183616708Y-92802728D01*
X183615430Y-92751331D01*
X183421065Y-92751331D01*
X183421065Y-93337485D01*
X183297071Y-93337371D01*
X183222461Y-93335232D01*
X183144318Y-93329719D01*
X183079120Y-93322008D01*
X183077136Y-93321691D01*
X182971763Y-93296214D01*
X182890032Y-93256536D01*
X182827862Y-93200074D01*
X182788360Y-93138942D01*
X182764020Y-93071129D01*
X182765907Y-93007455D01*
X182794155Y-92939201D01*
X182849408Y-92868592D01*
X182925973Y-92816271D01*
X183025495Y-92781299D01*
X183092007Y-92768922D01*
X183167507Y-92760230D01*
X183247525Y-92753940D01*
X183315584Y-92751324D01*
X183319615Y-92751312D01*
X183421065Y-92751331D01*
X183615430Y-92751331D01*
X183614636Y-92719417D01*
X183608961Y-92657115D01*
X183598087Y-92612811D01*
X183580414Y-92583496D01*
X183554343Y-92566161D01*
X183518275Y-92557797D01*
X183470612Y-92555395D01*
X183409754Y-92555945D01*
G36*
X181534430Y-92556052D02*
X181442022Y-92556548D01*
X181372273Y-92557701D01*
X181321483Y-92559780D01*
X181285951Y-92563051D01*
X181261978Y-92567783D01*
X181245864Y-92574243D01*
X181233909Y-92582699D01*
X181229579Y-92586591D01*
X181203251Y-92627940D01*
X181198511Y-92675452D01*
X181215830Y-92717631D01*
X181223839Y-92726156D01*
X181236792Y-92734421D01*
X181257648Y-92740797D01*
X181290276Y-92745595D01*
X181338542Y-92749124D01*
X181406314Y-92751694D01*
X181497460Y-92753617D01*
X181580791Y-92754787D01*
X181910592Y-92758846D01*
X181919606Y-92931686D01*
X181695742Y-92931686D01*
X181598554Y-92932525D01*
X181527403Y-92936032D01*
X181478291Y-92943695D01*
X181447217Y-92957003D01*
X181430184Y-92977441D01*
X181423192Y-93006499D01*
X181422130Y-93033467D01*
X181425430Y-93066557D01*
X181437883Y-93090940D01*
X181463320Y-93107889D01*
X181505571Y-93118679D01*
X181568466Y-93124584D01*
X181655835Y-93126877D01*
X181703521Y-93127071D01*
X181918106Y-93127071D01*
X181918106Y-93337485D01*
X181587455Y-93337485D01*
X181479070Y-93337636D01*
X181396697Y-93338314D01*
X181336289Y-93339856D01*
X181293799Y-93342599D01*
X181265181Y-93346881D01*
X181246388Y-93353039D01*
X181233374Y-93361409D01*
X181226745Y-93367544D01*
X181204007Y-93403349D01*
X181196686Y-93435177D01*
X181207139Y-93474054D01*
X181226745Y-93502810D01*
X181237205Y-93511863D01*
X181250708Y-93518893D01*
X181270886Y-93524154D01*
X181301371Y-93527901D01*
X181345795Y-93530390D01*
X181407791Y-93531875D01*
X181490991Y-93532611D01*
X181599027Y-93532854D01*
X181655089Y-93532870D01*
X181775144Y-93532763D01*
X181868774Y-93532275D01*
X181939609Y-93531149D01*
X181991281Y-93529131D01*
X182027423Y-93525966D01*
X182051668Y-93521399D01*
X182067647Y-93515176D01*
X182078993Y-93507040D01*
X182083432Y-93502810D01*
X182092217Y-93492696D01*
X182099104Y-93479648D01*
X182104321Y-93460170D01*
X182108099Y-93430764D01*
X182110670Y-93387934D01*
X182112264Y-93328184D01*
X182113111Y-93248017D01*
X182113442Y-93143937D01*
X182113491Y-93047028D01*
X182113446Y-92922923D01*
X182113134Y-92825366D01*
X182112288Y-92750846D01*
X182110642Y-92695851D01*
X182107929Y-92656870D01*
X182103883Y-92630393D01*
X182098237Y-92612906D01*
X182090726Y-92600900D01*
X182081082Y-92590863D01*
X182078706Y-92588626D01*
X182067175Y-92578719D01*
X182053778Y-92571048D01*
X182034796Y-92565326D01*
X182006515Y-92561268D01*
X181965218Y-92558588D01*
X181907188Y-92557002D01*
X181828709Y-92556224D01*
X181726066Y-92555968D01*
X181653196Y-92555946D01*
X181534430Y-92556052D01*
X181534430Y-92556052D01*
G37*
X181534430Y-92556052D02*
X181442022Y-92556548D01*
X181372273Y-92557701D01*
X181321483Y-92559780D01*
X181285951Y-92563051D01*
X181261978Y-92567783D01*
X181245864Y-92574243D01*
X181233909Y-92582699D01*
X181229579Y-92586591D01*
X181203251Y-92627940D01*
X181198511Y-92675452D01*
X181215830Y-92717631D01*
X181223839Y-92726156D01*
X181236792Y-92734421D01*
X181257648Y-92740797D01*
X181290276Y-92745595D01*
X181338542Y-92749124D01*
X181406314Y-92751694D01*
X181497460Y-92753617D01*
X181580791Y-92754787D01*
X181910592Y-92758846D01*
X181919606Y-92931686D01*
X181695742Y-92931686D01*
X181598554Y-92932525D01*
X181527403Y-92936032D01*
X181478291Y-92943695D01*
X181447217Y-92957003D01*
X181430184Y-92977441D01*
X181423192Y-93006499D01*
X181422130Y-93033467D01*
X181425430Y-93066557D01*
X181437883Y-93090940D01*
X181463320Y-93107889D01*
X181505571Y-93118679D01*
X181568466Y-93124584D01*
X181655835Y-93126877D01*
X181703521Y-93127071D01*
X181918106Y-93127071D01*
X181918106Y-93337485D01*
X181587455Y-93337485D01*
X181479070Y-93337636D01*
X181396697Y-93338314D01*
X181336289Y-93339856D01*
X181293799Y-93342599D01*
X181265181Y-93346881D01*
X181246388Y-93353039D01*
X181233374Y-93361409D01*
X181226745Y-93367544D01*
X181204007Y-93403349D01*
X181196686Y-93435177D01*
X181207139Y-93474054D01*
X181226745Y-93502810D01*
X181237205Y-93511863D01*
X181250708Y-93518893D01*
X181270886Y-93524154D01*
X181301371Y-93527901D01*
X181345795Y-93530390D01*
X181407791Y-93531875D01*
X181490991Y-93532611D01*
X181599027Y-93532854D01*
X181655089Y-93532870D01*
X181775144Y-93532763D01*
X181868774Y-93532275D01*
X181939609Y-93531149D01*
X181991281Y-93529131D01*
X182027423Y-93525966D01*
X182051668Y-93521399D01*
X182067647Y-93515176D01*
X182078993Y-93507040D01*
X182083432Y-93502810D01*
X182092217Y-93492696D01*
X182099104Y-93479648D01*
X182104321Y-93460170D01*
X182108099Y-93430764D01*
X182110670Y-93387934D01*
X182112264Y-93328184D01*
X182113111Y-93248017D01*
X182113442Y-93143937D01*
X182113491Y-93047028D01*
X182113446Y-92922923D01*
X182113134Y-92825366D01*
X182112288Y-92750846D01*
X182110642Y-92695851D01*
X182107929Y-92656870D01*
X182103883Y-92630393D01*
X182098237Y-92612906D01*
X182090726Y-92600900D01*
X182081082Y-92590863D01*
X182078706Y-92588626D01*
X182067175Y-92578719D01*
X182053778Y-92571048D01*
X182034796Y-92565326D01*
X182006515Y-92561268D01*
X181965218Y-92558588D01*
X181907188Y-92557002D01*
X181828709Y-92556224D01*
X181726066Y-92555968D01*
X181653196Y-92555946D01*
X181534430Y-92556052D01*
G36*
X180174988Y-92557657D02*
X180075383Y-92564620D01*
X179982744Y-92575495D01*
X179902458Y-92589874D01*
X179839908Y-92607346D01*
X179800481Y-92627502D01*
X179794429Y-92633435D01*
X179773384Y-92679475D01*
X179779766Y-92726740D01*
X179812407Y-92767178D01*
X179813964Y-92768337D01*
X179833163Y-92780797D01*
X179853205Y-92787349D01*
X179881160Y-92788144D01*
X179924099Y-92783336D01*
X179989091Y-92773075D01*
X179994319Y-92772211D01*
X180091161Y-92760314D01*
X180195644Y-92754445D01*
X180300435Y-92754388D01*
X180398202Y-92759927D01*
X180481612Y-92770845D01*
X180543333Y-92786925D01*
X180547388Y-92788541D01*
X180592164Y-92813629D01*
X180607896Y-92839018D01*
X180595580Y-92863987D01*
X180556215Y-92887816D01*
X180490798Y-92909782D01*
X180400326Y-92929166D01*
X180340000Y-92938498D01*
X180214600Y-92956449D01*
X180114865Y-92972859D01*
X180036546Y-92989148D01*
X179975393Y-93006738D01*
X179927159Y-93027049D01*
X179887595Y-93051503D01*
X179852452Y-93081520D01*
X179824211Y-93110996D01*
X179790708Y-93152067D01*
X179774219Y-93187382D01*
X179769063Y-93230893D01*
X179768876Y-93246828D01*
X179772748Y-93299705D01*
X179788227Y-93339043D01*
X179815015Y-93373960D01*
X179869459Y-93427334D01*
X179930170Y-93468038D01*
X180001658Y-93497400D01*
X180088436Y-93516747D01*
X180195014Y-93527406D01*
X180325903Y-93530705D01*
X180347515Y-93530649D01*
X180434798Y-93528840D01*
X180521359Y-93524729D01*
X180597762Y-93518906D01*
X180654570Y-93511961D01*
X180659164Y-93511164D01*
X180715645Y-93497784D01*
X180763552Y-93480882D01*
X180790673Y-93465431D01*
X180815911Y-93424666D01*
X180817669Y-93377198D01*
X180795912Y-93334895D01*
X180791044Y-93330112D01*
X180770922Y-93315899D01*
X180745758Y-93309776D01*
X180706813Y-93310818D01*
X180659535Y-93316234D01*
X180606705Y-93321073D01*
X180532648Y-93325155D01*
X180446191Y-93328118D01*
X180356163Y-93329597D01*
X180332485Y-93329694D01*
X180242122Y-93329330D01*
X180175989Y-93327576D01*
X180128267Y-93323823D01*
X180093138Y-93317463D01*
X180064782Y-93307887D01*
X180047741Y-93299911D01*
X180010296Y-93277765D01*
X179986421Y-93257708D01*
X179982932Y-93252023D01*
X179990293Y-93228545D01*
X180025287Y-93205817D01*
X180085488Y-93184870D01*
X180168471Y-93166736D01*
X180192920Y-93162697D01*
X180320622Y-93142639D01*
X180422540Y-93125874D01*
X180502606Y-93111183D01*
X180564754Y-93097348D01*
X180612918Y-93083151D01*
X180651032Y-93067373D01*
X180683030Y-93048796D01*
X180712844Y-93026202D01*
X180744410Y-92998373D01*
X180755032Y-92988616D01*
X180792273Y-92952202D01*
X180811987Y-92923352D01*
X180819699Y-92890338D01*
X180820947Y-92848735D01*
X180807215Y-92767151D01*
X180766178Y-92697834D01*
X180698070Y-92641008D01*
X180603127Y-92596897D01*
X180535384Y-92577112D01*
X180461759Y-92564333D01*
X180373561Y-92557104D01*
X180276176Y-92555015D01*
X180174988Y-92557657D01*
X180174988Y-92557657D01*
G37*
X180174988Y-92557657D02*
X180075383Y-92564620D01*
X179982744Y-92575495D01*
X179902458Y-92589874D01*
X179839908Y-92607346D01*
X179800481Y-92627502D01*
X179794429Y-92633435D01*
X179773384Y-92679475D01*
X179779766Y-92726740D01*
X179812407Y-92767178D01*
X179813964Y-92768337D01*
X179833163Y-92780797D01*
X179853205Y-92787349D01*
X179881160Y-92788144D01*
X179924099Y-92783336D01*
X179989091Y-92773075D01*
X179994319Y-92772211D01*
X180091161Y-92760314D01*
X180195644Y-92754445D01*
X180300435Y-92754388D01*
X180398202Y-92759927D01*
X180481612Y-92770845D01*
X180543333Y-92786925D01*
X180547388Y-92788541D01*
X180592164Y-92813629D01*
X180607896Y-92839018D01*
X180595580Y-92863987D01*
X180556215Y-92887816D01*
X180490798Y-92909782D01*
X180400326Y-92929166D01*
X180340000Y-92938498D01*
X180214600Y-92956449D01*
X180114865Y-92972859D01*
X180036546Y-92989148D01*
X179975393Y-93006738D01*
X179927159Y-93027049D01*
X179887595Y-93051503D01*
X179852452Y-93081520D01*
X179824211Y-93110996D01*
X179790708Y-93152067D01*
X179774219Y-93187382D01*
X179769063Y-93230893D01*
X179768876Y-93246828D01*
X179772748Y-93299705D01*
X179788227Y-93339043D01*
X179815015Y-93373960D01*
X179869459Y-93427334D01*
X179930170Y-93468038D01*
X180001658Y-93497400D01*
X180088436Y-93516747D01*
X180195014Y-93527406D01*
X180325903Y-93530705D01*
X180347515Y-93530649D01*
X180434798Y-93528840D01*
X180521359Y-93524729D01*
X180597762Y-93518906D01*
X180654570Y-93511961D01*
X180659164Y-93511164D01*
X180715645Y-93497784D01*
X180763552Y-93480882D01*
X180790673Y-93465431D01*
X180815911Y-93424666D01*
X180817669Y-93377198D01*
X180795912Y-93334895D01*
X180791044Y-93330112D01*
X180770922Y-93315899D01*
X180745758Y-93309776D01*
X180706813Y-93310818D01*
X180659535Y-93316234D01*
X180606705Y-93321073D01*
X180532648Y-93325155D01*
X180446191Y-93328118D01*
X180356163Y-93329597D01*
X180332485Y-93329694D01*
X180242122Y-93329330D01*
X180175989Y-93327576D01*
X180128267Y-93323823D01*
X180093138Y-93317463D01*
X180064782Y-93307887D01*
X180047741Y-93299911D01*
X180010296Y-93277765D01*
X179986421Y-93257708D01*
X179982932Y-93252023D01*
X179990293Y-93228545D01*
X180025287Y-93205817D01*
X180085488Y-93184870D01*
X180168471Y-93166736D01*
X180192920Y-93162697D01*
X180320622Y-93142639D01*
X180422540Y-93125874D01*
X180502606Y-93111183D01*
X180564754Y-93097348D01*
X180612918Y-93083151D01*
X180651032Y-93067373D01*
X180683030Y-93048796D01*
X180712844Y-93026202D01*
X180744410Y-92998373D01*
X180755032Y-92988616D01*
X180792273Y-92952202D01*
X180811987Y-92923352D01*
X180819699Y-92890338D01*
X180820947Y-92848735D01*
X180807215Y-92767151D01*
X180766178Y-92697834D01*
X180698070Y-92641008D01*
X180603127Y-92596897D01*
X180535384Y-92577112D01*
X180461759Y-92564333D01*
X180373561Y-92557104D01*
X180276176Y-92555015D01*
X180174988Y-92557657D01*
G36*
X179152663Y-92586006D02*
X179143901Y-92596088D01*
X179137028Y-92609095D01*
X179131815Y-92628511D01*
X179128034Y-92657820D01*
X179125456Y-92700507D01*
X179123853Y-92760055D01*
X179122995Y-92839950D01*
X179122656Y-92943676D01*
X179122603Y-93044408D01*
X179122696Y-93169352D01*
X179123127Y-93267721D01*
X179124123Y-93343001D01*
X179125915Y-93398674D01*
X179128729Y-93438226D01*
X179132796Y-93465141D01*
X179138342Y-93482903D01*
X179145597Y-93494997D01*
X179152663Y-93502810D01*
X179196602Y-93529012D01*
X179243420Y-93526661D01*
X179285309Y-93498084D01*
X179294934Y-93486927D01*
X179302455Y-93473983D01*
X179308134Y-93455672D01*
X179312227Y-93428418D01*
X179314995Y-93388640D01*
X179316696Y-93332762D01*
X179317589Y-93257204D01*
X179317933Y-93158388D01*
X179317988Y-93046514D01*
X179317988Y-92629728D01*
X179281097Y-92592837D01*
X179235625Y-92561800D01*
X179191516Y-92560681D01*
X179152663Y-92586006D01*
X179152663Y-92586006D01*
G37*
X179152663Y-92586006D02*
X179143901Y-92596088D01*
X179137028Y-92609095D01*
X179131815Y-92628511D01*
X179128034Y-92657820D01*
X179125456Y-92700507D01*
X179123853Y-92760055D01*
X179122995Y-92839950D01*
X179122656Y-92943676D01*
X179122603Y-93044408D01*
X179122696Y-93169352D01*
X179123127Y-93267721D01*
X179124123Y-93343001D01*
X179125915Y-93398674D01*
X179128729Y-93438226D01*
X179132796Y-93465141D01*
X179138342Y-93482903D01*
X179145597Y-93494997D01*
X179152663Y-93502810D01*
X179196602Y-93529012D01*
X179243420Y-93526661D01*
X179285309Y-93498084D01*
X179294934Y-93486927D01*
X179302455Y-93473983D01*
X179308134Y-93455672D01*
X179312227Y-93428418D01*
X179314995Y-93388640D01*
X179316696Y-93332762D01*
X179317589Y-93257204D01*
X179317933Y-93158388D01*
X179317988Y-93046514D01*
X179317988Y-92629728D01*
X179281097Y-92592837D01*
X179235625Y-92561800D01*
X179191516Y-92560681D01*
X179152663Y-92586006D01*
G36*
X177856262Y-92563312D02*
X177765041Y-92578618D01*
X177694982Y-92602411D01*
X177649404Y-92633740D01*
X177636984Y-92651614D01*
X177624354Y-92693185D01*
X177632853Y-92730792D01*
X177659685Y-92766455D01*
X177701376Y-92783139D01*
X177761870Y-92781784D01*
X177808659Y-92772745D01*
X177912628Y-92755523D01*
X178018880Y-92753887D01*
X178137809Y-92767865D01*
X178170660Y-92773788D01*
X178281245Y-92804967D01*
X178367759Y-92851346D01*
X178429253Y-92912135D01*
X178464778Y-92986544D01*
X178472125Y-93025014D01*
X178467316Y-93103063D01*
X178436266Y-93172117D01*
X178381806Y-93230829D01*
X178306764Y-93277853D01*
X178213970Y-93311843D01*
X178106252Y-93331454D01*
X177986441Y-93335341D01*
X177857365Y-93322156D01*
X177850077Y-93320912D01*
X177798738Y-93311350D01*
X177770272Y-93302114D01*
X177757934Y-93288409D01*
X177754978Y-93265442D01*
X177754911Y-93253279D01*
X177754911Y-93202219D01*
X177846077Y-93202219D01*
X177926582Y-93196704D01*
X177981521Y-93179130D01*
X178013486Y-93147953D01*
X178025072Y-93101630D01*
X178025213Y-93095584D01*
X178018435Y-93055989D01*
X177995191Y-93027717D01*
X177951930Y-93009007D01*
X177885101Y-92998100D01*
X177820370Y-92994090D01*
X177726287Y-92991789D01*
X177658044Y-92995300D01*
X177611501Y-93008255D01*
X177582518Y-93034286D01*
X177566955Y-93077027D01*
X177560671Y-93140110D01*
X177559526Y-93222964D01*
X177561402Y-93315446D01*
X177567046Y-93378354D01*
X177576482Y-93411939D01*
X177578313Y-93414569D01*
X177630125Y-93456534D01*
X177706090Y-93489768D01*
X177801392Y-93513559D01*
X177911216Y-93527199D01*
X178030746Y-93529978D01*
X178155166Y-93521185D01*
X178228343Y-93510385D01*
X178343120Y-93477898D01*
X178449796Y-93424786D01*
X178539111Y-93355855D01*
X178552686Y-93342078D01*
X178596792Y-93284158D01*
X178636589Y-93212376D01*
X178667427Y-93137119D01*
X178684657Y-93068777D01*
X178686734Y-93042529D01*
X178677893Y-92987777D01*
X178654395Y-92919655D01*
X178620749Y-92847950D01*
X178581464Y-92782449D01*
X178546755Y-92738698D01*
X178465603Y-92673619D01*
X178360698Y-92621821D01*
X178235800Y-92584474D01*
X178094667Y-92562753D01*
X177965325Y-92557445D01*
X177856262Y-92563312D01*
X177856262Y-92563312D01*
G37*
X177856262Y-92563312D02*
X177765041Y-92578618D01*
X177694982Y-92602411D01*
X177649404Y-92633740D01*
X177636984Y-92651614D01*
X177624354Y-92693185D01*
X177632853Y-92730792D01*
X177659685Y-92766455D01*
X177701376Y-92783139D01*
X177761870Y-92781784D01*
X177808659Y-92772745D01*
X177912628Y-92755523D01*
X178018880Y-92753887D01*
X178137809Y-92767865D01*
X178170660Y-92773788D01*
X178281245Y-92804967D01*
X178367759Y-92851346D01*
X178429253Y-92912135D01*
X178464778Y-92986544D01*
X178472125Y-93025014D01*
X178467316Y-93103063D01*
X178436266Y-93172117D01*
X178381806Y-93230829D01*
X178306764Y-93277853D01*
X178213970Y-93311843D01*
X178106252Y-93331454D01*
X177986441Y-93335341D01*
X177857365Y-93322156D01*
X177850077Y-93320912D01*
X177798738Y-93311350D01*
X177770272Y-93302114D01*
X177757934Y-93288409D01*
X177754978Y-93265442D01*
X177754911Y-93253279D01*
X177754911Y-93202219D01*
X177846077Y-93202219D01*
X177926582Y-93196704D01*
X177981521Y-93179130D01*
X178013486Y-93147953D01*
X178025072Y-93101630D01*
X178025213Y-93095584D01*
X178018435Y-93055989D01*
X177995191Y-93027717D01*
X177951930Y-93009007D01*
X177885101Y-92998100D01*
X177820370Y-92994090D01*
X177726287Y-92991789D01*
X177658044Y-92995300D01*
X177611501Y-93008255D01*
X177582518Y-93034286D01*
X177566955Y-93077027D01*
X177560671Y-93140110D01*
X177559526Y-93222964D01*
X177561402Y-93315446D01*
X177567046Y-93378354D01*
X177576482Y-93411939D01*
X177578313Y-93414569D01*
X177630125Y-93456534D01*
X177706090Y-93489768D01*
X177801392Y-93513559D01*
X177911216Y-93527199D01*
X178030746Y-93529978D01*
X178155166Y-93521185D01*
X178228343Y-93510385D01*
X178343120Y-93477898D01*
X178449796Y-93424786D01*
X178539111Y-93355855D01*
X178552686Y-93342078D01*
X178596792Y-93284158D01*
X178636589Y-93212376D01*
X178667427Y-93137119D01*
X178684657Y-93068777D01*
X178686734Y-93042529D01*
X178677893Y-92987777D01*
X178654395Y-92919655D01*
X178620749Y-92847950D01*
X178581464Y-92782449D01*
X178546755Y-92738698D01*
X178465603Y-92673619D01*
X178360698Y-92621821D01*
X178235800Y-92584474D01*
X178094667Y-92562753D01*
X177965325Y-92557445D01*
X177856262Y-92563312D01*
G36*
X176990920Y-92561780D02*
X176959545Y-92580185D01*
X176918522Y-92610285D01*
X176865724Y-92653496D01*
X176799025Y-92711238D01*
X176716299Y-92784928D01*
X176615420Y-92875984D01*
X176499941Y-92980674D01*
X176259467Y-93198743D01*
X176251952Y-92906044D01*
X176249239Y-92805290D01*
X176246622Y-92730258D01*
X176243520Y-92676620D01*
X176239356Y-92640046D01*
X176233551Y-92616207D01*
X176225524Y-92600774D01*
X176214697Y-92589418D01*
X176208956Y-92584646D01*
X176162983Y-92559413D01*
X176119237Y-92563102D01*
X176084535Y-92584659D01*
X176049053Y-92613371D01*
X176044640Y-93032686D01*
X176043419Y-93156007D01*
X176042797Y-93252884D01*
X176042990Y-93326930D01*
X176044214Y-93381757D01*
X176046684Y-93420979D01*
X176050614Y-93448209D01*
X176056220Y-93467059D01*
X176063718Y-93481141D01*
X176072033Y-93492435D01*
X176090022Y-93513382D01*
X176107921Y-93527267D01*
X176128212Y-93532596D01*
X176153378Y-93527876D01*
X176185900Y-93511613D01*
X176228263Y-93482313D01*
X176282948Y-93438482D01*
X176352437Y-93378627D01*
X176439215Y-93301254D01*
X176537515Y-93212350D01*
X176890710Y-92891971D01*
X176898225Y-93183713D01*
X176900943Y-93284283D01*
X176903567Y-93359140D01*
X176906679Y-93412620D01*
X176910862Y-93449062D01*
X176916697Y-93472804D01*
X176924766Y-93488182D01*
X176935651Y-93499536D01*
X176941221Y-93504162D01*
X176990456Y-93529578D01*
X177036977Y-93525745D01*
X177077489Y-93493269D01*
X177086756Y-93480203D01*
X177093979Y-93464945D01*
X177099412Y-93443832D01*
X177103308Y-93413205D01*
X177105921Y-93369402D01*
X177107507Y-93308763D01*
X177108318Y-93227627D01*
X177108608Y-93122333D01*
X177108639Y-93044408D01*
X177108541Y-92922524D01*
X177108079Y-92827039D01*
X177106997Y-92754291D01*
X177105043Y-92700619D01*
X177101962Y-92662363D01*
X177097500Y-92635863D01*
X177091403Y-92617456D01*
X177083417Y-92603484D01*
X177077489Y-92595547D01*
X177062462Y-92576748D01*
X177048418Y-92562553D01*
X177033230Y-92554382D01*
X177014773Y-92553652D01*
X176990920Y-92561780D01*
X176990920Y-92561780D01*
G37*
X176990920Y-92561780D02*
X176959545Y-92580185D01*
X176918522Y-92610285D01*
X176865724Y-92653496D01*
X176799025Y-92711238D01*
X176716299Y-92784928D01*
X176615420Y-92875984D01*
X176499941Y-92980674D01*
X176259467Y-93198743D01*
X176251952Y-92906044D01*
X176249239Y-92805290D01*
X176246622Y-92730258D01*
X176243520Y-92676620D01*
X176239356Y-92640046D01*
X176233551Y-92616207D01*
X176225524Y-92600774D01*
X176214697Y-92589418D01*
X176208956Y-92584646D01*
X176162983Y-92559413D01*
X176119237Y-92563102D01*
X176084535Y-92584659D01*
X176049053Y-92613371D01*
X176044640Y-93032686D01*
X176043419Y-93156007D01*
X176042797Y-93252884D01*
X176042990Y-93326930D01*
X176044214Y-93381757D01*
X176046684Y-93420979D01*
X176050614Y-93448209D01*
X176056220Y-93467059D01*
X176063718Y-93481141D01*
X176072033Y-93492435D01*
X176090022Y-93513382D01*
X176107921Y-93527267D01*
X176128212Y-93532596D01*
X176153378Y-93527876D01*
X176185900Y-93511613D01*
X176228263Y-93482313D01*
X176282948Y-93438482D01*
X176352437Y-93378627D01*
X176439215Y-93301254D01*
X176537515Y-93212350D01*
X176890710Y-92891971D01*
X176898225Y-93183713D01*
X176900943Y-93284283D01*
X176903567Y-93359140D01*
X176906679Y-93412620D01*
X176910862Y-93449062D01*
X176916697Y-93472804D01*
X176924766Y-93488182D01*
X176935651Y-93499536D01*
X176941221Y-93504162D01*
X176990456Y-93529578D01*
X177036977Y-93525745D01*
X177077489Y-93493269D01*
X177086756Y-93480203D01*
X177093979Y-93464945D01*
X177099412Y-93443832D01*
X177103308Y-93413205D01*
X177105921Y-93369402D01*
X177107507Y-93308763D01*
X177108318Y-93227627D01*
X177108608Y-93122333D01*
X177108639Y-93044408D01*
X177108541Y-92922524D01*
X177108079Y-92827039D01*
X177106997Y-92754291D01*
X177105043Y-92700619D01*
X177101962Y-92662363D01*
X177097500Y-92635863D01*
X177091403Y-92617456D01*
X177083417Y-92603484D01*
X177077489Y-92595547D01*
X177062462Y-92576748D01*
X177048418Y-92562553D01*
X177033230Y-92554382D01*
X177014773Y-92553652D01*
X176990920Y-92561780D01*
G36*
X174953330Y-92556203D02*
X174851669Y-92557420D01*
X174773764Y-92560266D01*
X174716465Y-92565410D01*
X174676619Y-92573520D01*
X174651078Y-92585267D01*
X174636689Y-92601318D01*
X174630301Y-92622344D01*
X174628765Y-92649012D01*
X174628757Y-92652162D01*
X174630091Y-92682326D01*
X174636395Y-92705639D01*
X174651124Y-92723042D01*
X174677731Y-92735476D01*
X174719672Y-92743881D01*
X174780400Y-92749201D01*
X174863370Y-92752375D01*
X174972035Y-92754345D01*
X175005341Y-92754781D01*
X175327633Y-92758846D01*
X175332140Y-92845266D01*
X175336648Y-92931686D01*
X175112783Y-92931686D01*
X175025325Y-92932009D01*
X174962877Y-92933373D01*
X174920392Y-92936375D01*
X174892823Y-92941609D01*
X174875124Y-92949671D01*
X174862249Y-92961156D01*
X174862166Y-92961247D01*
X174838816Y-93006007D01*
X174839660Y-93054383D01*
X174864167Y-93095622D01*
X174869017Y-93099861D01*
X174886231Y-93110785D01*
X174909820Y-93118385D01*
X174945039Y-93123233D01*
X174997146Y-93125902D01*
X175071396Y-93126964D01*
X175118884Y-93127071D01*
X175335148Y-93127071D01*
X175335148Y-93337485D01*
X175006826Y-93337485D01*
X174898428Y-93337675D01*
X174816111Y-93338450D01*
X174755897Y-93340120D01*
X174713811Y-93342994D01*
X174685875Y-93347383D01*
X174668112Y-93353595D01*
X174656546Y-93361940D01*
X174653631Y-93364970D01*
X174632110Y-93406970D01*
X174630536Y-93454750D01*
X174648191Y-93496178D01*
X174662161Y-93509473D01*
X174676692Y-93516792D01*
X174699208Y-93522455D01*
X174733270Y-93526659D01*
X174782439Y-93529604D01*
X174850278Y-93531487D01*
X174940348Y-93532506D01*
X175056209Y-93532861D01*
X175082403Y-93532870D01*
X175200207Y-93532792D01*
X175291650Y-93532367D01*
X175360432Y-93531302D01*
X175410250Y-93529305D01*
X175444806Y-93526086D01*
X175467796Y-93521352D01*
X175482920Y-93514813D01*
X175493877Y-93506177D01*
X175499888Y-93499976D01*
X175508936Y-93488993D01*
X175516004Y-93475388D01*
X175521337Y-93455592D01*
X175525178Y-93426038D01*
X175527771Y-93383157D01*
X175529359Y-93323381D01*
X175530185Y-93243143D01*
X175530494Y-93138875D01*
X175530532Y-93051116D01*
X175530438Y-92928144D01*
X175529989Y-92831605D01*
X175528938Y-92757875D01*
X175527036Y-92703326D01*
X175524037Y-92664335D01*
X175519691Y-92637275D01*
X175513752Y-92618520D01*
X175505971Y-92604446D01*
X175499382Y-92595547D01*
X175468232Y-92555946D01*
X175081898Y-92555946D01*
X174953330Y-92556203D01*
X174953330Y-92556203D01*
G37*
X174953330Y-92556203D02*
X174851669Y-92557420D01*
X174773764Y-92560266D01*
X174716465Y-92565410D01*
X174676619Y-92573520D01*
X174651078Y-92585267D01*
X174636689Y-92601318D01*
X174630301Y-92622344D01*
X174628765Y-92649012D01*
X174628757Y-92652162D01*
X174630091Y-92682326D01*
X174636395Y-92705639D01*
X174651124Y-92723042D01*
X174677731Y-92735476D01*
X174719672Y-92743881D01*
X174780400Y-92749201D01*
X174863370Y-92752375D01*
X174972035Y-92754345D01*
X175005341Y-92754781D01*
X175327633Y-92758846D01*
X175332140Y-92845266D01*
X175336648Y-92931686D01*
X175112783Y-92931686D01*
X175025325Y-92932009D01*
X174962877Y-92933373D01*
X174920392Y-92936375D01*
X174892823Y-92941609D01*
X174875124Y-92949671D01*
X174862249Y-92961156D01*
X174862166Y-92961247D01*
X174838816Y-93006007D01*
X174839660Y-93054383D01*
X174864167Y-93095622D01*
X174869017Y-93099861D01*
X174886231Y-93110785D01*
X174909820Y-93118385D01*
X174945039Y-93123233D01*
X174997146Y-93125902D01*
X175071396Y-93126964D01*
X175118884Y-93127071D01*
X175335148Y-93127071D01*
X175335148Y-93337485D01*
X175006826Y-93337485D01*
X174898428Y-93337675D01*
X174816111Y-93338450D01*
X174755897Y-93340120D01*
X174713811Y-93342994D01*
X174685875Y-93347383D01*
X174668112Y-93353595D01*
X174656546Y-93361940D01*
X174653631Y-93364970D01*
X174632110Y-93406970D01*
X174630536Y-93454750D01*
X174648191Y-93496178D01*
X174662161Y-93509473D01*
X174676692Y-93516792D01*
X174699208Y-93522455D01*
X174733270Y-93526659D01*
X174782439Y-93529604D01*
X174850278Y-93531487D01*
X174940348Y-93532506D01*
X175056209Y-93532861D01*
X175082403Y-93532870D01*
X175200207Y-93532792D01*
X175291650Y-93532367D01*
X175360432Y-93531302D01*
X175410250Y-93529305D01*
X175444806Y-93526086D01*
X175467796Y-93521352D01*
X175482920Y-93514813D01*
X175493877Y-93506177D01*
X175499888Y-93499976D01*
X175508936Y-93488993D01*
X175516004Y-93475388D01*
X175521337Y-93455592D01*
X175525178Y-93426038D01*
X175527771Y-93383157D01*
X175529359Y-93323381D01*
X175530185Y-93243143D01*
X175530494Y-93138875D01*
X175530532Y-93051116D01*
X175530438Y-92928144D01*
X175529989Y-92831605D01*
X175528938Y-92757875D01*
X175527036Y-92703326D01*
X175524037Y-92664335D01*
X175519691Y-92637275D01*
X175513752Y-92618520D01*
X175505971Y-92604446D01*
X175499382Y-92595547D01*
X175468232Y-92555946D01*
X175081898Y-92555946D01*
X174953330Y-92556203D01*
G36*
X173904263Y-92556223D02*
X173732545Y-92562029D01*
X173586491Y-92579637D01*
X173463693Y-92610099D01*
X173361743Y-92654471D01*
X173278232Y-92713807D01*
X173210753Y-92789160D01*
X173156897Y-92881586D01*
X173155838Y-92883840D01*
X173123697Y-92966560D01*
X173112245Y-93039820D01*
X173121526Y-93113548D01*
X173151585Y-93197671D01*
X173157285Y-93210473D01*
X173196161Y-93285398D01*
X173239851Y-93343293D01*
X173296240Y-93392508D01*
X173373208Y-93441393D01*
X173377680Y-93443945D01*
X173444683Y-93476131D01*
X173520415Y-93500168D01*
X173609742Y-93516887D01*
X173717531Y-93527115D01*
X173848648Y-93531682D01*
X173894974Y-93532079D01*
X174115570Y-93532870D01*
X174146720Y-93493269D01*
X174155960Y-93480247D01*
X174163168Y-93465040D01*
X174168596Y-93444002D01*
X174172495Y-93413486D01*
X174175117Y-93369847D01*
X174175972Y-93337485D01*
X173967455Y-93337485D01*
X173842464Y-93337485D01*
X173769323Y-93335346D01*
X173694239Y-93329717D01*
X173632616Y-93321779D01*
X173628897Y-93321111D01*
X173519447Y-93291748D01*
X173434552Y-93247633D01*
X173371528Y-93186719D01*
X173327686Y-93106960D01*
X173320063Y-93085820D01*
X173312590Y-93052898D01*
X173315825Y-93020372D01*
X173331567Y-92977100D01*
X173341056Y-92955843D01*
X173372129Y-92899356D01*
X173409567Y-92859727D01*
X173450759Y-92832130D01*
X173533270Y-92796218D01*
X173638867Y-92770204D01*
X173761882Y-92755224D01*
X173850976Y-92751928D01*
X173967455Y-92751331D01*
X173967455Y-93337485D01*
X174175972Y-93337485D01*
X174176714Y-93309436D01*
X174177536Y-93228608D01*
X174177836Y-93123717D01*
X174177870Y-93041698D01*
X174177870Y-92629728D01*
X174140979Y-92592837D01*
X174124606Y-92577884D01*
X174106903Y-92567644D01*
X174082181Y-92561237D01*
X174044752Y-92557783D01*
X173988927Y-92556403D01*
X173909018Y-92556217D01*
X173904263Y-92556223D01*
X173904263Y-92556223D01*
G37*
X173904263Y-92556223D02*
X173732545Y-92562029D01*
X173586491Y-92579637D01*
X173463693Y-92610099D01*
X173361743Y-92654471D01*
X173278232Y-92713807D01*
X173210753Y-92789160D01*
X173156897Y-92881586D01*
X173155838Y-92883840D01*
X173123697Y-92966560D01*
X173112245Y-93039820D01*
X173121526Y-93113548D01*
X173151585Y-93197671D01*
X173157285Y-93210473D01*
X173196161Y-93285398D01*
X173239851Y-93343293D01*
X173296240Y-93392508D01*
X173373208Y-93441393D01*
X173377680Y-93443945D01*
X173444683Y-93476131D01*
X173520415Y-93500168D01*
X173609742Y-93516887D01*
X173717531Y-93527115D01*
X173848648Y-93531682D01*
X173894974Y-93532079D01*
X174115570Y-93532870D01*
X174146720Y-93493269D01*
X174155960Y-93480247D01*
X174163168Y-93465040D01*
X174168596Y-93444002D01*
X174172495Y-93413486D01*
X174175117Y-93369847D01*
X174175972Y-93337485D01*
X173967455Y-93337485D01*
X173842464Y-93337485D01*
X173769323Y-93335346D01*
X173694239Y-93329717D01*
X173632616Y-93321779D01*
X173628897Y-93321111D01*
X173519447Y-93291748D01*
X173434552Y-93247633D01*
X173371528Y-93186719D01*
X173327686Y-93106960D01*
X173320063Y-93085820D01*
X173312590Y-93052898D01*
X173315825Y-93020372D01*
X173331567Y-92977100D01*
X173341056Y-92955843D01*
X173372129Y-92899356D01*
X173409567Y-92859727D01*
X173450759Y-92832130D01*
X173533270Y-92796218D01*
X173638867Y-92770204D01*
X173761882Y-92755224D01*
X173850976Y-92751928D01*
X173967455Y-92751331D01*
X173967455Y-93337485D01*
X174175972Y-93337485D01*
X174176714Y-93309436D01*
X174177536Y-93228608D01*
X174177836Y-93123717D01*
X174177870Y-93041698D01*
X174177870Y-92629728D01*
X174140979Y-92592837D01*
X174124606Y-92577884D01*
X174106903Y-92567644D01*
X174082181Y-92561237D01*
X174044752Y-92557783D01*
X173988927Y-92556403D01*
X173909018Y-92556217D01*
X173904263Y-92556223D01*
G36*
X170274499Y-92558566D02*
X170248418Y-92567886D01*
X170247412Y-92568342D01*
X170211994Y-92595370D01*
X170192480Y-92623172D01*
X170188662Y-92636208D01*
X170188851Y-92653528D01*
X170194224Y-92678203D01*
X170205958Y-92713300D01*
X170225233Y-92761889D01*
X170253224Y-92827038D01*
X170291110Y-92911817D01*
X170340068Y-93019295D01*
X170367015Y-93078039D01*
X170415676Y-93182909D01*
X170461356Y-93279350D01*
X170502312Y-93363834D01*
X170536800Y-93432836D01*
X170563077Y-93482830D01*
X170579400Y-93510290D01*
X170582630Y-93514083D01*
X170623957Y-93530816D01*
X170670637Y-93528575D01*
X170708076Y-93508223D01*
X170709602Y-93506568D01*
X170724495Y-93484022D01*
X170749477Y-93440107D01*
X170781467Y-93380476D01*
X170817386Y-93310782D01*
X170830294Y-93285099D01*
X170927732Y-93089933D01*
X171033940Y-93301943D01*
X171071849Y-93375197D01*
X171107019Y-93438726D01*
X171136578Y-93487667D01*
X171157652Y-93517158D01*
X171164794Y-93523412D01*
X171220308Y-93531881D01*
X171266117Y-93514083D01*
X171279592Y-93495061D01*
X171302910Y-93452785D01*
X171334169Y-93391416D01*
X171371466Y-93315112D01*
X171412900Y-93228035D01*
X171456568Y-93134343D01*
X171500568Y-93038197D01*
X171542998Y-92943757D01*
X171581956Y-92855181D01*
X171615539Y-92776632D01*
X171641845Y-92712267D01*
X171658972Y-92666247D01*
X171665017Y-92642733D01*
X171664955Y-92641881D01*
X171650246Y-92612292D01*
X171620844Y-92582156D01*
X171619113Y-92580844D01*
X171582976Y-92560418D01*
X171549552Y-92560616D01*
X171537024Y-92564467D01*
X171521759Y-92572789D01*
X171505548Y-92589161D01*
X171486447Y-92616978D01*
X171462511Y-92659636D01*
X171431795Y-92720531D01*
X171392355Y-92803061D01*
X171356788Y-92879243D01*
X171315869Y-92967550D01*
X171279202Y-93046962D01*
X171248692Y-93113332D01*
X171226244Y-93162511D01*
X171213763Y-93190349D01*
X171211943Y-93194704D01*
X171203756Y-93187585D01*
X171184941Y-93157777D01*
X171158000Y-93109632D01*
X171125438Y-93047499D01*
X171112480Y-93021864D01*
X171068586Y-92935301D01*
X171034735Y-92872261D01*
X171008149Y-92829078D01*
X170986051Y-92802088D01*
X170965662Y-92787624D01*
X170944206Y-92782023D01*
X170930223Y-92781390D01*
X170905558Y-92783576D01*
X170883944Y-92792615D01*
X170862468Y-92812233D01*
X170838216Y-92846153D01*
X170808276Y-92898098D01*
X170769733Y-92971794D01*
X170748468Y-93013716D01*
X170713974Y-93080530D01*
X170683890Y-93135937D01*
X170660869Y-93175263D01*
X170647566Y-93193832D01*
X170645757Y-93194605D01*
X170637166Y-93179991D01*
X170617932Y-93142043D01*
X170589981Y-93084732D01*
X170555239Y-93012032D01*
X170515633Y-92927912D01*
X170496150Y-92886130D01*
X170445466Y-92778299D01*
X170404653Y-92695326D01*
X170371592Y-92634502D01*
X170344165Y-92593121D01*
X170320254Y-92568476D01*
X170297738Y-92557860D01*
X170274499Y-92558566D01*
X170274499Y-92558566D01*
G37*
X170274499Y-92558566D02*
X170248418Y-92567886D01*
X170247412Y-92568342D01*
X170211994Y-92595370D01*
X170192480Y-92623172D01*
X170188662Y-92636208D01*
X170188851Y-92653528D01*
X170194224Y-92678203D01*
X170205958Y-92713300D01*
X170225233Y-92761889D01*
X170253224Y-92827038D01*
X170291110Y-92911817D01*
X170340068Y-93019295D01*
X170367015Y-93078039D01*
X170415676Y-93182909D01*
X170461356Y-93279350D01*
X170502312Y-93363834D01*
X170536800Y-93432836D01*
X170563077Y-93482830D01*
X170579400Y-93510290D01*
X170582630Y-93514083D01*
X170623957Y-93530816D01*
X170670637Y-93528575D01*
X170708076Y-93508223D01*
X170709602Y-93506568D01*
X170724495Y-93484022D01*
X170749477Y-93440107D01*
X170781467Y-93380476D01*
X170817386Y-93310782D01*
X170830294Y-93285099D01*
X170927732Y-93089933D01*
X171033940Y-93301943D01*
X171071849Y-93375197D01*
X171107019Y-93438726D01*
X171136578Y-93487667D01*
X171157652Y-93517158D01*
X171164794Y-93523412D01*
X171220308Y-93531881D01*
X171266117Y-93514083D01*
X171279592Y-93495061D01*
X171302910Y-93452785D01*
X171334169Y-93391416D01*
X171371466Y-93315112D01*
X171412900Y-93228035D01*
X171456568Y-93134343D01*
X171500568Y-93038197D01*
X171542998Y-92943757D01*
X171581956Y-92855181D01*
X171615539Y-92776632D01*
X171641845Y-92712267D01*
X171658972Y-92666247D01*
X171665017Y-92642733D01*
X171664955Y-92641881D01*
X171650246Y-92612292D01*
X171620844Y-92582156D01*
X171619113Y-92580844D01*
X171582976Y-92560418D01*
X171549552Y-92560616D01*
X171537024Y-92564467D01*
X171521759Y-92572789D01*
X171505548Y-92589161D01*
X171486447Y-92616978D01*
X171462511Y-92659636D01*
X171431795Y-92720531D01*
X171392355Y-92803061D01*
X171356788Y-92879243D01*
X171315869Y-92967550D01*
X171279202Y-93046962D01*
X171248692Y-93113332D01*
X171226244Y-93162511D01*
X171213763Y-93190349D01*
X171211943Y-93194704D01*
X171203756Y-93187585D01*
X171184941Y-93157777D01*
X171158000Y-93109632D01*
X171125438Y-93047499D01*
X171112480Y-93021864D01*
X171068586Y-92935301D01*
X171034735Y-92872261D01*
X171008149Y-92829078D01*
X170986051Y-92802088D01*
X170965662Y-92787624D01*
X170944206Y-92782023D01*
X170930223Y-92781390D01*
X170905558Y-92783576D01*
X170883944Y-92792615D01*
X170862468Y-92812233D01*
X170838216Y-92846153D01*
X170808276Y-92898098D01*
X170769733Y-92971794D01*
X170748468Y-93013716D01*
X170713974Y-93080530D01*
X170683890Y-93135937D01*
X170660869Y-93175263D01*
X170647566Y-93193832D01*
X170645757Y-93194605D01*
X170637166Y-93179991D01*
X170617932Y-93142043D01*
X170589981Y-93084732D01*
X170555239Y-93012032D01*
X170515633Y-92927912D01*
X170496150Y-92886130D01*
X170445466Y-92778299D01*
X170404653Y-92695326D01*
X170371592Y-92634502D01*
X170344165Y-92593121D01*
X170320254Y-92568476D01*
X170297738Y-92557860D01*
X170274499Y-92558566D01*
G36*
X169683442Y-92565013D02*
X169651872Y-92584678D01*
X169616390Y-92613409D01*
X169616390Y-93041502D01*
X169616503Y-93166726D01*
X169616987Y-93265383D01*
X169618060Y-93340966D01*
X169619938Y-93396969D01*
X169622840Y-93436883D01*
X169626983Y-93464202D01*
X169632584Y-93482417D01*
X169639861Y-93495022D01*
X169645022Y-93501232D01*
X169686878Y-93528516D01*
X169734541Y-93527403D01*
X169776293Y-93504138D01*
X169811775Y-93475407D01*
X169811775Y-92613409D01*
X169776293Y-92584678D01*
X169742048Y-92563778D01*
X169714083Y-92555946D01*
X169683442Y-92565013D01*
X169683442Y-92565013D01*
G37*
X169683442Y-92565013D02*
X169651872Y-92584678D01*
X169616390Y-92613409D01*
X169616390Y-93041502D01*
X169616503Y-93166726D01*
X169616987Y-93265383D01*
X169618060Y-93340966D01*
X169619938Y-93396969D01*
X169622840Y-93436883D01*
X169626983Y-93464202D01*
X169632584Y-93482417D01*
X169639861Y-93495022D01*
X169645022Y-93501232D01*
X169686878Y-93528516D01*
X169734541Y-93527403D01*
X169776293Y-93504138D01*
X169811775Y-93475407D01*
X169811775Y-92613409D01*
X169776293Y-92584678D01*
X169742048Y-92563778D01*
X169714083Y-92555946D01*
X169683442Y-92565013D01*
G36*
X168652369Y-92556075D02*
X168547581Y-92556579D01*
X168466247Y-92557632D01*
X168405066Y-92559412D01*
X168360735Y-92562093D01*
X168329952Y-92565850D01*
X168309415Y-92570861D01*
X168295821Y-92577299D01*
X168289243Y-92582248D01*
X168255102Y-92625565D01*
X168250972Y-92670539D01*
X168272070Y-92711396D01*
X168285867Y-92727722D01*
X168300714Y-92738854D01*
X168322231Y-92745786D01*
X168356038Y-92749513D01*
X168407754Y-92751030D01*
X168482999Y-92751330D01*
X168497777Y-92751331D01*
X168692071Y-92751331D01*
X168692071Y-93112041D01*
X168692199Y-93225737D01*
X168692780Y-93313221D01*
X168694110Y-93378338D01*
X168696486Y-93424934D01*
X168700202Y-93456855D01*
X168705554Y-93477948D01*
X168712839Y-93492059D01*
X168722130Y-93502810D01*
X168765975Y-93529232D01*
X168811746Y-93527150D01*
X168853256Y-93497005D01*
X168856305Y-93493269D01*
X168866234Y-93479146D01*
X168873798Y-93462622D01*
X168879317Y-93439682D01*
X168883113Y-93406309D01*
X168885504Y-93358491D01*
X168886812Y-93292210D01*
X168887355Y-93203454D01*
X168887455Y-93102499D01*
X168887455Y-92751331D01*
X169072996Y-92751331D01*
X169152619Y-92750792D01*
X169207742Y-92748693D01*
X169243914Y-92744307D01*
X169266684Y-92736912D01*
X169281599Y-92725781D01*
X169283410Y-92723846D01*
X169305188Y-92679593D01*
X169303262Y-92629565D01*
X169278225Y-92586006D01*
X169268542Y-92577556D01*
X169256058Y-92570857D01*
X169237443Y-92565705D01*
X169209369Y-92561897D01*
X169168505Y-92559233D01*
X169111524Y-92557508D01*
X169035094Y-92556520D01*
X168935889Y-92556068D01*
X168810577Y-92555948D01*
X168783913Y-92555946D01*
X168652369Y-92556075D01*
X168652369Y-92556075D01*
G37*
X168652369Y-92556075D02*
X168547581Y-92556579D01*
X168466247Y-92557632D01*
X168405066Y-92559412D01*
X168360735Y-92562093D01*
X168329952Y-92565850D01*
X168309415Y-92570861D01*
X168295821Y-92577299D01*
X168289243Y-92582248D01*
X168255102Y-92625565D01*
X168250972Y-92670539D01*
X168272070Y-92711396D01*
X168285867Y-92727722D01*
X168300714Y-92738854D01*
X168322231Y-92745786D01*
X168356038Y-92749513D01*
X168407754Y-92751030D01*
X168482999Y-92751330D01*
X168497777Y-92751331D01*
X168692071Y-92751331D01*
X168692071Y-93112041D01*
X168692199Y-93225737D01*
X168692780Y-93313221D01*
X168694110Y-93378338D01*
X168696486Y-93424934D01*
X168700202Y-93456855D01*
X168705554Y-93477948D01*
X168712839Y-93492059D01*
X168722130Y-93502810D01*
X168765975Y-93529232D01*
X168811746Y-93527150D01*
X168853256Y-93497005D01*
X168856305Y-93493269D01*
X168866234Y-93479146D01*
X168873798Y-93462622D01*
X168879317Y-93439682D01*
X168883113Y-93406309D01*
X168885504Y-93358491D01*
X168886812Y-93292210D01*
X168887355Y-93203454D01*
X168887455Y-93102499D01*
X168887455Y-92751331D01*
X169072996Y-92751331D01*
X169152619Y-92750792D01*
X169207742Y-92748693D01*
X169243914Y-92744307D01*
X169266684Y-92736912D01*
X169281599Y-92725781D01*
X169283410Y-92723846D01*
X169305188Y-92679593D01*
X169303262Y-92629565D01*
X169278225Y-92586006D01*
X169268542Y-92577556D01*
X169256058Y-92570857D01*
X169237443Y-92565705D01*
X169209369Y-92561897D01*
X169168505Y-92559233D01*
X169111524Y-92557508D01*
X169035094Y-92556520D01*
X168935889Y-92556068D01*
X168810577Y-92555948D01*
X168783913Y-92555946D01*
X168652369Y-92556075D01*
G36*
X166967187Y-92563224D02*
X166925411Y-92592837D01*
X166888521Y-92629728D01*
X166888521Y-93041698D01*
X166888617Y-93164022D01*
X166889074Y-93259934D01*
X166890143Y-93333080D01*
X166892075Y-93387106D01*
X166895123Y-93425659D01*
X166899537Y-93452384D01*
X166905570Y-93470930D01*
X166913472Y-93484941D01*
X166919671Y-93493269D01*
X166960585Y-93525985D01*
X167007564Y-93529536D01*
X167050502Y-93509473D01*
X167064690Y-93497628D01*
X167074174Y-93481894D01*
X167079895Y-93456558D01*
X167082793Y-93415906D01*
X167083808Y-93354224D01*
X167083905Y-93306574D01*
X167083905Y-93127071D01*
X167745207Y-93127071D01*
X167745207Y-93290369D01*
X167745891Y-93365041D01*
X167748627Y-93416360D01*
X167754442Y-93451013D01*
X167764362Y-93475691D01*
X167776357Y-93493269D01*
X167817500Y-93525893D01*
X167864029Y-93529756D01*
X167908573Y-93506568D01*
X167920734Y-93494412D01*
X167929323Y-93478297D01*
X167934988Y-93453196D01*
X167938377Y-93414080D01*
X167940138Y-93355922D01*
X167940918Y-93273694D01*
X167941010Y-93254822D01*
X167941654Y-93099893D01*
X167941986Y-92972210D01*
X167941878Y-92868963D01*
X167941201Y-92787339D01*
X167939828Y-92724528D01*
X167937630Y-92677717D01*
X167934480Y-92644095D01*
X167930248Y-92620851D01*
X167924808Y-92605172D01*
X167918031Y-92594247D01*
X167910532Y-92586006D01*
X167868113Y-92559643D01*
X167823874Y-92563224D01*
X167782098Y-92592837D01*
X167765193Y-92611943D01*
X167754417Y-92633047D01*
X167748405Y-92663104D01*
X167745790Y-92709069D01*
X167745207Y-92777896D01*
X167745207Y-92931686D01*
X167083905Y-92931686D01*
X167083905Y-92773875D01*
X167083230Y-92701172D01*
X167080520Y-92652081D01*
X167074745Y-92620172D01*
X167064877Y-92599014D01*
X167053846Y-92586006D01*
X167011427Y-92559643D01*
X166967187Y-92563224D01*
X166967187Y-92563224D01*
G37*
X166967187Y-92563224D02*
X166925411Y-92592837D01*
X166888521Y-92629728D01*
X166888521Y-93041698D01*
X166888617Y-93164022D01*
X166889074Y-93259934D01*
X166890143Y-93333080D01*
X166892075Y-93387106D01*
X166895123Y-93425659D01*
X166899537Y-93452384D01*
X166905570Y-93470930D01*
X166913472Y-93484941D01*
X166919671Y-93493269D01*
X166960585Y-93525985D01*
X167007564Y-93529536D01*
X167050502Y-93509473D01*
X167064690Y-93497628D01*
X167074174Y-93481894D01*
X167079895Y-93456558D01*
X167082793Y-93415906D01*
X167083808Y-93354224D01*
X167083905Y-93306574D01*
X167083905Y-93127071D01*
X167745207Y-93127071D01*
X167745207Y-93290369D01*
X167745891Y-93365041D01*
X167748627Y-93416360D01*
X167754442Y-93451013D01*
X167764362Y-93475691D01*
X167776357Y-93493269D01*
X167817500Y-93525893D01*
X167864029Y-93529756D01*
X167908573Y-93506568D01*
X167920734Y-93494412D01*
X167929323Y-93478297D01*
X167934988Y-93453196D01*
X167938377Y-93414080D01*
X167940138Y-93355922D01*
X167940918Y-93273694D01*
X167941010Y-93254822D01*
X167941654Y-93099893D01*
X167941986Y-92972210D01*
X167941878Y-92868963D01*
X167941201Y-92787339D01*
X167939828Y-92724528D01*
X167937630Y-92677717D01*
X167934480Y-92644095D01*
X167930248Y-92620851D01*
X167924808Y-92605172D01*
X167918031Y-92594247D01*
X167910532Y-92586006D01*
X167868113Y-92559643D01*
X167823874Y-92563224D01*
X167782098Y-92592837D01*
X167765193Y-92611943D01*
X167754417Y-92633047D01*
X167748405Y-92663104D01*
X167745790Y-92709069D01*
X167745207Y-92777896D01*
X167745207Y-92931686D01*
X167083905Y-92931686D01*
X167083905Y-92773875D01*
X167083230Y-92701172D01*
X167080520Y-92652081D01*
X167074745Y-92620172D01*
X167064877Y-92599014D01*
X167053846Y-92586006D01*
X167011427Y-92559643D01*
X166967187Y-92563224D01*
G36*
X179182722Y-86192024D02*
X179168256Y-86343719D01*
X179126163Y-86487003D01*
X179058393Y-86618807D01*
X178966899Y-86736058D01*
X178853635Y-86835687D01*
X178724510Y-86912729D01*
X178583028Y-86965479D01*
X178440554Y-86990201D01*
X178299896Y-86988684D01*
X178163864Y-86962717D01*
X178035267Y-86914090D01*
X177916914Y-86844593D01*
X177811614Y-86756014D01*
X177722177Y-86650143D01*
X177651412Y-86528770D01*
X177602129Y-86393683D01*
X177577135Y-86246674D01*
X177574556Y-86180244D01*
X177574556Y-86063165D01*
X177505420Y-86063165D01*
X177457081Y-86066953D01*
X177421271Y-86082662D01*
X177385183Y-86114266D01*
X177334083Y-86165367D01*
X177334083Y-89083138D01*
X177334095Y-89432138D01*
X177334138Y-89752332D01*
X177334223Y-90044974D01*
X177334361Y-90311318D01*
X177334562Y-90552617D01*
X177334838Y-90770125D01*
X177335200Y-90965095D01*
X177335658Y-91138780D01*
X177336223Y-91292435D01*
X177336906Y-91427313D01*
X177337717Y-91544668D01*
X177338669Y-91645753D01*
X177339771Y-91731821D01*
X177341035Y-91804127D01*
X177342470Y-91863923D01*
X177344089Y-91912464D01*
X177345902Y-91951003D01*
X177347920Y-91980793D01*
X177350154Y-92003089D01*
X177352614Y-92019143D01*
X177355312Y-92030210D01*
X177358258Y-92037542D01*
X177359699Y-92040005D01*
X177365241Y-92049340D01*
X177369947Y-92057923D01*
X177375045Y-92065784D01*
X177381765Y-92072955D01*
X177391336Y-92079467D01*
X177404986Y-92085353D01*
X177423945Y-92090642D01*
X177449442Y-92095368D01*
X177482705Y-92099560D01*
X177524964Y-92103251D01*
X177577448Y-92106472D01*
X177641386Y-92109254D01*
X177718007Y-92111630D01*
X177808540Y-92113629D01*
X177914214Y-92115284D01*
X178036258Y-92116627D01*
X178175901Y-92117687D01*
X178334372Y-92118498D01*
X178512900Y-92119090D01*
X178712715Y-92119495D01*
X178935045Y-92119744D01*
X179181119Y-92119869D01*
X179452166Y-92119901D01*
X179749416Y-92119871D01*
X180074097Y-92119811D01*
X180427438Y-92119752D01*
X180478541Y-92119746D01*
X180833985Y-92119689D01*
X181160594Y-92119595D01*
X181459592Y-92119455D01*
X181732204Y-92119259D01*
X181979653Y-92118997D01*
X182203164Y-92118660D01*
X182403960Y-92118239D01*
X182583266Y-92117723D01*
X182742307Y-92117104D01*
X182882306Y-92116371D01*
X183004487Y-92115515D01*
X183110075Y-92114526D01*
X183200293Y-92113394D01*
X183276366Y-92112111D01*
X183339519Y-92110666D01*
X183390975Y-92109049D01*
X183431958Y-92107252D01*
X183463692Y-92105265D01*
X183487402Y-92103077D01*
X183504312Y-92100679D01*
X183515646Y-92098063D01*
X183521448Y-92095841D01*
X183532714Y-92091088D01*
X183543058Y-92087578D01*
X183552517Y-92084068D01*
X183561132Y-92079313D01*
X183568942Y-92072069D01*
X183575985Y-92061091D01*
X183582302Y-92045135D01*
X183587931Y-92022955D01*
X183592912Y-91993309D01*
X183597284Y-91954951D01*
X183601086Y-91906637D01*
X183604358Y-91847122D01*
X183607139Y-91775163D01*
X183609467Y-91689513D01*
X183611383Y-91588931D01*
X183612925Y-91472169D01*
X183614134Y-91337985D01*
X183615047Y-91185134D01*
X183615705Y-91012371D01*
X183616146Y-90818452D01*
X183616411Y-90602133D01*
X183616536Y-90362168D01*
X183616564Y-90097314D01*
X183616533Y-89806326D01*
X183616481Y-89487960D01*
X183616449Y-89140970D01*
X183616449Y-89084852D01*
X183616467Y-88734841D01*
X183616501Y-88413636D01*
X183616515Y-88119983D01*
X183616476Y-87852628D01*
X183616351Y-87610317D01*
X183616103Y-87391797D01*
X183615700Y-87195813D01*
X183615107Y-87021113D01*
X183614335Y-86874763D01*
X183211149Y-86874763D01*
X183158174Y-86951775D01*
X183143302Y-86972768D01*
X183129895Y-86991356D01*
X183117876Y-87009120D01*
X183107170Y-87027638D01*
X183097703Y-87048491D01*
X183089397Y-87073257D01*
X183082178Y-87103517D01*
X183075969Y-87140850D01*
X183070696Y-87186835D01*
X183066282Y-87243052D01*
X183062652Y-87311080D01*
X183059730Y-87392500D01*
X183057441Y-87488890D01*
X183055709Y-87601830D01*
X183054458Y-87732899D01*
X183053614Y-87883678D01*
X183053099Y-88055746D01*
X183052839Y-88250681D01*
X183052757Y-88470065D01*
X183052779Y-88715476D01*
X183052828Y-88988494D01*
X183052840Y-89151745D01*
X183052808Y-89440583D01*
X183052763Y-89700943D01*
X183052779Y-89934406D01*
X183052931Y-90142554D01*
X183053294Y-90326969D01*
X183053943Y-90489231D01*
X183054953Y-90630922D01*
X183056399Y-90753624D01*
X183058355Y-90858917D01*
X183060896Y-90948383D01*
X183064097Y-91023603D01*
X183068033Y-91086159D01*
X183072780Y-91137632D01*
X183078410Y-91179603D01*
X183085001Y-91213653D01*
X183092626Y-91241365D01*
X183101360Y-91264318D01*
X183111279Y-91284096D01*
X183122456Y-91302278D01*
X183134967Y-91320446D01*
X183148888Y-91340182D01*
X183156997Y-91352019D01*
X183208618Y-91428728D01*
X182500914Y-91428728D01*
X182336826Y-91428681D01*
X182200367Y-91428481D01*
X182089109Y-91428033D01*
X182000621Y-91427244D01*
X181932476Y-91426020D01*
X181882243Y-91424269D01*
X181847493Y-91421897D01*
X181825798Y-91418810D01*
X181814727Y-91414916D01*
X181811851Y-91410120D01*
X181814741Y-91404330D01*
X181816333Y-91402426D01*
X181849817Y-91353070D01*
X181884296Y-91282773D01*
X181915729Y-91200227D01*
X181926738Y-91165061D01*
X181932884Y-91141175D01*
X181938078Y-91113135D01*
X181942430Y-91078165D01*
X181946048Y-91033489D01*
X181949043Y-90976329D01*
X181951523Y-90903910D01*
X181953598Y-90813455D01*
X181955377Y-90702188D01*
X181956970Y-90567331D01*
X181958486Y-90406109D01*
X181958988Y-90346597D01*
X181960342Y-90179976D01*
X181961352Y-90041026D01*
X181961941Y-89927361D01*
X181962031Y-89836596D01*
X181961544Y-89766344D01*
X181960403Y-89714219D01*
X181958530Y-89677834D01*
X181955847Y-89654804D01*
X181952276Y-89642742D01*
X181947739Y-89639261D01*
X181942159Y-89641976D01*
X181936203Y-89647722D01*
X181922417Y-89664943D01*
X181893050Y-89703651D01*
X181850179Y-89761010D01*
X181795882Y-89834181D01*
X181732237Y-89920326D01*
X181661323Y-90016609D01*
X181585216Y-90120192D01*
X181505995Y-90228237D01*
X181425738Y-90337907D01*
X181346522Y-90446364D01*
X181270426Y-90550770D01*
X181199527Y-90648289D01*
X181135903Y-90736083D01*
X181081633Y-90811314D01*
X181038793Y-90871144D01*
X181009462Y-90912737D01*
X181003380Y-90921567D01*
X180972864Y-90970698D01*
X180937172Y-91034590D01*
X180903357Y-91100542D01*
X180899069Y-91109437D01*
X180870208Y-91173602D01*
X180853452Y-91223610D01*
X180845823Y-91271307D01*
X180844334Y-91327278D01*
X180845178Y-91428728D01*
X179308204Y-91428728D01*
X179429575Y-91303938D01*
X179491879Y-91237510D01*
X179558830Y-91162316D01*
X179620132Y-91090063D01*
X179647325Y-91056310D01*
X179687849Y-91003661D01*
X179741176Y-90932817D01*
X179805747Y-90845947D01*
X179880001Y-90745222D01*
X179962381Y-90632809D01*
X180051326Y-90510879D01*
X180145278Y-90381602D01*
X180242678Y-90247146D01*
X180341965Y-90109681D01*
X180441581Y-89971377D01*
X180539967Y-89834403D01*
X180635564Y-89700929D01*
X180726812Y-89573124D01*
X180812152Y-89453157D01*
X180890025Y-89343199D01*
X180958871Y-89245418D01*
X181017132Y-89161984D01*
X181063249Y-89095066D01*
X181095661Y-89046834D01*
X181112810Y-89019458D01*
X181115150Y-89013996D01*
X181104554Y-88998917D01*
X181076868Y-88962730D01*
X181033909Y-88907701D01*
X180977490Y-88836093D01*
X180909426Y-88750171D01*
X180831533Y-88652198D01*
X180745625Y-88544438D01*
X180653517Y-88429155D01*
X180557023Y-88308614D01*
X180457959Y-88185079D01*
X180378438Y-88086082D01*
X179032426Y-88086082D01*
X179024558Y-88103333D01*
X179005480Y-88132955D01*
X179004086Y-88134928D01*
X178979073Y-88175073D01*
X178952916Y-88224109D01*
X178947725Y-88234941D01*
X178943017Y-88246163D01*
X178938857Y-88259634D01*
X178935203Y-88277210D01*
X178932015Y-88300745D01*
X178929255Y-88332094D01*
X178926881Y-88373112D01*
X178924853Y-88425652D01*
X178923132Y-88491571D01*
X178921676Y-88572723D01*
X178920447Y-88670962D01*
X178919404Y-88788143D01*
X178918506Y-88926121D01*
X178917714Y-89086751D01*
X178916988Y-89271888D01*
X178916287Y-89483386D01*
X178915577Y-89721509D01*
X178914860Y-89967967D01*
X178914282Y-90186229D01*
X178913931Y-90378155D01*
X178913898Y-90545607D01*
X178914272Y-90690449D01*
X178915143Y-90814540D01*
X178916601Y-90919744D01*
X178918736Y-91007922D01*
X178921637Y-91080936D01*
X178925394Y-91140648D01*
X178930097Y-91188920D01*
X178935835Y-91227614D01*
X178942699Y-91258591D01*
X178950778Y-91283714D01*
X178960162Y-91304845D01*
X178970940Y-91323845D01*
X178983203Y-91342576D01*
X178994520Y-91359175D01*
X179017334Y-91394182D01*
X179030843Y-91417593D01*
X179032426Y-91421880D01*
X179017905Y-91423314D01*
X178976375Y-91424646D01*
X178910889Y-91425845D01*
X178824495Y-91426877D01*
X178720246Y-91427712D01*
X178601192Y-91428317D01*
X178470384Y-91428660D01*
X178378639Y-91428728D01*
X178238855Y-91428434D01*
X178109924Y-91427593D01*
X177994758Y-91426263D01*
X177896270Y-91424503D01*
X177817376Y-91422372D01*
X177760988Y-91419928D01*
X177730020Y-91417231D01*
X177724852Y-91415538D01*
X177735100Y-91395697D01*
X177745749Y-91385006D01*
X177763286Y-91362204D01*
X177786237Y-91321929D01*
X177802110Y-91289231D01*
X177837574Y-91210799D01*
X177841668Y-89643964D01*
X177845762Y-88077130D01*
X178439094Y-88077130D01*
X178569323Y-88077349D01*
X178689670Y-88077973D01*
X178796932Y-88078953D01*
X178887907Y-88080243D01*
X178959393Y-88081792D01*
X179008186Y-88083554D01*
X179031085Y-88085479D01*
X179032426Y-88086082D01*
X180378438Y-88086082D01*
X180358140Y-88060813D01*
X180259380Y-87938081D01*
X180163493Y-87819147D01*
X180072296Y-87706274D01*
X179987602Y-87601728D01*
X179911227Y-87507771D01*
X179844984Y-87426668D01*
X179790690Y-87360684D01*
X179767838Y-87333165D01*
X179652952Y-87199149D01*
X179550971Y-87088303D01*
X179459355Y-86998009D01*
X179375566Y-86925651D01*
X179363077Y-86915842D01*
X179310473Y-86875096D01*
X180063864Y-86874930D01*
X180817254Y-86874763D01*
X180810213Y-86938639D01*
X180814610Y-87014984D01*
X180843276Y-87105882D01*
X180896496Y-87212057D01*
X180956817Y-87308292D01*
X180978409Y-87338441D01*
X181015758Y-87388441D01*
X181066637Y-87455442D01*
X181128820Y-87536591D01*
X181200081Y-87629038D01*
X181278192Y-87729933D01*
X181360928Y-87836423D01*
X181446063Y-87945658D01*
X181531369Y-88054787D01*
X181614621Y-88160959D01*
X181693592Y-88261323D01*
X181766055Y-88353027D01*
X181829785Y-88433221D01*
X181882555Y-88499054D01*
X181922138Y-88547674D01*
X181946309Y-88576230D01*
X181950381Y-88580621D01*
X181954188Y-88569962D01*
X181957135Y-88529630D01*
X181959217Y-88460000D01*
X181960429Y-88361447D01*
X181960766Y-88234344D01*
X181960223Y-88079068D01*
X181959013Y-87919319D01*
X181957253Y-87743431D01*
X181955223Y-87594667D01*
X181952593Y-87470092D01*
X181949031Y-87366771D01*
X181944206Y-87281769D01*
X181937787Y-87212152D01*
X181929444Y-87154984D01*
X181918844Y-87107331D01*
X181905657Y-87066257D01*
X181889552Y-87028827D01*
X181870197Y-86992107D01*
X181850650Y-86958771D01*
X181800063Y-86874763D01*
X183211149Y-86874763D01*
X183614335Y-86874763D01*
X183614291Y-86866442D01*
X183613218Y-86730547D01*
X183611853Y-86612174D01*
X183610162Y-86510069D01*
X183608112Y-86422979D01*
X183605668Y-86349650D01*
X183602796Y-86288829D01*
X183599462Y-86239260D01*
X183595633Y-86199692D01*
X183591274Y-86168870D01*
X183586351Y-86145540D01*
X183580830Y-86128448D01*
X183574678Y-86116342D01*
X183567859Y-86107967D01*
X183560340Y-86102070D01*
X183552087Y-86097396D01*
X183543067Y-86092693D01*
X183535084Y-86087942D01*
X183528117Y-86084512D01*
X183517232Y-86081412D01*
X183500972Y-86078625D01*
X183477879Y-86076134D01*
X183446497Y-86073923D01*
X183405368Y-86071976D01*
X183353034Y-86070276D01*
X183288039Y-86068807D01*
X183208925Y-86067552D01*
X183114236Y-86066494D01*
X183002512Y-86065618D01*
X182872299Y-86064907D01*
X182722137Y-86064345D01*
X182550570Y-86063914D01*
X182356141Y-86063599D01*
X182137392Y-86063383D01*
X181892866Y-86063250D01*
X181621105Y-86063183D01*
X181339996Y-86063165D01*
X179182722Y-86063165D01*
X179182722Y-86192024D01*
X179182722Y-86192024D01*
G37*
X179182722Y-86192024D02*
X179168256Y-86343719D01*
X179126163Y-86487003D01*
X179058393Y-86618807D01*
X178966899Y-86736058D01*
X178853635Y-86835687D01*
X178724510Y-86912729D01*
X178583028Y-86965479D01*
X178440554Y-86990201D01*
X178299896Y-86988684D01*
X178163864Y-86962717D01*
X178035267Y-86914090D01*
X177916914Y-86844593D01*
X177811614Y-86756014D01*
X177722177Y-86650143D01*
X177651412Y-86528770D01*
X177602129Y-86393683D01*
X177577135Y-86246674D01*
X177574556Y-86180244D01*
X177574556Y-86063165D01*
X177505420Y-86063165D01*
X177457081Y-86066953D01*
X177421271Y-86082662D01*
X177385183Y-86114266D01*
X177334083Y-86165367D01*
X177334083Y-89083138D01*
X177334095Y-89432138D01*
X177334138Y-89752332D01*
X177334223Y-90044974D01*
X177334361Y-90311318D01*
X177334562Y-90552617D01*
X177334838Y-90770125D01*
X177335200Y-90965095D01*
X177335658Y-91138780D01*
X177336223Y-91292435D01*
X177336906Y-91427313D01*
X177337717Y-91544668D01*
X177338669Y-91645753D01*
X177339771Y-91731821D01*
X177341035Y-91804127D01*
X177342470Y-91863923D01*
X177344089Y-91912464D01*
X177345902Y-91951003D01*
X177347920Y-91980793D01*
X177350154Y-92003089D01*
X177352614Y-92019143D01*
X177355312Y-92030210D01*
X177358258Y-92037542D01*
X177359699Y-92040005D01*
X177365241Y-92049340D01*
X177369947Y-92057923D01*
X177375045Y-92065784D01*
X177381765Y-92072955D01*
X177391336Y-92079467D01*
X177404986Y-92085353D01*
X177423945Y-92090642D01*
X177449442Y-92095368D01*
X177482705Y-92099560D01*
X177524964Y-92103251D01*
X177577448Y-92106472D01*
X177641386Y-92109254D01*
X177718007Y-92111630D01*
X177808540Y-92113629D01*
X177914214Y-92115284D01*
X178036258Y-92116627D01*
X178175901Y-92117687D01*
X178334372Y-92118498D01*
X178512900Y-92119090D01*
X178712715Y-92119495D01*
X178935045Y-92119744D01*
X179181119Y-92119869D01*
X179452166Y-92119901D01*
X179749416Y-92119871D01*
X180074097Y-92119811D01*
X180427438Y-92119752D01*
X180478541Y-92119746D01*
X180833985Y-92119689D01*
X181160594Y-92119595D01*
X181459592Y-92119455D01*
X181732204Y-92119259D01*
X181979653Y-92118997D01*
X182203164Y-92118660D01*
X182403960Y-92118239D01*
X182583266Y-92117723D01*
X182742307Y-92117104D01*
X182882306Y-92116371D01*
X183004487Y-92115515D01*
X183110075Y-92114526D01*
X183200293Y-92113394D01*
X183276366Y-92112111D01*
X183339519Y-92110666D01*
X183390975Y-92109049D01*
X183431958Y-92107252D01*
X183463692Y-92105265D01*
X183487402Y-92103077D01*
X183504312Y-92100679D01*
X183515646Y-92098063D01*
X183521448Y-92095841D01*
X183532714Y-92091088D01*
X183543058Y-92087578D01*
X183552517Y-92084068D01*
X183561132Y-92079313D01*
X183568942Y-92072069D01*
X183575985Y-92061091D01*
X183582302Y-92045135D01*
X183587931Y-92022955D01*
X183592912Y-91993309D01*
X183597284Y-91954951D01*
X183601086Y-91906637D01*
X183604358Y-91847122D01*
X183607139Y-91775163D01*
X183609467Y-91689513D01*
X183611383Y-91588931D01*
X183612925Y-91472169D01*
X183614134Y-91337985D01*
X183615047Y-91185134D01*
X183615705Y-91012371D01*
X183616146Y-90818452D01*
X183616411Y-90602133D01*
X183616536Y-90362168D01*
X183616564Y-90097314D01*
X183616533Y-89806326D01*
X183616481Y-89487960D01*
X183616449Y-89140970D01*
X183616449Y-89084852D01*
X183616467Y-88734841D01*
X183616501Y-88413636D01*
X183616515Y-88119983D01*
X183616476Y-87852628D01*
X183616351Y-87610317D01*
X183616103Y-87391797D01*
X183615700Y-87195813D01*
X183615107Y-87021113D01*
X183614335Y-86874763D01*
X183211149Y-86874763D01*
X183158174Y-86951775D01*
X183143302Y-86972768D01*
X183129895Y-86991356D01*
X183117876Y-87009120D01*
X183107170Y-87027638D01*
X183097703Y-87048491D01*
X183089397Y-87073257D01*
X183082178Y-87103517D01*
X183075969Y-87140850D01*
X183070696Y-87186835D01*
X183066282Y-87243052D01*
X183062652Y-87311080D01*
X183059730Y-87392500D01*
X183057441Y-87488890D01*
X183055709Y-87601830D01*
X183054458Y-87732899D01*
X183053614Y-87883678D01*
X183053099Y-88055746D01*
X183052839Y-88250681D01*
X183052757Y-88470065D01*
X183052779Y-88715476D01*
X183052828Y-88988494D01*
X183052840Y-89151745D01*
X183052808Y-89440583D01*
X183052763Y-89700943D01*
X183052779Y-89934406D01*
X183052931Y-90142554D01*
X183053294Y-90326969D01*
X183053943Y-90489231D01*
X183054953Y-90630922D01*
X183056399Y-90753624D01*
X183058355Y-90858917D01*
X183060896Y-90948383D01*
X183064097Y-91023603D01*
X183068033Y-91086159D01*
X183072780Y-91137632D01*
X183078410Y-91179603D01*
X183085001Y-91213653D01*
X183092626Y-91241365D01*
X183101360Y-91264318D01*
X183111279Y-91284096D01*
X183122456Y-91302278D01*
X183134967Y-91320446D01*
X183148888Y-91340182D01*
X183156997Y-91352019D01*
X183208618Y-91428728D01*
X182500914Y-91428728D01*
X182336826Y-91428681D01*
X182200367Y-91428481D01*
X182089109Y-91428033D01*
X182000621Y-91427244D01*
X181932476Y-91426020D01*
X181882243Y-91424269D01*
X181847493Y-91421897D01*
X181825798Y-91418810D01*
X181814727Y-91414916D01*
X181811851Y-91410120D01*
X181814741Y-91404330D01*
X181816333Y-91402426D01*
X181849817Y-91353070D01*
X181884296Y-91282773D01*
X181915729Y-91200227D01*
X181926738Y-91165061D01*
X181932884Y-91141175D01*
X181938078Y-91113135D01*
X181942430Y-91078165D01*
X181946048Y-91033489D01*
X181949043Y-90976329D01*
X181951523Y-90903910D01*
X181953598Y-90813455D01*
X181955377Y-90702188D01*
X181956970Y-90567331D01*
X181958486Y-90406109D01*
X181958988Y-90346597D01*
X181960342Y-90179976D01*
X181961352Y-90041026D01*
X181961941Y-89927361D01*
X181962031Y-89836596D01*
X181961544Y-89766344D01*
X181960403Y-89714219D01*
X181958530Y-89677834D01*
X181955847Y-89654804D01*
X181952276Y-89642742D01*
X181947739Y-89639261D01*
X181942159Y-89641976D01*
X181936203Y-89647722D01*
X181922417Y-89664943D01*
X181893050Y-89703651D01*
X181850179Y-89761010D01*
X181795882Y-89834181D01*
X181732237Y-89920326D01*
X181661323Y-90016609D01*
X181585216Y-90120192D01*
X181505995Y-90228237D01*
X181425738Y-90337907D01*
X181346522Y-90446364D01*
X181270426Y-90550770D01*
X181199527Y-90648289D01*
X181135903Y-90736083D01*
X181081633Y-90811314D01*
X181038793Y-90871144D01*
X181009462Y-90912737D01*
X181003380Y-90921567D01*
X180972864Y-90970698D01*
X180937172Y-91034590D01*
X180903357Y-91100542D01*
X180899069Y-91109437D01*
X180870208Y-91173602D01*
X180853452Y-91223610D01*
X180845823Y-91271307D01*
X180844334Y-91327278D01*
X180845178Y-91428728D01*
X179308204Y-91428728D01*
X179429575Y-91303938D01*
X179491879Y-91237510D01*
X179558830Y-91162316D01*
X179620132Y-91090063D01*
X179647325Y-91056310D01*
X179687849Y-91003661D01*
X179741176Y-90932817D01*
X179805747Y-90845947D01*
X179880001Y-90745222D01*
X179962381Y-90632809D01*
X180051326Y-90510879D01*
X180145278Y-90381602D01*
X180242678Y-90247146D01*
X180341965Y-90109681D01*
X180441581Y-89971377D01*
X180539967Y-89834403D01*
X180635564Y-89700929D01*
X180726812Y-89573124D01*
X180812152Y-89453157D01*
X180890025Y-89343199D01*
X180958871Y-89245418D01*
X181017132Y-89161984D01*
X181063249Y-89095066D01*
X181095661Y-89046834D01*
X181112810Y-89019458D01*
X181115150Y-89013996D01*
X181104554Y-88998917D01*
X181076868Y-88962730D01*
X181033909Y-88907701D01*
X180977490Y-88836093D01*
X180909426Y-88750171D01*
X180831533Y-88652198D01*
X180745625Y-88544438D01*
X180653517Y-88429155D01*
X180557023Y-88308614D01*
X180457959Y-88185079D01*
X180378438Y-88086082D01*
X179032426Y-88086082D01*
X179024558Y-88103333D01*
X179005480Y-88132955D01*
X179004086Y-88134928D01*
X178979073Y-88175073D01*
X178952916Y-88224109D01*
X178947725Y-88234941D01*
X178943017Y-88246163D01*
X178938857Y-88259634D01*
X178935203Y-88277210D01*
X178932015Y-88300745D01*
X178929255Y-88332094D01*
X178926881Y-88373112D01*
X178924853Y-88425652D01*
X178923132Y-88491571D01*
X178921676Y-88572723D01*
X178920447Y-88670962D01*
X178919404Y-88788143D01*
X178918506Y-88926121D01*
X178917714Y-89086751D01*
X178916988Y-89271888D01*
X178916287Y-89483386D01*
X178915577Y-89721509D01*
X178914860Y-89967967D01*
X178914282Y-90186229D01*
X178913931Y-90378155D01*
X178913898Y-90545607D01*
X178914272Y-90690449D01*
X178915143Y-90814540D01*
X178916601Y-90919744D01*
X178918736Y-91007922D01*
X178921637Y-91080936D01*
X178925394Y-91140648D01*
X178930097Y-91188920D01*
X178935835Y-91227614D01*
X178942699Y-91258591D01*
X178950778Y-91283714D01*
X178960162Y-91304845D01*
X178970940Y-91323845D01*
X178983203Y-91342576D01*
X178994520Y-91359175D01*
X179017334Y-91394182D01*
X179030843Y-91417593D01*
X179032426Y-91421880D01*
X179017905Y-91423314D01*
X178976375Y-91424646D01*
X178910889Y-91425845D01*
X178824495Y-91426877D01*
X178720246Y-91427712D01*
X178601192Y-91428317D01*
X178470384Y-91428660D01*
X178378639Y-91428728D01*
X178238855Y-91428434D01*
X178109924Y-91427593D01*
X177994758Y-91426263D01*
X177896270Y-91424503D01*
X177817376Y-91422372D01*
X177760988Y-91419928D01*
X177730020Y-91417231D01*
X177724852Y-91415538D01*
X177735100Y-91395697D01*
X177745749Y-91385006D01*
X177763286Y-91362204D01*
X177786237Y-91321929D01*
X177802110Y-91289231D01*
X177837574Y-91210799D01*
X177841668Y-89643964D01*
X177845762Y-88077130D01*
X178439094Y-88077130D01*
X178569323Y-88077349D01*
X178689670Y-88077973D01*
X178796932Y-88078953D01*
X178887907Y-88080243D01*
X178959393Y-88081792D01*
X179008186Y-88083554D01*
X179031085Y-88085479D01*
X179032426Y-88086082D01*
X180378438Y-88086082D01*
X180358140Y-88060813D01*
X180259380Y-87938081D01*
X180163493Y-87819147D01*
X180072296Y-87706274D01*
X179987602Y-87601728D01*
X179911227Y-87507771D01*
X179844984Y-87426668D01*
X179790690Y-87360684D01*
X179767838Y-87333165D01*
X179652952Y-87199149D01*
X179550971Y-87088303D01*
X179459355Y-86998009D01*
X179375566Y-86925651D01*
X179363077Y-86915842D01*
X179310473Y-86875096D01*
X180063864Y-86874930D01*
X180817254Y-86874763D01*
X180810213Y-86938639D01*
X180814610Y-87014984D01*
X180843276Y-87105882D01*
X180896496Y-87212057D01*
X180956817Y-87308292D01*
X180978409Y-87338441D01*
X181015758Y-87388441D01*
X181066637Y-87455442D01*
X181128820Y-87536591D01*
X181200081Y-87629038D01*
X181278192Y-87729933D01*
X181360928Y-87836423D01*
X181446063Y-87945658D01*
X181531369Y-88054787D01*
X181614621Y-88160959D01*
X181693592Y-88261323D01*
X181766055Y-88353027D01*
X181829785Y-88433221D01*
X181882555Y-88499054D01*
X181922138Y-88547674D01*
X181946309Y-88576230D01*
X181950381Y-88580621D01*
X181954188Y-88569962D01*
X181957135Y-88529630D01*
X181959217Y-88460000D01*
X181960429Y-88361447D01*
X181960766Y-88234344D01*
X181960223Y-88079068D01*
X181959013Y-87919319D01*
X181957253Y-87743431D01*
X181955223Y-87594667D01*
X181952593Y-87470092D01*
X181949031Y-87366771D01*
X181944206Y-87281769D01*
X181937787Y-87212152D01*
X181929444Y-87154984D01*
X181918844Y-87107331D01*
X181905657Y-87066257D01*
X181889552Y-87028827D01*
X181870197Y-86992107D01*
X181850650Y-86958771D01*
X181800063Y-86874763D01*
X183211149Y-86874763D01*
X183614335Y-86874763D01*
X183614291Y-86866442D01*
X183613218Y-86730547D01*
X183611853Y-86612174D01*
X183610162Y-86510069D01*
X183608112Y-86422979D01*
X183605668Y-86349650D01*
X183602796Y-86288829D01*
X183599462Y-86239260D01*
X183595633Y-86199692D01*
X183591274Y-86168870D01*
X183586351Y-86145540D01*
X183580830Y-86128448D01*
X183574678Y-86116342D01*
X183567859Y-86107967D01*
X183560340Y-86102070D01*
X183552087Y-86097396D01*
X183543067Y-86092693D01*
X183535084Y-86087942D01*
X183528117Y-86084512D01*
X183517232Y-86081412D01*
X183500972Y-86078625D01*
X183477879Y-86076134D01*
X183446497Y-86073923D01*
X183405368Y-86071976D01*
X183353034Y-86070276D01*
X183288039Y-86068807D01*
X183208925Y-86067552D01*
X183114236Y-86066494D01*
X183002512Y-86065618D01*
X182872299Y-86064907D01*
X182722137Y-86064345D01*
X182550570Y-86063914D01*
X182356141Y-86063599D01*
X182137392Y-86063383D01*
X181892866Y-86063250D01*
X181621105Y-86063183D01*
X181339996Y-86063165D01*
X179182722Y-86063165D01*
X179182722Y-86192024D01*
G36*
X174822742Y-86804473D02*
X174609536Y-86832663D01*
X174391273Y-86886103D01*
X174165204Y-86965325D01*
X173928582Y-87070856D01*
X173913580Y-87078238D01*
X173836768Y-87115550D01*
X173768140Y-87147605D01*
X173712703Y-87172166D01*
X173675464Y-87186992D01*
X173662722Y-87190384D01*
X173637137Y-87197051D01*
X173630997Y-87202651D01*
X173637792Y-87216541D01*
X173659147Y-87251540D01*
X173692604Y-87303980D01*
X173735706Y-87370194D01*
X173785992Y-87446514D01*
X173841005Y-87529273D01*
X173898286Y-87614801D01*
X173955377Y-87699433D01*
X174009817Y-87779500D01*
X174059150Y-87851334D01*
X174100917Y-87911268D01*
X174132658Y-87955635D01*
X174151915Y-87980765D01*
X174154558Y-87983680D01*
X174168029Y-87977491D01*
X174197773Y-87954623D01*
X174238473Y-87919314D01*
X174259434Y-87900040D01*
X174387896Y-87799814D01*
X174529966Y-87726002D01*
X174683744Y-87679270D01*
X174847328Y-87660284D01*
X174939725Y-87661843D01*
X175101005Y-87684690D01*
X175246413Y-87732462D01*
X175376384Y-87805508D01*
X175491353Y-87904176D01*
X175591754Y-88028815D01*
X175678022Y-88179776D01*
X175727839Y-88295059D01*
X175786222Y-88475724D01*
X175829252Y-88672078D01*
X175857040Y-88879057D01*
X175869695Y-89091598D01*
X175867330Y-89304638D01*
X175850055Y-89513113D01*
X175817981Y-89711961D01*
X175771218Y-89896118D01*
X175709877Y-90060520D01*
X175688200Y-90106124D01*
X175597340Y-90258014D01*
X175490219Y-90386481D01*
X175368412Y-90490478D01*
X175233490Y-90568958D01*
X175087029Y-90620874D01*
X174930600Y-90645179D01*
X174875392Y-90646967D01*
X174713554Y-90632428D01*
X174553209Y-90588737D01*
X174396390Y-90516798D01*
X174245133Y-90417512D01*
X174123436Y-90313232D01*
X174061488Y-90253945D01*
X173820155Y-90649709D01*
X173760114Y-90748446D01*
X173705211Y-90839262D01*
X173657394Y-90918895D01*
X173618609Y-90984080D01*
X173590806Y-91031554D01*
X173575930Y-91058055D01*
X173573997Y-91062175D01*
X173584953Y-91075009D01*
X173619007Y-91098016D01*
X173671855Y-91129015D01*
X173739189Y-91165829D01*
X173816706Y-91206278D01*
X173900098Y-91248182D01*
X173985060Y-91289363D01*
X174067286Y-91327642D01*
X174142471Y-91360838D01*
X174206309Y-91386775D01*
X174237533Y-91397997D01*
X174415623Y-91448342D01*
X174599209Y-91481630D01*
X174795858Y-91498943D01*
X174964659Y-91502043D01*
X175055133Y-91500585D01*
X175142471Y-91497792D01*
X175218932Y-91494009D01*
X175276770Y-91489578D01*
X175295549Y-91487337D01*
X175480628Y-91448947D01*
X175669051Y-91388877D01*
X175852090Y-91310702D01*
X176021013Y-91218000D01*
X176124201Y-91147864D01*
X176293826Y-91003809D01*
X176451330Y-90835302D01*
X176593795Y-90646508D01*
X176718303Y-90441591D01*
X176821938Y-90224715D01*
X176880324Y-90068550D01*
X176947222Y-89824076D01*
X176991821Y-89565064D01*
X177014135Y-89297119D01*
X177014179Y-89025845D01*
X176991966Y-88756847D01*
X176947509Y-88495729D01*
X176880824Y-88248095D01*
X176875743Y-88232666D01*
X176792022Y-88016915D01*
X176689844Y-87819983D01*
X176565742Y-87636299D01*
X176416250Y-87460288D01*
X176357850Y-87400027D01*
X176176596Y-87235016D01*
X175990263Y-87098495D01*
X175795991Y-86988979D01*
X175590921Y-86904981D01*
X175372190Y-86845015D01*
X175244970Y-86821730D01*
X175033637Y-86801005D01*
X174822742Y-86804473D01*
X174822742Y-86804473D01*
G37*
X174822742Y-86804473D02*
X174609536Y-86832663D01*
X174391273Y-86886103D01*
X174165204Y-86965325D01*
X173928582Y-87070856D01*
X173913580Y-87078238D01*
X173836768Y-87115550D01*
X173768140Y-87147605D01*
X173712703Y-87172166D01*
X173675464Y-87186992D01*
X173662722Y-87190384D01*
X173637137Y-87197051D01*
X173630997Y-87202651D01*
X173637792Y-87216541D01*
X173659147Y-87251540D01*
X173692604Y-87303980D01*
X173735706Y-87370194D01*
X173785992Y-87446514D01*
X173841005Y-87529273D01*
X173898286Y-87614801D01*
X173955377Y-87699433D01*
X174009817Y-87779500D01*
X174059150Y-87851334D01*
X174100917Y-87911268D01*
X174132658Y-87955635D01*
X174151915Y-87980765D01*
X174154558Y-87983680D01*
X174168029Y-87977491D01*
X174197773Y-87954623D01*
X174238473Y-87919314D01*
X174259434Y-87900040D01*
X174387896Y-87799814D01*
X174529966Y-87726002D01*
X174683744Y-87679270D01*
X174847328Y-87660284D01*
X174939725Y-87661843D01*
X175101005Y-87684690D01*
X175246413Y-87732462D01*
X175376384Y-87805508D01*
X175491353Y-87904176D01*
X175591754Y-88028815D01*
X175678022Y-88179776D01*
X175727839Y-88295059D01*
X175786222Y-88475724D01*
X175829252Y-88672078D01*
X175857040Y-88879057D01*
X175869695Y-89091598D01*
X175867330Y-89304638D01*
X175850055Y-89513113D01*
X175817981Y-89711961D01*
X175771218Y-89896118D01*
X175709877Y-90060520D01*
X175688200Y-90106124D01*
X175597340Y-90258014D01*
X175490219Y-90386481D01*
X175368412Y-90490478D01*
X175233490Y-90568958D01*
X175087029Y-90620874D01*
X174930600Y-90645179D01*
X174875392Y-90646967D01*
X174713554Y-90632428D01*
X174553209Y-90588737D01*
X174396390Y-90516798D01*
X174245133Y-90417512D01*
X174123436Y-90313232D01*
X174061488Y-90253945D01*
X173820155Y-90649709D01*
X173760114Y-90748446D01*
X173705211Y-90839262D01*
X173657394Y-90918895D01*
X173618609Y-90984080D01*
X173590806Y-91031554D01*
X173575930Y-91058055D01*
X173573997Y-91062175D01*
X173584953Y-91075009D01*
X173619007Y-91098016D01*
X173671855Y-91129015D01*
X173739189Y-91165829D01*
X173816706Y-91206278D01*
X173900098Y-91248182D01*
X173985060Y-91289363D01*
X174067286Y-91327642D01*
X174142471Y-91360838D01*
X174206309Y-91386775D01*
X174237533Y-91397997D01*
X174415623Y-91448342D01*
X174599209Y-91481630D01*
X174795858Y-91498943D01*
X174964659Y-91502043D01*
X175055133Y-91500585D01*
X175142471Y-91497792D01*
X175218932Y-91494009D01*
X175276770Y-91489578D01*
X175295549Y-91487337D01*
X175480628Y-91448947D01*
X175669051Y-91388877D01*
X175852090Y-91310702D01*
X176021013Y-91218000D01*
X176124201Y-91147864D01*
X176293826Y-91003809D01*
X176451330Y-90835302D01*
X176593795Y-90646508D01*
X176718303Y-90441591D01*
X176821938Y-90224715D01*
X176880324Y-90068550D01*
X176947222Y-89824076D01*
X176991821Y-89565064D01*
X177014135Y-89297119D01*
X177014179Y-89025845D01*
X176991966Y-88756847D01*
X176947509Y-88495729D01*
X176880824Y-88248095D01*
X176875743Y-88232666D01*
X176792022Y-88016915D01*
X176689844Y-87819983D01*
X176565742Y-87636299D01*
X176416250Y-87460288D01*
X176357850Y-87400027D01*
X176176596Y-87235016D01*
X175990263Y-87098495D01*
X175795991Y-86988979D01*
X175590921Y-86904981D01*
X175372190Y-86845015D01*
X175244970Y-86821730D01*
X175033637Y-86801005D01*
X174822742Y-86804473D01*
G36*
X171700508Y-88025971D02*
X171498250Y-88052618D01*
X171318164Y-88097398D01*
X171159089Y-88160669D01*
X171019862Y-88242787D01*
X170916535Y-88327409D01*
X170824884Y-88426108D01*
X170753334Y-88532313D01*
X170696214Y-88655092D01*
X170675612Y-88712433D01*
X170658492Y-88764331D01*
X170643578Y-88812455D01*
X170630698Y-88859246D01*
X170619680Y-88907144D01*
X170610350Y-88958587D01*
X170602537Y-89016016D01*
X170596068Y-89081870D01*
X170590770Y-89158589D01*
X170586470Y-89248612D01*
X170582997Y-89354380D01*
X170580177Y-89478331D01*
X170577838Y-89622906D01*
X170575807Y-89790544D01*
X170573912Y-89983685D01*
X170572245Y-90173757D01*
X170570479Y-90381703D01*
X170568874Y-90561797D01*
X170567263Y-90716244D01*
X170565480Y-90847249D01*
X170563357Y-90957017D01*
X170560728Y-91047753D01*
X170557424Y-91121662D01*
X170553281Y-91180950D01*
X170548130Y-91227822D01*
X170541804Y-91264483D01*
X170534137Y-91293137D01*
X170524962Y-91315990D01*
X170514112Y-91335248D01*
X170501419Y-91353115D01*
X170486717Y-91371796D01*
X170480991Y-91379029D01*
X170459930Y-91409436D01*
X170450562Y-91430142D01*
X170450532Y-91430754D01*
X170465014Y-91433682D01*
X170506267Y-91436378D01*
X170571003Y-91438769D01*
X170655936Y-91440778D01*
X170757777Y-91442329D01*
X170873240Y-91443346D01*
X170999036Y-91443753D01*
X171013557Y-91443757D01*
X171576581Y-91443757D01*
X171580924Y-91315858D01*
X171585266Y-91187958D01*
X171667929Y-91255841D01*
X171797510Y-91345726D01*
X171943828Y-91418541D01*
X172058944Y-91458787D01*
X172150902Y-91478342D01*
X172261874Y-91491647D01*
X172381385Y-91498285D01*
X172498963Y-91497843D01*
X172604133Y-91489905D01*
X172652367Y-91482298D01*
X172838782Y-91431890D01*
X173007100Y-91358874D01*
X173156104Y-91264337D01*
X173284576Y-91149365D01*
X173391301Y-91015046D01*
X173475060Y-90862467D01*
X173534140Y-90694594D01*
X173550562Y-90619261D01*
X173560693Y-90536451D01*
X173565524Y-90436815D01*
X173566183Y-90391686D01*
X173566096Y-90387446D01*
X172554344Y-90387446D01*
X172541971Y-90487367D01*
X172504444Y-90572343D01*
X172439915Y-90646417D01*
X172433182Y-90652292D01*
X172368885Y-90698659D01*
X172300042Y-90728724D01*
X172219186Y-90744595D01*
X172118851Y-90748380D01*
X172094743Y-90747840D01*
X172023091Y-90744309D01*
X171969797Y-90737098D01*
X171923177Y-90723566D01*
X171871548Y-90701072D01*
X171857380Y-90694178D01*
X171776632Y-90646478D01*
X171714299Y-90589719D01*
X171697341Y-90569431D01*
X171637870Y-90494194D01*
X171637870Y-90233413D01*
X171638583Y-90128706D01*
X171640833Y-90051552D01*
X171644785Y-89999478D01*
X171650604Y-89970009D01*
X171656042Y-89961400D01*
X171677245Y-89957188D01*
X171722222Y-89953697D01*
X171784695Y-89951256D01*
X171858381Y-89950194D01*
X171870214Y-89950174D01*
X172031010Y-89957169D01*
X172167701Y-89978693D01*
X172282935Y-90015569D01*
X172379359Y-90068620D01*
X172452491Y-90131127D01*
X172511799Y-90208195D01*
X172544715Y-90292135D01*
X172554344Y-90387446D01*
X173566096Y-90387446D01*
X173563609Y-90266864D01*
X173552499Y-90161821D01*
X173530871Y-90066998D01*
X173496739Y-89972837D01*
X173464791Y-89903111D01*
X173386748Y-89776236D01*
X173282773Y-89659042D01*
X173156030Y-89553662D01*
X173009682Y-89462228D01*
X172846894Y-89386874D01*
X172670829Y-89329732D01*
X172584734Y-89309842D01*
X172403426Y-89280413D01*
X172205792Y-89260997D01*
X172004150Y-89252502D01*
X171835654Y-89254675D01*
X171620125Y-89263700D01*
X171630003Y-89185178D01*
X171655689Y-89053170D01*
X171697139Y-88945702D01*
X171755499Y-88861952D01*
X171831917Y-88801095D01*
X171927539Y-88762308D01*
X172043510Y-88744766D01*
X172180979Y-88747647D01*
X172231538Y-88752974D01*
X172419514Y-88786482D01*
X172601662Y-88841113D01*
X172727515Y-88891706D01*
X172787639Y-88917501D01*
X172838806Y-88938231D01*
X172873889Y-88951071D01*
X172884125Y-88953797D01*
X172897098Y-88941710D01*
X172919357Y-88903142D01*
X172951110Y-88837655D01*
X172992568Y-88744816D01*
X173043939Y-88624187D01*
X173052723Y-88603165D01*
X173092739Y-88506885D01*
X173128659Y-88419885D01*
X173158931Y-88345969D01*
X173182004Y-88288941D01*
X173196326Y-88252607D01*
X173200462Y-88240839D01*
X173187150Y-88234509D01*
X173152167Y-88227483D01*
X173114526Y-88222585D01*
X173074377Y-88216252D01*
X173010754Y-88203677D01*
X172929303Y-88186092D01*
X172835664Y-88164730D01*
X172735480Y-88140825D01*
X172697455Y-88131475D01*
X172557581Y-88097408D01*
X172440869Y-88070698D01*
X172341565Y-88050491D01*
X172253915Y-88035934D01*
X172172164Y-88026173D01*
X172090559Y-88020356D01*
X172003344Y-88017630D01*
X171926102Y-88017100D01*
X171700508Y-88025971D01*
X171700508Y-88025971D01*
G37*
X171700508Y-88025971D02*
X171498250Y-88052618D01*
X171318164Y-88097398D01*
X171159089Y-88160669D01*
X171019862Y-88242787D01*
X170916535Y-88327409D01*
X170824884Y-88426108D01*
X170753334Y-88532313D01*
X170696214Y-88655092D01*
X170675612Y-88712433D01*
X170658492Y-88764331D01*
X170643578Y-88812455D01*
X170630698Y-88859246D01*
X170619680Y-88907144D01*
X170610350Y-88958587D01*
X170602537Y-89016016D01*
X170596068Y-89081870D01*
X170590770Y-89158589D01*
X170586470Y-89248612D01*
X170582997Y-89354380D01*
X170580177Y-89478331D01*
X170577838Y-89622906D01*
X170575807Y-89790544D01*
X170573912Y-89983685D01*
X170572245Y-90173757D01*
X170570479Y-90381703D01*
X170568874Y-90561797D01*
X170567263Y-90716244D01*
X170565480Y-90847249D01*
X170563357Y-90957017D01*
X170560728Y-91047753D01*
X170557424Y-91121662D01*
X170553281Y-91180950D01*
X170548130Y-91227822D01*
X170541804Y-91264483D01*
X170534137Y-91293137D01*
X170524962Y-91315990D01*
X170514112Y-91335248D01*
X170501419Y-91353115D01*
X170486717Y-91371796D01*
X170480991Y-91379029D01*
X170459930Y-91409436D01*
X170450562Y-91430142D01*
X170450532Y-91430754D01*
X170465014Y-91433682D01*
X170506267Y-91436378D01*
X170571003Y-91438769D01*
X170655936Y-91440778D01*
X170757777Y-91442329D01*
X170873240Y-91443346D01*
X170999036Y-91443753D01*
X171013557Y-91443757D01*
X171576581Y-91443757D01*
X171580924Y-91315858D01*
X171585266Y-91187958D01*
X171667929Y-91255841D01*
X171797510Y-91345726D01*
X171943828Y-91418541D01*
X172058944Y-91458787D01*
X172150902Y-91478342D01*
X172261874Y-91491647D01*
X172381385Y-91498285D01*
X172498963Y-91497843D01*
X172604133Y-91489905D01*
X172652367Y-91482298D01*
X172838782Y-91431890D01*
X173007100Y-91358874D01*
X173156104Y-91264337D01*
X173284576Y-91149365D01*
X173391301Y-91015046D01*
X173475060Y-90862467D01*
X173534140Y-90694594D01*
X173550562Y-90619261D01*
X173560693Y-90536451D01*
X173565524Y-90436815D01*
X173566183Y-90391686D01*
X173566096Y-90387446D01*
X172554344Y-90387446D01*
X172541971Y-90487367D01*
X172504444Y-90572343D01*
X172439915Y-90646417D01*
X172433182Y-90652292D01*
X172368885Y-90698659D01*
X172300042Y-90728724D01*
X172219186Y-90744595D01*
X172118851Y-90748380D01*
X172094743Y-90747840D01*
X172023091Y-90744309D01*
X171969797Y-90737098D01*
X171923177Y-90723566D01*
X171871548Y-90701072D01*
X171857380Y-90694178D01*
X171776632Y-90646478D01*
X171714299Y-90589719D01*
X171697341Y-90569431D01*
X171637870Y-90494194D01*
X171637870Y-90233413D01*
X171638583Y-90128706D01*
X171640833Y-90051552D01*
X171644785Y-89999478D01*
X171650604Y-89970009D01*
X171656042Y-89961400D01*
X171677245Y-89957188D01*
X171722222Y-89953697D01*
X171784695Y-89951256D01*
X171858381Y-89950194D01*
X171870214Y-89950174D01*
X172031010Y-89957169D01*
X172167701Y-89978693D01*
X172282935Y-90015569D01*
X172379359Y-90068620D01*
X172452491Y-90131127D01*
X172511799Y-90208195D01*
X172544715Y-90292135D01*
X172554344Y-90387446D01*
X173566096Y-90387446D01*
X173563609Y-90266864D01*
X173552499Y-90161821D01*
X173530871Y-90066998D01*
X173496739Y-89972837D01*
X173464791Y-89903111D01*
X173386748Y-89776236D01*
X173282773Y-89659042D01*
X173156030Y-89553662D01*
X173009682Y-89462228D01*
X172846894Y-89386874D01*
X172670829Y-89329732D01*
X172584734Y-89309842D01*
X172403426Y-89280413D01*
X172205792Y-89260997D01*
X172004150Y-89252502D01*
X171835654Y-89254675D01*
X171620125Y-89263700D01*
X171630003Y-89185178D01*
X171655689Y-89053170D01*
X171697139Y-88945702D01*
X171755499Y-88861952D01*
X171831917Y-88801095D01*
X171927539Y-88762308D01*
X172043510Y-88744766D01*
X172180979Y-88747647D01*
X172231538Y-88752974D01*
X172419514Y-88786482D01*
X172601662Y-88841113D01*
X172727515Y-88891706D01*
X172787639Y-88917501D01*
X172838806Y-88938231D01*
X172873889Y-88951071D01*
X172884125Y-88953797D01*
X172897098Y-88941710D01*
X172919357Y-88903142D01*
X172951110Y-88837655D01*
X172992568Y-88744816D01*
X173043939Y-88624187D01*
X173052723Y-88603165D01*
X173092739Y-88506885D01*
X173128659Y-88419885D01*
X173158931Y-88345969D01*
X173182004Y-88288941D01*
X173196326Y-88252607D01*
X173200462Y-88240839D01*
X173187150Y-88234509D01*
X173152167Y-88227483D01*
X173114526Y-88222585D01*
X173074377Y-88216252D01*
X173010754Y-88203677D01*
X172929303Y-88186092D01*
X172835664Y-88164730D01*
X172735480Y-88140825D01*
X172697455Y-88131475D01*
X172557581Y-88097408D01*
X172440869Y-88070698D01*
X172341565Y-88050491D01*
X172253915Y-88035934D01*
X172172164Y-88026173D01*
X172090559Y-88020356D01*
X172003344Y-88017630D01*
X171926102Y-88017100D01*
X171700508Y-88025971D01*
G36*
X167023526Y-88832367D02*
X167023500Y-89144461D01*
X167023465Y-89427962D01*
X167023369Y-89684336D01*
X167023159Y-89915048D01*
X167022784Y-90121565D01*
X167022191Y-90305351D01*
X167021330Y-90467874D01*
X167020147Y-90610598D01*
X167018592Y-90734990D01*
X167016611Y-90842515D01*
X167014154Y-90934640D01*
X167011167Y-91012830D01*
X167007600Y-91078551D01*
X167003401Y-91133269D01*
X166998516Y-91178449D01*
X166992896Y-91215558D01*
X166986487Y-91246062D01*
X166979237Y-91271426D01*
X166971095Y-91293115D01*
X166962010Y-91312597D01*
X166951927Y-91331337D01*
X166940797Y-91350800D01*
X166933883Y-91362924D01*
X166888264Y-91443757D01*
X168030769Y-91443757D01*
X168030769Y-91316006D01*
X168031743Y-91258273D01*
X168034342Y-91214119D01*
X168038082Y-91190446D01*
X168039735Y-91188254D01*
X168054942Y-91197419D01*
X168085183Y-91221175D01*
X168115405Y-91246969D01*
X168188076Y-91301201D01*
X168280577Y-91355792D01*
X168383161Y-91405725D01*
X168486081Y-91445987D01*
X168527157Y-91458833D01*
X168618351Y-91478225D01*
X168728657Y-91491487D01*
X168847671Y-91498202D01*
X168964995Y-91497953D01*
X169070227Y-91490324D01*
X169120414Y-91482592D01*
X169304270Y-91431918D01*
X169473755Y-91355067D01*
X169627954Y-91252737D01*
X169765956Y-91125628D01*
X169886849Y-90974440D01*
X169975786Y-90826927D01*
X170048835Y-90671483D01*
X170104752Y-90512586D01*
X170144689Y-90344843D01*
X170169793Y-90162861D01*
X170181214Y-89961245D01*
X170182181Y-89858136D01*
X170179393Y-89782545D01*
X169075540Y-89782545D01*
X169075263Y-89906452D01*
X169071385Y-90023199D01*
X169063846Y-90125820D01*
X169052589Y-90207349D01*
X169049149Y-90223779D01*
X169006811Y-90366612D01*
X168951348Y-90482473D01*
X168882297Y-90571654D01*
X168799196Y-90634444D01*
X168701582Y-90671137D01*
X168588990Y-90682021D01*
X168460959Y-90667390D01*
X168376449Y-90646458D01*
X168311022Y-90622241D01*
X168238957Y-90587828D01*
X168184822Y-90556272D01*
X168090887Y-90494540D01*
X168090887Y-88963220D01*
X168180631Y-88905216D01*
X168285177Y-88850733D01*
X168397258Y-88815251D01*
X168510589Y-88799376D01*
X168618883Y-88803712D01*
X168715855Y-88828865D01*
X168758397Y-88849593D01*
X168835515Y-88906838D01*
X168900695Y-88982422D01*
X168955487Y-89079108D01*
X169001439Y-89199658D01*
X169040103Y-89346833D01*
X169041809Y-89354645D01*
X169055350Y-89437527D01*
X169065524Y-89541116D01*
X169072274Y-89658444D01*
X169075540Y-89782545D01*
X170179393Y-89782545D01*
X170171728Y-89574801D01*
X170142512Y-89314073D01*
X170094604Y-89076123D01*
X170028072Y-88861124D01*
X169942985Y-88669250D01*
X169839413Y-88500674D01*
X169717425Y-88355568D01*
X169577089Y-88234105D01*
X169516959Y-88192898D01*
X169382559Y-88118145D01*
X169245043Y-88065409D01*
X169098476Y-88033243D01*
X168936927Y-88020203D01*
X168813769Y-88021595D01*
X168641152Y-88036195D01*
X168491249Y-88065239D01*
X168359722Y-88110063D01*
X168242235Y-88172000D01*
X168177177Y-88217549D01*
X168138080Y-88246725D01*
X168109202Y-88266656D01*
X168098272Y-88272515D01*
X168096122Y-88258097D01*
X168094404Y-88217287D01*
X168093100Y-88153747D01*
X168092195Y-88071140D01*
X168091672Y-87973130D01*
X168091513Y-87863379D01*
X168091702Y-87745551D01*
X168092222Y-87623307D01*
X168093056Y-87500313D01*
X168094188Y-87380230D01*
X168095601Y-87266721D01*
X168097277Y-87163450D01*
X168099200Y-87074080D01*
X168101354Y-87002273D01*
X168103720Y-86951693D01*
X168104375Y-86942396D01*
X168114463Y-86848647D01*
X168129855Y-86775224D01*
X168153472Y-86712489D01*
X168188233Y-86650802D01*
X168196577Y-86638047D01*
X168229105Y-86589201D01*
X167023787Y-86589201D01*
X167023526Y-88832367D01*
X167023526Y-88832367D01*
G37*
X167023526Y-88832367D02*
X167023500Y-89144461D01*
X167023465Y-89427962D01*
X167023369Y-89684336D01*
X167023159Y-89915048D01*
X167022784Y-90121565D01*
X167022191Y-90305351D01*
X167021330Y-90467874D01*
X167020147Y-90610598D01*
X167018592Y-90734990D01*
X167016611Y-90842515D01*
X167014154Y-90934640D01*
X167011167Y-91012830D01*
X167007600Y-91078551D01*
X167003401Y-91133269D01*
X166998516Y-91178449D01*
X166992896Y-91215558D01*
X166986487Y-91246062D01*
X166979237Y-91271426D01*
X166971095Y-91293115D01*
X166962010Y-91312597D01*
X166951927Y-91331337D01*
X166940797Y-91350800D01*
X166933883Y-91362924D01*
X166888264Y-91443757D01*
X168030769Y-91443757D01*
X168030769Y-91316006D01*
X168031743Y-91258273D01*
X168034342Y-91214119D01*
X168038082Y-91190446D01*
X168039735Y-91188254D01*
X168054942Y-91197419D01*
X168085183Y-91221175D01*
X168115405Y-91246969D01*
X168188076Y-91301201D01*
X168280577Y-91355792D01*
X168383161Y-91405725D01*
X168486081Y-91445987D01*
X168527157Y-91458833D01*
X168618351Y-91478225D01*
X168728657Y-91491487D01*
X168847671Y-91498202D01*
X168964995Y-91497953D01*
X169070227Y-91490324D01*
X169120414Y-91482592D01*
X169304270Y-91431918D01*
X169473755Y-91355067D01*
X169627954Y-91252737D01*
X169765956Y-91125628D01*
X169886849Y-90974440D01*
X169975786Y-90826927D01*
X170048835Y-90671483D01*
X170104752Y-90512586D01*
X170144689Y-90344843D01*
X170169793Y-90162861D01*
X170181214Y-89961245D01*
X170182181Y-89858136D01*
X170179393Y-89782545D01*
X169075540Y-89782545D01*
X169075263Y-89906452D01*
X169071385Y-90023199D01*
X169063846Y-90125820D01*
X169052589Y-90207349D01*
X169049149Y-90223779D01*
X169006811Y-90366612D01*
X168951348Y-90482473D01*
X168882297Y-90571654D01*
X168799196Y-90634444D01*
X168701582Y-90671137D01*
X168588990Y-90682021D01*
X168460959Y-90667390D01*
X168376449Y-90646458D01*
X168311022Y-90622241D01*
X168238957Y-90587828D01*
X168184822Y-90556272D01*
X168090887Y-90494540D01*
X168090887Y-88963220D01*
X168180631Y-88905216D01*
X168285177Y-88850733D01*
X168397258Y-88815251D01*
X168510589Y-88799376D01*
X168618883Y-88803712D01*
X168715855Y-88828865D01*
X168758397Y-88849593D01*
X168835515Y-88906838D01*
X168900695Y-88982422D01*
X168955487Y-89079108D01*
X169001439Y-89199658D01*
X169040103Y-89346833D01*
X169041809Y-89354645D01*
X169055350Y-89437527D01*
X169065524Y-89541116D01*
X169072274Y-89658444D01*
X169075540Y-89782545D01*
X170179393Y-89782545D01*
X170171728Y-89574801D01*
X170142512Y-89314073D01*
X170094604Y-89076123D01*
X170028072Y-88861124D01*
X169942985Y-88669250D01*
X169839413Y-88500674D01*
X169717425Y-88355568D01*
X169577089Y-88234105D01*
X169516959Y-88192898D01*
X169382559Y-88118145D01*
X169245043Y-88065409D01*
X169098476Y-88033243D01*
X168936927Y-88020203D01*
X168813769Y-88021595D01*
X168641152Y-88036195D01*
X168491249Y-88065239D01*
X168359722Y-88110063D01*
X168242235Y-88172000D01*
X168177177Y-88217549D01*
X168138080Y-88246725D01*
X168109202Y-88266656D01*
X168098272Y-88272515D01*
X168096122Y-88258097D01*
X168094404Y-88217287D01*
X168093100Y-88153747D01*
X168092195Y-88071140D01*
X168091672Y-87973130D01*
X168091513Y-87863379D01*
X168091702Y-87745551D01*
X168092222Y-87623307D01*
X168093056Y-87500313D01*
X168094188Y-87380230D01*
X168095601Y-87266721D01*
X168097277Y-87163450D01*
X168099200Y-87074080D01*
X168101354Y-87002273D01*
X168103720Y-86951693D01*
X168104375Y-86942396D01*
X168114463Y-86848647D01*
X168129855Y-86775224D01*
X168153472Y-86712489D01*
X168188233Y-86650802D01*
X168196577Y-86638047D01*
X168229105Y-86589201D01*
X167023787Y-86589201D01*
X167023526Y-88832367D01*
G36*
X178286240Y-85576293D02*
X178158063Y-85608562D01*
X178042789Y-85665587D01*
X177943189Y-85745172D01*
X177862035Y-85845125D01*
X177802098Y-85963251D01*
X177767134Y-86091475D01*
X177759344Y-86220969D01*
X177779120Y-86345929D01*
X177823988Y-86462899D01*
X177891472Y-86568422D01*
X177979098Y-86659042D01*
X178084393Y-86731303D01*
X178204882Y-86781748D01*
X178273135Y-86798288D01*
X178332378Y-86808302D01*
X178378046Y-86812259D01*
X178421928Y-86809830D01*
X178475814Y-86800684D01*
X178519877Y-86791398D01*
X178644248Y-86749447D01*
X178755647Y-86681383D01*
X178851565Y-86589269D01*
X178929496Y-86475170D01*
X178948067Y-86438905D01*
X178969951Y-86390487D01*
X178983675Y-86349828D01*
X178991085Y-86307049D01*
X178994027Y-86252272D01*
X178994397Y-86190917D01*
X178988957Y-86078606D01*
X178971096Y-85986371D01*
X178937559Y-85905658D01*
X178885090Y-85827914D01*
X178833769Y-85768982D01*
X178738054Y-85681355D01*
X178638078Y-85620868D01*
X178527907Y-85584653D01*
X178424549Y-85570973D01*
X178286240Y-85576293D01*
X178286240Y-85576293D01*
G37*
X178286240Y-85576293D02*
X178158063Y-85608562D01*
X178042789Y-85665587D01*
X177943189Y-85745172D01*
X177862035Y-85845125D01*
X177802098Y-85963251D01*
X177767134Y-86091475D01*
X177759344Y-86220969D01*
X177779120Y-86345929D01*
X177823988Y-86462899D01*
X177891472Y-86568422D01*
X177979098Y-86659042D01*
X178084393Y-86731303D01*
X178204882Y-86781748D01*
X178273135Y-86798288D01*
X178332378Y-86808302D01*
X178378046Y-86812259D01*
X178421928Y-86809830D01*
X178475814Y-86800684D01*
X178519877Y-86791398D01*
X178644248Y-86749447D01*
X178755647Y-86681383D01*
X178851565Y-86589269D01*
X178929496Y-86475170D01*
X178948067Y-86438905D01*
X178969951Y-86390487D01*
X178983675Y-86349828D01*
X178991085Y-86307049D01*
X178994027Y-86252272D01*
X178994397Y-86190917D01*
X178988957Y-86078606D01*
X178971096Y-85986371D01*
X178937559Y-85905658D01*
X178885090Y-85827914D01*
X178833769Y-85768982D01*
X178738054Y-85681355D01*
X178638078Y-85620868D01*
X178527907Y-85584653D01*
X178424549Y-85570973D01*
X178286240Y-85576293D01*
G36*
X159441114Y-92754505D02*
X159366461Y-92791727D01*
X159300569Y-92860261D01*
X159282423Y-92885648D01*
X159262655Y-92918866D01*
X159249828Y-92954945D01*
X159242490Y-93003098D01*
X159239187Y-93072536D01*
X159238462Y-93164206D01*
X159241737Y-93289830D01*
X159253123Y-93384154D01*
X159274959Y-93454523D01*
X159309581Y-93508286D01*
X159359330Y-93552788D01*
X159362986Y-93555423D01*
X159412015Y-93582377D01*
X159471055Y-93595712D01*
X159546141Y-93599000D01*
X159668205Y-93599000D01*
X159668256Y-93717497D01*
X159669392Y-93783492D01*
X159676314Y-93822202D01*
X159694402Y-93845419D01*
X159729038Y-93864933D01*
X159737355Y-93868920D01*
X159776280Y-93887603D01*
X159806417Y-93899403D01*
X159828826Y-93900422D01*
X159844567Y-93886761D01*
X159854698Y-93854522D01*
X159860277Y-93799804D01*
X159862365Y-93718711D01*
X159862019Y-93607344D01*
X159860300Y-93461802D01*
X159859763Y-93418269D01*
X159857828Y-93268205D01*
X159856096Y-93170042D01*
X159668308Y-93170042D01*
X159667252Y-93253364D01*
X159662562Y-93307880D01*
X159651949Y-93343837D01*
X159633128Y-93371482D01*
X159620350Y-93384965D01*
X159568110Y-93424417D01*
X159521858Y-93427628D01*
X159474133Y-93395049D01*
X159472923Y-93393846D01*
X159453506Y-93368668D01*
X159441693Y-93334447D01*
X159435735Y-93281748D01*
X159433880Y-93201131D01*
X159433846Y-93183271D01*
X159438330Y-93072175D01*
X159452926Y-92995161D01*
X159479350Y-92948147D01*
X159519317Y-92927050D01*
X159542416Y-92924923D01*
X159597238Y-92934900D01*
X159634842Y-92967752D01*
X159657477Y-93027857D01*
X159667394Y-93119598D01*
X159668308Y-93170042D01*
X159856096Y-93170042D01*
X159855778Y-93152060D01*
X159853127Y-93064679D01*
X159849394Y-93000905D01*
X159844093Y-92955582D01*
X159836742Y-92923555D01*
X159826857Y-92899668D01*
X159813954Y-92878764D01*
X159808421Y-92870898D01*
X159735031Y-92796595D01*
X159642240Y-92754467D01*
X159534904Y-92742722D01*
X159441114Y-92754505D01*
X159441114Y-92754505D01*
G37*
X159441114Y-92754505D02*
X159366461Y-92791727D01*
X159300569Y-92860261D01*
X159282423Y-92885648D01*
X159262655Y-92918866D01*
X159249828Y-92954945D01*
X159242490Y-93003098D01*
X159239187Y-93072536D01*
X159238462Y-93164206D01*
X159241737Y-93289830D01*
X159253123Y-93384154D01*
X159274959Y-93454523D01*
X159309581Y-93508286D01*
X159359330Y-93552788D01*
X159362986Y-93555423D01*
X159412015Y-93582377D01*
X159471055Y-93595712D01*
X159546141Y-93599000D01*
X159668205Y-93599000D01*
X159668256Y-93717497D01*
X159669392Y-93783492D01*
X159676314Y-93822202D01*
X159694402Y-93845419D01*
X159729038Y-93864933D01*
X159737355Y-93868920D01*
X159776280Y-93887603D01*
X159806417Y-93899403D01*
X159828826Y-93900422D01*
X159844567Y-93886761D01*
X159854698Y-93854522D01*
X159860277Y-93799804D01*
X159862365Y-93718711D01*
X159862019Y-93607344D01*
X159860300Y-93461802D01*
X159859763Y-93418269D01*
X159857828Y-93268205D01*
X159856096Y-93170042D01*
X159668308Y-93170042D01*
X159667252Y-93253364D01*
X159662562Y-93307880D01*
X159651949Y-93343837D01*
X159633128Y-93371482D01*
X159620350Y-93384965D01*
X159568110Y-93424417D01*
X159521858Y-93427628D01*
X159474133Y-93395049D01*
X159472923Y-93393846D01*
X159453506Y-93368668D01*
X159441693Y-93334447D01*
X159435735Y-93281748D01*
X159433880Y-93201131D01*
X159433846Y-93183271D01*
X159438330Y-93072175D01*
X159452926Y-92995161D01*
X159479350Y-92948147D01*
X159519317Y-92927050D01*
X159542416Y-92924923D01*
X159597238Y-92934900D01*
X159634842Y-92967752D01*
X159657477Y-93027857D01*
X159667394Y-93119598D01*
X159668308Y-93170042D01*
X159856096Y-93170042D01*
X159855778Y-93152060D01*
X159853127Y-93064679D01*
X159849394Y-93000905D01*
X159844093Y-92955582D01*
X159836742Y-92923555D01*
X159826857Y-92899668D01*
X159813954Y-92878764D01*
X159808421Y-92870898D01*
X159735031Y-92796595D01*
X159642240Y-92754467D01*
X159534904Y-92742722D01*
X159441114Y-92754505D01*
G36*
X157938336Y-92765089D02*
X157875633Y-92801358D01*
X157832039Y-92837358D01*
X157800155Y-92875075D01*
X157778190Y-92921199D01*
X157764351Y-92982421D01*
X157756847Y-93065431D01*
X157753883Y-93176919D01*
X157753539Y-93257062D01*
X157753539Y-93552065D01*
X157919615Y-93626515D01*
X157929385Y-93303402D01*
X157933421Y-93182729D01*
X157937656Y-93095141D01*
X157942903Y-93034650D01*
X157949975Y-92995268D01*
X157959689Y-92971007D01*
X157972856Y-92955880D01*
X157977081Y-92952606D01*
X158041091Y-92927034D01*
X158105792Y-92937153D01*
X158144308Y-92964000D01*
X158159975Y-92983024D01*
X158170820Y-93007988D01*
X158177712Y-93045834D01*
X158181521Y-93103502D01*
X158183117Y-93187935D01*
X158183385Y-93275928D01*
X158183437Y-93386323D01*
X158185328Y-93464463D01*
X158191655Y-93517165D01*
X158205017Y-93551242D01*
X158228015Y-93573511D01*
X158263246Y-93590787D01*
X158310303Y-93608738D01*
X158361697Y-93628278D01*
X158355579Y-93281485D01*
X158353116Y-93156468D01*
X158350233Y-93064082D01*
X158346102Y-92997881D01*
X158339893Y-92951420D01*
X158330774Y-92918256D01*
X158317917Y-92891944D01*
X158302416Y-92868729D01*
X158227629Y-92794569D01*
X158136372Y-92751684D01*
X158037117Y-92741412D01*
X157938336Y-92765089D01*
X157938336Y-92765089D01*
G37*
X157938336Y-92765089D02*
X157875633Y-92801358D01*
X157832039Y-92837358D01*
X157800155Y-92875075D01*
X157778190Y-92921199D01*
X157764351Y-92982421D01*
X157756847Y-93065431D01*
X157753883Y-93176919D01*
X157753539Y-93257062D01*
X157753539Y-93552065D01*
X157919615Y-93626515D01*
X157929385Y-93303402D01*
X157933421Y-93182729D01*
X157937656Y-93095141D01*
X157942903Y-93034650D01*
X157949975Y-92995268D01*
X157959689Y-92971007D01*
X157972856Y-92955880D01*
X157977081Y-92952606D01*
X158041091Y-92927034D01*
X158105792Y-92937153D01*
X158144308Y-92964000D01*
X158159975Y-92983024D01*
X158170820Y-93007988D01*
X158177712Y-93045834D01*
X158181521Y-93103502D01*
X158183117Y-93187935D01*
X158183385Y-93275928D01*
X158183437Y-93386323D01*
X158185328Y-93464463D01*
X158191655Y-93517165D01*
X158205017Y-93551242D01*
X158228015Y-93573511D01*
X158263246Y-93590787D01*
X158310303Y-93608738D01*
X158361697Y-93628278D01*
X158355579Y-93281485D01*
X158353116Y-93156468D01*
X158350233Y-93064082D01*
X158346102Y-92997881D01*
X158339893Y-92951420D01*
X158330774Y-92918256D01*
X158317917Y-92891944D01*
X158302416Y-92868729D01*
X158227629Y-92794569D01*
X158136372Y-92751684D01*
X158037117Y-92741412D01*
X157938336Y-92765089D01*
G36*
X160193114Y-92757256D02*
X160101536Y-92805409D01*
X160033951Y-92882905D01*
X160009943Y-92932727D01*
X159991262Y-93007533D01*
X159981699Y-93102052D01*
X159980792Y-93205210D01*
X159988079Y-93305935D01*
X160003097Y-93393153D01*
X160025385Y-93455791D01*
X160032235Y-93466579D01*
X160113368Y-93547105D01*
X160209734Y-93595336D01*
X160314299Y-93609450D01*
X160420032Y-93587629D01*
X160449457Y-93574547D01*
X160506759Y-93534231D01*
X160557050Y-93480775D01*
X160561803Y-93473995D01*
X160581122Y-93441321D01*
X160593892Y-93406394D01*
X160601436Y-93360414D01*
X160605076Y-93294584D01*
X160606135Y-93200105D01*
X160606154Y-93178923D01*
X160606106Y-93172182D01*
X160410769Y-93172182D01*
X160409632Y-93261349D01*
X160405159Y-93320520D01*
X160395754Y-93358741D01*
X160379824Y-93385053D01*
X160371692Y-93393846D01*
X160324942Y-93427261D01*
X160279553Y-93425737D01*
X160233660Y-93396752D01*
X160206288Y-93365809D01*
X160190077Y-93320643D01*
X160180974Y-93249420D01*
X160180349Y-93241114D01*
X160178796Y-93112037D01*
X160195035Y-93016172D01*
X160228848Y-92954107D01*
X160280016Y-92926432D01*
X160298280Y-92924923D01*
X160346240Y-92932513D01*
X160379047Y-92958808D01*
X160399105Y-93009095D01*
X160408822Y-93088664D01*
X160410769Y-93172182D01*
X160606106Y-93172182D01*
X160605426Y-93078249D01*
X160602371Y-93007906D01*
X160595678Y-92959163D01*
X160584040Y-92923288D01*
X160566147Y-92891548D01*
X160562192Y-92885648D01*
X160495733Y-92806104D01*
X160423315Y-92759929D01*
X160335151Y-92741599D01*
X160305213Y-92740703D01*
X160193114Y-92757256D01*
X160193114Y-92757256D01*
G37*
X160193114Y-92757256D02*
X160101536Y-92805409D01*
X160033951Y-92882905D01*
X160009943Y-92932727D01*
X159991262Y-93007533D01*
X159981699Y-93102052D01*
X159980792Y-93205210D01*
X159988079Y-93305935D01*
X160003097Y-93393153D01*
X160025385Y-93455791D01*
X160032235Y-93466579D01*
X160113368Y-93547105D01*
X160209734Y-93595336D01*
X160314299Y-93609450D01*
X160420032Y-93587629D01*
X160449457Y-93574547D01*
X160506759Y-93534231D01*
X160557050Y-93480775D01*
X160561803Y-93473995D01*
X160581122Y-93441321D01*
X160593892Y-93406394D01*
X160601436Y-93360414D01*
X160605076Y-93294584D01*
X160606135Y-93200105D01*
X160606154Y-93178923D01*
X160606106Y-93172182D01*
X160410769Y-93172182D01*
X160409632Y-93261349D01*
X160405159Y-93320520D01*
X160395754Y-93358741D01*
X160379824Y-93385053D01*
X160371692Y-93393846D01*
X160324942Y-93427261D01*
X160279553Y-93425737D01*
X160233660Y-93396752D01*
X160206288Y-93365809D01*
X160190077Y-93320643D01*
X160180974Y-93249420D01*
X160180349Y-93241114D01*
X160178796Y-93112037D01*
X160195035Y-93016172D01*
X160228848Y-92954107D01*
X160280016Y-92926432D01*
X160298280Y-92924923D01*
X160346240Y-92932513D01*
X160379047Y-92958808D01*
X160399105Y-93009095D01*
X160408822Y-93088664D01*
X160410769Y-93172182D01*
X160606106Y-93172182D01*
X160605426Y-93078249D01*
X160602371Y-93007906D01*
X160595678Y-92959163D01*
X160584040Y-92923288D01*
X160566147Y-92891548D01*
X160562192Y-92885648D01*
X160495733Y-92806104D01*
X160423315Y-92759929D01*
X160335151Y-92741599D01*
X160305213Y-92740703D01*
X160193114Y-92757256D01*
G36*
X158675746Y-92769745D02*
X158598714Y-92821567D01*
X158539184Y-92896412D01*
X158503622Y-92991654D01*
X158496429Y-93061756D01*
X158497246Y-93091009D01*
X158504086Y-93113407D01*
X158522888Y-93133474D01*
X158559592Y-93155733D01*
X158620138Y-93184709D01*
X158710466Y-93224927D01*
X158710923Y-93225129D01*
X158794067Y-93263210D01*
X158862247Y-93297025D01*
X158908495Y-93322933D01*
X158925842Y-93337295D01*
X158925846Y-93337411D01*
X158910557Y-93368685D01*
X158874804Y-93403157D01*
X158833758Y-93427990D01*
X158812963Y-93432923D01*
X158756230Y-93415862D01*
X158707373Y-93373133D01*
X158683535Y-93326155D01*
X158660603Y-93291522D01*
X158615682Y-93252081D01*
X158562877Y-93218009D01*
X158516290Y-93199480D01*
X158506548Y-93198462D01*
X158495582Y-93215215D01*
X158494921Y-93258039D01*
X158502980Y-93315781D01*
X158518173Y-93377289D01*
X158538914Y-93431409D01*
X158539962Y-93433510D01*
X158602379Y-93520660D01*
X158683274Y-93579939D01*
X158775144Y-93609034D01*
X158870487Y-93605634D01*
X158961802Y-93567428D01*
X158965862Y-93564741D01*
X159037694Y-93499642D01*
X159084927Y-93414705D01*
X159111066Y-93303021D01*
X159114574Y-93271643D01*
X159120787Y-93123536D01*
X159113339Y-93054468D01*
X158925846Y-93054468D01*
X158923410Y-93097552D01*
X158910086Y-93110126D01*
X158876868Y-93100719D01*
X158824506Y-93078483D01*
X158765976Y-93050610D01*
X158764521Y-93049872D01*
X158714911Y-93023777D01*
X158695000Y-93006363D01*
X158699910Y-92988107D01*
X158720584Y-92964120D01*
X158773181Y-92929406D01*
X158829823Y-92926856D01*
X158880631Y-92952119D01*
X158915724Y-93000847D01*
X158925846Y-93054468D01*
X159113339Y-93054468D01*
X159108008Y-93005036D01*
X159075222Y-92911055D01*
X159029579Y-92845215D01*
X158947198Y-92778681D01*
X158856454Y-92745676D01*
X158763815Y-92743573D01*
X158675746Y-92769745D01*
X158675746Y-92769745D01*
G37*
X158675746Y-92769745D02*
X158598714Y-92821567D01*
X158539184Y-92896412D01*
X158503622Y-92991654D01*
X158496429Y-93061756D01*
X158497246Y-93091009D01*
X158504086Y-93113407D01*
X158522888Y-93133474D01*
X158559592Y-93155733D01*
X158620138Y-93184709D01*
X158710466Y-93224927D01*
X158710923Y-93225129D01*
X158794067Y-93263210D01*
X158862247Y-93297025D01*
X158908495Y-93322933D01*
X158925842Y-93337295D01*
X158925846Y-93337411D01*
X158910557Y-93368685D01*
X158874804Y-93403157D01*
X158833758Y-93427990D01*
X158812963Y-93432923D01*
X158756230Y-93415862D01*
X158707373Y-93373133D01*
X158683535Y-93326155D01*
X158660603Y-93291522D01*
X158615682Y-93252081D01*
X158562877Y-93218009D01*
X158516290Y-93199480D01*
X158506548Y-93198462D01*
X158495582Y-93215215D01*
X158494921Y-93258039D01*
X158502980Y-93315781D01*
X158518173Y-93377289D01*
X158538914Y-93431409D01*
X158539962Y-93433510D01*
X158602379Y-93520660D01*
X158683274Y-93579939D01*
X158775144Y-93609034D01*
X158870487Y-93605634D01*
X158961802Y-93567428D01*
X158965862Y-93564741D01*
X159037694Y-93499642D01*
X159084927Y-93414705D01*
X159111066Y-93303021D01*
X159114574Y-93271643D01*
X159120787Y-93123536D01*
X159113339Y-93054468D01*
X158925846Y-93054468D01*
X158923410Y-93097552D01*
X158910086Y-93110126D01*
X158876868Y-93100719D01*
X158824506Y-93078483D01*
X158765976Y-93050610D01*
X158764521Y-93049872D01*
X158714911Y-93023777D01*
X158695000Y-93006363D01*
X158699910Y-92988107D01*
X158720584Y-92964120D01*
X158773181Y-92929406D01*
X158829823Y-92926856D01*
X158880631Y-92952119D01*
X158915724Y-93000847D01*
X158925846Y-93054468D01*
X159113339Y-93054468D01*
X159108008Y-93005036D01*
X159075222Y-92911055D01*
X159029579Y-92845215D01*
X158947198Y-92778681D01*
X158856454Y-92745676D01*
X158763815Y-92743573D01*
X158675746Y-92769745D01*
G36*
X157050154Y-92662120D02*
X157044428Y-92741980D01*
X157037851Y-92789039D01*
X157028738Y-92809566D01*
X157015402Y-92809829D01*
X157011077Y-92807378D01*
X156953556Y-92789636D01*
X156878732Y-92790672D01*
X156802661Y-92808910D01*
X156755082Y-92832505D01*
X156706298Y-92870198D01*
X156670636Y-92912855D01*
X156646155Y-92967057D01*
X156630913Y-93039384D01*
X156622970Y-93136419D01*
X156620384Y-93264742D01*
X156620338Y-93289358D01*
X156620308Y-93565870D01*
X156681839Y-93587320D01*
X156725541Y-93601912D01*
X156749518Y-93608706D01*
X156750223Y-93608769D01*
X156752585Y-93590345D01*
X156754594Y-93539526D01*
X156756099Y-93462993D01*
X156756947Y-93367430D01*
X156757077Y-93309329D01*
X156757349Y-93194771D01*
X156758748Y-93112667D01*
X156762151Y-93056393D01*
X156768433Y-93019326D01*
X156778471Y-92994844D01*
X156793139Y-92976325D01*
X156802298Y-92967406D01*
X156865211Y-92931466D01*
X156933864Y-92928775D01*
X156996152Y-92959170D01*
X157007671Y-92970144D01*
X157024567Y-92990779D01*
X157036286Y-93015256D01*
X157043767Y-93050647D01*
X157047946Y-93104026D01*
X157049763Y-93182466D01*
X157050154Y-93290617D01*
X157050154Y-93565870D01*
X157111685Y-93587320D01*
X157155387Y-93601912D01*
X157179364Y-93608706D01*
X157180070Y-93608769D01*
X157181874Y-93590069D01*
X157183500Y-93537322D01*
X157184883Y-93455557D01*
X157185958Y-93349805D01*
X157186660Y-93225094D01*
X157186923Y-93086455D01*
X157186923Y-92551806D01*
X157059923Y-92498236D01*
X157050154Y-92662120D01*
X157050154Y-92662120D01*
G37*
X157050154Y-92662120D02*
X157044428Y-92741980D01*
X157037851Y-92789039D01*
X157028738Y-92809566D01*
X157015402Y-92809829D01*
X157011077Y-92807378D01*
X156953556Y-92789636D01*
X156878732Y-92790672D01*
X156802661Y-92808910D01*
X156755082Y-92832505D01*
X156706298Y-92870198D01*
X156670636Y-92912855D01*
X156646155Y-92967057D01*
X156630913Y-93039384D01*
X156622970Y-93136419D01*
X156620384Y-93264742D01*
X156620338Y-93289358D01*
X156620308Y-93565870D01*
X156681839Y-93587320D01*
X156725541Y-93601912D01*
X156749518Y-93608706D01*
X156750223Y-93608769D01*
X156752585Y-93590345D01*
X156754594Y-93539526D01*
X156756099Y-93462993D01*
X156756947Y-93367430D01*
X156757077Y-93309329D01*
X156757349Y-93194771D01*
X156758748Y-93112667D01*
X156762151Y-93056393D01*
X156768433Y-93019326D01*
X156778471Y-92994844D01*
X156793139Y-92976325D01*
X156802298Y-92967406D01*
X156865211Y-92931466D01*
X156933864Y-92928775D01*
X156996152Y-92959170D01*
X157007671Y-92970144D01*
X157024567Y-92990779D01*
X157036286Y-93015256D01*
X157043767Y-93050647D01*
X157047946Y-93104026D01*
X157049763Y-93182466D01*
X157050154Y-93290617D01*
X157050154Y-93565870D01*
X157111685Y-93587320D01*
X157155387Y-93601912D01*
X157179364Y-93608706D01*
X157180070Y-93608769D01*
X157181874Y-93590069D01*
X157183500Y-93537322D01*
X157184883Y-93455557D01*
X157185958Y-93349805D01*
X157186660Y-93225094D01*
X157186923Y-93086455D01*
X157186923Y-92551806D01*
X157059923Y-92498236D01*
X157050154Y-92662120D01*
G36*
X156156499Y-92796303D02*
X156079940Y-92824733D01*
X156079064Y-92825279D01*
X156031715Y-92860127D01*
X155996759Y-92900852D01*
X155972175Y-92953925D01*
X155955938Y-93025814D01*
X155946025Y-93122992D01*
X155940414Y-93251928D01*
X155939923Y-93270298D01*
X155932859Y-93547287D01*
X155992305Y-93578028D01*
X156035319Y-93598802D01*
X156061290Y-93608646D01*
X156062491Y-93608769D01*
X156066986Y-93590606D01*
X156070556Y-93541612D01*
X156072752Y-93470031D01*
X156073231Y-93412068D01*
X156073242Y-93318170D01*
X156077534Y-93259203D01*
X156092497Y-93231079D01*
X156124518Y-93229706D01*
X156179986Y-93250998D01*
X156263731Y-93290136D01*
X156325311Y-93322643D01*
X156356983Y-93350845D01*
X156366294Y-93381582D01*
X156366308Y-93383104D01*
X156350943Y-93436054D01*
X156305453Y-93464660D01*
X156235834Y-93468803D01*
X156185687Y-93468084D01*
X156159246Y-93482527D01*
X156142757Y-93517218D01*
X156133267Y-93561416D01*
X156146943Y-93586493D01*
X156152093Y-93590082D01*
X156200575Y-93604496D01*
X156268469Y-93606537D01*
X156338388Y-93596983D01*
X156387932Y-93579522D01*
X156456430Y-93521364D01*
X156495366Y-93440408D01*
X156503077Y-93377160D01*
X156497193Y-93320111D01*
X156475899Y-93273542D01*
X156433735Y-93232181D01*
X156365241Y-93190755D01*
X156264956Y-93143993D01*
X156258846Y-93141350D01*
X156168510Y-93099617D01*
X156112765Y-93065391D01*
X156088871Y-93034635D01*
X156094087Y-93003311D01*
X156125672Y-92967383D01*
X156135117Y-92959116D01*
X156198383Y-92927058D01*
X156263936Y-92928407D01*
X156321028Y-92959838D01*
X156358907Y-93018024D01*
X156362426Y-93029446D01*
X156396700Y-93084837D01*
X156440191Y-93111518D01*
X156503077Y-93137960D01*
X156503077Y-93069548D01*
X156483948Y-92970110D01*
X156427169Y-92878902D01*
X156397622Y-92848389D01*
X156330458Y-92809228D01*
X156245044Y-92791500D01*
X156156499Y-92796303D01*
X156156499Y-92796303D01*
G37*
X156156499Y-92796303D02*
X156079940Y-92824733D01*
X156079064Y-92825279D01*
X156031715Y-92860127D01*
X155996759Y-92900852D01*
X155972175Y-92953925D01*
X155955938Y-93025814D01*
X155946025Y-93122992D01*
X155940414Y-93251928D01*
X155939923Y-93270298D01*
X155932859Y-93547287D01*
X155992305Y-93578028D01*
X156035319Y-93598802D01*
X156061290Y-93608646D01*
X156062491Y-93608769D01*
X156066986Y-93590606D01*
X156070556Y-93541612D01*
X156072752Y-93470031D01*
X156073231Y-93412068D01*
X156073242Y-93318170D01*
X156077534Y-93259203D01*
X156092497Y-93231079D01*
X156124518Y-93229706D01*
X156179986Y-93250998D01*
X156263731Y-93290136D01*
X156325311Y-93322643D01*
X156356983Y-93350845D01*
X156366294Y-93381582D01*
X156366308Y-93383104D01*
X156350943Y-93436054D01*
X156305453Y-93464660D01*
X156235834Y-93468803D01*
X156185687Y-93468084D01*
X156159246Y-93482527D01*
X156142757Y-93517218D01*
X156133267Y-93561416D01*
X156146943Y-93586493D01*
X156152093Y-93590082D01*
X156200575Y-93604496D01*
X156268469Y-93606537D01*
X156338388Y-93596983D01*
X156387932Y-93579522D01*
X156456430Y-93521364D01*
X156495366Y-93440408D01*
X156503077Y-93377160D01*
X156497193Y-93320111D01*
X156475899Y-93273542D01*
X156433735Y-93232181D01*
X156365241Y-93190755D01*
X156264956Y-93143993D01*
X156258846Y-93141350D01*
X156168510Y-93099617D01*
X156112765Y-93065391D01*
X156088871Y-93034635D01*
X156094087Y-93003311D01*
X156125672Y-92967383D01*
X156135117Y-92959116D01*
X156198383Y-92927058D01*
X156263936Y-92928407D01*
X156321028Y-92959838D01*
X156358907Y-93018024D01*
X156362426Y-93029446D01*
X156396700Y-93084837D01*
X156440191Y-93111518D01*
X156503077Y-93137960D01*
X156503077Y-93069548D01*
X156483948Y-92970110D01*
X156427169Y-92878902D01*
X156397622Y-92848389D01*
X156330458Y-92809228D01*
X156245044Y-92791500D01*
X156156499Y-92796303D01*
G36*
X155496638Y-92794670D02*
X155407883Y-92827421D01*
X155335978Y-92885350D01*
X155307856Y-92926128D01*
X155277198Y-93000954D01*
X155277835Y-93055058D01*
X155310013Y-93091446D01*
X155321919Y-93097633D01*
X155373325Y-93116925D01*
X155399578Y-93111982D01*
X155408470Y-93079587D01*
X155408923Y-93061692D01*
X155425203Y-92995859D01*
X155467635Y-92949807D01*
X155526612Y-92927564D01*
X155592525Y-92933161D01*
X155646105Y-92962229D01*
X155664202Y-92978810D01*
X155677029Y-92998925D01*
X155685694Y-93029332D01*
X155691304Y-93076788D01*
X155694965Y-93148050D01*
X155697785Y-93249875D01*
X155698516Y-93282115D01*
X155701180Y-93392410D01*
X155704208Y-93470036D01*
X155708750Y-93521396D01*
X155715954Y-93552890D01*
X155726967Y-93570920D01*
X155742940Y-93581888D01*
X155753166Y-93586733D01*
X155796594Y-93603301D01*
X155822158Y-93608769D01*
X155830605Y-93590507D01*
X155835761Y-93535296D01*
X155837654Y-93442499D01*
X155836311Y-93311478D01*
X155835893Y-93291269D01*
X155832942Y-93171733D01*
X155829452Y-93084449D01*
X155824486Y-93022591D01*
X155817107Y-92979336D01*
X155806376Y-92947860D01*
X155791355Y-92921339D01*
X155783498Y-92909975D01*
X155738447Y-92859692D01*
X155688060Y-92820581D01*
X155681892Y-92817167D01*
X155591542Y-92790212D01*
X155496638Y-92794670D01*
X155496638Y-92794670D01*
G37*
X155496638Y-92794670D02*
X155407883Y-92827421D01*
X155335978Y-92885350D01*
X155307856Y-92926128D01*
X155277198Y-93000954D01*
X155277835Y-93055058D01*
X155310013Y-93091446D01*
X155321919Y-93097633D01*
X155373325Y-93116925D01*
X155399578Y-93111982D01*
X155408470Y-93079587D01*
X155408923Y-93061692D01*
X155425203Y-92995859D01*
X155467635Y-92949807D01*
X155526612Y-92927564D01*
X155592525Y-92933161D01*
X155646105Y-92962229D01*
X155664202Y-92978810D01*
X155677029Y-92998925D01*
X155685694Y-93029332D01*
X155691304Y-93076788D01*
X155694965Y-93148050D01*
X155697785Y-93249875D01*
X155698516Y-93282115D01*
X155701180Y-93392410D01*
X155704208Y-93470036D01*
X155708750Y-93521396D01*
X155715954Y-93552890D01*
X155726967Y-93570920D01*
X155742940Y-93581888D01*
X155753166Y-93586733D01*
X155796594Y-93603301D01*
X155822158Y-93608769D01*
X155830605Y-93590507D01*
X155835761Y-93535296D01*
X155837654Y-93442499D01*
X155836311Y-93311478D01*
X155835893Y-93291269D01*
X155832942Y-93171733D01*
X155829452Y-93084449D01*
X155824486Y-93022591D01*
X155817107Y-92979336D01*
X155806376Y-92947860D01*
X155791355Y-92921339D01*
X155783498Y-92909975D01*
X155738447Y-92859692D01*
X155688060Y-92820581D01*
X155681892Y-92817167D01*
X155591542Y-92790212D01*
X155496638Y-92794670D01*
G36*
X154607919Y-92950289D02*
X154608167Y-93096320D01*
X154609128Y-93208655D01*
X154611206Y-93292678D01*
X154614807Y-93353769D01*
X154620335Y-93397309D01*
X154628196Y-93428679D01*
X154638793Y-93453262D01*
X154646818Y-93467294D01*
X154713272Y-93543388D01*
X154797530Y-93591084D01*
X154890751Y-93608199D01*
X154984100Y-93592546D01*
X155039688Y-93564418D01*
X155098043Y-93515760D01*
X155137814Y-93456333D01*
X155161810Y-93378507D01*
X155172839Y-93274652D01*
X155174401Y-93198462D01*
X155174191Y-93192986D01*
X155037692Y-93192986D01*
X155036859Y-93280355D01*
X155033039Y-93338192D01*
X155024254Y-93376029D01*
X155008526Y-93403398D01*
X154989734Y-93424042D01*
X154926625Y-93463890D01*
X154858863Y-93467295D01*
X154794821Y-93434025D01*
X154789836Y-93429517D01*
X154768561Y-93406067D01*
X154755221Y-93378166D01*
X154747999Y-93336641D01*
X154745077Y-93272316D01*
X154744615Y-93201200D01*
X154745617Y-93111858D01*
X154749762Y-93052258D01*
X154758764Y-93013089D01*
X154774333Y-92985040D01*
X154787098Y-92970144D01*
X154846400Y-92932575D01*
X154914699Y-92928057D01*
X154979890Y-92956753D01*
X154992472Y-92967406D01*
X155013889Y-92991063D01*
X155027256Y-93019251D01*
X155034434Y-93061245D01*
X155037281Y-93126319D01*
X155037692Y-93192986D01*
X155174191Y-93192986D01*
X155169678Y-93075765D01*
X155153638Y-92983577D01*
X155123472Y-92914269D01*
X155076371Y-92860211D01*
X155039688Y-92832505D01*
X154973010Y-92802572D01*
X154895728Y-92788678D01*
X154823890Y-92792397D01*
X154783692Y-92807400D01*
X154767918Y-92811670D01*
X154757450Y-92795750D01*
X154750144Y-92753089D01*
X154744615Y-92688106D01*
X154738563Y-92615732D01*
X154730156Y-92572187D01*
X154714859Y-92547287D01*
X154688136Y-92530845D01*
X154671346Y-92523564D01*
X154607846Y-92496963D01*
X154607919Y-92950289D01*
X154607919Y-92950289D01*
G37*
X154607919Y-92950289D02*
X154608167Y-93096320D01*
X154609128Y-93208655D01*
X154611206Y-93292678D01*
X154614807Y-93353769D01*
X154620335Y-93397309D01*
X154628196Y-93428679D01*
X154638793Y-93453262D01*
X154646818Y-93467294D01*
X154713272Y-93543388D01*
X154797530Y-93591084D01*
X154890751Y-93608199D01*
X154984100Y-93592546D01*
X155039688Y-93564418D01*
X155098043Y-93515760D01*
X155137814Y-93456333D01*
X155161810Y-93378507D01*
X155172839Y-93274652D01*
X155174401Y-93198462D01*
X155174191Y-93192986D01*
X155037692Y-93192986D01*
X155036859Y-93280355D01*
X155033039Y-93338192D01*
X155024254Y-93376029D01*
X155008526Y-93403398D01*
X154989734Y-93424042D01*
X154926625Y-93463890D01*
X154858863Y-93467295D01*
X154794821Y-93434025D01*
X154789836Y-93429517D01*
X154768561Y-93406067D01*
X154755221Y-93378166D01*
X154747999Y-93336641D01*
X154745077Y-93272316D01*
X154744615Y-93201200D01*
X154745617Y-93111858D01*
X154749762Y-93052258D01*
X154758764Y-93013089D01*
X154774333Y-92985040D01*
X154787098Y-92970144D01*
X154846400Y-92932575D01*
X154914699Y-92928057D01*
X154979890Y-92956753D01*
X154992472Y-92967406D01*
X155013889Y-92991063D01*
X155027256Y-93019251D01*
X155034434Y-93061245D01*
X155037281Y-93126319D01*
X155037692Y-93192986D01*
X155174191Y-93192986D01*
X155169678Y-93075765D01*
X155153638Y-92983577D01*
X155123472Y-92914269D01*
X155076371Y-92860211D01*
X155039688Y-92832505D01*
X154973010Y-92802572D01*
X154895728Y-92788678D01*
X154823890Y-92792397D01*
X154783692Y-92807400D01*
X154767918Y-92811670D01*
X154757450Y-92795750D01*
X154750144Y-92753089D01*
X154744615Y-92688106D01*
X154738563Y-92615732D01*
X154730156Y-92572187D01*
X154714859Y-92547287D01*
X154688136Y-92530845D01*
X154671346Y-92523564D01*
X154607846Y-92496963D01*
X154607919Y-92950289D01*
G36*
X153814071Y-92806662D02*
X153811089Y-92858068D01*
X153808753Y-92936192D01*
X153807251Y-93034857D01*
X153806769Y-93138343D01*
X153806769Y-93488533D01*
X153868599Y-93550363D01*
X153911207Y-93588462D01*
X153948610Y-93603895D01*
X153999730Y-93602918D01*
X154020022Y-93600433D01*
X154083446Y-93593200D01*
X154135905Y-93589055D01*
X154148692Y-93588672D01*
X154191801Y-93591176D01*
X154253456Y-93597462D01*
X154277362Y-93600433D01*
X154336078Y-93605028D01*
X154375536Y-93595046D01*
X154414662Y-93564228D01*
X154428785Y-93550363D01*
X154490615Y-93488533D01*
X154490615Y-92833503D01*
X154440850Y-92810829D01*
X154397998Y-92794034D01*
X154372927Y-92788154D01*
X154366499Y-92806736D01*
X154360491Y-92858655D01*
X154355303Y-92938172D01*
X154351336Y-93039546D01*
X154349423Y-93125192D01*
X154344077Y-93462231D01*
X154297440Y-93468825D01*
X154255024Y-93464214D01*
X154234240Y-93449287D01*
X154228430Y-93421377D01*
X154223470Y-93361925D01*
X154219754Y-93278466D01*
X154217676Y-93178532D01*
X154217376Y-93127104D01*
X154217077Y-92831054D01*
X154155546Y-92809604D01*
X154111996Y-92795020D01*
X154088306Y-92788219D01*
X154087623Y-92788154D01*
X154085246Y-92806642D01*
X154082634Y-92857906D01*
X154080005Y-92935649D01*
X154077579Y-93033574D01*
X154075885Y-93125192D01*
X154070539Y-93462231D01*
X153953308Y-93462231D01*
X153947928Y-93154746D01*
X153942549Y-92847261D01*
X153885399Y-92817707D01*
X153843203Y-92797413D01*
X153818230Y-92788204D01*
X153817509Y-92788154D01*
X153814071Y-92806662D01*
X153814071Y-92806662D01*
G37*
X153814071Y-92806662D02*
X153811089Y-92858068D01*
X153808753Y-92936192D01*
X153807251Y-93034857D01*
X153806769Y-93138343D01*
X153806769Y-93488533D01*
X153868599Y-93550363D01*
X153911207Y-93588462D01*
X153948610Y-93603895D01*
X153999730Y-93602918D01*
X154020022Y-93600433D01*
X154083446Y-93593200D01*
X154135905Y-93589055D01*
X154148692Y-93588672D01*
X154191801Y-93591176D01*
X154253456Y-93597462D01*
X154277362Y-93600433D01*
X154336078Y-93605028D01*
X154375536Y-93595046D01*
X154414662Y-93564228D01*
X154428785Y-93550363D01*
X154490615Y-93488533D01*
X154490615Y-92833503D01*
X154440850Y-92810829D01*
X154397998Y-92794034D01*
X154372927Y-92788154D01*
X154366499Y-92806736D01*
X154360491Y-92858655D01*
X154355303Y-92938172D01*
X154351336Y-93039546D01*
X154349423Y-93125192D01*
X154344077Y-93462231D01*
X154297440Y-93468825D01*
X154255024Y-93464214D01*
X154234240Y-93449287D01*
X154228430Y-93421377D01*
X154223470Y-93361925D01*
X154219754Y-93278466D01*
X154217676Y-93178532D01*
X154217376Y-93127104D01*
X154217077Y-92831054D01*
X154155546Y-92809604D01*
X154111996Y-92795020D01*
X154088306Y-92788219D01*
X154087623Y-92788154D01*
X154085246Y-92806642D01*
X154082634Y-92857906D01*
X154080005Y-92935649D01*
X154077579Y-93033574D01*
X154075885Y-93125192D01*
X154070539Y-93462231D01*
X153953308Y-93462231D01*
X153947928Y-93154746D01*
X153942549Y-92847261D01*
X153885399Y-92817707D01*
X153843203Y-92797413D01*
X153818230Y-92788204D01*
X153817509Y-92788154D01*
X153814071Y-92806662D01*
G36*
X153322667Y-92803528D02*
X153266410Y-92829117D01*
X153222253Y-92860124D01*
X153189899Y-92894795D01*
X153167562Y-92939520D01*
X153153454Y-93000692D01*
X153145789Y-93084701D01*
X153142780Y-93197940D01*
X153142462Y-93272509D01*
X153142462Y-93563420D01*
X153192227Y-93586095D01*
X153231424Y-93602667D01*
X153250843Y-93608769D01*
X153254558Y-93590610D01*
X153257505Y-93541648D01*
X153259309Y-93470153D01*
X153259692Y-93413385D01*
X153261339Y-93331371D01*
X153265778Y-93266309D01*
X153272260Y-93226467D01*
X153277410Y-93218000D01*
X153312023Y-93226646D01*
X153366360Y-93248823D01*
X153429278Y-93278886D01*
X153489632Y-93311192D01*
X153536279Y-93340098D01*
X153558074Y-93359961D01*
X153558161Y-93360175D01*
X153556286Y-93396935D01*
X153539475Y-93432026D01*
X153509961Y-93460528D01*
X153466884Y-93470061D01*
X153430068Y-93468950D01*
X153377926Y-93468133D01*
X153350556Y-93480349D01*
X153334118Y-93512624D01*
X153332045Y-93518710D01*
X153324919Y-93564739D01*
X153343976Y-93592687D01*
X153393647Y-93606007D01*
X153447303Y-93608470D01*
X153543858Y-93590210D01*
X153593841Y-93564131D01*
X153655571Y-93502868D01*
X153688310Y-93427670D01*
X153691247Y-93348211D01*
X153663576Y-93274167D01*
X153621953Y-93227769D01*
X153580396Y-93201793D01*
X153515078Y-93168907D01*
X153438962Y-93135557D01*
X153426274Y-93130461D01*
X153342667Y-93093565D01*
X153294470Y-93061046D01*
X153278970Y-93028718D01*
X153293450Y-92992394D01*
X153318308Y-92964000D01*
X153377061Y-92929039D01*
X153441707Y-92926417D01*
X153500992Y-92953358D01*
X153543661Y-93007088D01*
X153549261Y-93020950D01*
X153581867Y-93071936D01*
X153629470Y-93109787D01*
X153689539Y-93140850D01*
X153689539Y-93052768D01*
X153686003Y-92998951D01*
X153670844Y-92956534D01*
X153637232Y-92911279D01*
X153604965Y-92876420D01*
X153554791Y-92827062D01*
X153515807Y-92800547D01*
X153473936Y-92789911D01*
X153426540Y-92788154D01*
X153322667Y-92803528D01*
X153322667Y-92803528D01*
G37*
X153322667Y-92803528D02*
X153266410Y-92829117D01*
X153222253Y-92860124D01*
X153189899Y-92894795D01*
X153167562Y-92939520D01*
X153153454Y-93000692D01*
X153145789Y-93084701D01*
X153142780Y-93197940D01*
X153142462Y-93272509D01*
X153142462Y-93563420D01*
X153192227Y-93586095D01*
X153231424Y-93602667D01*
X153250843Y-93608769D01*
X153254558Y-93590610D01*
X153257505Y-93541648D01*
X153259309Y-93470153D01*
X153259692Y-93413385D01*
X153261339Y-93331371D01*
X153265778Y-93266309D01*
X153272260Y-93226467D01*
X153277410Y-93218000D01*
X153312023Y-93226646D01*
X153366360Y-93248823D01*
X153429278Y-93278886D01*
X153489632Y-93311192D01*
X153536279Y-93340098D01*
X153558074Y-93359961D01*
X153558161Y-93360175D01*
X153556286Y-93396935D01*
X153539475Y-93432026D01*
X153509961Y-93460528D01*
X153466884Y-93470061D01*
X153430068Y-93468950D01*
X153377926Y-93468133D01*
X153350556Y-93480349D01*
X153334118Y-93512624D01*
X153332045Y-93518710D01*
X153324919Y-93564739D01*
X153343976Y-93592687D01*
X153393647Y-93606007D01*
X153447303Y-93608470D01*
X153543858Y-93590210D01*
X153593841Y-93564131D01*
X153655571Y-93502868D01*
X153688310Y-93427670D01*
X153691247Y-93348211D01*
X153663576Y-93274167D01*
X153621953Y-93227769D01*
X153580396Y-93201793D01*
X153515078Y-93168907D01*
X153438962Y-93135557D01*
X153426274Y-93130461D01*
X153342667Y-93093565D01*
X153294470Y-93061046D01*
X153278970Y-93028718D01*
X153293450Y-92992394D01*
X153318308Y-92964000D01*
X153377061Y-92929039D01*
X153441707Y-92926417D01*
X153500992Y-92953358D01*
X153543661Y-93007088D01*
X153549261Y-93020950D01*
X153581867Y-93071936D01*
X153629470Y-93109787D01*
X153689539Y-93140850D01*
X153689539Y-93052768D01*
X153686003Y-92998951D01*
X153670844Y-92956534D01*
X153637232Y-92911279D01*
X153604965Y-92876420D01*
X153554791Y-92827062D01*
X153515807Y-92800547D01*
X153473936Y-92789911D01*
X153426540Y-92788154D01*
X153322667Y-92803528D01*
G36*
X152639193Y-92806782D02*
X152615839Y-92816988D01*
X152560098Y-92861134D01*
X152512431Y-92924967D01*
X152482952Y-92993087D01*
X152478154Y-93026670D01*
X152494240Y-93073556D01*
X152529525Y-93098365D01*
X152567356Y-93113387D01*
X152584679Y-93116155D01*
X152593114Y-93096066D01*
X152609770Y-93052351D01*
X152617077Y-93032598D01*
X152658052Y-92964271D01*
X152717378Y-92930191D01*
X152793448Y-92931239D01*
X152799082Y-92932581D01*
X152839695Y-92951836D01*
X152869552Y-92989375D01*
X152889945Y-93049809D01*
X152902164Y-93137751D01*
X152907500Y-93257813D01*
X152908000Y-93321698D01*
X152908248Y-93422403D01*
X152909874Y-93491054D01*
X152914199Y-93534673D01*
X152922546Y-93560282D01*
X152936235Y-93574903D01*
X152956589Y-93585558D01*
X152957766Y-93586095D01*
X152996962Y-93602667D01*
X153016381Y-93608769D01*
X153019365Y-93590319D01*
X153021919Y-93539323D01*
X153023860Y-93462308D01*
X153025003Y-93365805D01*
X153025231Y-93295184D01*
X153024068Y-93158525D01*
X153019521Y-93054851D01*
X153010001Y-92978108D01*
X152993919Y-92922246D01*
X152969687Y-92881212D01*
X152935714Y-92848954D01*
X152902167Y-92826440D01*
X152821501Y-92796476D01*
X152727619Y-92789718D01*
X152639193Y-92806782D01*
X152639193Y-92806782D01*
G37*
X152639193Y-92806782D02*
X152615839Y-92816988D01*
X152560098Y-92861134D01*
X152512431Y-92924967D01*
X152482952Y-92993087D01*
X152478154Y-93026670D01*
X152494240Y-93073556D01*
X152529525Y-93098365D01*
X152567356Y-93113387D01*
X152584679Y-93116155D01*
X152593114Y-93096066D01*
X152609770Y-93052351D01*
X152617077Y-93032598D01*
X152658052Y-92964271D01*
X152717378Y-92930191D01*
X152793448Y-92931239D01*
X152799082Y-92932581D01*
X152839695Y-92951836D01*
X152869552Y-92989375D01*
X152889945Y-93049809D01*
X152902164Y-93137751D01*
X152907500Y-93257813D01*
X152908000Y-93321698D01*
X152908248Y-93422403D01*
X152909874Y-93491054D01*
X152914199Y-93534673D01*
X152922546Y-93560282D01*
X152936235Y-93574903D01*
X152956589Y-93585558D01*
X152957766Y-93586095D01*
X152996962Y-93602667D01*
X153016381Y-93608769D01*
X153019365Y-93590319D01*
X153021919Y-93539323D01*
X153023860Y-93462308D01*
X153025003Y-93365805D01*
X153025231Y-93295184D01*
X153024068Y-93158525D01*
X153019521Y-93054851D01*
X153010001Y-92978108D01*
X152993919Y-92922246D01*
X152969687Y-92881212D01*
X152935714Y-92848954D01*
X152902167Y-92826440D01*
X152821501Y-92796476D01*
X152727619Y-92789718D01*
X152639193Y-92806782D01*
G36*
X151964776Y-92817838D02*
X151887472Y-92868361D01*
X151850186Y-92913590D01*
X151820647Y-92995663D01*
X151818301Y-93060607D01*
X151823615Y-93147445D01*
X152023885Y-93235103D01*
X152121261Y-93279887D01*
X152184887Y-93315913D01*
X152217971Y-93347117D01*
X152223720Y-93377436D01*
X152205342Y-93410805D01*
X152185077Y-93432923D01*
X152126111Y-93468393D01*
X152061976Y-93470879D01*
X152003074Y-93443235D01*
X151959803Y-93388320D01*
X151952064Y-93368928D01*
X151914994Y-93308364D01*
X151872346Y-93282552D01*
X151813846Y-93260471D01*
X151813846Y-93344184D01*
X151819018Y-93401150D01*
X151839277Y-93449189D01*
X151881738Y-93504346D01*
X151888049Y-93511514D01*
X151935280Y-93560585D01*
X151975879Y-93586920D01*
X152026672Y-93599035D01*
X152068780Y-93603003D01*
X152144098Y-93603991D01*
X152197714Y-93591466D01*
X152231162Y-93572869D01*
X152283732Y-93531975D01*
X152320121Y-93487748D01*
X152343150Y-93432126D01*
X152355641Y-93357047D01*
X152360413Y-93254449D01*
X152360794Y-93202376D01*
X152359499Y-93139948D01*
X152241529Y-93139948D01*
X152240161Y-93173438D01*
X152236751Y-93178923D01*
X152214247Y-93171472D01*
X152165818Y-93151753D01*
X152101092Y-93123718D01*
X152087557Y-93117692D01*
X152005756Y-93076096D01*
X151960688Y-93039538D01*
X151950783Y-93005296D01*
X151974474Y-92970648D01*
X151994040Y-92955339D01*
X152064640Y-92924721D01*
X152130720Y-92929780D01*
X152186041Y-92967151D01*
X152224364Y-93033473D01*
X152236651Y-93086116D01*
X152241529Y-93139948D01*
X152359499Y-93139948D01*
X152358270Y-93080720D01*
X152348968Y-92990710D01*
X152330540Y-92925167D01*
X152300640Y-92876912D01*
X152256920Y-92838767D01*
X152237859Y-92826440D01*
X152151274Y-92794336D01*
X152056478Y-92792316D01*
X151964776Y-92817838D01*
X151964776Y-92817838D01*
G37*
X151964776Y-92817838D02*
X151887472Y-92868361D01*
X151850186Y-92913590D01*
X151820647Y-92995663D01*
X151818301Y-93060607D01*
X151823615Y-93147445D01*
X152023885Y-93235103D01*
X152121261Y-93279887D01*
X152184887Y-93315913D01*
X152217971Y-93347117D01*
X152223720Y-93377436D01*
X152205342Y-93410805D01*
X152185077Y-93432923D01*
X152126111Y-93468393D01*
X152061976Y-93470879D01*
X152003074Y-93443235D01*
X151959803Y-93388320D01*
X151952064Y-93368928D01*
X151914994Y-93308364D01*
X151872346Y-93282552D01*
X151813846Y-93260471D01*
X151813846Y-93344184D01*
X151819018Y-93401150D01*
X151839277Y-93449189D01*
X151881738Y-93504346D01*
X151888049Y-93511514D01*
X151935280Y-93560585D01*
X151975879Y-93586920D01*
X152026672Y-93599035D01*
X152068780Y-93603003D01*
X152144098Y-93603991D01*
X152197714Y-93591466D01*
X152231162Y-93572869D01*
X152283732Y-93531975D01*
X152320121Y-93487748D01*
X152343150Y-93432126D01*
X152355641Y-93357047D01*
X152360413Y-93254449D01*
X152360794Y-93202376D01*
X152359499Y-93139948D01*
X152241529Y-93139948D01*
X152240161Y-93173438D01*
X152236751Y-93178923D01*
X152214247Y-93171472D01*
X152165818Y-93151753D01*
X152101092Y-93123718D01*
X152087557Y-93117692D01*
X152005756Y-93076096D01*
X151960688Y-93039538D01*
X151950783Y-93005296D01*
X151974474Y-92970648D01*
X151994040Y-92955339D01*
X152064640Y-92924721D01*
X152130720Y-92929780D01*
X152186041Y-92967151D01*
X152224364Y-93033473D01*
X152236651Y-93086116D01*
X152241529Y-93139948D01*
X152359499Y-93139948D01*
X152358270Y-93080720D01*
X152348968Y-92990710D01*
X152330540Y-92925167D01*
X152300640Y-92876912D01*
X152256920Y-92838767D01*
X152237859Y-92826440D01*
X152151274Y-92794336D01*
X152056478Y-92792316D01*
X151964776Y-92817838D01*
G36*
X156070122Y-86457776D02*
X155964388Y-86458355D01*
X155887868Y-86459922D01*
X155835628Y-86462972D01*
X155802737Y-86467996D01*
X155784263Y-86475489D01*
X155775273Y-86485944D01*
X155770837Y-86499853D01*
X155770406Y-86501654D01*
X155763667Y-86534145D01*
X155751192Y-86598252D01*
X155734281Y-86687151D01*
X155714229Y-86794019D01*
X155692336Y-86912033D01*
X155691571Y-86916178D01*
X155669641Y-87031831D01*
X155649123Y-87134014D01*
X155631341Y-87216598D01*
X155617619Y-87273456D01*
X155609282Y-87298458D01*
X155608884Y-87298901D01*
X155584323Y-87311110D01*
X155533685Y-87331456D01*
X155467905Y-87355545D01*
X155467539Y-87355674D01*
X155384683Y-87386818D01*
X155287000Y-87426491D01*
X155194923Y-87466381D01*
X155190566Y-87468353D01*
X155040593Y-87536420D01*
X154708502Y-87309639D01*
X154606626Y-87240504D01*
X154514343Y-87178697D01*
X154436997Y-87127733D01*
X154379936Y-87091127D01*
X154348505Y-87072394D01*
X154345521Y-87071004D01*
X154322679Y-87077190D01*
X154280018Y-87107035D01*
X154215872Y-87161947D01*
X154128579Y-87243334D01*
X154039465Y-87329922D01*
X153953559Y-87415247D01*
X153876673Y-87493108D01*
X153813436Y-87558697D01*
X153768477Y-87607205D01*
X153746424Y-87633825D01*
X153745604Y-87635195D01*
X153743166Y-87653463D01*
X153752350Y-87683295D01*
X153775426Y-87728721D01*
X153814663Y-87793770D01*
X153872330Y-87882470D01*
X153949205Y-87996657D01*
X154017430Y-88097162D01*
X154078418Y-88187303D01*
X154128644Y-88261849D01*
X154164584Y-88315565D01*
X154182713Y-88343218D01*
X154183854Y-88345095D01*
X154181641Y-88371590D01*
X154164862Y-88423086D01*
X154136858Y-88489851D01*
X154126878Y-88511172D01*
X154083328Y-88606159D01*
X154036866Y-88713937D01*
X153999123Y-88807192D01*
X153971927Y-88876406D01*
X153950325Y-88929006D01*
X153937842Y-88956497D01*
X153936291Y-88958616D01*
X153913332Y-88962124D01*
X153859214Y-88971738D01*
X153781132Y-88986089D01*
X153686281Y-89003807D01*
X153581857Y-89023525D01*
X153475056Y-89043874D01*
X153373074Y-89063486D01*
X153283106Y-89080991D01*
X153212347Y-89095022D01*
X153167994Y-89104209D01*
X153157115Y-89106807D01*
X153145878Y-89113218D01*
X153137395Y-89127697D01*
X153131286Y-89155133D01*
X153127168Y-89200411D01*
X153124659Y-89268420D01*
X153123379Y-89364047D01*
X153122946Y-89492180D01*
X153122923Y-89544701D01*
X153122923Y-89971845D01*
X153225500Y-89992091D01*
X153282569Y-90003070D01*
X153367731Y-90019095D01*
X153470628Y-90038233D01*
X153580904Y-90058551D01*
X153611385Y-90064132D01*
X153713145Y-90083917D01*
X153801795Y-90103373D01*
X153869892Y-90120697D01*
X153909996Y-90134088D01*
X153916677Y-90138079D01*
X153933081Y-90166342D01*
X153956601Y-90221109D01*
X153982684Y-90291588D01*
X153987858Y-90306769D01*
X154022044Y-90400896D01*
X154064477Y-90507101D01*
X154106003Y-90602473D01*
X154106208Y-90602916D01*
X154175360Y-90752525D01*
X153720488Y-91421617D01*
X154012500Y-91714116D01*
X154100820Y-91801170D01*
X154181375Y-91877909D01*
X154249640Y-91940237D01*
X154301092Y-91984056D01*
X154331206Y-92005270D01*
X154335526Y-92006616D01*
X154360889Y-91996016D01*
X154412642Y-91966547D01*
X154485132Y-91921705D01*
X154572706Y-91864984D01*
X154667388Y-91801462D01*
X154763484Y-91736668D01*
X154849163Y-91680287D01*
X154918984Y-91635788D01*
X154967506Y-91606639D01*
X154989218Y-91596308D01*
X155015707Y-91605050D01*
X155065938Y-91628087D01*
X155129549Y-91660631D01*
X155136292Y-91664249D01*
X155221954Y-91707210D01*
X155280694Y-91728279D01*
X155317228Y-91728503D01*
X155336269Y-91708928D01*
X155336380Y-91708654D01*
X155345898Y-91685472D01*
X155368597Y-91630441D01*
X155402718Y-91547822D01*
X155446500Y-91441872D01*
X155498184Y-91316852D01*
X155556008Y-91177020D01*
X155612009Y-91041637D01*
X155673553Y-90892234D01*
X155730061Y-90753832D01*
X155779839Y-90630673D01*
X155821194Y-90527002D01*
X155852432Y-90447059D01*
X155871859Y-90395088D01*
X155877846Y-90375692D01*
X155862832Y-90353443D01*
X155823561Y-90317982D01*
X155771193Y-90278887D01*
X155622059Y-90155245D01*
X155505489Y-90013522D01*
X155422882Y-89856704D01*
X155375634Y-89687775D01*
X155365143Y-89509722D01*
X155372769Y-89427539D01*
X155414318Y-89257031D01*
X155485877Y-89106459D01*
X155583005Y-88977309D01*
X155701266Y-88871064D01*
X155836220Y-88789210D01*
X155983429Y-88733232D01*
X156138456Y-88704615D01*
X156296861Y-88704844D01*
X156454206Y-88735405D01*
X156606054Y-88797782D01*
X156747965Y-88893460D01*
X156807197Y-88947572D01*
X156920797Y-89086520D01*
X156999894Y-89238361D01*
X157045014Y-89398667D01*
X157056684Y-89563012D01*
X157035431Y-89726971D01*
X156981780Y-89886118D01*
X156896260Y-90036025D01*
X156779395Y-90172267D01*
X156648807Y-90278887D01*
X156594412Y-90319642D01*
X156555986Y-90354718D01*
X156542154Y-90375726D01*
X156549397Y-90398635D01*
X156569995Y-90453365D01*
X156602254Y-90535672D01*
X156644479Y-90641315D01*
X156694977Y-90766050D01*
X156752052Y-90905636D01*
X156808146Y-91041670D01*
X156870033Y-91191201D01*
X156927356Y-91329767D01*
X156978356Y-91453107D01*
X157021273Y-91556964D01*
X157054347Y-91637080D01*
X157075819Y-91689195D01*
X157083775Y-91708654D01*
X157102571Y-91728423D01*
X157138926Y-91728365D01*
X157197521Y-91707441D01*
X157283032Y-91664613D01*
X157283708Y-91664249D01*
X157348093Y-91631012D01*
X157400139Y-91606802D01*
X157429488Y-91596404D01*
X157430783Y-91596308D01*
X157452876Y-91606855D01*
X157501652Y-91636184D01*
X157571669Y-91680827D01*
X157657486Y-91737314D01*
X157752612Y-91801462D01*
X157849460Y-91866411D01*
X157936747Y-91922896D01*
X158008819Y-91967421D01*
X158060023Y-91996490D01*
X158084474Y-92006616D01*
X158106990Y-91993307D01*
X158152258Y-91956112D01*
X158215756Y-91899128D01*
X158292961Y-91826449D01*
X158379349Y-91742171D01*
X158407601Y-91714016D01*
X158699713Y-91421416D01*
X158477369Y-91095104D01*
X158409798Y-90994897D01*
X158350493Y-90904963D01*
X158302783Y-90830510D01*
X158269993Y-90776751D01*
X158255452Y-90748894D01*
X158255026Y-90746912D01*
X158262692Y-90720655D01*
X158283311Y-90667837D01*
X158313315Y-90597310D01*
X158334375Y-90550093D01*
X158373752Y-90459694D01*
X158410835Y-90368366D01*
X158439585Y-90291200D01*
X158447395Y-90267692D01*
X158469583Y-90204916D01*
X158491273Y-90156411D01*
X158503187Y-90138079D01*
X158529477Y-90126859D01*
X158586858Y-90110954D01*
X158667882Y-90092167D01*
X158765105Y-90072299D01*
X158808615Y-90064132D01*
X158919104Y-90043829D01*
X159025084Y-90024170D01*
X159116199Y-90007088D01*
X159182092Y-89994518D01*
X159194500Y-89992091D01*
X159297077Y-89971845D01*
X159297077Y-89544701D01*
X159296847Y-89404246D01*
X159295901Y-89297979D01*
X159293859Y-89221013D01*
X159290338Y-89168460D01*
X159284957Y-89135433D01*
X159277334Y-89117045D01*
X159267088Y-89108408D01*
X159262885Y-89106807D01*
X159237530Y-89101127D01*
X159181516Y-89089795D01*
X159102036Y-89074179D01*
X159006288Y-89055647D01*
X158901467Y-89035569D01*
X158794768Y-89015312D01*
X158693387Y-88996246D01*
X158604521Y-88979739D01*
X158535363Y-88967159D01*
X158493111Y-88959875D01*
X158483710Y-88958616D01*
X158475193Y-88941763D01*
X158456340Y-88896870D01*
X158430676Y-88832430D01*
X158420877Y-88807192D01*
X158381352Y-88709686D01*
X158334808Y-88601959D01*
X158293123Y-88511172D01*
X158262450Y-88441753D01*
X158242044Y-88384710D01*
X158235232Y-88349777D01*
X158236318Y-88345095D01*
X158250715Y-88322991D01*
X158283588Y-88273831D01*
X158331410Y-88202848D01*
X158390652Y-88115278D01*
X158457785Y-88016357D01*
X158471059Y-87996830D01*
X158548954Y-87881140D01*
X158606213Y-87793044D01*
X158645119Y-87728486D01*
X158667956Y-87683411D01*
X158677006Y-87653763D01*
X158674552Y-87635485D01*
X158674489Y-87635369D01*
X158655173Y-87611361D01*
X158612449Y-87564947D01*
X158550949Y-87500937D01*
X158475302Y-87424145D01*
X158390139Y-87339382D01*
X158380535Y-87329922D01*
X158273210Y-87225989D01*
X158190385Y-87149675D01*
X158130395Y-87099571D01*
X158091577Y-87074270D01*
X158074480Y-87071004D01*
X158049527Y-87085250D01*
X157997745Y-87118156D01*
X157924480Y-87166208D01*
X157835080Y-87225890D01*
X157734889Y-87293688D01*
X157711499Y-87309639D01*
X157379407Y-87536420D01*
X157229435Y-87468353D01*
X157138230Y-87428685D01*
X157040331Y-87388791D01*
X156956169Y-87356983D01*
X156952462Y-87355674D01*
X156886631Y-87331576D01*
X156835884Y-87311200D01*
X156811158Y-87298936D01*
X156811116Y-87298901D01*
X156803271Y-87276734D01*
X156789934Y-87222217D01*
X156772430Y-87141480D01*
X156752083Y-87040650D01*
X156730218Y-86925856D01*
X156728429Y-86916178D01*
X156706496Y-86797904D01*
X156686360Y-86690542D01*
X156669320Y-86600917D01*
X156656672Y-86535851D01*
X156649716Y-86502168D01*
X156649594Y-86501654D01*
X156645361Y-86487325D01*
X156637129Y-86476507D01*
X156619967Y-86468706D01*
X156588942Y-86463429D01*
X156539122Y-86460182D01*
X156465576Y-86458472D01*
X156363371Y-86457807D01*
X156227575Y-86457693D01*
X156210000Y-86457692D01*
X156070122Y-86457776D01*
X156070122Y-86457776D01*
G37*
X156070122Y-86457776D02*
X155964388Y-86458355D01*
X155887868Y-86459922D01*
X155835628Y-86462972D01*
X155802737Y-86467996D01*
X155784263Y-86475489D01*
X155775273Y-86485944D01*
X155770837Y-86499853D01*
X155770406Y-86501654D01*
X155763667Y-86534145D01*
X155751192Y-86598252D01*
X155734281Y-86687151D01*
X155714229Y-86794019D01*
X155692336Y-86912033D01*
X155691571Y-86916178D01*
X155669641Y-87031831D01*
X155649123Y-87134014D01*
X155631341Y-87216598D01*
X155617619Y-87273456D01*
X155609282Y-87298458D01*
X155608884Y-87298901D01*
X155584323Y-87311110D01*
X155533685Y-87331456D01*
X155467905Y-87355545D01*
X155467539Y-87355674D01*
X155384683Y-87386818D01*
X155287000Y-87426491D01*
X155194923Y-87466381D01*
X155190566Y-87468353D01*
X155040593Y-87536420D01*
X154708502Y-87309639D01*
X154606626Y-87240504D01*
X154514343Y-87178697D01*
X154436997Y-87127733D01*
X154379936Y-87091127D01*
X154348505Y-87072394D01*
X154345521Y-87071004D01*
X154322679Y-87077190D01*
X154280018Y-87107035D01*
X154215872Y-87161947D01*
X154128579Y-87243334D01*
X154039465Y-87329922D01*
X153953559Y-87415247D01*
X153876673Y-87493108D01*
X153813436Y-87558697D01*
X153768477Y-87607205D01*
X153746424Y-87633825D01*
X153745604Y-87635195D01*
X153743166Y-87653463D01*
X153752350Y-87683295D01*
X153775426Y-87728721D01*
X153814663Y-87793770D01*
X153872330Y-87882470D01*
X153949205Y-87996657D01*
X154017430Y-88097162D01*
X154078418Y-88187303D01*
X154128644Y-88261849D01*
X154164584Y-88315565D01*
X154182713Y-88343218D01*
X154183854Y-88345095D01*
X154181641Y-88371590D01*
X154164862Y-88423086D01*
X154136858Y-88489851D01*
X154126878Y-88511172D01*
X154083328Y-88606159D01*
X154036866Y-88713937D01*
X153999123Y-88807192D01*
X153971927Y-88876406D01*
X153950325Y-88929006D01*
X153937842Y-88956497D01*
X153936291Y-88958616D01*
X153913332Y-88962124D01*
X153859214Y-88971738D01*
X153781132Y-88986089D01*
X153686281Y-89003807D01*
X153581857Y-89023525D01*
X153475056Y-89043874D01*
X153373074Y-89063486D01*
X153283106Y-89080991D01*
X153212347Y-89095022D01*
X153167994Y-89104209D01*
X153157115Y-89106807D01*
X153145878Y-89113218D01*
X153137395Y-89127697D01*
X153131286Y-89155133D01*
X153127168Y-89200411D01*
X153124659Y-89268420D01*
X153123379Y-89364047D01*
X153122946Y-89492180D01*
X153122923Y-89544701D01*
X153122923Y-89971845D01*
X153225500Y-89992091D01*
X153282569Y-90003070D01*
X153367731Y-90019095D01*
X153470628Y-90038233D01*
X153580904Y-90058551D01*
X153611385Y-90064132D01*
X153713145Y-90083917D01*
X153801795Y-90103373D01*
X153869892Y-90120697D01*
X153909996Y-90134088D01*
X153916677Y-90138079D01*
X153933081Y-90166342D01*
X153956601Y-90221109D01*
X153982684Y-90291588D01*
X153987858Y-90306769D01*
X154022044Y-90400896D01*
X154064477Y-90507101D01*
X154106003Y-90602473D01*
X154106208Y-90602916D01*
X154175360Y-90752525D01*
X153720488Y-91421617D01*
X154012500Y-91714116D01*
X154100820Y-91801170D01*
X154181375Y-91877909D01*
X154249640Y-91940237D01*
X154301092Y-91984056D01*
X154331206Y-92005270D01*
X154335526Y-92006616D01*
X154360889Y-91996016D01*
X154412642Y-91966547D01*
X154485132Y-91921705D01*
X154572706Y-91864984D01*
X154667388Y-91801462D01*
X154763484Y-91736668D01*
X154849163Y-91680287D01*
X154918984Y-91635788D01*
X154967506Y-91606639D01*
X154989218Y-91596308D01*
X155015707Y-91605050D01*
X155065938Y-91628087D01*
X155129549Y-91660631D01*
X155136292Y-91664249D01*
X155221954Y-91707210D01*
X155280694Y-91728279D01*
X155317228Y-91728503D01*
X155336269Y-91708928D01*
X155336380Y-91708654D01*
X155345898Y-91685472D01*
X155368597Y-91630441D01*
X155402718Y-91547822D01*
X155446500Y-91441872D01*
X155498184Y-91316852D01*
X155556008Y-91177020D01*
X155612009Y-91041637D01*
X155673553Y-90892234D01*
X155730061Y-90753832D01*
X155779839Y-90630673D01*
X155821194Y-90527002D01*
X155852432Y-90447059D01*
X155871859Y-90395088D01*
X155877846Y-90375692D01*
X155862832Y-90353443D01*
X155823561Y-90317982D01*
X155771193Y-90278887D01*
X155622059Y-90155245D01*
X155505489Y-90013522D01*
X155422882Y-89856704D01*
X155375634Y-89687775D01*
X155365143Y-89509722D01*
X155372769Y-89427539D01*
X155414318Y-89257031D01*
X155485877Y-89106459D01*
X155583005Y-88977309D01*
X155701266Y-88871064D01*
X155836220Y-88789210D01*
X155983429Y-88733232D01*
X156138456Y-88704615D01*
X156296861Y-88704844D01*
X156454206Y-88735405D01*
X156606054Y-88797782D01*
X156747965Y-88893460D01*
X156807197Y-88947572D01*
X156920797Y-89086520D01*
X156999894Y-89238361D01*
X157045014Y-89398667D01*
X157056684Y-89563012D01*
X157035431Y-89726971D01*
X156981780Y-89886118D01*
X156896260Y-90036025D01*
X156779395Y-90172267D01*
X156648807Y-90278887D01*
X156594412Y-90319642D01*
X156555986Y-90354718D01*
X156542154Y-90375726D01*
X156549397Y-90398635D01*
X156569995Y-90453365D01*
X156602254Y-90535672D01*
X156644479Y-90641315D01*
X156694977Y-90766050D01*
X156752052Y-90905636D01*
X156808146Y-91041670D01*
X156870033Y-91191201D01*
X156927356Y-91329767D01*
X156978356Y-91453107D01*
X157021273Y-91556964D01*
X157054347Y-91637080D01*
X157075819Y-91689195D01*
X157083775Y-91708654D01*
X157102571Y-91728423D01*
X157138926Y-91728365D01*
X157197521Y-91707441D01*
X157283032Y-91664613D01*
X157283708Y-91664249D01*
X157348093Y-91631012D01*
X157400139Y-91606802D01*
X157429488Y-91596404D01*
X157430783Y-91596308D01*
X157452876Y-91606855D01*
X157501652Y-91636184D01*
X157571669Y-91680827D01*
X157657486Y-91737314D01*
X157752612Y-91801462D01*
X157849460Y-91866411D01*
X157936747Y-91922896D01*
X158008819Y-91967421D01*
X158060023Y-91996490D01*
X158084474Y-92006616D01*
X158106990Y-91993307D01*
X158152258Y-91956112D01*
X158215756Y-91899128D01*
X158292961Y-91826449D01*
X158379349Y-91742171D01*
X158407601Y-91714016D01*
X158699713Y-91421416D01*
X158477369Y-91095104D01*
X158409798Y-90994897D01*
X158350493Y-90904963D01*
X158302783Y-90830510D01*
X158269993Y-90776751D01*
X158255452Y-90748894D01*
X158255026Y-90746912D01*
X158262692Y-90720655D01*
X158283311Y-90667837D01*
X158313315Y-90597310D01*
X158334375Y-90550093D01*
X158373752Y-90459694D01*
X158410835Y-90368366D01*
X158439585Y-90291200D01*
X158447395Y-90267692D01*
X158469583Y-90204916D01*
X158491273Y-90156411D01*
X158503187Y-90138079D01*
X158529477Y-90126859D01*
X158586858Y-90110954D01*
X158667882Y-90092167D01*
X158765105Y-90072299D01*
X158808615Y-90064132D01*
X158919104Y-90043829D01*
X159025084Y-90024170D01*
X159116199Y-90007088D01*
X159182092Y-89994518D01*
X159194500Y-89992091D01*
X159297077Y-89971845D01*
X159297077Y-89544701D01*
X159296847Y-89404246D01*
X159295901Y-89297979D01*
X159293859Y-89221013D01*
X159290338Y-89168460D01*
X159284957Y-89135433D01*
X159277334Y-89117045D01*
X159267088Y-89108408D01*
X159262885Y-89106807D01*
X159237530Y-89101127D01*
X159181516Y-89089795D01*
X159102036Y-89074179D01*
X159006288Y-89055647D01*
X158901467Y-89035569D01*
X158794768Y-89015312D01*
X158693387Y-88996246D01*
X158604521Y-88979739D01*
X158535363Y-88967159D01*
X158493111Y-88959875D01*
X158483710Y-88958616D01*
X158475193Y-88941763D01*
X158456340Y-88896870D01*
X158430676Y-88832430D01*
X158420877Y-88807192D01*
X158381352Y-88709686D01*
X158334808Y-88601959D01*
X158293123Y-88511172D01*
X158262450Y-88441753D01*
X158242044Y-88384710D01*
X158235232Y-88349777D01*
X158236318Y-88345095D01*
X158250715Y-88322991D01*
X158283588Y-88273831D01*
X158331410Y-88202848D01*
X158390652Y-88115278D01*
X158457785Y-88016357D01*
X158471059Y-87996830D01*
X158548954Y-87881140D01*
X158606213Y-87793044D01*
X158645119Y-87728486D01*
X158667956Y-87683411D01*
X158677006Y-87653763D01*
X158674552Y-87635485D01*
X158674489Y-87635369D01*
X158655173Y-87611361D01*
X158612449Y-87564947D01*
X158550949Y-87500937D01*
X158475302Y-87424145D01*
X158390139Y-87339382D01*
X158380535Y-87329922D01*
X158273210Y-87225989D01*
X158190385Y-87149675D01*
X158130395Y-87099571D01*
X158091577Y-87074270D01*
X158074480Y-87071004D01*
X158049527Y-87085250D01*
X157997745Y-87118156D01*
X157924480Y-87166208D01*
X157835080Y-87225890D01*
X157734889Y-87293688D01*
X157711499Y-87309639D01*
X157379407Y-87536420D01*
X157229435Y-87468353D01*
X157138230Y-87428685D01*
X157040331Y-87388791D01*
X156956169Y-87356983D01*
X156952462Y-87355674D01*
X156886631Y-87331576D01*
X156835884Y-87311200D01*
X156811158Y-87298936D01*
X156811116Y-87298901D01*
X156803271Y-87276734D01*
X156789934Y-87222217D01*
X156772430Y-87141480D01*
X156752083Y-87040650D01*
X156730218Y-86925856D01*
X156728429Y-86916178D01*
X156706496Y-86797904D01*
X156686360Y-86690542D01*
X156669320Y-86600917D01*
X156656672Y-86535851D01*
X156649716Y-86502168D01*
X156649594Y-86501654D01*
X156645361Y-86487325D01*
X156637129Y-86476507D01*
X156619967Y-86468706D01*
X156588942Y-86463429D01*
X156539122Y-86460182D01*
X156465576Y-86458472D01*
X156363371Y-86457807D01*
X156227575Y-86457693D01*
X156210000Y-86457692D01*
X156070122Y-86457776D01*
D16*
X109886666Y-92271905D02*
X109886666Y-92843333D01*
X109924762Y-92957619D01*
X110000952Y-93033810D01*
X110115238Y-93071905D01*
X110191428Y-93071905D01*
X109505714Y-93071905D02*
X109505714Y-92271905D01*
X109200952Y-92271905D01*
X109124761Y-92310000D01*
X109086666Y-92348095D01*
X109048571Y-92424286D01*
X109048571Y-92538571D01*
X109086666Y-92614762D01*
X109124761Y-92652857D01*
X109200952Y-92690952D01*
X109505714Y-92690952D01*
X108362857Y-92271905D02*
X108515238Y-92271905D01*
X108591428Y-92310000D01*
X108629523Y-92348095D01*
X108705714Y-92462381D01*
X108743809Y-92614762D01*
X108743809Y-92919524D01*
X108705714Y-92995714D01*
X108667619Y-93033810D01*
X108591428Y-93071905D01*
X108439047Y-93071905D01*
X108362857Y-93033810D01*
X108324761Y-92995714D01*
X108286666Y-92919524D01*
X108286666Y-92729048D01*
X108324761Y-92652857D01*
X108362857Y-92614762D01*
X108439047Y-92576667D01*
X108591428Y-92576667D01*
X108667619Y-92614762D01*
X108705714Y-92652857D01*
X108743809Y-92729048D01*
X117671905Y-73628334D02*
X118243333Y-73628334D01*
X118357619Y-73590238D01*
X118433810Y-73514048D01*
X118471905Y-73399762D01*
X118471905Y-73323572D01*
X118471905Y-74009286D02*
X117671905Y-74009286D01*
X117671905Y-74314048D01*
X117710000Y-74390239D01*
X117748095Y-74428334D01*
X117824286Y-74466429D01*
X117938571Y-74466429D01*
X118014762Y-74428334D01*
X118052857Y-74390239D01*
X118090952Y-74314048D01*
X118090952Y-74009286D01*
X117938571Y-75152143D02*
X118471905Y-75152143D01*
X117633810Y-74961667D02*
X118205238Y-74771191D01*
X118205238Y-75266429D01*
X79571905Y-77438334D02*
X80143333Y-77438334D01*
X80257619Y-77400238D01*
X80333810Y-77324048D01*
X80371905Y-77209762D01*
X80371905Y-77133572D01*
X80371905Y-77819286D02*
X79571905Y-77819286D01*
X79571905Y-78124048D01*
X79610000Y-78200239D01*
X79648095Y-78238334D01*
X79724286Y-78276429D01*
X79838571Y-78276429D01*
X79914762Y-78238334D01*
X79952857Y-78200239D01*
X79990952Y-78124048D01*
X79990952Y-77819286D01*
X79571905Y-79000239D02*
X79571905Y-78619286D01*
X79952857Y-78581191D01*
X79914762Y-78619286D01*
X79876667Y-78695477D01*
X79876667Y-78885953D01*
X79914762Y-78962143D01*
X79952857Y-79000239D01*
X80029048Y-79038334D01*
X80219524Y-79038334D01*
X80295714Y-79000239D01*
X80333810Y-78962143D01*
X80371905Y-78885953D01*
X80371905Y-78695477D01*
X80333810Y-78619286D01*
X80295714Y-78581191D01*
X82981905Y-61785476D02*
X83629524Y-61785476D01*
X83705714Y-61823571D01*
X83743810Y-61861667D01*
X83781905Y-61937857D01*
X83781905Y-62090238D01*
X83743810Y-62166429D01*
X83705714Y-62204524D01*
X83629524Y-62242619D01*
X82981905Y-62242619D01*
X83781905Y-63042619D02*
X83781905Y-62585476D01*
X83781905Y-62814047D02*
X82981905Y-62814047D01*
X83096190Y-62737857D01*
X83172381Y-62661666D01*
X83210476Y-62585476D01*
X82981905Y-63728333D02*
X82981905Y-63575952D01*
X83020000Y-63499762D01*
X83058095Y-63461667D01*
X83172381Y-63385476D01*
X83324762Y-63347381D01*
X83629524Y-63347381D01*
X83705714Y-63385476D01*
X83743810Y-63423571D01*
X83781905Y-63499762D01*
X83781905Y-63652143D01*
X83743810Y-63728333D01*
X83705714Y-63766429D01*
X83629524Y-63804524D01*
X83439048Y-63804524D01*
X83362857Y-63766429D01*
X83324762Y-63728333D01*
X83286667Y-63652143D01*
X83286667Y-63499762D01*
X83324762Y-63423571D01*
X83362857Y-63385476D01*
X83439048Y-63347381D01*
M02*
