M48
INCH,TZ
T1C0.013
T2C0.014
T3C0.024
T4C0.026
T5C0.028
T6C0.035
T7C0.039
T8C0.043
T9C0.051
T10C0.087
T11C0.098
T12C0.157
%
G90
G05
T1
X33000Y-24000
X33750Y-25750
X34222Y-25054
X35000Y-34250
X35871Y-32037
X37452Y-26556
X37797Y-27001
X38000Y-23500
X38750Y-27247
X38750Y-23500
X39148Y-28352
X39557Y-29208
X39750Y-25500
X39750Y-28330
X40500Y-41750
X41745Y-29130
X41750Y-21500
X41755Y-28464
X41967Y-27364
X42238Y-28186
X42289Y-27293
X42500Y-29500
X42612Y-27227
X42697Y-24522
X42750Y-28750
X42829Y-28116
X43000Y-22750
X43000Y-24000
X43250Y-30250
X43275Y-24750
X43338Y-25750
X43907Y-30495
X44000Y-22000
X44006Y-25770
X44080Y-25418
X44415Y-25169
X44500Y-19000
X44750Y-30750
X44750Y-34500
X44812Y-25663
X45000Y-31955
X45012Y-31045
X45250Y-41750
X45359Y-30496
X46503Y-31497
X46875Y-53353
X47191Y-28155
X47250Y-37250
X47500Y-24250
X47500Y-26000
X47750Y-30250
X47764Y-26250
X47875Y-37244
X47983Y-27842
X48000Y-26500
X48099Y-48345
X48289Y-26691
X48627Y-37247
X48628Y-43347
X48926Y-33264
X49250Y-33000
X49380Y-37254
X49496Y-23554
X49624Y-30597
X49635Y-29441
X50000Y-29750
X50250Y-37250
X50250Y-41750
X50500Y-30500
X50500Y-32000
X50809Y-27595
X51000Y-32500
X52000Y-36750
X52250Y-30750
X52500Y-35250
X52500Y-36750
X52750Y-30250
X53000Y-25750
X53000Y-36750
X53500Y-36750
X53750Y-30750
X54000Y-36750
X54000Y-41750
X54101Y-24082
X54249Y-33499
X54249Y-30239
X54500Y-27134
X54500Y-33250
X54500Y-36750
X55000Y-24000
X55000Y-32500
X55000Y-36750
X55250Y-30750
X55250Y-41750
X55750Y-34500
X56412Y-25982
X56498Y-31800
X59000Y-34500
X60001Y-33499
X60240Y-33250
X61000Y-36750
X61500Y-36750
X61963Y-26820
X62000Y-26000
X65196Y-23630
X65210Y-26377
X66305Y-23635
X66305Y-26367
X68243Y-31378
X68253Y-33612
X68750Y-39000
X68870Y-31247
X68879Y-33745
X69250Y-26000
X69994Y-23755
X69994Y-26246
X70000Y-32500
X71280Y-29720
X71304Y-27337
X71666Y-38134
X71839Y-52390
X71969Y-38385
X72018Y-52087
X72040Y-51672
X72077Y-51178
X72201Y-29720
X72250Y-35000
X72750Y-39000
X73250Y-30250
X73500Y-32500
X73576Y-51419
X73835Y-51852
X74240Y-51838
X74500Y-34500
X74500Y-35000
X74614Y-31376
X75229Y-51216
X75500Y-39000
X75500Y-46750
X75500Y-49250
X75500Y-51750
X75750Y-24000
X75760Y-33666
X75873Y-47284
X76000Y-31241
X76205Y-32680
X76250Y-34750
X76500Y-29250
X76603Y-32282
X76750Y-22250
X76755Y-31989
X77250Y-24000
X77371Y-32998
X77475Y-32250
X77500Y-34250
X77500Y-40000
X77500Y-45000
X77500Y-50000
X77500Y-55000
X77709Y-37041
X77750Y-30750
X78153Y-32923
X79000Y-32092
X79500Y-32500
X80305Y-33713
X80382Y-31383
X80500Y-39000
X80500Y-44000
X80500Y-49000
X80500Y-52500
X81000Y-24000
X81250Y-30500
X81500Y-32500
X81750Y-30250
X82500Y-24000
X82500Y-34500
X82500Y-40000
X82500Y-45000
X82500Y-50000
X82500Y-55000
X83595Y-28852
X84000Y-34500
X84498Y-45500
X84500Y-36750
X84750Y-30250
X85000Y-32500
X85250Y-30500
X85500Y-36750
X85500Y-45000
X85500Y-47000
X86116Y-31382
X86250Y-24000
X86250Y-26500
X86250Y-33500
X86750Y-19750
X87750Y-24000
X90998Y-31509
X91012Y-28493
X91251Y-36184
X91500Y-33977
X91830Y-34000
X92503Y-34053
X93500Y-31750
X93750Y-35250
T2
X30750Y-15500
X30750Y-20500
X30750Y-25500
X30750Y-30750
X30750Y-35500
X30750Y-40500
X30750Y-46000
X30750Y-50500
X30750Y-56500
X35500Y-15500
X35500Y-30750
X35500Y-35500
X35500Y-40750
X35500Y-45000
X35500Y-50000
X35500Y-56500
X36500Y-21000
X37000Y-25750
X39250Y-24750
X39500Y-28750
X40250Y-31000
X40500Y-15500
X40500Y-20500
X40500Y-34750
X40500Y-40250
X40500Y-45000
X40500Y-50000
X40500Y-56500
X44250Y-31500
X45000Y-36000
X45500Y-15500
X45500Y-20500
X45500Y-40250
X45500Y-45000
X45500Y-50000
X45500Y-56500
X46500Y-25750
X49250Y-40000
X50250Y-25500
X50500Y-15500
X50500Y-20500
X50500Y-36000
X50500Y-45000
X50500Y-50000
X50500Y-56500
X51250Y-31500
X54500Y-40000
X55500Y-15500
X55500Y-20500
X55500Y-26000
X55500Y-30250
X55500Y-45000
X55500Y-50000
X55500Y-56500
X56250Y-36000
X59750Y-34500
X60500Y-15500
X60500Y-20500
X60500Y-25750
X60500Y-30500
X60500Y-37250
X60500Y-40000
X60500Y-45000
X60500Y-50000
X60500Y-56500
X64750Y-27500
X65500Y-15500
X65500Y-20750
X65500Y-30500
X65500Y-35500
X65500Y-40000
X65500Y-45000
X65500Y-50000
X65500Y-56500
X68500Y-39750
X69750Y-30500
X70500Y-15500
X70500Y-20500
X70500Y-25500
X70500Y-34500
X70500Y-45000
X70500Y-50000
X72000Y-55500
X73500Y-34500
X74250Y-50750
X74750Y-30500
X75000Y-40500
X75000Y-45250
X75000Y-55500
X75250Y-26750
X75500Y-15500
X75500Y-20750
X80000Y-40500
X80000Y-45500
X80000Y-50500
X80000Y-55500
X80500Y-15500
X80500Y-20750
X80500Y-26750
X80500Y-30000
X80500Y-35000
X83750Y-40000
X85000Y-26750
X85500Y-15500
X85500Y-21000
X85500Y-45750
X85500Y-50500
X85500Y-56500
X86500Y-30000
X86500Y-34750
X90500Y-15500
X90500Y-56500
X90850Y-30400
X97250Y-15500
X97250Y-20500
X97250Y-25500
X97250Y-30500
X97250Y-35500
X97250Y-40500
X97250Y-45500
X97250Y-50500
X97250Y-56500
T4
X40500Y-36250
X40500Y-36750
X41000Y-36250
X41000Y-36750
X41500Y-36250
X41500Y-36750
X42000Y-36250
X42000Y-36750
X42500Y-36250
X42500Y-36750
T5
X32484Y-21433
X32917Y-21000
X33350Y-21433
X33783Y-21000
X34217Y-21433
X34650Y-21000
X35083Y-21433
X35516Y-21000
T6
X32307Y-19752
X32622Y-18000
X33606Y-18000
X34213Y-42500
X34213Y-47500
X34213Y-52500
X34394Y-18000
X35000Y-42500
X35000Y-47500
X35000Y-52500
X35378Y-18000
X35693Y-19752
X35787Y-42500
X35787Y-47500
X35787Y-52500
X39213Y-42500
X39213Y-47500
X39213Y-52500
X40000Y-42500
X40000Y-47500
X40000Y-52500
X40787Y-42500
X40787Y-47500
X40787Y-52500
X44213Y-42500
X44213Y-47500
X44213Y-52500
X45000Y-42500
X45000Y-47500
X45000Y-52500
X45787Y-42500
X45787Y-47500
X45787Y-52500
X49213Y-42500
X49213Y-47500
X49213Y-52500
X50000Y-42500
X50000Y-47500
X50000Y-52500
X50787Y-42500
X50787Y-47500
X50787Y-52500
X54213Y-42500
X54213Y-47500
X54213Y-52500
X55000Y-42500
X55000Y-47500
X55000Y-52500
X55787Y-42500
X55787Y-47500
X55787Y-52500
X59213Y-42500
X59213Y-47500
X59213Y-52500
X60000Y-42500
X60000Y-47500
X60000Y-52500
X60787Y-42500
X60787Y-47500
X60787Y-52500
X64213Y-42500
X64213Y-47500
X64213Y-52500
X65000Y-42500
X65000Y-47500
X65000Y-52500
X65787Y-42500
X65787Y-47500
X65787Y-52500
X69213Y-42500
X69213Y-47500
X69213Y-52500
X70000Y-42500
X70000Y-47500
X70000Y-52500
X70787Y-42500
X70787Y-47500
X70787Y-52500
X76713Y-37500
X76713Y-42500
X76713Y-47500
X76713Y-52500
X77500Y-37500
X77500Y-42500
X77500Y-47500
X77500Y-52500
X78287Y-37500
X78287Y-42500
X78287Y-47500
X78287Y-52500
X81713Y-37500
X81713Y-42500
X81713Y-47500
X81713Y-52500
X82500Y-37500
X82500Y-42500
X82500Y-47500
X82500Y-52500
X83287Y-37500
X83287Y-42500
X83287Y-47500
X83287Y-52500
T7
X35000Y-35000
X35000Y-36000
X35000Y-37000
X35000Y-38000
X35000Y-39000
X35000Y-40000
X45000Y-22000
X46000Y-22000
X47000Y-22000
X48000Y-22000
X49000Y-22000
X50000Y-22000
X51000Y-22000
X52000Y-22000
X53000Y-22000
X54000Y-22000
X55000Y-22000
X56000Y-22000
X57000Y-22000
X58000Y-22000
X59000Y-22000
X60000Y-22000
X61000Y-22000
X62000Y-22000
X63000Y-22000
X64000Y-22000
X78000Y-21750
X78000Y-22750
X79000Y-21750
X79000Y-22750
X80000Y-21750
X80000Y-22750
X81000Y-21750
X81000Y-22750
X82000Y-21750
X82000Y-22750
T8
X33016Y-27244
X33016Y-32953
X33720Y-44114
X33720Y-45886
X33720Y-49114
X33720Y-50886
X33720Y-54114
X33720Y-55886
X34000Y-32953
X34984Y-27244
X34984Y-32953
X36280Y-44114
X36280Y-45886
X36280Y-49114
X36280Y-50886
X36280Y-54114
X36280Y-55886
X38720Y-44114
X38720Y-45886
X38720Y-49114
X38720Y-50886
X38720Y-54114
X38720Y-55886
X41220Y-39114
X41220Y-40886
X41280Y-44114
X41280Y-45886
X41280Y-49114
X41280Y-50886
X41280Y-54114
X41280Y-55886
X43720Y-44114
X43720Y-45886
X43720Y-49114
X43720Y-50886
X43720Y-54114
X43720Y-55886
X43780Y-39114
X43780Y-40886
X46280Y-44114
X46280Y-45886
X46280Y-49114
X46280Y-50886
X46280Y-54114
X46280Y-55886
X47220Y-39114
X47220Y-40886
X48720Y-44114
X48720Y-45886
X48720Y-49114
X48720Y-50886
X48720Y-54114
X48720Y-55886
X49780Y-39114
X49780Y-40886
X51280Y-44114
X51280Y-45886
X51280Y-49114
X51280Y-50886
X51280Y-54114
X51280Y-55886
X53220Y-39114
X53220Y-40886
X53720Y-44114
X53720Y-45886
X53720Y-49114
X53720Y-50886
X53720Y-54114
X53720Y-55886
X55780Y-39114
X55780Y-40886
X56280Y-44114
X56280Y-45886
X56280Y-49114
X56280Y-50886
X56280Y-54114
X56280Y-55886
X58720Y-44114
X58720Y-45886
X58720Y-49114
X58720Y-50886
X58720Y-54114
X58720Y-55886
X59220Y-39114
X59220Y-40886
X61280Y-44114
X61280Y-45886
X61280Y-49114
X61280Y-50886
X61280Y-54114
X61280Y-55886
X61780Y-39114
X61780Y-40886
X63720Y-44114
X63720Y-45886
X63720Y-49114
X63720Y-50886
X63720Y-54114
X63720Y-55886
X65220Y-39114
X65220Y-40886
X66280Y-44114
X66280Y-45886
X66280Y-49114
X66280Y-50886
X66280Y-54114
X66280Y-55886
X67780Y-39114
X67780Y-40886
X68720Y-44114
X68720Y-45886
X68720Y-49114
X68720Y-50886
X68720Y-54114
X68720Y-55886
X71280Y-44114
X71280Y-45886
X71280Y-49114
X71280Y-50886
X71280Y-54114
X71280Y-55886
X76220Y-39114
X76220Y-40886
X76220Y-44114
X76220Y-45886
X76220Y-49114
X76220Y-50886
X76220Y-54114
X76220Y-55886
X78780Y-39114
X78780Y-40886
X78780Y-44114
X78780Y-45886
X78780Y-49114
X78780Y-50886
X78780Y-54114
X78780Y-55886
X81220Y-39114
X81220Y-40886
X81220Y-44114
X81220Y-45886
X81220Y-49114
X81220Y-50886
X81220Y-54114
X81220Y-55886
X83780Y-39114
X83780Y-40886
X83780Y-44114
X83780Y-45886
X83780Y-49114
X83780Y-50886
X83780Y-54114
X83780Y-55886
T10
X31250Y-45000
X31250Y-55000
X73750Y-45000
X73750Y-55000
T11
X31559Y-30000
X36441Y-30000
T12
X40000Y-18000
X45000Y-18000
X50000Y-18000
X55000Y-18000
X60000Y-18000
X65000Y-18000
X70000Y-18000
X75000Y-18000
X80000Y-18000
X85000Y-18000
X90000Y-18000
X90000Y-23000
X90000Y-28000
X90000Y-33000
X90000Y-38000
X90000Y-43000
X90000Y-48000
X90000Y-53000
X95000Y-18000
X95000Y-23000
X95000Y-28000
X95000Y-33000
X95000Y-38000
X95000Y-43000
X95000Y-48000
X95000Y-53000
T3
X50394Y-16701G85X49606Y-16701
G05
X50394Y-19890G85X49606Y-19890
G05
X55394Y-16701G85X54606Y-16701
G05
X55394Y-19890G85X54606Y-19890
G05
X60394Y-16701G85X59606Y-16701
G05
X60394Y-19890G85X59606Y-19890
G05
X65394Y-16701G85X64606Y-16701
G05
X65394Y-19890G85X64606Y-19890
G05
X70394Y-16701G85X69606Y-16701
G05
X70394Y-19890G85X69606Y-19890
G05
X75394Y-16701G85X74606Y-16701
G05
X75394Y-19890G85X74606Y-19890
G05
X80394Y-16701G85X79606Y-16701
G05
X80394Y-19890G85X79606Y-19890
G05
X85394Y-16701G85X84606Y-16701
G05
X85394Y-19890G85X84606Y-19890
G05
X90394Y-16701G85X89606Y-16701
G05
X90394Y-19890G85X89606Y-19890
G05
X90394Y-21701G85X89606Y-21701
G05
X90394Y-24890G85X89606Y-24890
G05
X90394Y-26701G85X89606Y-26701
G05
X90394Y-29890G85X89606Y-29890
G05
X90394Y-31701G85X89606Y-31701
G05
X90394Y-34890G85X89606Y-34890
G05
X90394Y-36701G85X89606Y-36701
G05
X90394Y-39890G85X89606Y-39890
G05
X90394Y-41701G85X89606Y-41701
G05
X90394Y-44890G85X89606Y-44890
G05
X90394Y-46701G85X89606Y-46701
G05
X90394Y-49890G85X89606Y-49890
G05
X90394Y-51701G85X89606Y-51701
G05
X90394Y-54890G85X89606Y-54890
G05
X95394Y-16701G85X94606Y-16701
G05
X95394Y-19890G85X94606Y-19890
G05
X95394Y-21701G85X94606Y-21701
G05
X95394Y-24890G85X94606Y-24890
G05
X95394Y-26701G85X94606Y-26701
G05
X95394Y-29890G85X94606Y-29890
G05
X95394Y-31701G85X94606Y-31701
G05
X95394Y-34890G85X94606Y-34890
G05
X95394Y-36701G85X94606Y-36701
G05
X95394Y-39890G85X94606Y-39890
G05
X95394Y-41701G85X94606Y-41701
G05
X95394Y-44890G85X94606Y-44890
G05
X95394Y-46701G85X94606Y-46701
G05
X95394Y-49890G85X94606Y-49890
G05
X95394Y-51701G85X94606Y-51701
G05
X95394Y-54890G85X94606Y-54890
G05
T6
X39665Y-16701G85X40335Y-16701
G05
X39665Y-19772G85X40335Y-19772
G05
X41732Y-17350G85X41732Y-18020
G05
X44665Y-16701G85X45335Y-16701
G05
X44665Y-19772G85X45335Y-19772
G05
X46732Y-17350G85X46732Y-18020
G05
T8
X48150Y-18079G85X48150Y-17921
G05
X51850Y-18295G85X51850Y-17705
G05
X53150Y-18079G85X53150Y-17921
G05
X56850Y-18295G85X56850Y-17705
G05
X58150Y-18079G85X58150Y-17921
G05
X61850Y-18295G85X61850Y-17705
G05
X63150Y-18079G85X63150Y-17921
G05
X66850Y-18295G85X66850Y-17705
G05
X68150Y-18079G85X68150Y-17921
G05
X71850Y-18295G85X71850Y-17705
G05
X73150Y-18079G85X73150Y-17921
G05
X76850Y-18295G85X76850Y-17705
G05
X78150Y-18079G85X78150Y-17921
G05
X81850Y-18295G85X81850Y-17705
G05
X83150Y-18079G85X83150Y-17921
G05
X86850Y-18295G85X86850Y-17705
G05
X88150Y-18079G85X88150Y-17921
G05
X88150Y-23079G85X88150Y-22921
G05
X88150Y-28079G85X88150Y-27921
G05
X88150Y-33079G85X88150Y-32921
G05
X88150Y-38079G85X88150Y-37921
G05
X88150Y-43079G85X88150Y-42921
G05
X88150Y-48079G85X88150Y-47921
G05
X88150Y-53079G85X88150Y-52921
G05
X91850Y-18295G85X91850Y-17705
G05
X91850Y-23295G85X91850Y-22705
G05
X91850Y-28295G85X91850Y-27705
G05
X91850Y-33295G85X91850Y-32705
G05
X91850Y-38295G85X91850Y-37705
G05
X91850Y-43295G85X91850Y-42705
G05
X91850Y-48295G85X91850Y-47705
G05
X91850Y-53295G85X91850Y-52705
G05
X93150Y-18079G85X93150Y-17921
G05
X93150Y-23079G85X93150Y-22921
G05
X93150Y-28079G85X93150Y-27921
G05
X93150Y-33079G85X93150Y-32921
G05
X93150Y-38079G85X93150Y-37921
G05
X93150Y-43079G85X93150Y-42921
G05
X93150Y-48079G85X93150Y-47921
G05
X93150Y-53079G85X93150Y-52921
G05
X96850Y-18295G85X96850Y-17705
G05
X96850Y-23295G85X96850Y-22705
G05
X96850Y-28295G85X96850Y-27705
G05
X96850Y-33295G85X96850Y-32705
G05
X96850Y-38295G85X96850Y-37705
G05
X96850Y-43295G85X96850Y-42705
G05
X96850Y-48295G85X96850Y-47705
G05
X96850Y-53295G85X96850Y-52705
G05
T9
X31413Y-17567G85X31413Y-17961
G05
X33803Y-16354G85X34197Y-16354
G05
X36587Y-17567G85X36587Y-17961
G05
T0
M30
